<svg xmlns="http://www.w3.org/2000/svg" width="100" height="100" viewBox="0 0 100 100">
  <g id="Grupo_1113274" data-name="Grupo 1113274" transform="translate(-619.571 -578)">
    <rect id="Rectángulo_407495" data-name="Rectángulo 407495" width="100" height="100" rx="10" transform="translate(619.571 578)" fill="#81c784"/>
    <g id="Grupo_1113273" data-name="Grupo 1113273" transform="translate(634.143 592.5)">
      <g id="Grupo_1113270" data-name="Grupo 1113270" transform="translate(1.181 1.181)">
        <path id="Trazado_882294" data-name="Trazado 882294" d="M72.153,10.669v-.307A2.362,2.362,0,0,0,69.791,8H55.619a2.362,2.362,0,0,0-2.362,2.362v.307A30.7,30.7,0,0,0,32,39.886H93.41A30.7,30.7,0,0,0,72.153,10.669Z" transform="translate(-28.457 -8)" fill="#ffde17"/>
        <path id="Trazado_882295" data-name="Trazado 882295" d="M74.134,224H10.362A2.362,2.362,0,0,0,8,226.362v2.362a2.362,2.362,0,0,0,2.362,2.362H74.134a2.362,2.362,0,0,0,2.362-2.362v-2.362A2.362,2.362,0,0,0,74.134,224Z" transform="translate(-8 -192.114)" fill="#ffde17"/>
      </g>
      <path id="Trazado_882296" data-name="Trazado 882296" d="M104.686,332.724A4.724,4.724,0,0,0,99.962,328H52.724A4.724,4.724,0,0,0,48,332.724v9.448a7.086,7.086,0,0,0,7.086,7.086h7.086a14.161,14.161,0,0,0,12.176-6.913,2.338,2.338,0,0,1,3.992,0,14.161,14.161,0,0,0,12.176,6.913H97.6a7.086,7.086,0,0,0,7.086-7.086h0Zm-49.6,0a2.362,2.362,0,0,0-2.362,2.362A2.362,2.362,0,0,1,55.086,332.724Z" transform="translate(-40.914 -279.581)" fill="#e6e7e8"/>
      <g id="Grupo_1113271" data-name="Grupo 1113271" transform="translate(1.181 53.143)">
        <path id="Trazado_882297" data-name="Trazado 882297" d="M432,384h5.9v5.9H432Z" transform="translate(-369.409 -380.457)" fill="#a7a9ac"/>
        <path id="Trazado_882298" data-name="Trazado 882298" d="M432,360h5.9v3.543H432Z" transform="translate(-369.409 -360)" fill="#a7a9ac"/>
        <path id="Trazado_882299" data-name="Trazado 882299" d="M8,392v5.9h5.9V392Z" transform="translate(-8 -387.276)" fill="#a7a9ac"/>
        <path id="Trazado_882300" data-name="Trazado 882300" d="M8,368h5.9v3.543H8Z" transform="translate(-8 -366.819)" fill="#a7a9ac"/>
      </g>
      <g id="Grupo_1113272" data-name="Grupo 1113272">
        <path id="Trazado_882301" data-name="Trazado 882301" d="M67.315,31.886h-.047A31.735,31.735,0,0,0,46,3.007,3.543,3.543,0,0,0,42.514,0H28.343a3.543,3.543,0,0,0-3.489,3.007A31.735,31.735,0,0,0,3.59,31.886H3.543A3.543,3.543,0,0,0,0,35.429v2.362a3.543,3.543,0,0,0,3.543,3.543H67.315a3.543,3.543,0,0,0,3.543-3.543V35.429A3.543,3.543,0,0,0,67.315,31.886ZM24.8,5.54V25.981a1.181,1.181,0,1,0,2.362,0V3.543a1.181,1.181,0,0,1,1.181-1.181h5.9V28.343a1.181,1.181,0,0,0,2.362,0V2.362h5.9A1.181,1.181,0,0,1,43.7,3.543V25.981a1.181,1.181,0,1,0,2.362,0V5.54A29.382,29.382,0,0,1,64.905,31.886H5.952A29.382,29.382,0,0,1,24.8,5.54ZM68.5,37.791a1.181,1.181,0,0,1-1.181,1.181H3.543a1.181,1.181,0,0,1-1.181-1.181V35.429a1.181,1.181,0,0,1,1.181-1.181H67.315A1.181,1.181,0,0,1,68.5,35.429Z" fill="#231f20"/>
        <path id="Trazado_882302" data-name="Trazado 882302" d="M90.9,352H75.543A3.543,3.543,0,0,0,72,355.543v4.724a1.181,1.181,0,0,0,2.362,0v-4.724a1.181,1.181,0,0,1,1.181-1.181H90.9a1.181,1.181,0,1,0,0-2.362Z" transform="translate(-61.371 -300.038)" fill="#231f20"/>
        <path id="Trazado_882303" data-name="Trazado 882303" d="M69.676,324.724H64.835A5.915,5.915,0,0,0,59.048,320H11.81a5.912,5.912,0,0,0-5.9,5.9H1.181A1.181,1.181,0,0,0,0,327.086v9.448a1.181,1.181,0,0,0,1.181,1.181H6.259a8.277,8.277,0,0,0,7.912,5.9h7.086a15.436,15.436,0,0,0,13.189-7.488,1.159,1.159,0,0,1,1.965,0A15.436,15.436,0,0,0,49.6,343.619h7.086a8.267,8.267,0,0,0,8.172-7.086h4.818a1.181,1.181,0,0,0,1.181-1.181V325.9A1.181,1.181,0,0,0,69.676,324.724ZM68.5,328.267H64.953v-1.181H68.5Zm-62.591,0v1.181H2.362v-1.181Zm-3.543,7.086V331.81H5.9v3.543Zm54.324,5.9H49.6a13.066,13.066,0,0,1-11.162-6.338,3.519,3.519,0,0,0-6.023,0,13.066,13.066,0,0,1-11.158,6.338H14.171a5.912,5.912,0,0,1-5.9-5.9V325.9a3.543,3.543,0,0,1,3.543-3.543H59.048a3.543,3.543,0,0,1,3.543,3.543v9.448A5.912,5.912,0,0,1,56.686,341.257Zm8.267-7.086v-3.543H68.5v3.543Z" transform="translate(0 -272.762)" fill="#231f20"/>
        <path id="Trazado_882304" data-name="Trazado 882304" d="M227.543,352h-2.362a1.181,1.181,0,0,0,0,2.362h2.362a1.181,1.181,0,1,0,0-2.362Z" transform="translate(-190.933 -300.038)" fill="#231f20"/>
      </g>
    </g>
  </g>
</svg>
