<svg xmlns="http://www.w3.org/2000/svg" width="85" height="126" viewBox="0 0 85 126">
  <g id="Grupo_1113289" data-name="Grupo 1113289" transform="translate(-179.711 -2281)">
    <rect id="Rectángulo_407620" data-name="Rectángulo 407620" width="85" height="126" rx="10" transform="translate(179.711 2281)" fill="#75b8fb"/>
    <g id="Grupo_1113288" data-name="Grupo 1113288" transform="translate(190.711 2308)">
      <g id="Grupo_1113286" data-name="Grupo 1113286">
        <g id="Grupo_1113280" data-name="Grupo 1113280">
          <path id="Trazado_882307" data-name="Trazado 882307" d="M29,29.06l.3.05A13.481,13.481,0,0,0,29,32H8a4.829,4.829,0,0,1,1.41-3.41L14,24H8a4.829,4.829,0,0,1,1.41-3.41L14,16H8V14.99a1.934,1.934,0,0,1,.83-1.58,27.272,27.272,0,0,0,8.76-10.5,1.547,1.547,0,0,1,2.82,0,27.272,27.272,0,0,0,8.76,10.5A1.934,1.934,0,0,1,30,14.99V16H24l4.59,4.59A4.829,4.829,0,0,1,30,24H24l4.59,4.59a4.76,4.76,0,0,1,.41.47Z" fill="#8cc152"/>
        </g>
        <g id="Grupo_1113281" data-name="Grupo 1113281">
          <path id="Trazado_882308" data-name="Trazado 882308" d="M50,35a4,4,0,0,1-7.73,1.45A13.482,13.482,0,0,0,43,32a12.436,12.436,0,0,0-2-7V24a3.961,3.961,0,0,1,1.5-3.1A3.956,3.956,0,0,1,42,19a4,4,0,0,1,4-4c.05,0,.09.01.14.01a3.98,3.98,0,0,1,7.72,0c.05,0,.09-.01.14-.01a4,4,0,0,1,4,4,3.956,3.956,0,0,1-.5,1.9,3.951,3.951,0,0,1,.54,5.68,3.969,3.969,0,0,1-.31,7.01A3.887,3.887,0,0,1,58,35a4,4,0,0,1-8,0Z" fill="#b4dd7f"/>
        </g>
        <g id="Grupo_1113282" data-name="Grupo 1113282">
          <path id="Trazado_882309" data-name="Trazado 882309" d="M41,25a12.436,12.436,0,0,1,2,7,13.482,13.482,0,0,1-.73,4.45C41.12,39.74,38.75,42,36,42c-3.87,0-7-4.48-7-10a13.482,13.482,0,0,1,.3-2.89C30.17,25,32.84,22,36,22A6.191,6.191,0,0,1,41,25Z" fill="#a0d468"/>
        </g>
        <g id="Grupo_1113283" data-name="Grupo 1113283">
          <path id="Trazado_882310" data-name="Trazado 882310" d="M49.88,47.22c.06-.02.11-.04.17-.06A2.958,2.958,0,0,1,51,47a3,3,0,0,1,3,3H38a3,3,0,0,1,2.02-2.82c0-.06-.02-.12-.02-.18a3.986,3.986,0,0,1,7.47-1.95A2.963,2.963,0,0,1,49.88,47.22Z" fill="#a0d468"/>
        </g>
        <g id="Grupo_1113284" data-name="Grupo 1113284">
          <path id="Trazado_882311" data-name="Trazado 882311" d="M27,42a4,4,0,0,1,2.65,7l-.76,1H13.28l-.93-1a3.99,3.99,0,0,1,1.66-6.86c0-.05-.01-.09-.01-.14a4,4,0,0,1,4-4,3.657,3.657,0,0,1,1,.13,3.953,3.953,0,0,1,2.47,1.92A4.748,4.748,0,0,1,22,40a3.984,3.984,0,0,1,3.59,2.27A3.887,3.887,0,0,1,27,42Z" fill="#b4dd7f"/>
        </g>
        <g id="Grupo_1113285" data-name="Grupo 1113285">
          <path id="Trazado_882312" data-name="Trazado 882312" d="M48,58h3a2.015,2.015,0,0,1,2,2,2.006,2.006,0,0,1-2,2H12a2.015,2.015,0,0,1-2-2,2.006,2.006,0,0,1,2-2H4a2.006,2.006,0,0,1-2-2,2.015,2.015,0,0,1,2-2H7a2.006,2.006,0,0,0,2-2,2.015,2.015,0,0,1,2-2H60a2.006,2.006,0,0,1,2,2,2.015,2.015,0,0,1-2,2H48a2.006,2.006,0,0,0-2,2,2.015,2.015,0,0,0,2,2Z" fill="#69d6f4"/>
        </g>
      </g>
      <g id="Grupo_1113287" data-name="Grupo 1113287">
        <path id="Trazado_882313" data-name="Trazado 882313" d="M60,49H54.858A4,4,0,0,0,51,46V38.974A4.948,4.948,0,0,0,54,40a5.006,5.006,0,0,0,5-5,4.73,4.73,0,0,0-.1-.943,4.969,4.969,0,0,0,.494-7.709,4.914,4.914,0,0,0-.7-5.684A4.817,4.817,0,0,0,59,19a5.007,5.007,0,0,0-4.416-4.966,4.98,4.98,0,0,0-9.168,0A5.007,5.007,0,0,0,41,19a4.817,4.817,0,0,0,.3,1.664,4.954,4.954,0,0,0-1.091,2A6.457,6.457,0,0,0,36,21a6.779,6.779,0,0,0-5.027,2.455,5.872,5.872,0,0,0-1.68-3.576L26.414,17H31V14.986a2.96,2.96,0,0,0-1.249-2.393A26.289,26.289,0,0,1,21.315,2.484a2.548,2.548,0,0,0-4.63,0A26.258,26.258,0,0,1,8.248,12.593,2.962,2.962,0,0,0,7,14.986V17h4.586L8.707,19.879A5.868,5.868,0,0,0,7,24v1h4.586L8.707,27.879A5.868,5.868,0,0,0,7,32v1H18v4a5.007,5.007,0,0,0-4.966,4.416A4.991,4.991,0,0,0,11,49a3,3,0,0,0-3,3,1,1,0,0,1-1,1H4a3,3,0,0,0,0,6H9.184A2.966,2.966,0,0,0,9,60a3,3,0,0,0,3,3H51a3,3,0,1,0,0-6H48a1,1,0,0,1,0-2H60a3,3,0,1,0,0-6Zm-7.29,0H39.295a1.992,1.992,0,0,1,1.052-.878l.694-.242-.024-.735A.6.6,0,0,0,41,47a2.987,2.987,0,0,1,5.6-1.461l.237.421.478.075a1.99,1.99,0,0,1,1.6,1.446l.294,1.086,1.044-.42A2.009,2.009,0,0,1,52.71,49ZM37,42.9a7.99,7.99,0,0,0,5.444-4.413A5.018,5.018,0,0,0,46,40a4.948,4.948,0,0,0,3-1.026v5.592a3.944,3.944,0,0,0-.9-.4,4.985,4.985,0,0,0-9.075,2.372A4.008,4.008,0,0,0,37.131,49H37Zm6.129-21.226.649-.524-.4-.732A2.973,2.973,0,0,1,45.935,16l.971.05.2-.786a2.983,2.983,0,0,1,5.789,0l.2.786.812-.034c.053,0,.106-.008.093-.013a3,3,0,0,1,3,3,2.962,2.962,0,0,1-.379,1.422l-.4.732.649.524a2.94,2.94,0,0,1,.4,4.25l-.765.9,1.016.6A2.973,2.973,0,0,1,57.3,32.69l-.823.4.323.855A3,3,0,1,1,51,35V32.352l3.781-4.727-1.563-1.25L51,29.148V19H49v6.148l-2.219-2.773-1.563,1.25L49,28.352V35a3,3,0,0,1-5.662,1.369A14.513,14.513,0,0,0,44,32a13.518,13.518,0,0,0-2-7.251V24a2.978,2.978,0,0,1,1.129-2.321ZM36,23c3.309,0,6,4.037,6,9,0,4.451-2.167,8.147-5,8.865V33.352l3.781-4.727-1.563-1.25L37,30.148V27H35v7.7l-2.168-3.252-1.664,1.109L35,38.3v2.562c-2.833-.717-5-4.414-5-8.865,0-4.963,2.691-9,6-9Zm-6.166,2a12.183,12.183,0,0,0-1.072,2.347L26.414,25ZM10.121,29.293,14.414,25H16V23H9.135a3.86,3.86,0,0,1,.986-1.707L14.414,17H16V15H9v-.014a.946.946,0,0,1,.413-.768,28.267,28.267,0,0,0,9.08-10.879.566.566,0,0,1,1.014,0,28.282,28.282,0,0,0,9.079,10.879.946.946,0,0,1,.414.768L22,15v2h1.586l4.293,4.293A3.841,3.841,0,0,1,28.865,23H22v2h1.586l4.293,4.293a3.819,3.819,0,0,1,.31.353c-.07.442-.122.893-.152,1.354H9.135A3.851,3.851,0,0,1,10.121,29.293ZM20,33h8.037c.339,5.142,3.261,9.266,6.963,9.9V49H30.984A4.984,4.984,0,0,0,27,41a4.723,4.723,0,0,0-.943.1A4.942,4.942,0,0,0,22,39h-.021A5.012,5.012,0,0,0,20,37.434ZM14.261,43.1l.786-.2-.034-.812A.3.3,0,0,0,15,42v0a2.987,2.987,0,0,1,5.6-1.458l.421.584.677-.1A2.438,2.438,0,0,1,22,41a2.971,2.971,0,0,1,2.69,1.7l.4.826.857-.326a2.993,2.993,0,0,1,3.038,5.047L28.4,49H13.717l-.7-.75A2.99,2.99,0,0,1,14.261,43.1ZM60,53H48a3,3,0,0,0-3,3,2.966,2.966,0,0,0,.184,1H43v2h8a1,1,0,0,1,0,2H12a1,1,0,0,1,0-2h6V57H4a1,1,0,0,1,0-2H7a3,3,0,0,0,3-3,1,1,0,0,1,1-1H60a1,1,0,0,1,0,2Z"/>
        <path id="Trazado_882314" data-name="Trazado 882314" d="M24,55.5A2.5,2.5,0,0,0,21.5,53H18v2h3.5a.5.5,0,0,1,.5.5A2.5,2.5,0,0,0,24.5,58H28V56H24.5A.5.5,0,0,1,24,55.5Z"/>
      </g>
    </g>
  </g>
</svg>
