<svg id="Grupo_1115102" data-name="Grupo 1115102" xmlns="http://www.w3.org/2000/svg" width="40" height="40" viewBox="0 0 40 40">
  <path id="Trazado_884955" data-name="Trazado 884955" d="M35.293,20a15.229,15.229,0,0,0-.814-4.925l2.572-1.1-.923-2.155-2.576,1.1a15.4,15.4,0,0,0-6.8-6.64l1.041-2.6L25.62,2.81l-1.04,2.6a15.193,15.193,0,0,0-3.408-.656V0H20A20,20,0,0,0,5.858,34.142,19.87,19.87,0,0,0,20,40h1.172V35.249a15.186,15.186,0,0,0,3.754-.769l1.1,2.572,2.155-.923-1.1-2.576a15.4,15.4,0,0,0,6.64-6.8l2.6,1.041.871-2.176-2.6-1.04a15.239,15.239,0,0,0,.7-4.58ZM21.172,11.841a8.242,8.242,0,0,1,0,16.317ZM7.515,7.515A17.525,17.525,0,0,1,18.828,2.382V18.828H15.293a3.529,3.529,0,0,0-3.525,3.525,1.183,1.183,0,0,1-1.182,1.182H2.7a17.744,17.744,0,0,1-.313-2.363h3.5a3.525,3.525,0,1,0,0-7.051H3.342A17.592,17.592,0,0,1,7.515,7.515ZM2.383,18.828A17.746,17.746,0,0,1,2.7,16.465H5.879a1.182,1.182,0,0,1,0,2.363Zm.959,7.051h7.244a3.529,3.529,0,0,0,3.525-3.525,1.183,1.183,0,0,1,1.182-1.182h3.535V32.949H17.646a3.562,3.562,0,0,0-3.525,3.525v.184A17.744,17.744,0,0,1,3.342,25.879ZM16.465,37.3v-.83a1.209,1.209,0,0,1,1.181-1.181h1.182v2.325A17.746,17.746,0,0,1,16.465,37.3ZM21.172,32.9V30.521a10.586,10.586,0,0,0,0-21.041V7.1a12.949,12.949,0,0,1,0,25.791Z" fill="#144735"/>
  <path id="Trazado_884956" data-name="Trazado 884956" d="M474.875,241h2.9v2.344h-2.9Z" transform="translate(-437.775 -222.172)" fill="#144735"/>
  <path id="Trazado_884957" data-name="Trazado 884957" d="M0,0H2.344V2.9H0Z" transform="translate(31.256 32.92) rotate(-45)" fill="#144735"/>
  <path id="Trazado_884958" data-name="Trazado 884958" d="M0,0H2.9V2.344H0Z" transform="translate(31.259 7.083) rotate(-45)" fill="#144735"/>
</svg>
