<svg xmlns="http://www.w3.org/2000/svg" width="85" height="85" viewBox="0 0 85 85">
  <g id="Grupo_1115092" data-name="Grupo 1115092" transform="translate(-619.711 -3822)">
    <rect id="Rectángulo_407636" data-name="Rectángulo 407636" width="85" height="85" rx="10" transform="translate(619.711 3822)" fill="#81c784"/>
    <g id="Grupo_1115091" data-name="Grupo 1115091" transform="translate(631.711 3834)">
      <g id="Grupo_1115089" data-name="Grupo 1115089">
        <g id="Grupo_1115077" data-name="Grupo 1115077">
          <path id="Trazado_884933" data-name="Trazado 884933" d="M50,33a5,5,0,0,1-5-5c0-.04.01-.07.01-.1a5.058,5.058,0,0,1-2.05-.01,4.993,4.993,0,0,1-.72-9.56A4.178,4.178,0,0,1,42,17a3.994,3.994,0,0,1,2.16-3.55,5.5,5.5,0,0,0,2.29-2.29,4.054,4.054,0,0,1,.55-.8,3.994,3.994,0,0,1,6.55.8,5.5,5.5,0,0,0,2.29,2.29A3.994,3.994,0,0,1,58,17a3.926,3.926,0,0,1-.25,1.33,4.991,4.991,0,0,1-.71,9.56,5.058,5.058,0,0,1-2.05.01c0,.03.01.06.01.1A5,5,0,0,1,50,33Z" fill="#a0d468"/>
        </g>
        <g id="Grupo_1115078" data-name="Grupo 1115078">
          <path id="Trazado_884934" data-name="Trazado 884934" d="M42,17a4.178,4.178,0,0,0,.24,1.33A4.988,4.988,0,0,0,39,22.99V25a5,5,0,0,1-5-5c0-.04.01-.07.01-.1a5.058,5.058,0,0,1-2.05-.01,4.993,4.993,0,0,1-.72-9.56A4.178,4.178,0,0,1,31,9a3.994,3.994,0,0,1,2.16-3.55,5.5,5.5,0,0,0,2.29-2.29,4,4,0,0,1,7.1,0,5.5,5.5,0,0,0,2.29,2.29A3.994,3.994,0,0,1,47,9v1.36a4.054,4.054,0,0,0-.55.8,5.5,5.5,0,0,1-2.29,2.29A3.994,3.994,0,0,0,42,17Z" fill="#b4dd7f"/>
        </g>
        <g id="Grupo_1115079" data-name="Grupo 1115079">
          <path id="Trazado_884935" data-name="Trazado 884935" d="M54.25,45c-3.88,0-3.88-2-7.76-2s-3.87,2-7.75,2-3.87-2-7.75-2-3.87,2-7.75,2a7.216,7.216,0,0,1-2.8-.49h-.01c-1.47-.6-2.32-1.51-4.94-1.51-2.64,0-3.48.93-4.97,1.52A7.146,7.146,0,0,1,7.75,45C4.24,45,3.91,43.31,1,43V61H61V43.05C58.09,43.36,57.76,45,54.25,45Z" fill="#69d6f4"/>
        </g>
        <g id="Grupo_1115080" data-name="Grupo 1115080">
          <path id="Trazado_884936" data-name="Trazado 884936" d="M61,39v4.05c-2.91.31-3.24,1.95-6.75,1.95-3.88,0-3.88-2-7.76-2s-3.87,2-7.75,2-3.87-2-7.75-2-3.87,2-7.75,2a7.216,7.216,0,0,1-2.8-.49,12.045,12.045,0,0,0,5.09-3.04A8.228,8.228,0,0,0,27.24,39H61Z" fill="#cf9e76"/>
        </g>
        <g id="Grupo_1115081" data-name="Grupo 1115081">
          <path id="Trazado_884937" data-name="Trazado 884937" d="M28,35.5a8.421,8.421,0,0,1-.64,3.23l-.12.27a8.228,8.228,0,0,1-1.71,2.47,12.045,12.045,0,0,1-5.09,3.04h-.01c-1.47-.6-2.32-1.51-4.94-1.51-2.64,0-3.48.93-4.97,1.52A4.669,4.669,0,0,1,8.7,42.87a4.558,4.558,0,0,1,1.33-6.22L11,36a4.38,4.38,0,0,1-1-3,4,4,0,1,1,4,4h3.5a13.685,13.685,0,0,0,4.27-.69A13.5,13.5,0,0,0,25.6,34.3a1.543,1.543,0,0,1,.9-.3A1.5,1.5,0,0,1,28,35.5Z" fill="#e6e9ed"/>
        </g>
        <g id="Grupo_1115082" data-name="Grupo 1115082">
          <path id="Trazado_884938" data-name="Trazado 884938" d="M51.04,51.72,52,53l-.96,1.28a6.779,6.779,0,0,1-8.47,2L38,54V52l4.57-2.28a6.757,6.757,0,0,1,6.07,0,6.692,6.692,0,0,1,2.4,2Z" fill="#fcd770"/>
        </g>
        <g id="Grupo_1115083" data-name="Grupo 1115083">
          <path id="Trazado_884939" data-name="Trazado 884939" d="M38,52v2l-2,3a4,4,0,1,1,0-8Z" fill="#fcd770"/>
        </g>
        <g id="Grupo_1115084" data-name="Grupo 1115084">
          <path id="Trazado_884940" data-name="Trazado 884940" d="M15,61H5c0-2.12,2.05-3.85,4.65-3.99C9.76,57,9.88,57,10,57a6.17,6.17,0,0,1,1.63.22A4.183,4.183,0,0,1,15,61Z" fill="#aab2bd"/>
        </g>
        <g id="Grupo_1115085" data-name="Grupo 1115085">
          <path id="Trazado_884941" data-name="Trazado 884941" d="M20.1,55.57c1.74.71,2.9,1.98,2.9,3.43a3.04,3.04,0,0,1-.8,2H15a4.183,4.183,0,0,0-3.37-3.78A6.727,6.727,0,0,1,17,55,8.393,8.393,0,0,1,20.1,55.57Z" fill="#ccd1d9"/>
        </g>
        <g id="Grupo_1115086" data-name="Grupo 1115086">
          <path id="Trazado_884942" data-name="Trazado 884942" d="M17,55a6.727,6.727,0,0,0-5.37,2.22A6.17,6.17,0,0,0,10,57c-.12,0-.24,0-.35.01A20.556,20.556,0,0,0,6,49h.39A6.746,6.746,0,0,1,12,52l2-4,2,4,.88-.88A7.236,7.236,0,0,1,22,49a18.949,18.949,0,0,0-1.9,6.57A8.393,8.393,0,0,0,17,55Z" fill="#b4dd7f"/>
        </g>
        <g id="Grupo_1115087" data-name="Grupo 1115087">
          <path id="Trazado_884943" data-name="Trazado 884943" d="M22,12l-.07.05A6.82,6.82,0,0,0,19,19a6.809,6.809,0,0,0-6.95,2.93L12,22l-.05-.07A6.82,6.82,0,0,0,5,19a6.825,6.825,0,0,0,.12-1.27,6.819,6.819,0,0,0-3.05-5.68L2,12l.07-.05A6.82,6.82,0,0,0,5,5a6.825,6.825,0,0,0,1.27.12,6.819,6.819,0,0,0,5.68-3.05L12,2l.05.07A6.82,6.82,0,0,0,19,5a6.809,6.809,0,0,0,2.93,6.95Z" fill="#ffc729"/>
        </g>
        <g id="Grupo_1115088" data-name="Grupo 1115088">
          <circle id="Elipse_11659" data-name="Elipse 11659" cx="5" cy="5" r="5" transform="translate(7 7)" fill="#fcd770"/>
        </g>
      </g>
      <g id="Grupo_1115090" data-name="Grupo 1115090">
        <path id="Trazado_884944" data-name="Trazado 884944" d="M51,38V33.909A6.01,6.01,0,0,0,55.917,29a5.647,5.647,0,0,0,1.318-.125,5.991,5.991,0,0,0,1.7-11.094A4.459,4.459,0,0,0,59,17a4.99,4.99,0,0,0-2.693-4.438,4.428,4.428,0,0,1-1.87-1.87,5,5,0,0,0-6.476-2.257,4.981,4.981,0,0,0-2.655-3.873,4.428,4.428,0,0,1-1.87-1.87,5,5,0,0,0-8.873,0,4.433,4.433,0,0,1-1.87,1.87A4.987,4.987,0,0,0,30,9a4.577,4.577,0,0,0,.067.781,5.991,5.991,0,0,0,1.7,11.094A6.375,6.375,0,0,0,33.082,21,6.013,6.013,0,0,0,38,25.91V38H28.657A9.433,9.433,0,0,0,29,35.5a2.5,2.5,0,0,0-4-2,12.58,12.58,0,0,1-6.99,2.489,5.031,5.031,0,0,0,.858-4.154,4.95,4.95,0,0,0-3.7-3.7,5.02,5.02,0,0,0-4.28.957,4.965,4.965,0,0,0-1.823,3.17l-2.378.793.633,1.9,1.829-.61a5.7,5.7,0,0,0,.47,1.382l-.14.093A5.567,5.567,0,0,0,8.27,43.983c-.166.01-.337.017-.523.017a6.2,6.2,0,0,1-3.4-.91,8.14,8.14,0,0,0-3.241-1.084L0,41.888V62H62V38Zm1.663-26.383a6.453,6.453,0,0,0,2.72,2.72A2.944,2.944,0,0,1,56.813,18l-.33.925.919.347a3.991,3.991,0,0,1-.565,7.646,4.11,4.11,0,0,1-1.646,0l-1.235-.254.034,1.261c0,.042.005.083.011.126a4,4,0,0,1-3,3.807V23.567l4.515-2.709-1.029-1.715L51,21.234V18.586l-3.293-3.293-1.414,1.414L49,19.414v4.82l-3.485-2.091-1.029,1.715L49,26.566v5.292a4,4,0,0,1-3-3.809l.045-1.385-1.235.254a4.11,4.11,0,0,1-1.646,0,3.991,3.991,0,0,1-.565-7.646l.919-.347L43.188,18A2.937,2.937,0,0,1,43,17a2.991,2.991,0,0,1,1.617-2.663,6.459,6.459,0,0,0,2.72-2.72,3,3,0,0,1,5.326,0ZM35,20.049l.045-1.385-1.235.254a4.11,4.11,0,0,1-1.646,0,3.991,3.991,0,0,1-.565-7.646l.919-.347L32.188,10A2.937,2.937,0,0,1,32,9a2.991,2.991,0,0,1,1.617-2.663,6.459,6.459,0,0,0,2.72-2.72,3,3,0,0,1,5.326,0,6.453,6.453,0,0,0,2.72,2.72A2.991,2.991,0,0,1,46,9v1.01a5.118,5.118,0,0,0-.437.683,4.433,4.433,0,0,1-1.87,1.87A4.987,4.987,0,0,0,41,17a4.576,4.576,0,0,0,.067.781A5.913,5.913,0,0,0,40,18.567V10.585L36.707,7.292,35.293,8.706,38,11.414v4.82l-3.485-2.091-1.029,1.715L38,18.566v5.292a4,4,0,0,1-3-3.809Zm5,7.41a5.907,5.907,0,0,0,2.765,1.416A6.515,6.515,0,0,0,44.083,29,6.013,6.013,0,0,0,49,33.91V38H40ZM9,40.44a3.554,3.554,0,0,1,1.585-2.962l1.938-1.313-.805-.861A3.461,3.461,0,0,1,11,33a3,3,0,1,1,3,3v2h3.5a14.583,14.583,0,0,0,8.7-2.9.518.518,0,0,1,.8.4,7.4,7.4,0,0,1-2.182,5.268,11.073,11.073,0,0,1-4.353,2.662c-.215-.1-.424-.207-.64-.318A8.282,8.282,0,0,0,15.494,42a8.3,8.3,0,0,0-4.333,1.111c-.194.1-.384.2-.576.288A3.538,3.538,0,0,1,9,40.44ZM21.7,60H15.879a5.046,5.046,0,0,0-2.423-3.08A6.873,6.873,0,0,1,17,56c2.71,0,5,1.374,5,3A1.876,1.876,0,0,1,21.7,60Zm-2.432-5.738A9.859,9.859,0,0,0,17,54a8.1,8.1,0,0,0-5.731,2.115,7.1,7.1,0,0,0-.847-.1,21.7,21.7,0,0,0-2.388-5.78,5.727,5.727,0,0,1,3.134,2.317l.956,1.434L14,50.236l1.726,3.452,1.86-1.86a6.2,6.2,0,0,1,2.78-1.613,19.785,19.785,0,0,0-1.1,4.047ZM10,58a4.085,4.085,0,0,1,3.754,2H6.246A4.085,4.085,0,0,1,10,58Zm50,2H23.846A3.736,3.736,0,0,0,24,59a4.689,4.689,0,0,0-2.807-4.023,17.86,17.86,0,0,1,1.7-5.53L23.618,48H22a8.188,8.188,0,0,0-5.726,2.313L14,45.764l-2.212,4.424A7.719,7.719,0,0,0,6.395,48H4l1.2,1.6a19.656,19.656,0,0,1,3.216,6.582A5.518,5.518,0,0,0,4.121,60H2V44.22a8.168,8.168,0,0,1,1.409.637A8.145,8.145,0,0,0,7.747,46a8.3,8.3,0,0,0,4.332-1.111A6.344,6.344,0,0,1,15.494,44a6.343,6.343,0,0,1,3.414.889A8.307,8.307,0,0,0,23.241,46a8.31,8.31,0,0,0,4.333-1.111A6.351,6.351,0,0,1,30.99,44a6.351,6.351,0,0,1,3.416.889,9.011,9.011,0,0,0,8.669,0,7.013,7.013,0,0,1,6.835,0,9.015,9.015,0,0,0,8.671,0A8.412,8.412,0,0,1,60,44.266Zm0-17.8a8.985,8.985,0,0,0-2.336.912,7.022,7.022,0,0,1-6.838,0,9.011,9.011,0,0,0-8.669,0,7.009,7.009,0,0,1-6.833,0A8.308,8.308,0,0,0,30.99,42a8.308,8.308,0,0,0-4.334,1.111,6.381,6.381,0,0,1-2.687.857,13.034,13.034,0,0,0,2.263-1.786A9.494,9.494,0,0,0,27.861,40H60Z"/>
        <path id="Trazado_884945" data-name="Trazado 884945" d="M45.6,48a7.839,7.839,0,0,0-3.485.823l-3.776,1.888L36.535,48H36a5,5,0,0,0,0,10h.535l1.807-2.711,3.776,1.888a7.793,7.793,0,0,0,9.72-2.294L53.25,53l-1.412-1.883A7.833,7.833,0,0,0,45.6,48ZM35.493,55.957a3,3,0,0,1,0-5.914L37,52.3V53.7Zm14.745-2.274a5.792,5.792,0,0,1-7.225,1.705L39,53.382v-.764l4.013-2.006a5.793,5.793,0,0,1,7.226,1.705L50.75,53Z"/>
        <circle id="Elipse_11660" data-name="Elipse 11660" cx="1" cy="1" r="1" transform="translate(46 51)"/>
        <circle id="Elipse_11661" data-name="Elipse 11661" cx="1" cy="1" r="1" transform="translate(12 32)"/>
        <path id="Trazado_884946" data-name="Trazado 884946" d="M4.018,18.815l-.271,1.439,1.439-.271a5.846,5.846,0,0,1,5.984,2.575l.88,1.174.829-1.247a5.815,5.815,0,0,1,5.936-2.5l1.439.271-.271-1.439a5.822,5.822,0,0,1,2.5-5.937l1.253-.923-1.253-.833a5.82,5.82,0,0,1-2.5-5.937l.271-1.439-1.439.271a5.847,5.847,0,0,1-5.984-2.575L11.951.268l-.829,1.247a5.815,5.815,0,0,1-5.936,2.5l-1.44-.271.271,1.439a5.851,5.851,0,0,1-2.571,5.982l-1.185.878,1.253.833a5.822,5.822,0,0,1,2.5,5.937Zm2.1-12.7a7.8,7.8,0,0,0,5.877-2.5,7.74,7.74,0,0,0,5.889,2.5A7.806,7.806,0,0,0,20.379,12a7.809,7.809,0,0,0-2.5,5.882,7.915,7.915,0,0,0-5.877,2.5,7.812,7.812,0,0,0-5.732-2.5H6.118a7.821,7.821,0,0,0-2.5-5.876,7.811,7.811,0,0,0,2.5-5.887Z"/>
        <path id="Trazado_884947" data-name="Trazado 884947" d="M12,18a6,6,0,1,0-6-6A6.006,6.006,0,0,0,12,18ZM12,8a4,4,0,1,1-4,4A4,4,0,0,1,12,8Z"/>
      </g>
    </g>
  </g>
</svg>
