<svg xmlns="http://www.w3.org/2000/svg" width="40" height="40.002" viewBox="0 0 40 40.002">
  <g id="Grupo_1115101" data-name="Grupo 1115101" transform="translate(-0.013)">
    <path id="Trazado_884948" data-name="Trazado 884948" d="M470.01,60.252h3.281V62.6H470.01Z" transform="translate(-433.278 -55.545)" fill="#144735"/>
    <path id="Trazado_884949" data-name="Trazado 884949" d="M470.01,120.5h2.344v2.344H470.01Z" transform="translate(-433.278 -111.088)" fill="#144735"/>
    <path id="Trazado_884950" data-name="Trazado 884950" d="M470.01,180.752h3.281V183.1H470.01Z" transform="translate(-433.278 -166.631)" fill="#144735"/>
    <path id="Trazado_884951" data-name="Trazado 884951" d="M470.01,241h2.344v2.344H470.01Z" transform="translate(-433.278 -222.175)" fill="#144735"/>
    <path id="Trazado_884952" data-name="Trazado 884952" d="M470.01,301.25h3.281v2.344H470.01Z" transform="translate(-433.278 -277.715)" fill="#144735"/>
    <path id="Trazado_884953" data-name="Trazado 884953" d="M35.306,26.833V3.525a3.525,3.525,0,0,0-7.051,0V8.5a16.469,16.469,0,1,0-3.418,25.691,7.055,7.055,0,0,0,14-1.243A7.057,7.057,0,0,0,35.306,26.833ZM30.6,3.525a1.182,1.182,0,1,1,2.363,0V9.414H30.6Zm-15.288,2.4V8.232a3.529,3.529,0,0,0,3.525,3.525H21.19a1.182,1.182,0,0,1,0,2.363H11.776A3.529,3.529,0,0,0,8.25,17.647a1.183,1.183,0,0,1-1.182,1.182H2.406a14.149,14.149,0,0,1,12.905-12.9ZM10.6,31.768v1.076a14.155,14.155,0,0,1-8.2-11.671H7.069a3.529,3.529,0,0,0,3.525-3.525,1.183,1.183,0,0,1,1.182-1.182H21.19a3.525,3.525,0,1,0,0-7.051H18.836a1.183,1.183,0,0,1-1.182-1.182V5.923a14.135,14.135,0,0,1,10.6,6.28v6.626H18.836a3.525,3.525,0,1,0,0,7.051,1.182,1.182,0,0,1,0,2.363H14.129A3.562,3.562,0,0,0,10.6,31.768Zm14.309-.439a14.117,14.117,0,0,1-11.965,2.35V31.768a1.209,1.209,0,0,1,1.181-1.181h4.707a3.525,3.525,0,0,0,0-7.051,1.182,1.182,0,1,1,0-2.363h9.419v5.66A7.049,7.049,0,0,0,24.912,31.328Zm6.754,6.327a4.746,4.746,0,0,1-4.6-4.671,4.927,4.927,0,0,1,3.53-4.666V11.758h2.363V28.318a4.892,4.892,0,0,1,3.53,4.626,4.751,4.751,0,0,1-4.827,4.711Z" transform="translate(0 0)" fill="#144735"/>
    <path id="Trazado_884954" data-name="Trazado 884954" d="M391.636,406.69h2.344v2.344h-2.344Z" transform="translate(-361.027 -374.917)" fill="#144735"/>
  </g>
</svg>
