<svg xmlns="http://www.w3.org/2000/svg" width="40" height="39.999" viewBox="0 0 40 39.999">
  <g id="Grupo_1115104" data-name="Grupo 1115104" transform="translate(0 -0.004)">
    <path id="Trazado_884963" data-name="Trazado 884963" d="M15.87,255.154a6.975,6.975,0,0,0-4.113-2.286v-2.459h1.182a5.885,5.885,0,0,0,5.879-5.879v-1.172H15.293a5.853,5.853,0,0,0-3.9,1.486,5.889,5.889,0,0,0-5.513-3.839H2.353v1.172a5.885,5.885,0,0,0,5.879,5.879H9.414v4.813A6.976,6.976,0,0,0,5.3,255.154,5.887,5.887,0,0,0,0,261v1.172H40v-2.344H21.054a5.892,5.892,0,0,0-5.184-4.679Zm-.577-9.452h.982a3.541,3.541,0,0,1-3.335,2.363h-.982A3.542,3.542,0,0,1,15.293,245.7Zm-7.06.01A3.541,3.541,0,0,1,4.9,243.349h.982a3.541,3.541,0,0,1,3.335,2.363ZM2.543,259.833a3.7,3.7,0,0,1,3.922-2.363,4.916,4.916,0,0,1,4.12-2.354,4.915,4.915,0,0,1,4.12,2.354,3.677,3.677,0,0,1,3.922,2.363Z" transform="translate(0 -222.173)" fill="#144735"/>
    <path id="Trazado_884964" data-name="Trazado 884964" d="M152.738,186.791l-1.173-2.029a5.9,5.9,0,0,0-2.938,5.092h2.344A3.549,3.549,0,0,1,152.738,186.791Z" transform="translate(-137.015 -170.324)" fill="#144735"/>
    <path id="Trazado_884965" data-name="Trazado 884965" d="M219.874,19.471a3.23,3.23,0,0,0,4.856.4l7.5-7.5a3.227,3.227,0,0,0-.179-4.68l1.508-1.508a2.847,2.847,0,0,0,.839-2.026,2.9,2.9,0,0,0-2.865-2.866h-8.419L221.315,0l-3.651,3.651-2.435-2.435-1.657,1.657,2.435,2.435-3.644,3.644,2.066,2.892-3.554.219v6.291l8.55.484ZM231.535,3.634a.51.51,0,0,1,.369.891L230.129,6.3,226.4,3.634Zm-13.87,3.335,2.9,2.9,1.657-1.657-2.9-2.9,2.247-2.247,8.9,6.357a.832.832,0,0,1,.107,1.292l-7.5,7.5a.832.832,0,0,1-1.292-.107l-6.357-8.9Zm-4.445,9.175V14.271l2.817-.174,1.642,2.3Z" transform="translate(-194.401)" fill="#144735"/>
  </g>
</svg>
