<svg xmlns="http://www.w3.org/2000/svg" width="103" height="69.944" viewBox="0 0 103 69.944">
  <g id="Grupo_1111817" data-name="Grupo 1111817" transform="translate(-179.711 -11161)">
    <path id="Trazado_881693" data-name="Trazado 881693" d="M76.176,67.145a1.2,1.2,0,0,1,1.663-1.723.53.53,0,0,0,.74-.758.543.543,0,0,0-.374-.153,2.928,2.928,0,1,1,1.855-5.192,1.2,1.2,0,0,1-1.519,1.852.529.529,0,0,0-.707.783.511.511,0,0,0,.371.158,2.927,2.927,0,1,1-2.029,5.033ZM71.547,60.35a1.2,1.2,0,0,1,2.4,0v6.416a1.2,1.2,0,1,1-2.4,0Zm13.708-1.7c3.386,0,5.076,4.884,2.82,7.829a3.419,3.419,0,0,1-5.642,0C80.179,63.537,81.867,58.653,85.255,58.653Zm.919,2.94c-1-1.3-2.361-.047-2.361,1.719s1.366,3.017,2.361,1.714a3.059,3.059,0,0,0,0-3.433ZM79.532,50.624A12.687,12.687,0,1,1,66.845,63.312,12.686,12.686,0,0,1,79.532,50.624Zm7.276,5.412a10.286,10.286,0,1,0,0,14.547,10.287,10.287,0,0,0,0-14.547ZM81.927,45.4l2.247,2.085a1.088,1.088,0,0,0,.907.285l3.042-.362A3.525,3.525,0,0,1,92,50.232l.6,3.008a1.069,1.069,0,0,0,.554.761l2.676,1.5a3.516,3.516,0,0,1,1.48,4.552L96.02,62.834a1.1,1.1,0,0,0,0,.949L97.3,66.566a3.521,3.521,0,0,1-1.48,4.557l-2.676,1.493a1.081,1.081,0,0,0-.438.438L98.1,84.329a1.2,1.2,0,0,1-1.366,1.677l-6.178-1.528-2.642,5.072a1.2,1.2,0,0,1-2.191-.137l-3.817-8.182a3.494,3.494,0,0,1-4.744,0l-3.817,8.182a1.2,1.2,0,0,1-2.191.137l-2.642-5.072-6.106,1.51a1.2,1.2,0,0,1-1.451-1.651l1.711-3.676H34.582a3.853,3.853,0,0,1-3.842-3.847V24.1a3.853,3.853,0,0,1,3.842-3.847h42.3A3.853,3.853,0,0,1,80.724,24.1V44.672a3.589,3.589,0,0,1,1.2.732Zm9.944,31.45a3.523,3.523,0,0,1-3.748,2.353l-3.042-.362c-.63-.077-.889.276-1.331.681l3.156,6.765,1.953-3.752h0a1.191,1.191,0,0,1,1.349-.608l4.638,1.145ZM75.316,79.526c-.438-.4-.7-.758-1.327-.681l-3.047.362a3.521,3.521,0,0,1-3.791-2.489L64.19,83.079l4.668-1.148a1.2,1.2,0,0,1,1.349.608l1.957,3.752Zm-9.045-6.607a1.121,1.121,0,0,0-.348-.3l-2.676-1.493a3.523,3.523,0,0,1-1.484-4.557l1.285-2.783a1.065,1.065,0,0,0,0-.949l-1.285-2.783A3.518,3.518,0,0,1,63.247,55.5L65.923,54a1.074,1.074,0,0,0,.549-.761l.6-3.008a3.524,3.524,0,0,1,3.872-2.82l3.047.362a1.074,1.074,0,0,0,.9-.285l2.251-2.085a3.562,3.562,0,0,1,1.183-.728V24.1a1.45,1.45,0,0,0-1.442-1.442h-42.3A1.45,1.45,0,0,0,33.14,24.1V76.815a1.454,1.454,0,0,0,1.442,1.447h29.2ZM82.553,49.242,80.3,47.162a1.14,1.14,0,0,0-1.54,0l-2.247,2.08a3.45,3.45,0,0,1-2.808.919l-3.047-.366a1.125,1.125,0,0,0-1.238.9l-.6,3.008a3.457,3.457,0,0,1-1.744,2.4l-2.676,1.493a1.133,1.133,0,0,0-.468,1.459l1.285,2.783a3.426,3.426,0,0,1,0,2.957L63.937,67.57a1.132,1.132,0,0,0,.468,1.459l2.676,1.5a3.429,3.429,0,0,1,1.744,2.4l.6,3a1.122,1.122,0,0,0,1.238.9l3.047-.362a3.45,3.45,0,0,1,2.808.919l2.247,2.08a1.146,1.146,0,0,0,1.54,0l2.251-2.08a3.44,3.44,0,0,1,2.808-.919l3.042.362a1.126,1.126,0,0,0,1.243-.9l.6-3a3.432,3.432,0,0,1,1.74-2.4l2.676-1.5a1.13,1.13,0,0,0,.473-1.459l-1.285-2.783a3.425,3.425,0,0,1,0-2.957l1.285-2.783a1.13,1.13,0,0,0-.473-1.459L91.982,56.1a3.448,3.448,0,0,1-1.74-2.4l-.6-3.008a1.13,1.13,0,0,0-1.243-.9l-3.042.366A3.44,3.44,0,0,1,82.553,49.242ZM61.186,31.555a1.2,1.2,0,0,1,0-2.4h9.492a1.2,1.2,0,1,1,0,2.4Zm0,5.493a1.2,1.2,0,0,1,0-2.4h9.492a1.2,1.2,0,1,1,0,2.4ZM37.063,27.195H56.647a1.2,1.2,0,0,1,1.2,1.2V37.8a1.2,1.2,0,0,1-1.2,1.2H37.063a1.2,1.2,0,0,1-1.2-1.2V28.394A1.2,1.2,0,0,1,37.063,27.195Zm18.383,2.4H38.263v7.012H55.447ZM49.686,71.071a1.2,1.2,0,0,1,0-2.4h8.819a1.2,1.2,0,1,1,0,2.4Zm0-4.288a1.2,1.2,0,0,1,0-2.4h7.956a1.2,1.2,0,0,1,0,2.4Zm0-11.415a1.2,1.2,0,0,1,0-2.4h8.982a1.2,1.2,0,1,1,0,2.4Zm0-4.29a1.2,1.2,0,1,1,0-2.4h9.378a1.2,1.2,0,0,1,0,2.4ZM37.063,62.435h8.446a1.2,1.2,0,0,1,1.2,1.2v8.182a1.2,1.2,0,0,1-1.2,1.2H37.063a1.2,1.2,0,0,1-1.2-1.2V63.634A1.2,1.2,0,0,1,37.063,62.435Zm7.245,2.4H38.263v5.782h6.046ZM37.063,46.791h8.446a1.2,1.2,0,0,1,1.2,1.2v8.182a1.2,1.2,0,0,1-1.2,1.2H37.063a1.2,1.2,0,0,1-1.2-1.2V47.99A1.2,1.2,0,0,1,37.063,46.791Zm7.245,2.4H38.263v5.782h6.046Z" transform="translate(148.971 11140.75)" fill="#12263f"/>
    <rect id="Rectángulo_408090" data-name="Rectángulo 408090" width="45" height="19" rx="4" transform="translate(237.711 11161.113)" fill="#fff"/>
    <text id="_50001" data-name="50001" transform="translate(241.711 11175.113)" fill="#12263f" font-size="13" font-family="Roboto-Bold, Roboto" font-weight="700"><tspan x="0" y="0">50001</tspan></text>
  </g>
</svg>
