<svg id="Grupo_1107362" data-name="Grupo 1107362" xmlns="http://www.w3.org/2000/svg" width="122.486" height="122.487" viewBox="0 0 122.486 122.487">
  <rect id="Rectángulo_402033" data-name="Rectángulo 402033" width="122.486" height="122.486" rx="5" transform="translate(0)" fill="#d7f5ea"/>
  <g id="Grupo_1115233" data-name="Grupo 1115233" transform="translate(7 17.631)">
    <g id="Grupo_1115231" data-name="Grupo 1115231" transform="translate(14.092 1.278)">
      <path id="Trazado_885063" data-name="Trazado 885063" d="M103.7,383.58H36.177l3.335-13.627a13.931,13.931,0,0,1,13.355-11.2H87.009a13.931,13.931,0,0,1,13.355,11.2Z" transform="translate(-33.475 -298.911)" fill="#ffd15b"/>
      <path id="Trazado_885064" data-name="Trazado 885064" d="M331.154,383.58h-4.124l-3.336-13.627a13.928,13.928,0,0,0-13.355-11.2h4.126a13.931,13.931,0,0,1,13.355,11.2Z" transform="translate(-260.93 -298.911)" fill="#ffc344"/>
      <path id="Trazado_885065" data-name="Trazado 885065" d="M153.069,358.75l1.785,6.548a4.145,4.145,0,0,0,6.476,2.234l5.586-4.162v-4.62Z" transform="translate(-130.453 -298.911)" fill="#fea613"/>
      <path id="Trazado_885066" data-name="Trazado 885066" d="M180.638,358.75v4.62l-5.586,4.162a4.15,4.15,0,0,1-5.443-.424Z" transform="translate(-144.175 -298.911)" fill="#fe9901"/>
      <path id="Trazado_885067" data-name="Trazado 885067" d="M248.2,358.75l-1.785,6.548a4.145,4.145,0,0,1-6.476,2.234l-5.586-4.162v-4.62Z" transform="translate(-197.886 -298.911)" fill="#fea613"/>
      <path id="Trazado_885068" data-name="Trazado 885068" d="M274.96,358.75l-1.785,6.549a4.145,4.145,0,0,1-6.475,2.233l-.09-.066a4.1,4.1,0,0,0,1.431-2.167l1.785-6.549Z" transform="translate(-224.65 -298.911)" fill="#fe9901"/>
      <path id="Trazado_885069" data-name="Trazado 885069" d="M36.314,466.9H22.161a1.847,1.847,0,0,0-1.847,1.846v2.712a1.847,1.847,0,0,0,1.847,1.846H36.314Z" transform="translate(-20.314 -388.638)" fill="#eaf6ff"/>
      <path id="Trazado_885070" data-name="Trazado 885070" d="M88.809,466.9h4.332v6.406H88.809Z" transform="translate(-77.14 -388.636)" fill="#c8effe"/>
      <path id="Trazado_885071" data-name="Trazado 885071" d="M354.463,466.9h14.154a1.847,1.847,0,0,1,1.847,1.846v2.712a1.847,1.847,0,0,1-1.847,1.846H354.463Z" transform="translate(-297.537 -388.638)" fill="#eaf6ff"/>
      <path id="Trazado_885072" data-name="Trazado 885072" d="M421.592,468.747v2.712a1.847,1.847,0,0,1-1.847,1.847h-3.656a1.846,1.846,0,0,0,1.845-1.847v-2.712a1.846,1.846,0,0,0-1.845-1.847h3.656A1.847,1.847,0,0,1,421.592,468.747Z" transform="translate(-348.664 -388.636)" fill="#c8effe"/>
      <path id="Trazado_885073" data-name="Trazado 885073" d="M198.678,300.3H174.4l41.448-41.47a1.573,1.573,0,0,1,2.224,0l9.922,9.922a1.573,1.573,0,0,1,0,2.224Z" transform="translate(-148.149 -215.635)" fill="#e49280"/>
      <path id="Trazado_885074" data-name="Trazado 885074" d="M323.356,270.984l-29.315,29.323h-4.7l29.323-29.323a1.572,1.572,0,0,0,0-2.225l-8.688-8.688,1.232-1.233a1.573,1.573,0,0,1,2.223,0l9.922,9.922A1.572,1.572,0,0,1,323.356,270.984Z" transform="translate(-243.513 -215.637)" fill="#dd7f66"/>
      <path id="Trazado_885075" data-name="Trazado 885075" d="M206.99,301.107H192.851v9.82l2.728,2.792a6.071,6.071,0,0,0,8.684,0l2.727-2.792Z" transform="translate(-163.457 -251.088)" fill="#ffdfcf"/>
      <path id="Trazado_885076" data-name="Trazado 885076" d="M230.766,301.11v9.82l-2.727,2.792a6.067,6.067,0,0,1-6.53,1.421,6.015,6.015,0,0,0,2.153-1.421l2.727-2.792v-9.82Z" transform="translate(-187.233 -251.09)" fill="#ffcebf"/>
      <path id="Trazado_885077" data-name="Trazado 885077" d="M68.5,158.03h5.386l1.576-8.446-1.929-8.446H68.5a5.652,5.652,0,0,0-5.443,5.84v5.213A5.652,5.652,0,0,0,68.5,158.03Z" transform="translate(-55.772 -118.371)" fill="#fd3581"/>
      <path id="Trazado_885078" data-name="Trazado 885078" d="M105.936,149.585l-1.576,8.447h-4.218l-.353-16.891h4.218Z" transform="translate(-86.25 -118.373)" fill="#fe0364"/>
      <path id="Trazado_885079" data-name="Trazado 885079" d="M339.793,158.03h-5.386l-1.576-8.446,1.929-8.446h5.034a5.652,5.652,0,0,1,5.443,5.84v5.213A5.652,5.652,0,0,1,339.793,158.03Z" transform="translate(-279.59 -118.371)" fill="#fd3581"/>
      <path id="Trazado_885080" data-name="Trazado 885080" d="M358.343,146.98v5.211a5.653,5.653,0,0,1-5.443,5.84h-4.271a5.653,5.653,0,0,0,5.443-5.84V146.98a5.652,5.652,0,0,0-5.443-5.84H352.9A5.652,5.652,0,0,1,358.343,146.98Z" transform="translate(-292.697 -118.373)" fill="#fe0364"/>
      <path id="Trazado_885081" data-name="Trazado 885081" d="M149.262,98.284H137.208A12.683,12.683,0,0,1,124.525,85.6V59.223l18.71-4.784,18.71,4.784V85.6A12.683,12.683,0,0,1,149.262,98.284Z" transform="translate(-106.772 -46.442)" fill="#ffdfcf"/>
      <path id="Trazado_885082" data-name="Trazado 885082" d="M264.4,77.916v26.379a12.682,12.682,0,0,1-12.682,12.683h-3.7A12.683,12.683,0,0,0,260.7,104.294V76.97Z" transform="translate(-209.227 -65.135)" fill="#ffcebf"/>
      <g id="Grupo_1115230" data-name="Grupo 1115230" transform="translate(33.771 28.345)">
        <path id="Trazado_885083" data-name="Trazado 885083" d="M221.241,183.425h-.009a2.688,2.688,0,0,1-2.688-2.688v-4.164a2.688,2.688,0,0,1,2.688-2.688h.009a2.688,2.688,0,0,1,2.688,2.688v4.164A2.688,2.688,0,0,1,221.241,183.425Z" transform="translate(-218.544 -173.884)" fill="#ffcebf"/>
      </g>
      <path id="Trazado_885084" data-name="Trazado 885084" d="M131.3,7.5H119.153a16.334,16.334,0,0,0-16.335,16.333v6.434h4.195a3.013,3.013,0,0,0,3-3.087V24.544a2.268,2.268,0,0,1,2.6-2.244l7.905,1.173a32.074,32.074,0,0,0,4.707.348,32.075,32.075,0,0,0,4.707-.348l7.905-1.173a2.268,2.268,0,0,1,2.6,2.244v2.636a3.013,3.013,0,0,0,3,3.087h4.195V23.833A16.334,16.334,0,0,0,131.3,7.5Z" transform="translate(-88.763 -7.5)" fill="#e49280"/>
      <path id="Trazado_885085" data-name="Trazado 885085" d="M268.322,23.832v6.435h-3.7V23.832A16.335,16.335,0,0,0,248.289,7.5h3.7a16.334,16.334,0,0,1,16.334,16.333Z" transform="translate(-209.451 -7.5)" fill="#dd7f66"/>
      <path id="Trazado_885086" data-name="Trazado 885086" d="M124.523,141.137v6.769a6.011,6.011,0,0,0,3.894,5.627l3.3,1.24a4.831,4.831,0,0,0,5.951-2.226l1.933-3.577a4.061,4.061,0,0,1,7.271,0l1.933,3.577a4.831,4.831,0,0,0,5.951,2.226l3.3-1.24a6.011,6.011,0,0,0,3.894-5.627v-6.769Z" transform="translate(-106.77 -118.37)" fill="#eaf6ff"/>
      <path id="Trazado_885087" data-name="Trazado 885087" d="M291.9,141.14v6.768A6.013,6.013,0,0,1,288,153.535l-3.3,1.24a4.811,4.811,0,0,1-3.545-.058l3.143-1.182a6.013,6.013,0,0,0,3.894-5.627V141.14Z" transform="translate(-236.721 -118.373)" fill="#c8effe"/>
    </g>
    <g id="Grupo_1115232" data-name="Grupo 1115232" transform="translate(12.814 0)">
      <path id="Trazado_885088" data-name="Trazado 885088" d="M89.949,166.859a1.278,1.278,0,0,0-1.278,1.278v5.573a1.278,1.278,0,1,0,2.555,0v-5.573A1.278,1.278,0,0,0,89.949,166.859Z" transform="translate(-75.748 -138.433)"/>
      <path id="Trazado_885089" data-name="Trazado 885089" d="M366.3,174.987a1.278,1.278,0,0,0,1.278-1.278v-5.573a1.278,1.278,0,1,0-2.555,0v5.573A1.278,1.278,0,0,0,366.3,174.987Z" transform="translate(-305.024 -138.433)"/>
      <path id="Trazado_885090" data-name="Trazado 885090" d="M215.376,258.83a4.868,4.868,0,0,0,3.554-1.549,1.278,1.278,0,0,0-1.871-1.74,2.3,2.3,0,0,1-3.365,0,1.278,1.278,0,0,0-1.871,1.74A4.87,4.87,0,0,0,215.376,258.83Z" transform="translate(-177.635 -211.668)"/>
      <path id="Trazado_885091" data-name="Trazado 885091" d="M350.23,319.784l-13.46,13.46a1.278,1.278,0,0,0,1.807,1.807l13.46-13.46a1.278,1.278,0,0,0-1.807-1.807Z" transform="translate(-281.27 -264.995)"/>
      <path id="Trazado_885092" data-name="Trazado 885092" d="M252.411,424.5a1.278,1.278,0,0,0-1.807,0l-12.415,12.415A1.278,1.278,0,0,0,240,438.721l12.415-12.415A1.278,1.278,0,0,0,252.411,424.5Z" transform="translate(-199.483 -351.871)"/>
      <path id="Trazado_885093" data-name="Trazado 885093" d="M376.514,334.25a1.278,1.278,0,0,0,1.807,0l12.659-12.659a1.278,1.278,0,0,0-1.807-1.807l-12.659,12.659A1.278,1.278,0,0,0,376.514,334.25Z" transform="translate(-314.244 -264.995)"/>
      <path id="Trazado_885094" data-name="Trazado 885094" d="M94.839,53.5l-9.922-9.922a2.854,2.854,0,0,0-4.031,0L64.63,59.839H58.9V54.2A13.988,13.988,0,0,0,70.425,42.214h3.869a6.935,6.935,0,0,0,6.72-7.118V29.884a6.935,6.935,0,0,0-6.72-7.117H74.24V17.611A17.632,17.632,0,0,0,56.628,0H44.482A17.656,17.656,0,0,0,31.464,5.749a1.278,1.278,0,1,0,1.888,1.722,15.1,15.1,0,0,1,11.13-4.915H56.628A15.074,15.074,0,0,1,71.685,17.611v5.156H68.768a1.729,1.729,0,0,1-1.722-1.81V18.321a3.546,3.546,0,0,0-4.067-3.508l-7.905,1.173a30.871,30.871,0,0,1-9.039,0l-7.9-1.173a3.546,3.546,0,0,0-4.067,3.508v2.636a1.879,1.879,0,0,1-2.219,1.81h-2.42V17.611a15,15,0,0,1,.917-5.186,1.278,1.278,0,0,0-2.4-.881,17.551,17.551,0,0,0-1.073,6.067v5.156h-.054a6.935,6.935,0,0,0-6.72,7.117V35.1a6.935,6.935,0,0,0,6.72,7.118h3.869A13.988,13.988,0,0,0,42.208,54.2v5.638H33.484a15.155,15.155,0,0,0-14.6,12.188l-1.526,6.237H15.938a3.128,3.128,0,0,0-3.124,3.124V84.1a3.128,3.128,0,0,0,3.124,3.124H30.092a1.278,1.278,0,0,0,1.278-1.278V74.157a1.278,1.278,0,1,0-2.555,0v4.107H19.99l1.38-5.64.005-.023A12.618,12.618,0,0,1,33.484,62.395h2.248L37.261,68a5.465,5.465,0,0,0,8.472,2.922l4.823-3.593,3.776,2.813-14.893,14.9a1.278,1.278,0,0,0,1.808,1.806L82.693,45.381a.3.3,0,0,1,.417,0l1.043,1.043L53.1,77.478a1.278,1.278,0,0,0,1.807,1.807L85.961,48.231,93.032,55.3a.3.3,0,0,1,0,.417L63.717,85.044a1.278,1.278,0,1,0,1.807,1.807l4.216-4.217v3.314a1.278,1.278,0,0,0,1.278,1.278H85.172A3.128,3.128,0,0,0,88.3,84.1V81.389a3.128,3.128,0,0,0-3.124-3.124h-1.42l-1.526-6.236c-.113-.5-.251-.991-.408-1.475L94.839,57.527a2.854,2.854,0,0,0,0-4.031ZM28.815,84.669H15.938a.57.57,0,0,1-.569-.569V81.389a.57.57,0,0,1,.569-.569H28.815ZM50.555,64.46a4.756,4.756,0,0,1-3.428-1.443L44.763,60.6V54.4H56.347v6.2l-2.363,2.419A4.757,4.757,0,0,1,50.555,64.46ZM51.97,32.312v4.164a1.412,1.412,0,0,1-1.411,1.411h-.009a1.412,1.412,0,0,1-1.41-1.411V32.312a1.413,1.413,0,0,1,1.407-1.41A1.5,1.5,0,0,1,51.97,32.312Zm1.393-3.165a5.406,5.406,0,0,0-7.577,2.14l-1.923,3.56a3.567,3.567,0,0,1-4.377,1.638l-3.3-1.24a4.757,4.757,0,0,1-3.066-4.422v-5.5H67.987v5.5a4.757,4.757,0,0,1-3.066,4.418l-3.3,1.24a3.566,3.566,0,0,1-4.376-1.637l-1.923-3.56a5.346,5.346,0,0,0-1.961-2.14Zm20.932-3.824a4.382,4.382,0,0,1,4.165,4.562V35.1a4.382,4.382,0,0,1-4.165,4.562H70.543V25.322ZM36.62,20.957V18.321a.99.99,0,0,1,1.136-.98l7.905,1.173a33.455,33.455,0,0,0,9.788,0l7.906-1.173a.99.99,0,0,1,1.135.98v2.636a4.517,4.517,0,0,0,.373,1.81H36.247a4.518,4.518,0,0,0,.372-1.81ZM22.651,35.1V29.884a4.382,4.382,0,0,1,4.165-4.562h3.752V39.659H26.815A4.382,4.382,0,0,1,22.651,35.1Zm10.472,5.34V36.349a7.222,7.222,0,0,0,2.166,1.286l3.3,1.24a6.132,6.132,0,0,0,7.525-2.815l.474-.877v1.291a3.97,3.97,0,0,0,3.966,3.966h.009a3.97,3.97,0,0,0,3.966-3.966V35.184l.474.877a6.136,6.136,0,0,0,5.392,3.2,6.049,6.049,0,0,0,2.133-.388l3.3-1.24a7.227,7.227,0,0,0,2.166-1.286v4.087a11.418,11.418,0,0,1-11.4,11.405H44.528A11.418,11.418,0,0,1,33.123,40.437ZM44.206,68.874a2.921,2.921,0,0,1-4.48-1.545l-1.345-4.934h4.566L45.3,64.8a7.34,7.34,0,0,0,2.257,1.576Zm9.348-2.5A7.339,7.339,0,0,0,55.811,64.8l2.352-2.407h3.912l-5.935,5.938c-.051-.055-2.587-1.954-2.587-1.954ZM85.74,81.388V84.1a.57.57,0,0,1-.569.569H72.3v-3.85H85.172A.57.57,0,0,1,85.74,81.388Zm-4.62-3.124H74.108l5.633-5.635Z" transform="translate(-12.814 0)"/>
    </g>
  </g>
</svg>
