<svg id="Grupo_1112563" data-name="Grupo 1112563" xmlns="http://www.w3.org/2000/svg" width="122.486" height="122.486" viewBox="0 0 122.486 122.486">
  <rect id="Rectángulo_402033" data-name="Rectángulo 402033" width="122.486" height="122.486" rx="5" transform="translate(0)" fill="#d7f5ea"/>
  <g id="Grupo_1115254" data-name="Grupo 1115254" transform="translate(23.222 22.929)">
    <circle id="Elipse_11666" data-name="Elipse 11666" cx="13" cy="13" r="13" transform="translate(48.222 2.222)" fill="#b3b4b8"/>
    <path id="Trazado_885146" data-name="Trazado 885146" d="M52.806,2a13.136,13.136,0,0,0-8.052,2.754A13.192,13.192,0,0,0,63.26,23.26,13.192,13.192,0,0,0,52.806,2Z" transform="translate(8.229 0.201)" fill="#dbdcde"/>
    <path id="Trazado_885147" data-name="Trazado 885147" d="M20.408,23.2A7.2,7.2,0,0,0,6,23.2v18.01a9.606,9.606,0,0,0,9.606,9.606h8.4V71.232h9.606v-.917a4.343,4.343,0,0,0-2.4-3.885V48.419a6,6,0,0,0-6-6h-4.8Z" transform="translate(1.003 3.01)" fill="#1a5097"/>
    <path id="Trazado_885148" data-name="Trazado 885148" d="M30.813,66.411V48.4a6,6,0,0,0-6-6h-4.8V23.186a7.2,7.2,0,0,0-6-7.1,7.2,7.2,0,0,0-6,7.1V41.2A9.606,9.606,0,0,0,17.606,50.8h8.4V71.214h7.2V70.3A4.344,4.344,0,0,0,30.813,66.411Z" transform="translate(1.405 3.029)" fill="#205fa6"/>
    <path id="Trazado_885149" data-name="Trazado 885149" d="M30.813,66.411V48.4a6,6,0,0,0-6-6h-4.8V23.186a7.2,7.2,0,0,0-6-7.1,7.2,7.2,0,0,0-6,7.1V41.2A9.606,9.606,0,0,0,17.606,50.8h8.4V71.214h7.2V70.3A4.344,4.344,0,0,0,30.813,66.411Z" transform="translate(1.405 3.029)" fill="#205fa6"/>
    <path id="Trazado_885150" data-name="Trazado 885150" d="M31.215,62.415V44.4a6,6,0,0,0-6-6h-4.8V36H6v1.2a9.606,9.606,0,0,0,9.606,9.606h8.4V67.218h9.606V66.3A4.344,4.344,0,0,0,31.215,62.415Z" transform="translate(1.003 7.024)" fill="#347e62"/>
    <path id="Trazado_885151" data-name="Trazado 885151" d="M30.813,62.415V44.4a6,6,0,0,0-6-6h-4.8V36H8v1.2a9.606,9.606,0,0,0,9.606,9.606h6V67.218h9.606V66.3A4.344,4.344,0,0,0,30.813,62.415Z" transform="translate(1.405 7.024)" fill="#3c9271"/>
    <path id="Trazado_885152" data-name="Trazado 885152" d="M13.2,2A7.2,7.2,0,0,0,6,9.2v2.4a7.2,7.2,0,1,0,14.408,0V9.2A7.2,7.2,0,0,0,13.2,2Z" transform="translate(1.003 0.201)" fill="#fbe1d7"/>
    <path id="Trazado_885153" data-name="Trazado 885153" d="M13.2,8h7.1A7.2,7.2,0,0,0,6,9.2v2.4A7.177,7.177,0,0,0,8.216,16.8l4.988-3.99Z" transform="translate(1.003 0.201)" fill="#424344"/>
    <path id="Trazado_885154" data-name="Trazado 885154" d="M19.806,29.606,10.725,25.57a2.912,2.912,0,1,1,2.491-5.263l8.991,4.5h9.606a2.4,2.4,0,0,1,0,4.8Z" transform="translate(1.606 3.813)" fill="#fbe1d7"/>
    <path id="Trazado_885155" data-name="Trazado 885155" d="M6.8,16H2V52.021a3.6,3.6,0,0,0,3.6,3.6H24.813v-4.8h-7.2A10.806,10.806,0,0,1,6.8,40.014Z" transform="translate(0.201 3.01)" fill="#9e8674"/>
    <path id="Trazado_885156" data-name="Trazado 885156" d="M6.4,40.014V16H4V49.62a3.6,3.6,0,0,0,3.6,3.6h16.81v-2.4h-7.2A10.806,10.806,0,0,1,6.4,40.014Z" transform="translate(0.602 3.01)" fill="#826b57"/>
    <path id="Trazado_885157" data-name="Trazado 885157" d="M5,49V64.609H9.8V49" transform="translate(0.803 9.634)" fill="#6d5844"/>
    <path id="Trazado_885158" data-name="Trazado 885158" d="M25,30H56.218v4.8H25Z" transform="translate(4.817 5.82)" fill="#826b57"/>
    <path id="Trazado_885159" data-name="Trazado 885159" d="M32,33.01v-4.8H42.806L46.408,15h4.8l-4.8,18.01" transform="translate(6.222 2.81)" fill="#f5b93f"/>
    <path id="Trazado_885160" data-name="Trazado 885160" d="M51.613,34V67.62H30v-3.6l16.81-1.2V34" transform="translate(5.82 6.623)" fill="#999a9e"/>
    <path id="Trazado_885161" data-name="Trazado 885161" d="M50,5h2.4v8.4H50Z" transform="translate(9.834 0.803)" fill="#205fa6"/>
    <path id="Trazado_885162" data-name="Trazado 885162" d="M0,0H2.4V5.8H0Z" transform="translate(61.483 17.029) rotate(-59.026)" fill="#205fa6"/>
    <path id="Trazado_885163" data-name="Trazado 885163" d="M5,51V64.208H9.8V51" transform="translate(0.803 10.035)" fill="#826b57"/>
    <path id="Trazado_885164" data-name="Trazado 885164" d="M13.217,20.307a2.912,2.912,0,1,0-2.491,5.263L14.5,27.246,17.4,22.4Z" transform="translate(1.606 3.813)" fill="#2b7bbe"/>
    <path id="Trazado_885165" data-name="Trazado 885165" d="M28.2,58H21v4.8h9.606v-.917A4.344,4.344,0,0,0,28.2,58Z" transform="translate(4.014 11.44)" fill="#3d2f23"/>
    <path id="Trazado_885166" data-name="Trazado 885166" d="M30,65.218H49.21V34h-2.4V62.817L30,64.017Z" transform="translate(5.82 6.623)" fill="#b3b4b8"/>
    <path id="Trazado_885167" data-name="Trazado 885167" d="M29.4,32.4H55.817V30H27A2.4,2.4,0,0,0,29.4,32.4Z" transform="translate(5.218 5.82)" fill="#9e8674"/>
    <path id="Trazado_885168" data-name="Trazado 885168" d="M32,28.208v2.4H45.208L49.371,15H46.408l-3.6,13.208Z" transform="translate(6.222 2.81)" fill="#f9d157"/>
    <circle id="Elipse_11667" data-name="Elipse 11667" cx="3" cy="3" r="3" transform="translate(58.222 12.222)" fill="#424344"/>
    <path id="Trazado_885169" data-name="Trazado 885169" d="M61.035,1A14.395,14.395,0,0,0,49.64,24.208l-1.53,5.608H38.222a1.2,1.2,0,0,0-1.2,1.2v3.6h-3.6a3.6,3.6,0,1,0,0-7.2H24.1l-1.484-.742v-.459a8.4,8.4,0,0,0-4.1-7.2,8.4,8.4,0,0,0,4.1-7.2V9.4A8.4,8.4,0,1,0,5.8,9.4v2.4a8.4,8.4,0,0,0,4.1,7.2,8.5,8.5,0,0,0-1.7,1.334V19.01A1.2,1.2,0,0,0,7,17.81H2.2A1.2,1.2,0,0,0,1,19.01V55.031a4.8,4.8,0,0,0,3.6,4.632V74.243a1.2,1.2,0,0,0,1.2,1.2h4.8a1.2,1.2,0,0,0,1.2-1.2V59.834H23.813V74.243a1.2,1.2,0,0,0,1.2,1.2H34.62a1.173,1.173,0,0,0,.6-.184,1.173,1.173,0,0,0,.6.184H57.432a1.2,1.2,0,0,0,1.2-1.2V41.824h2.4a1.2,1.2,0,0,0,1.2-1.2v-4.8a1.2,1.2,0,0,0-1.2-1.2H54.192l1.553-5.82A14.4,14.4,0,1,0,61.035,1ZM23.813,29.817h9.606a1.2,1.2,0,1,1,0,2.4H21.666l-3.835-1.7,1.637-2.728,3.809,1.9a1.189,1.189,0,0,0,.537.127Zm7.2,38.422h-4.8V53.831a1.2,1.2,0,0,0-1.2-1.2h-8.4a8.416,8.416,0,0,1-8.4-8.4H20.211v1.2a1.2,1.2,0,0,0,1.2,1.2h4.8a4.808,4.808,0,0,1,4.8,4.8ZM12.82,28.286A1.711,1.711,0,1,1,14.287,25.2l3.027,1.514-1.693,2.822ZM8.2,11.806V9.4A6,6,0,0,1,19.7,7H14.208a1.2,1.2,0,0,0-1.2,1.2v4.226l-3.632,2.9A5.946,5.946,0,0,1,8.2,11.806Zm2.98,5.157,3.774-3.019a1.2,1.2,0,0,0,.45-.938V9.4h4.8v2.4a6.01,6.01,0,0,1-6,6A5.938,5.938,0,0,1,11.184,16.963Zm3.023,3.248a5.992,5.992,0,0,1,5.924,5.222L15.36,23.047a4.112,4.112,0,1,0-3.517,7.432l8.368,3.72v7.624H8.2V26.215a6.01,6.01,0,0,1,6-6ZM9.4,73.042H7V59.834H9.4ZM5.8,57.433a2.4,2.4,0,0,1-2.4-2.4V20.211H5.8V44.225A10.818,10.818,0,0,0,16.609,55.031h7.2v2.4ZM26.215,73.042v-2.4H31.87a3.108,3.108,0,0,1,1.536,2.4Zm7.2-4.285V51.429a7.211,7.211,0,0,0-7.2-7.2h-3.6V34.62h7.2a1.2,1.2,0,0,0-1.2,1.2v4.8a1.2,1.2,0,0,0,1.2,1.2H51.429v26.5L35.735,69.443a1.185,1.185,0,0,0-.961.642,5.508,5.508,0,0,0-1.356-1.329Zm22.812,4.285H37.021V71.758l15.694-1.121a1.2,1.2,0,0,0,1.115-1.2V41.824h2.4Zm3.6-33.62H31.017v-2.4H59.834Zm-20.412-4.8v-2.4h9.606a1.2,1.2,0,0,0,1.159-.885L53.547,19.01h2.323L51.709,34.62Zm21.613-7.2a11.879,11.879,0,0,1-4.666-.959l2.222-8.336a1.2,1.2,0,0,0-1.159-1.51h-4.8a1.2,1.2,0,0,0-1.159.885l-.989,3.626a12,12,0,1,1,10.553,6.3Z" transform="translate(0 0)"/>
    <path id="Trazado_885170" data-name="Trazado 885170" d="M53.8,14.606a2.394,2.394,0,0,0-1.2-2.068V5H50.2v7.539a2.394,2.394,0,0,0,1.2,4.469,2.366,2.366,0,0,0,1.154-.309l4.231,2.539,1.236-2.059L53.8,14.645c0-.014,0-.026,0-.04Z" transform="translate(9.634 0.803)"/>
  </g>
</svg>
