<svg id="Grupo_1115341" data-name="Grupo 1115341" xmlns="http://www.w3.org/2000/svg" width="122.487" height="122.487" viewBox="0 0 122.487 122.487">
  <rect id="Rectángulo_402033" data-name="Rectángulo 402033" width="122.486" height="122.486" rx="5" transform="translate(0)" fill="#d7f5ea"/>
  <g id="FILLED_OUTLINE" transform="translate(6.854 5.974)">
    <path id="Trazado_885259" data-name="Trazado 885259" d="M167.991,119.949V116A4,4,0,1,0,160,116v3.954a4,4,0,0,0,2.512,3.71l1.484.594,1.484-.594A4,4,0,0,0,167.991,119.949Z" transform="translate(-121.451 -80.77)" fill="#bebebe"/>
    <path id="Trazado_885260" data-name="Trazado 885260" d="M138.273,185.98l-.951-.38-.951.38A13.318,13.318,0,0,0,128,198.346v4.3h18.645v-4.3a13.318,13.318,0,0,0-8.372-12.365Z" transform="translate(-94.778 -142.117)" fill="#bebebe"/>
    <path id="Trazado_885261" data-name="Trazado 885261" d="M73.611,47.591l3.661-1.937-2.124-6.465-4.106.561-3.619-4.926,1.828-3.734-5.559-4-3.025,2.871-5.853-1.882L54.072,24H47.2l-.74,4.082-5.853,1.882-3.025-2.871-5.559,4,1.828,3.734-3.619,4.926-4.106-.561L24,45.654l3.661,1.937V53.68L24,55.618l2.124,6.465,4.106-.561,3.619,4.926-1.828,3.734,5.559,4,3.025-2.871,5.853,1.882.74,4.082h6.872l.74-4.082,5.853-1.882-2.487-5.084a17.295,17.295,0,1,1,8.965-10.357l4.719,5.768,3.284.448,2.124-6.465L73.611,53.68C73.611,50.922,73.611,50.349,73.611,47.591Z" transform="translate(-8.091 -7.42)" fill="#006cda"/>
    <path id="Trazado_885262" data-name="Trazado 885262" d="M327.991,293.64V292A4,4,0,0,0,320,292v1.644a4,4,0,0,0,2.055,3.493L324,298.21l1.94-1.078A4,4,0,0,0,327.991,293.64Z" transform="translate(-254.815 -227.47)" fill="#bebebe"/>
    <path id="Trazado_885263" data-name="Trazado 885263" d="M307.871,351.489l-3.881-2.156-3.881,2.156a7.991,7.991,0,0,0-4.11,6.985v5.953h15.981v-5.953a7.991,7.991,0,0,0-4.11-6.985Z" transform="translate(-234.81 -278.593)" fill="#bebebe"/>
    <path id="Trazado_885264" data-name="Trazado 885264" d="M247.944,227.065V220.88l-3.674-.666-1.694-5.268,2.584-2.723-3.6-5-3.361,1.645-4.433-3.257.5-3.7L228.456,200l-1.744,3.295h-5.48L219.488,200l-5.819,1.912.5,3.7-4.433,3.257-3.361-1.645-3.6,5,2.584,2.723-1.694,5.268L200,220.88v6.185l3.674.666L205.368,233l-2.584,2.723,3.6,5,3.361-1.645,4.433,3.257-.5,3.7,5.819,1.912,1.744-3.295h5.48l1.744,3.295,5.819-1.912-.5-3.7,4.433-3.257,3.361,1.645,3.6-5L242.577,233l1.694-5.268Zm-23.972,11.557a14.65,14.65,0,1,1,14.65-14.65,14.65,14.65,0,0,1-14.65,14.65Z" transform="translate(-154.792 -154.12)" fill="#008afe"/>
    <path id="Trazado_885265" data-name="Trazado 885265" d="M343.761,43.187l-11.277-18.8a2.664,2.664,0,0,0-4.568,0l-11.277,18.8a2.664,2.664,0,0,0,2.284,4.034h22.554a2.664,2.664,0,0,0,2.284-4.034Z" transform="translate(-251.697 -6.668)" fill="#f4c44d"/>
    <rect id="Rectángulo_409505" data-name="Rectángulo 409505" width="2.664" height="9.323" transform="translate(77.171 21.908)" fill="#f4f4f4"/>
    <rect id="Rectángulo_409506" data-name="Rectángulo 409506" width="2.664" height="2.664" transform="translate(77.171 33.894)" fill="#f4f4f4"/>
    <path id="Trazado_885266" data-name="Trazado 885266" d="M91.152,355.129A33.336,33.336,0,0,1,78.2,341.55l2.366-1.222a30.677,30.677,0,0,0,11.918,12.5Z" transform="translate(-53.27 -271.087)" fill="#dfdfdf"/>
    <path id="Trazado_885267" data-name="Trazado 885267" d="M176.826,427.322a33.189,33.189,0,0,1-4.163-1.581l1.111-2.421a30.517,30.517,0,0,0,3.828,1.454Z" transform="translate(-132.006 -340.263)" fill="#dfdfdf"/>
    <path id="Trazado_885268" data-name="Trazado 885268" d="M17.914,283.587a39.968,39.968,0,0,1-.645-4.133l2.65-.272a37.377,37.377,0,0,0,.6,3.857Z" transform="translate(-2.48 -220.12)" fill="#dfdfdf"/>
    <path id="Trazado_885269" data-name="Trazado 885269" d="M63.664,347.464a39.588,39.588,0,0,1-24.255-8.2A40.238,40.238,0,0,1,25.25,318.531l2.561-.733a37.559,37.559,0,0,0,13.217,19.348A36.946,36.946,0,0,0,63.664,344.8Z" transform="translate(-9.133 -252.308)" fill="#dfdfdf"/>
    <path id="Trazado_885270" data-name="Trazado 885270" d="M263.981,248a15.981,15.981,0,1,0,15.982,15.981A15.981,15.981,0,0,0,263.981,248Zm-6.659,27.508v-1.5a6.663,6.663,0,0,1,3.425-5.821l3.234-1.8,3.234,1.8a6.663,6.663,0,0,1,3.425,5.821v1.5a13.27,13.27,0,0,1-13.318,0Zm4-15.209v-1.644a2.664,2.664,0,1,1,5.327,0V260.3a2.665,2.665,0,0,1-1.37,2.329l-1.294.719-1.293-.719a2.665,2.665,0,0,1-1.37-2.329Zm11.971,13.2a9.327,9.327,0,0,0-4.78-7.634l-1.788-.993a5.33,5.33,0,0,0,2.588-4.569v-1.644a5.327,5.327,0,0,0-10.654,0V260.3a5.33,5.33,0,0,0,2.588,4.569l-1.788.993a9.327,9.327,0,0,0-4.78,7.634,13.318,13.318,0,1,1,18.614,0Z" transform="translate(-194.801 -194.129)"/>
    <path id="Trazado_885271" data-name="Trazado 885271" d="M308.742,39.858a3.951,3.951,0,0,0,3.477,2.027h22.554a4,4,0,0,0,3.426-6.051l-11.277-18.8a4,4,0,0,0-6.852,0l-11.277,18.8a3.951,3.951,0,0,0-.051,4.024Zm2.335-2.654,11.277-18.8h0a1.332,1.332,0,0,1,2.284,0l11.277,18.8a1.332,1.332,0,0,1-1.142,2.017H312.218a1.332,1.332,0,0,1-1.142-2.017Z" transform="translate(-244.992)"/>
    <rect id="Rectángulo_409507" data-name="Rectángulo 409507" width="2.664" height="9.323" transform="translate(77.171 21.908)"/>
    <rect id="Rectángulo_409508" data-name="Rectángulo 409508" width="2.664" height="2.664" transform="translate(77.171 33.894)"/>
    <path id="Trazado_885272" data-name="Trazado 885272" d="M94.485,74.808V66.4L90.5,65.676l-1.208-3.756,2.8-2.949L87.2,52.16l-3.647,1.785-3.145-2.311.548-4.01-7.94-2.609-1.894,3.579H67.242l-1.894-3.579-4.323,1.42a18.628,18.628,0,1,0-12.3,15.127l.34.358-1.208,3.756-3.982.722v2.873H40.221L39.536,65.5,32.171,63.13l-2.8,2.656-3.751-2.7,1.688-3.448-4.566-6.213-3.792.517L17.525,49.6,20.9,47.814V40.121l-3.376-1.787,1.427-4.344,3.792.517,4.566-6.213-1.688-3.448,3.751-2.7,2.8,2.656,7.366-2.368.684-3.774h4.648l.685,3.774,7.365,2.368,2.8-2.656,3.751,2.7L57.78,28.294l3.7,5.029,2.147-1.577-2.74-3.729L62.85,24l-7.367-5.3L52.23,21.786l-4.341-1.4L47.093,16H38l-.8,4.391-4.341,1.4L29.607,18.7,22.24,24l1.968,4.02-2.673,3.638-4.421-.6-2.821,8.586,3.945,2.088V46.21L14.293,48.3l2.821,8.587,4.421-.6,2.673,3.638-1.968,4.02,7.367,5.3,3.252-3.087,4.341,1.4.8,4.391h5.88v2.873l3.982.722,1.208,3.756-2.8,2.949,4.9,6.811,3.647-1.785,3.145,2.311-.548,4.01,7.94,2.609,1.894-3.579h3.876l1.894,3.579,7.94-2.609-.548-4.01,3.145-2.311L87.2,89.047l4.9-6.811-2.8-2.949L90.5,75.53ZM26.563,43.968a15.981,15.981,0,1,1,31.6,3.409l-.752.247.548,4.01-3.145,2.311-2.2-1.076a14.527,14.527,0,0,0-6.885-8.663,5.3,5.3,0,0,0,2.144-4.275V35.977a5.327,5.327,0,0,0-10.654,0v3.954a5.3,5.3,0,0,0,2.144,4.275A14.555,14.555,0,0,0,31.93,55.9,15.946,15.946,0,0,1,26.563,43.968Zm18.645-7.991v3.954A2.651,2.651,0,0,1,43.534,42.4l-.989.4-.989-.4a2.651,2.651,0,0,1-1.674-2.473V35.977a2.664,2.664,0,1,1,5.327,0ZM42.545,59.949A15.883,15.883,0,0,1,34.554,57.8V56.98a11.928,11.928,0,0,1,7.535-11.129l.456-.182.456.182a11.906,11.906,0,0,1,7.072,7.826l-3.806,5.294.415.437A15.968,15.968,0,0,1,42.545,59.949Zm46.1,22.521-2.3,3.195L83.273,84.16l-5.721,4.2.461,3.381-3.7,1.215-1.593-3.011H65.638l-1.593,3.01-3.7-1.215.461-3.381-5.721-4.2-3.075,1.505-2.3-3.195,2.369-2.5-2.179-6.78-3.366-.611V68.623l3.366-.61,2.179-6.78-2.369-2.5,2.3-3.2,3.075,1.506,5.721-4.2-.461-3.381,3.7-1.215,1.593,3.011h7.084l1.593-3.011,3.7,1.215-.461,3.381,5.721,4.2,3.075-1.505,2.3,3.195-2.369,2.5,2.179,6.78,3.366.611v3.961l-3.366.61-2.18,6.78Z" transform="translate(0 -0.751)"/>
    <path id="Trazado_885273" data-name="Trazado 885273" d="M91.152,355.129l1.334-2.306a30.677,30.677,0,0,1-11.918-12.5L78.2,341.551a33.336,33.336,0,0,0,12.95,13.579Z" transform="translate(-53.27 -271.087)"/>
    <path id="Trazado_885274" data-name="Trazado 885274" d="M173.774,423.32l-1.111,2.421a33.2,33.2,0,0,0,4.163,1.581l.776-2.548a30.517,30.517,0,0,1-3.828-1.454Z" transform="translate(-132.006 -340.263)"/>
    <path id="Trazado_885275" data-name="Trazado 885275" d="M19.918,279.182l-2.65.272a39.971,39.971,0,0,0,.645,4.133l2.606-.549a37.373,37.373,0,0,1-.6-3.857Z" transform="translate(-2.48 -220.12)"/>
    <path id="Trazado_885276" data-name="Trazado 885276" d="M27.811,317.8l-2.561.733a40.238,40.238,0,0,0,14.159,20.731,39.588,39.588,0,0,0,24.255,8.2V344.8a36.946,36.946,0,0,1-22.636-7.654A37.559,37.559,0,0,1,27.811,317.8Z" transform="translate(-9.133 -252.308)"/>
  </g>
</svg>
