<svg id="Grupo_1112663" data-name="Grupo 1112663" xmlns="http://www.w3.org/2000/svg" width="122.486" height="122.487" viewBox="0 0 122.486 122.487">
  <rect id="Rectángulo_402033" data-name="Rectángulo 402033" width="122.486" height="122.486" rx="5" transform="translate(0)" fill="#d7f5ea"/>
  <g id="Grupo_1115362" data-name="Grupo 1115362" transform="translate(19.433 16.289)">
    <g id="Grupo_1115360" data-name="Grupo 1115360" transform="translate(1.231 4.983)">
      <path id="Trazado_885302" data-name="Trazado 885302" d="M8.771,66.023,41.658,14.788a7.678,7.678,0,0,1,12.924,0L87.469,66.023a7.679,7.679,0,0,1-6.462,11.826H15.233A7.679,7.679,0,0,1,8.771,66.023Z" transform="translate(-7.542 -11.257)" fill="#ffd15b"/>
      <path id="Trazado_885303" data-name="Trazado 885303" d="M287.966,66.031,255.079,14.8a7.651,7.651,0,0,0-7.911-3.393,7.591,7.591,0,0,1,5.013,3.393l32.887,51.235a7.679,7.679,0,0,1-6.462,11.826h2.9A7.679,7.679,0,0,0,287.966,66.031Z" transform="translate(-208.038 -11.265)" fill="#ffc344"/>
      <path id="Trazado_885304" data-name="Trazado 885304" d="M40.34,98.052A2.78,2.78,0,0,1,38,93.771L70.888,42.536a2.78,2.78,0,0,1,4.678,0l32.888,51.235a2.78,2.78,0,0,1-2.339,4.281Z" transform="translate(-32.649 -36.359)" fill="#ffd15b"/>
      <path id="Trazado_885305" data-name="Trazado 885305" d="M280.081,93.771,247.194,42.536a2.78,2.78,0,0,0-4.523-.219,4.267,4.267,0,0,1,1.458,1.232l32.238,50.223a2.78,2.78,0,0,1-2.339,4.281h3.714a2.78,2.78,0,0,0,2.339-4.281Z" transform="translate(-204.276 -36.359)" fill="#ffc344"/>
      <path id="Trazado_885306" data-name="Trazado 885306" d="M233.448,432.412h-5.729a2.1,2.1,0,0,1-2.1-2.1V419.06h9.937v11.248A2.1,2.1,0,0,1,233.448,432.412Z" transform="translate(-190.005 -352.468)" fill="#537983"/>
      <path id="Trazado_885307" data-name="Trazado 885307" d="M256.562,419.06v11.248a2.1,2.1,0,0,1-2.1,2.1h3.123a2.1,2.1,0,0,0,2.1-2.1V419.06Z" transform="translate(-214.138 -352.468)" fill="#476666"/>
      <path id="Trazado_885308" data-name="Trazado 885308" d="M217.815,146.744l3.635-10.28a.7.7,0,0,0-.66-.934h-9.432a.7.7,0,0,0-.672.5l-3.17,10.747a.7.7,0,0,0,.672.9h2.5a.7.7,0,0,1,.674.889l-2.07,7.4a.7.7,0,0,0,.674.889h2.471a.7.7,0,0,1,.684.852l-2.987,13.433a.7.7,0,0,0,1.254.558l9.787-13.737a.7.7,0,0,0-.57-1.106h-1.653a.7.7,0,0,1-.667-.914l2.356-7.351a.7.7,0,0,0-.667-.914h-1.5a.7.7,0,0,1-.66-.934Z" transform="translate(-174.838 -115.237)" fill="#60b7ff"/>
      <path id="Trazado_885309" data-name="Trazado 885309" d="M234.912,136.464a.7.7,0,0,0-.66-.934h-2.775a.7.7,0,0,1,.66.934l-3.635,10.28a.7.7,0,0,0,.66.934h1.5a.7.7,0,0,1,.667.914l-2.356,7.351a.7.7,0,0,0,.667.914h1.653a.7.7,0,0,1,.57,1.106l-6.73,9.446a.411.411,0,0,1-.7-.043l-.84,3.776a.7.7,0,0,0,1.254.558l9.787-13.737a.7.7,0,0,0-.57-1.106h-1.653a.7.7,0,0,1-.667-.914l2.356-7.351a.7.7,0,0,0-.667-.914h-1.5a.7.7,0,0,1-.66-.934Z" transform="translate(-188.299 -115.237)" fill="#26a6fe"/>
    </g>
    <g id="Grupo_1115361" data-name="Grupo 1115361" transform="translate(0 3.758)">
      <path id="Trazado_885310" data-name="Trazado 885310" d="M82.19,59.086,63.313,29.678A1.225,1.225,0,0,0,61.252,31L80.129,60.41A6.454,6.454,0,0,1,74.7,70.35H8.923a6.454,6.454,0,0,1-5.431-9.94L36.379,9.175a6.454,6.454,0,0,1,10.862,0l10.89,16.966a1.225,1.225,0,0,0,2.061-1.323L49.3,7.852a8.9,8.9,0,0,0-14.985,0L1.43,59.086A8.9,8.9,0,0,0,8.923,72.8H35.617V82.822a3.332,3.332,0,0,0,3.329,3.329h5.729A3.332,3.332,0,0,0,48,82.822V77.261a1.225,1.225,0,0,0-2.449,0v5.561a.88.88,0,0,1-.879.879H38.945a.88.88,0,0,1-.879-.879V72.8H74.7A8.9,8.9,0,0,0,82.19,59.086Z" transform="translate(0 -3.758)"/>
      <path id="Trazado_885311" data-name="Trazado 885311" d="M35.927,83.239a1.225,1.225,0,1,0-2.061-1.323l-3.157,4.918A4,4,0,0,0,34.078,93H99.854a4,4,0,0,0,3.37-6.167L70.336,35.6a4,4,0,0,0-6.74,0L36.961,77.093a1.225,1.225,0,1,0,2.061,1.323L65.657,36.922a1.555,1.555,0,0,1,2.617,0l32.888,51.235a1.555,1.555,0,0,1-1.309,2.4H34.078a1.555,1.555,0,0,1-1.308-2.4Z" transform="translate(-25.156 -28.859)"/>
      <path id="Trazado_885312" data-name="Trazado 885312" d="M216.055,128.843a1.928,1.928,0,0,0-1.572-.813h-9.432a1.936,1.936,0,0,0-1.846,1.38l-3.17,10.747a1.936,1.936,0,0,0,1.846,2.47h1.807l-1.884,6.736a1.936,1.936,0,0,0,1.854,2.443h1.817l-2.845,12.8a1.907,1.907,0,0,0,1.1,2.176,1.945,1.945,0,0,0,.792.17,1.907,1.907,0,0,0,1.558-.812l9.787-13.737a1.937,1.937,0,0,0-1.568-3.042h-.934l2.137-6.666a1.939,1.939,0,0,0-1.833-2.512h-.758L216.3,130.6a1.929,1.929,0,0,0-.243-1.754Zm-5.7,11.217a1.925,1.925,0,0,0,1.815,2.567h.78l-2.137,6.666a1.939,1.939,0,0,0,1.833,2.513h.635l-7.7,10.8L208.01,151.7a1.925,1.925,0,0,0-1.879-2.343h-1.78l1.884-6.736a1.936,1.936,0,0,0-1.854-2.443h-1.8l2.86-9.7h8.3Z" transform="translate(-167.3 -107.737)"/>
      <path id="Trazado_885313" data-name="Trazado 885313" d="M418.533,95.7a1.22,1.22,0,0,0,.7-.222l4.8-3.366a1.225,1.225,0,1,0-1.406-2.006l-4.8,3.366a1.225,1.225,0,0,0,.7,2.227Z" transform="translate(-349.163 -75.822)"/>
      <path id="Trazado_885314" data-name="Trazado 885314" d="M430.111,137.514l-2.959-.52a1.225,1.225,0,0,0-.424,2.413l2.959.52a1.225,1.225,0,0,0,.424-2.413Z" transform="translate(-356.199 -115.222)"/>
      <path id="Trazado_885315" data-name="Trazado 885315" d="M396.293,81.552a1.227,1.227,0,0,0,1.418-.994l.5-2.819a1.225,1.225,0,1,0-2.413-.424l-.5,2.819A1.225,1.225,0,0,0,396.293,81.552Z" transform="translate(-330.733 -64.456)"/>
    </g>
  </g>
</svg>
