<svg id="Grupo_1112738" data-name="Grupo 1112738" xmlns="http://www.w3.org/2000/svg" width="122.486" height="122.486" viewBox="0 0 122.486 122.486">
  <rect id="Rectángulo_402033" data-name="Rectángulo 402033" width="122.486" height="122.486" rx="5" transform="translate(0)" fill="#d7f5ea"/>
  <g id="Grupo_1115370" data-name="Grupo 1115370" transform="translate(17.113 17.232)">
    <path id="Trazado_885357" data-name="Trazado 885357" d="M63.879,28.48V39.742l-5.568.491L57.33,29.055Z" transform="translate(22.323 9.852)" fill="#e6e7e8"/>
    <path id="Trazado_885358" data-name="Trazado 885358" d="M63.6,36.51V59.047l-3.618.309L58.03,37Z" transform="translate(22.605 13.083)" fill="#ff5023"/>
    <path id="Trazado_885359" data-name="Trazado 885359" d="M56.27,55.7a8.415,8.415,0,1,1-9.116-7.643A8.415,8.415,0,0,1,56.27,55.7Z" transform="translate(15.136 17.718)" fill="#787680"/>
    <path id="Trazado_885360" data-name="Trazado 885360" d="M43.078,34.865l-1.262,7.587a1.4,1.4,0,0,0,1.515,1.543l24.837-2.174,1.949,22.355-8.387.743-2.791.238A8.415,8.415,0,0,0,42.18,66.63l-2.791.238-2.791.238a2.8,2.8,0,0,1-3.043-2.538l-.252-2.8-.323-3.7,5.694-3.422-2.8-2.8,2.8-2.8L32.84,46.112a27.735,27.735,0,0,1,.743-2.763l5.273-12.8a5.6,5.6,0,0,1,4.7-3.464l28.9-2.524a4.317,4.317,0,0,1,1.276.056v5.455l-6.549.575L45.6,32.537a2.8,2.8,0,0,0-2.524,2.328Z" transform="translate(12.467 8.263)" fill="#ff6243"/>
    <path id="Trazado_885361" data-name="Trazado 885361" d="M64.612,28.89l.982,11.177L40.757,42.241A1.4,1.4,0,0,1,39.242,40.7L40.5,33.111a2.8,2.8,0,0,1,2.524-2.328Z" transform="translate(15.041 10.017)" fill="#d1d3d4"/>
    <path id="Trazado_885362" data-name="Trazado 885362" d="M38.8,42.837l-2.8,2.8,2.8,2.8L33.1,51.869l-.491-5.582a23.066,23.066,0,0,1,.351-6.367Z" transform="translate(12.343 14.456)" fill="#ff9811"/>
    <path id="Trazado_885363" data-name="Trazado 885363" d="M33.463,44.066a8.046,8.046,0,0,1,.1,2.847l-.393,2.777-6.942-.982a1.4,1.4,0,0,1-1.192-1.585l.393-2.777a1.388,1.388,0,0,1,1.585-1.192Z" transform="translate(9.32 15.751)" fill="#e6e7e8"/>
    <path id="Trazado_885364" data-name="Trazado 885364" d="M21.423,48.144A8.415,8.415,0,1,1,11.914,55.3a8.415,8.415,0,0,1,9.509-7.152Z" transform="translate(4.012 17.732)" fill="#787680"/>
    <path id="Trazado_885365" data-name="Trazado 885365" d="M34.7,51.476l6.942.982-1.164,8.33a2.82,2.82,0,0,1-3.17,2.384l-2.777-.393-2.777-.393a8.419,8.419,0,1,0-16.675-2.342L12.3,59.653,3.97,58.489,7.1,36.26l22.215,3.127,5.554.785a8.4,8.4,0,0,1,7.068,6.662l-6.451-.912A1.388,1.388,0,0,0,33.9,47.115l-.393,2.777A1.4,1.4,0,0,0,34.7,51.476Z" transform="translate(0.849 12.983)" fill="#5aaae7"/>
    <path id="Trazado_885366" data-name="Trazado 885366" d="M28.3,42.392l.112.182L6.2,39.447,7.757,28.34,20.07,30.079l.435-.266Z" transform="translate(1.746 9.795)" fill="#e6e7e8"/>
    <path id="Trazado_885367" data-name="Trazado 885367" d="M9.447,28.642,7.89,39.749,2,38.922V27.59Z" transform="translate(0.056 9.494)" fill="#d1d3d4"/>
    <path id="Trazado_885368" data-name="Trazado 885368" d="M2,35.67l5.89.827L4.763,58.726,2,58.333Z" transform="translate(0.056 12.745)" fill="#3d9ae2"/>
    <path id="Trazado_885369" data-name="Trazado 885369" d="M22.2,31.736,21.76,32,9.447,30.264,2,29.212V23.56l13.954,1.963a5.6,5.6,0,0,1,4,2.595Z" transform="translate(0.056 7.872)" fill="#3d9ae2"/>
    <path id="Trazado_885370" data-name="Trazado 885370" d="M20.207,29.22,16,25.012h7.012V18l7.012,7.012L37.037,18v7.012h8.415l-5.61,5.61H21.61Z" transform="translate(5.69 5.634)" fill="#ff9811"/>
    <path id="Trazado_885371" data-name="Trazado 885371" d="M32.139,58.836l-2.777-.393A8.419,8.419,0,1,0,12.687,56.1L9.91,55.709A11.259,11.259,0,0,1,21.017,46.06a11.83,11.83,0,0,1,1.571.112,11.22,11.22,0,0,1,9.551,12.664Z" transform="translate(3.239 16.927)" fill="#3d9ae2"/>
    <path id="Trazado_885372" data-name="Trazado 885372" d="M59.864,56.268l-2.791.238a8.415,8.415,0,0,0-16.759,1.473l-2.791.238a11.177,11.177,0,0,1,10.2-12.145c.323-.028.659-.042.982-.042A11.245,11.245,0,0,1,59.864,56.268Z" transform="translate(14.334 16.915)" fill="#ff5023"/>
    <path id="Trazado_885373" data-name="Trazado 885373" d="M0,0H2.8V5.61H0Z" transform="translate(11.117 56.767) rotate(-82.008)"/>
    <path id="Trazado_885374" data-name="Trazado 885374" d="M0,0H2.8V2.8H0Z" transform="translate(22.656 75.392) rotate(-82.008)"/>
    <path id="Trazado_885375" data-name="Trazado 885375" d="M86.324,32.264,86.08,29.47,57.946,31.933a4.207,4.207,0,0,0-3.787,3.5l-1.276,7.66A2.8,2.8,0,0,0,55.668,46.2a2.442,2.442,0,0,0,.247-.011l23.443-2.055L81.071,63.7l-8.493.743a9.8,9.8,0,0,0-19.34,1.691l-4.3.376a1.377,1.377,0,0,1-1.021-.324,1.394,1.394,0,0,1-.5-.951l-.122-1.4,4.19-.367-.245-2.794-4.19.372L46.924,59.6l4.939-2.968a1.4,1.4,0,0,0,.269-2.193l-1.813-1.812,1.813-1.813a1.4,1.4,0,0,0-.365-2.244l-4.834-2.418c.126-.5.25-.992.411-1.475L52.621,31.87a4.192,4.192,0,0,1,3.524-2.59l28.908-2.524a4.407,4.407,0,0,1,.952.025L86.4,24a7.153,7.153,0,0,0-1.589-.042L55.9,26.486A6.988,6.988,0,0,0,50.026,30.8l-5.3,12.9a23.7,23.7,0,0,0-1.191,6.384,9.929,9.929,0,0,0-1.144-1.97,9.757,9.757,0,0,0-6.474-3.813l-2.234-.314,7.465-4.976,1.991,1.991,1.983-1.983-2.8-2.8a1.4,1.4,0,0,0-1.77-.175l-10.07,6.712L21.2,27.777a7,7,0,0,0-4.983-3.248L2.251,22.566l-.39,2.778,13.96,1.963a4.2,4.2,0,0,1,2.991,1.948l.886,1.429L2.251,28.233l-.39,2.777,6.06.853L6.75,40.195l-4.5-.631-.39,2.777,4.5.633L3.627,62.416l-1.376-.194L1.861,65l12.6,1.77a9.808,9.808,0,0,0,19.229,2.7l4.276.6a4.2,4.2,0,0,0,4.751-3.58L43.947,57.7l.682,7.774a4.216,4.216,0,0,0,4.182,3.838,2.974,2.974,0,0,0,.37-.015l4.3-.377A9.828,9.828,0,0,0,63.02,76.5q.429,0,.863-.038a9.8,9.8,0,0,0,8.936-9.228l13.5-1.182-.244-2.794-2.216.194-1.711-19.56,4.171-.365-.244-2.794-4.171.376-.732-8.394ZM41.493,54.992l-.2,1.388L35.743,55.6l.39-2.777,5.415.76a7.1,7.1,0,0,1-.055,1.409ZM10.7,32.253l10.915,1.534v-.008L27.394,43.1,9.527,40.586ZM31.208,67.708a7.013,7.013,0,1,1-6.959-7.988,7.157,7.157,0,0,1,.991.069,7.022,7.022,0,0,1,5.968,7.919Zm7.138-.412-4.277-.6a9.8,9.8,0,0,0-19.213-2.7L6.4,62.806,9.137,43.37l20.828,2.921,5.555.781a6.628,6.628,0,0,1,5.132,3.552l-4.133-.581a2.8,2.8,0,0,0-3.168,2.384L32.96,55.2a2.8,2.8,0,0,0,2.384,3.17l5.555.78-.39,2.778-4.167-.585-.39,2.777,4.167.586-.2,1.388a1.4,1.4,0,0,1-1.576,1.2Zm10.427-17.09-1.429,1.429a1.4,1.4,0,0,0,0,1.983l1.536,1.533L46.652,56.49l-.293-3.349a21.262,21.262,0,0,1,.049-4.12ZM70.015,66.071a7.012,7.012,0,1,1-7.6-6.374c.208-.018.421-.028.623-.028a7.012,7.012,0,0,1,6.973,6.4Zm9.1-24.711L55.66,43.471,56.929,35.9a1.4,1.4,0,0,1,1.262-1.165l20.2-1.767Z" transform="translate(0 7.472)"/>
    <path id="Trazado_885376" data-name="Trazado 885376" d="M0,0H5.61V2.8H0Z" transform="translate(57.229 56.357) rotate(-4.992)"/>
    <path id="Trazado_885377" data-name="Trazado 885377" d="M0,0H2.8V2.8H0Z" transform="translate(61.469 72.893) rotate(-4.992)"/>
    <path id="Trazado_885378" data-name="Trazado 885378" d="M19.618,30.613,21.6,28.63l-1.813-1.813h3.627a1.4,1.4,0,0,0,1.4-1.4V21.788l4.618,4.618a1.4,1.4,0,0,0,1.983,0l4.618-4.618v3.627a1.4,1.4,0,0,0,1.4,1.4h5.029l-3.216,3.216,1.983,1.983,5.61-5.61a1.4,1.4,0,0,0-.992-2.394H38.841V18.4a1.4,1.4,0,0,0-2.394-.992l-6.021,6.021-6.021-6.021a1.4,1.4,0,0,0-2.394.992v5.61H16.4a1.4,1.4,0,0,0-.992,2.394Z" transform="translate(5.288 5.232)"/>
    <path id="Trazado_885379" data-name="Trazado 885379" d="M24.3,20.024h2.8a1.907,1.907,0,0,1,.652-1.432,4.659,4.659,0,0,0,0-6.479,1.9,1.9,0,0,1,0-2.872A4.614,4.614,0,0,0,29.068,6h-2.8a1.91,1.91,0,0,1-.654,1.436,4.665,4.665,0,0,0,0,6.482,1.9,1.9,0,0,1,0,2.868A4.6,4.6,0,0,0,24.3,20.024Z" transform="translate(9.03 0.805)"/>
    <path id="Trazado_885380" data-name="Trazado 885380" d="M30.3,18.024h2.8a1.907,1.907,0,0,1,.652-1.432,4.659,4.659,0,0,0,0-6.479,1.9,1.9,0,0,1,0-2.872A4.614,4.614,0,0,0,35.068,4h-2.8a1.91,1.91,0,0,1-.654,1.436,4.665,4.665,0,0,0,0,6.482,1.9,1.9,0,0,1,0,2.868,4.6,4.6,0,0,0-1.31,3.238Z" transform="translate(11.445 0)"/>
  </g>
</svg>
