<svg xmlns="http://www.w3.org/2000/svg" width="110" height="110" viewBox="0 0 110 110">
  <g id="Grupo_1108260" data-name="Grupo 1108260" transform="translate(-273.332 -3741.5)">
    <rect id="Rectángulo_402033" data-name="Rectángulo 402033" width="110" height="110" rx="5" transform="translate(273.332 3741.5)" fill="#d8b3fe"/>
    <g id="Grupo_1115410" data-name="Grupo 1115410" transform="translate(232.198 3750.187)">
      <g id="Grupo_1115400" data-name="Grupo 1115400" transform="translate(96.271 57.57)">
        <path id="Trazado_885487" data-name="Trazado 885487" d="M263.329,335.695h26.13V318.217h-26.13v3.067a1.338,1.338,0,0,1-1.334,1.333h-6.009v8.677h6.009a1.342,1.342,0,0,1,1.334,1.339Z" transform="translate(-255.986 -318.217)" fill="#ff9c9b" fill-rule="evenodd"/>
      </g>
      <g id="Grupo_1115401" data-name="Grupo 1115401" transform="translate(62.803 57.57)">
        <path id="Trazado_885488" data-name="Trazado 885488" d="M70.994,335.695h26.13v-3.062a1.342,1.342,0,0,1,1.334-1.339h6v-8.677h-6a1.338,1.338,0,0,1-1.334-1.333v-3.067H70.994Z" transform="translate(-70.994 -318.217)" fill="#ff9c9b" fill-rule="evenodd"/>
      </g>
      <g id="Grupo_1115402" data-name="Grupo 1115402" transform="translate(83.645 1.809)">
        <path id="Trazado_885489" data-name="Trazado 885489" d="M198.824,52.845A129.5,129.5,0,0,1,209.1,16.715c1.067-2.426,1.847-4.082,2.181-5.144.559-1.785-.159-1.882-2.894-1.108a32.646,32.646,0,0,1-9.56.913,32.627,32.627,0,0,1-9.555-.913c-2.735-.774-3.453-.677-2.894,1.108.328,1.062,1.108,2.718,2.181,5.144A129.332,129.332,0,0,1,198.824,52.845Z" transform="translate(-186.199 -10.003)" fill="#ffda8f" fill-rule="evenodd"/>
      </g>
      <g id="Grupo_1115403" data-name="Grupo 1115403" transform="translate(62.803 3.378)">
        <path id="Trazado_885490" data-name="Trazado 885490" d="M104.462,68.463V59.945a129.326,129.326,0,0,0-10.268-36.13c-1.072-2.426-1.852-4.082-2.181-5.144a78.083,78.083,0,0,0-11.2,3.144c-2.253.805-4.352,1.959-4.352,4.354V53.831c0,3.831.446,8.677-2.15,10.37-2.643,1.723-3.315,2.605-3.315,5.554v3.108h26.13V69.8a1.338,1.338,0,0,1,1.334-1.333h6Z" transform="translate(-70.994 -18.671)" fill="#ffe6b4" fill-rule="evenodd"/>
      </g>
      <g id="Grupo_1115404" data-name="Grupo 1115404" transform="translate(96.271 3.377)">
        <path id="Trazado_885491" data-name="Trazado 885491" d="M286.143,64.2c-2.6-1.692-2.15-6.539-2.15-10.37V26.168c0-2.395-2.1-3.549-4.352-4.354a78.269,78.269,0,0,0-11.2-3.144c-.334,1.062-1.114,2.718-2.181,5.144a129.5,129.5,0,0,0-10.273,36.13v8.518h6.009a1.338,1.338,0,0,1,1.334,1.333v3.067h26.13V69.754c0-2.949-.672-3.831-3.315-5.554Z" transform="translate(-255.985 -18.67)" fill="#ffe6b4" fill-rule="evenodd"/>
      </g>
      <g id="Grupo_1115405" data-name="Grupo 1115405" transform="translate(62.803 75.047)">
        <path id="Trazado_885492" data-name="Trazado 885492" d="M70.994,418.358c0,13.554,3.967,12.611,26.935,11.883a6.625,6.625,0,0,0,6.532-6.528v-4.487h-6a1.338,1.338,0,0,1-1.334-1.333v-3.067H70.994Z" transform="translate(-70.994 -414.825)" fill="#ffe6b4" fill-rule="evenodd"/>
      </g>
      <g id="Grupo_1115406" data-name="Grupo 1115406" transform="translate(96.271 75.047)">
        <path id="Trazado_885493" data-name="Trazado 885493" d="M262.524,430.241c22.969.728,26.935,1.672,26.935-11.883v-3.533h-26.13v3.067a1.338,1.338,0,0,1-1.334,1.333h-6.009v4.487A6.629,6.629,0,0,0,262.524,430.241Z" transform="translate(-255.986 -414.825)" fill="#ffe6b4" fill-rule="evenodd"/>
      </g>
      <g id="Grupo_1115407" data-name="Grupo 1115407" transform="translate(88.933 53.169)">
        <path id="Trazado_885494" data-name="Trazado 885494" d="M228.772,302.7a1.338,1.338,0,0,0,1.334-1.333v-6.134a1.338,1.338,0,0,0-1.334-1.333H216.759a1.338,1.338,0,0,0-1.334,1.333v6.134a1.338,1.338,0,0,0,1.334,1.333h12.013Z" transform="translate(-215.425 -293.895)" fill="#b5cdcd" fill-rule="evenodd"/>
      </g>
      <g id="Grupo_1115408" data-name="Grupo 1115408" transform="translate(88.933 70.647)">
        <path id="Trazado_885495" data-name="Trazado 885495" d="M222.763,399.3h6.009a1.338,1.338,0,0,0,1.334-1.333v-6.128a1.342,1.342,0,0,0-1.334-1.339H216.759a1.342,1.342,0,0,0-1.334,1.339v6.128a1.338,1.338,0,0,0,1.334,1.333Z" transform="translate(-215.425 -390.503)" fill="#b5cdcd" fill-rule="evenodd"/>
      </g>
      <g id="Grupo_1115409" data-name="Grupo 1115409" transform="translate(60.994 0)">
        <path id="Trazado_885496" data-name="Trazado 885496" d="M127.416,47.392c-1.434-.935-1.384-4.487-1.343-7.341.007-.515.014-3.811.014-3.811a1.809,1.809,0,1,0-3.618,0s-.007,3.262-.014,3.759c-.056,3.937-.119,8.4,2.985,10.423,2.261,1.474,2.494,1.852,2.494,4.039v1.3H105.423V54.5a3.147,3.147,0,0,0-3.143-3.143h-4.2V44.783A128.437,128.437,0,0,1,108.2,9.252c.234-.531,1.4-3.135,1.668-3.784a79.247,79.247,0,0,1,9.451,2.757c2.769.99,3.151,1.859,3.151,2.65v9.113a1.809,1.809,0,0,0,3.618,0V10.875c0-4.073-4.033-5.515-5.551-6.058a82.929,82.929,0,0,0-9.88-2.881,2.315,2.315,0,0,0-.525-1.1C108.974-.5,107.043.047,105.339.529a31.185,31.185,0,0,1-9.041.845h-.054A31.147,31.147,0,0,1,87.207.528C85.5.047,83.573-.5,82.416.84a2.314,2.314,0,0,0-.525,1.1,81.86,81.86,0,0,0-9.88,2.881c-1.518.543-5.552,1.984-5.552,6.058,0,0,.007,28.661.014,29.176.041,2.854.091,6.406-1.343,7.341-3.052,1.99-4.136,3.357-4.136,7.07V78.581c0,4.977.5,8.777,2.947,11.142,3.418,3.3,9.679,3.093,22.153,2.671q1.763-.06,3.7-.122a8.605,8.605,0,0,0,6.476-3.187,8.612,8.612,0,0,0,6.48,3.187q1.94.062,3.7.122c3.733.126,6.909.234,9.619.234,6.347,0,10.139-.589,12.534-2.9,2.446-2.365,2.947-6.165,2.947-11.142V54.462C131.553,50.75,130.469,49.382,127.416,47.392ZM105.423,60.637V59.379h22.511V73.238H105.423V71.986a3.149,3.149,0,0,0-3.143-3.148h-4.2V63.779h4.2A3.147,3.147,0,0,0,105.423,60.637Zm-14.681,17V72.456H101.8v5.182Zm-3.618-5.653v1.252H64.612V59.379H87.124v1.258a3.147,3.147,0,0,0,3.143,3.143h4.195v5.059H90.267A3.149,3.149,0,0,0,87.124,71.986ZM101.8,60.161H90.742V54.979H101.8ZM86.224,4.011a34.19,34.19,0,0,0,10.047.981,34.212,34.212,0,0,0,10.051-.981l.262-.073c-.287.692-1.459,3.317-1.694,3.851a129.511,129.511,0,0,0-8.617,26.4,129.377,129.377,0,0,0-8.615-26.4c-.236-.535-1.408-3.16-1.695-3.852l.261.073ZM67.106,50.423c3.1-2.024,3.042-6.486,2.985-10.424-.007-.5-.014-29.125-.014-29.125,0-.792.382-1.66,3.154-2.651A78.271,78.271,0,0,1,82.68,5.468c.272.649,1.434,3.254,1.669,3.786a128.278,128.278,0,0,1,10.113,35.53V51.36H90.267A3.146,3.146,0,0,0,87.124,54.5V55.76H64.612v-1.3c0-2.187.233-2.564,2.494-4.038ZM89.681,88.655q-1.944.062-3.709.123c-11.091.375-17.2.582-19.516-1.656-1.31-1.266-1.844-3.741-1.844-8.541V76.856H87.124v1.258a3.147,3.147,0,0,0,3.143,3.143h4.195v2.678a4.808,4.808,0,0,1-4.781,4.72Zm36.409-1.534c-2.315,2.238-8.425,2.031-19.516,1.656q-1.766-.06-3.709-.123a4.81,4.81,0,0,1-4.785-4.72V81.257h4.2a3.146,3.146,0,0,0,3.143-3.143V76.857h22.511v1.724c0,4.8-.534,7.274-1.844,8.541Z" transform="translate(-60.994 0)"/>
        <path id="Trazado_885497" data-name="Trazado 885497" d="M349.969,161.06v10.857a1.809,1.809,0,1,0,3.618,0V161.06a1.809,1.809,0,0,0-3.618,0Z" transform="translate(-297.689 -130.44)"/>
        <path id="Trazado_885498" data-name="Trazado 885498" d="M310.117,161.06v10.857a1.809,1.809,0,1,0,3.618,0V161.06a1.809,1.809,0,0,0-3.618,0Z" transform="translate(-265.047 -130.44)"/>
        <path id="Trazado_885499" data-name="Trazado 885499" d="M182.359,173.727a1.809,1.809,0,0,0,1.809-1.809V161.061a1.809,1.809,0,0,0-3.618,0v10.857A1.809,1.809,0,0,0,182.359,173.727Z" transform="translate(-158.921 -130.441)"/>
        <path id="Trazado_885500" data-name="Trazado 885500" d="M142.507,173.727a1.809,1.809,0,0,0,1.809-1.809V161.061a1.809,1.809,0,1,0-3.618,0v10.857A1.809,1.809,0,0,0,142.507,173.727Z" transform="translate(-126.278 -130.441)"/>
        <path id="Trazado_885501" data-name="Trazado 885501" d="M402.607,145.389A1.809,1.809,0,0,0,400.8,147.2v.01a1.809,1.809,0,1,0,1.809-1.819Z" transform="translate(-339.323 -119.086)"/>
      </g>
    </g>
  </g>
</svg>
