<svg xmlns="http://www.w3.org/2000/svg" width="110" height="110" viewBox="0 0 110 110">
  <g id="Grupo_1112800" data-name="Grupo 1112800" transform="translate(-273.332 -3741.5)">
    <rect id="Rectángulo_402033" data-name="Rectángulo 402033" width="110" height="110" rx="5" transform="translate(273.332 3741.5)" fill="#d8b3fe"/>
    <g id="Grupo_1115427" data-name="Grupo 1115427" transform="translate(224.745 3753.236)">
      <g id="Grupo_1115426" data-name="Grupo 1115426" transform="translate(74.961 1.181)">
        <g id="Grupo_1115424" data-name="Grupo 1115424" transform="translate(1.253)">
          <g id="Grupo_1115421" data-name="Grupo 1115421">
            <g id="Grupo_1115411" data-name="Grupo 1115411" transform="translate(6.843 32.522)">
              <path id="Trazado_885502" data-name="Trazado 885502" d="M134.8,199.5h41.059v37.2H134.8Z" transform="translate(-134.8 -199.5)" fill="#8d562f"/>
            </g>
            <g id="Grupo_1115412" data-name="Grupo 1115412" transform="translate(0 62.588)">
              <path id="Trazado_885503" data-name="Trazado 885503" d="M138.779,377.525,136.7,377a15.058,15.058,0,0,1-29.846,0l-2.083.525A13.68,13.68,0,0,0,94.4,390.8V398.6h54.745V390.8A13.68,13.68,0,0,0,138.779,377.525Z" transform="translate(-94.4 -377)" fill="#e175a5"/>
            </g>
            <g id="Grupo_1115413" data-name="Grupo 1115413" transform="translate(12.45 52.696)">
              <path id="Trazado_885504" data-name="Trazado 885504" d="M189.666,326.476V318.6H175.98v7.876l-8.08,2.016a15.058,15.058,0,0,0,29.846,0Z" transform="translate(-167.9 -318.6)" fill="#ffbd86"/>
            </g>
            <g id="Grupo_1115414" data-name="Grupo 1115414" transform="translate(27.948 63.045)">
              <path id="Trazado_885505" data-name="Trazado 885505" d="M275.83,379.768l-.237-.068a40.114,40.114,0,0,1-9.926,15.956,42.4,42.4,0,0,1-6.267,5.183h26.8v-7.792A13.68,13.68,0,0,0,275.83,379.768Z" transform="translate(-259.4 -379.7)" fill="#de5791"/>
            </g>
            <g id="Grupo_1115415" data-name="Grupo 1115415" transform="translate(20.529 52.696)">
              <path id="Trazado_885506" data-name="Trazado 885506" d="M215.6,323.834a21.817,21.817,0,0,0,13.686,0V318.6H215.6Z" transform="translate(-215.6 -318.6)" fill="#f6a96c"/>
            </g>
            <g id="Grupo_1115416" data-name="Grupo 1115416" transform="translate(10.265 20.36)">
              <path id="Trazado_885507" data-name="Trazado 885507" d="M155,127.7v16.769a17.108,17.108,0,0,0,34.216,0V127.7Z" transform="translate(-155 -127.7)" fill="#fed2a4"/>
            </g>
            <g id="Grupo_1115417" data-name="Grupo 1115417" transform="translate(23.951 20.36)">
              <path id="Trazado_885508" data-name="Trazado 885508" d="M249.486,127.7v16.769A17.118,17.118,0,0,1,235.8,161.238a17.492,17.492,0,0,0,3.422.339,17.1,17.1,0,0,0,17.108-17.108V127.7Z" transform="translate(-235.8 -127.7)" fill="#ffbd86"/>
            </g>
            <g id="Grupo_1115418" data-name="Grupo 1115418" transform="translate(6.843)">
              <path id="Trazado_885509" data-name="Trazado 885509" d="M155.329,7.5a20.537,20.537,0,0,1,20.529,20.529v8.046h-1.711a1.706,1.706,0,0,0-1.711,1.711v6.843L167.83,33.721h-25l-4.607,10.908V37.786a1.706,1.706,0,0,0-1.711-1.711H134.8V28.029A20.537,20.537,0,0,1,155.329,7.5Z" transform="translate(-134.8 -7.5)" fill="#b36d3c"/>
            </g>
            <g id="Grupo_1115419" data-name="Grupo 1115419" transform="translate(44.48 26.864)">
              <path id="Trazado_885510" data-name="Trazado 885510" d="M358.711,176.365H357V166.1h1.711a5.132,5.132,0,0,1,0,10.265Z" transform="translate(-357 -166.1)" fill="#ea9b58"/>
            </g>
            <g id="Grupo_1115420" data-name="Grupo 1115420" transform="translate(3.422 26.864)">
              <path id="Trazado_885511" data-name="Trazado 885511" d="M119.732,176.365h1.711V166.1h-1.711a5.132,5.132,0,0,0,0,10.265Z" transform="translate(-114.6 -166.1)" fill="#ea9b58"/>
            </g>
          </g>
          <g id="Grupo_1115422" data-name="Grupo 1115422" transform="translate(10.129)">
            <path id="Trazado_885512" data-name="Trazado 885512" d="M154.2,11.362,162.246,7.5l4.692,7.724-3.032,1.457,4.743,10.129L155.284,16.1l2.981-1.491Z" transform="translate(-154.2 -7.5)" fill="#f8e883"/>
          </g>
          <g id="Grupo_1115423" data-name="Grupo 1115423" transform="translate(30.167)">
            <path id="Trazado_885513" data-name="Trazado 885513" d="M286.948,11.362,278.9,7.5l-4.692,7.724,3.032,1.457L272.5,26.81,285.864,16.1l-2.981-1.491Z" transform="translate(-272.5 -7.5)" fill="#f8e883"/>
          </g>
        </g>
        <g id="Grupo_1115425" data-name="Grupo 1115425" transform="translate(0 33.101)">
          <path id="Trazado_885514" data-name="Trazado 885514" d="M143,443.927a1.28,1.28,0,0,0-1.27,1.27v4.641h-9.435v-4.2a1.27,1.27,0,0,0-2.541,0v4.2H101.5v-4.2a1.27,1.27,0,1,0-2.541,0v4.2H89.524v-6.521a10.791,10.791,0,0,1,.119-1.66,1.265,1.265,0,1,0-2.507-.339,15.635,15.635,0,0,0-.136,2v7.792a1.28,1.28,0,0,0,1.27,1.27h54.762a1.28,1.28,0,0,0,1.27-1.27V445.2a1.321,1.321,0,0,0-1.3-1.27Z" transform="translate(-87 -400.026)"/>
          <path id="Trazado_885515" data-name="Trazado 885515" d="M226.293,271.106a1.27,1.27,0,0,0,1.8,1.8,4.151,4.151,0,0,1,5.878,0,1.268,1.268,0,0,0,1.8,0,1.278,1.278,0,0,0,0-1.8A6.706,6.706,0,0,0,226.293,271.106Z" transform="translate(-202.393 -257.932)"/>
          <path id="Trazado_885516" data-name="Trazado 885516" d="M285.746,203.137l-3.947,2.625a1.287,1.287,0,0,0-.559,1.237,1.26,1.26,0,0,0,.881,1.033l2.609.8a1.411,1.411,0,0,0,.373.051,1.286,1.286,0,0,0,1.22-.9,1.271,1.271,0,0,0-.847-1.592l-.051-.017,1.728-1.152a1.257,1.257,0,1,0-1.406-2.083Z" transform="translate(-248.329 -202.92)"/>
          <path id="Trazado_885517" data-name="Trazado 885517" d="M198.913,207.108a1.272,1.272,0,0,0-.559-1.237l-3.947-2.625A1.271,1.271,0,1,0,193,205.363l1.728,1.152-.051.017a1.271,1.271,0,0,0-.847,1.592,1.286,1.286,0,0,0,1.22.9,1.411,1.411,0,0,0,.373-.051l2.609-.8A1.41,1.41,0,0,0,198.913,207.108Z" transform="translate(-174.572 -203.012)"/>
        </g>
      </g>
      <path id="Trazado_885518" data-name="Trazado 885518" d="M128.385,15.85a26.027,26.027,0,0,0,4.1-4.133c2.49-3.269,2.405-5.641,1.88-7.063-.576-1.592-2.3-3.659-7.182-4.438a40.967,40.967,0,0,0-12.568.44l-1.287-.61a1.274,1.274,0,0,0-1.643.491l-.474.762a21.109,21.109,0,0,0-7.622-1.389,21.624,21.624,0,0,0-7.639,1.372L95.474.52A1.292,1.292,0,0,0,93.831.029l-1.287.61A40.967,40.967,0,0,0,79.975.2c-4.861.8-6.589,2.863-7.165,4.455-.932,2.575.508,5.268,1.88,7.063a26.026,26.026,0,0,0,4.1,4.133c-4.98,4.116-7.131,8.046-5.979,11.213.881,2.422,3.422,3.608,5.861,4.167a6.171,6.171,0,0,0-.3,1.948,6.388,6.388,0,0,0,3.422,5.657V64.988A14.851,14.851,0,0,0,77.3,69.511a1.285,1.285,0,0,0,.39,1.762,1.263,1.263,0,0,0,.678.2,1.233,1.233,0,0,0,1.067-.593,12.385,12.385,0,0,1,7.453-5.369l.779-.186a16.315,16.315,0,0,0,31.844,0l.779.186a12.441,12.441,0,0,1,8.859,8.418,1.286,1.286,0,0,0,1.22.9,1.411,1.411,0,0,0,.373-.051,1.271,1.271,0,0,0,.847-1.592,14.952,14.952,0,0,0-6.2-8.181V54.283a1.27,1.27,0,0,0-2.541,0v9.4a13.05,13.05,0,0,0-1.948-.627l-9.2-2.3V54.791A18.391,18.391,0,0,0,121.915,39.58h.491a3.828,3.828,0,0,0,.44-.017v8.791a1.27,1.27,0,0,0,2.541,0V38.835a6.388,6.388,0,0,0,3.422-5.657,6.066,6.066,0,0,0-.3-1.931.062.062,0,0,0,.051-.017v-.017c3.828-.915,5.285-2.71,5.81-4.167,1.152-3.151-1-7.08-5.979-11.2Zm3.591-10.332c.745,2.066-1.423,5.319-5.657,8.723-.965-.711-2.016-1.406-3.134-2.117a22.336,22.336,0,0,0-3.2-4.794l1.643-1.3a1.264,1.264,0,0,0-.237-2.134L118.8,2.655c8.046-.8,12.4.745,13.178,2.863Zm-18.7-2.693,5.183,2.49L115.969,7.3a1.254,1.254,0,0,0-.474,1.118,1.271,1.271,0,0,0,.694,1l1.2.61-7.538,6.064,2.422-5.183a1.264,1.264,0,0,0-.593-1.677l-1.779-.847Zm-9.689-.373a19.289,19.289,0,0,1,6.3,1.05l-2.88,4.743a1.261,1.261,0,0,0,.525,1.8l1.914.915-4.2,8.994a1.261,1.261,0,0,0,.373,1.541,1.28,1.28,0,0,0,1.575,0l12.636-10.146A18.974,18.974,0,0,1,122.3,17.12a79.148,79.148,0,0,1-15.516,7.5c-1.067.39-2.134.745-3.2,1.1-1.067-.339-2.134-.711-3.2-1.1a78.684,78.684,0,0,1-15.516-7.5,18.974,18.974,0,0,1,2.473-5.776L100,21.49a1.259,1.259,0,0,0,.8.271,1.213,1.213,0,0,0,.779-.271,1.307,1.307,0,0,0,.373-1.541l-4.2-8.994,1.914-.915a1.261,1.261,0,0,0,.525-1.8L97.3,3.5a19.114,19.114,0,0,1,6.284-1.05ZM89.918,26.91l-.881,2.066c-.44.051-.864.085-1.287.119V28.028a1.28,1.28,0,0,0-1.27-1.27H84.769a3.828,3.828,0,0,0-.44.017V21.693c0-.627.034-1.253.085-1.88a82.276,82.276,0,0,0,12.772,6.3h-6.1A1.3,1.3,0,0,0,89.918,26.91ZM93.9,2.824l3.371,5.539-1.779.847a1.255,1.255,0,0,0-.593,1.677l2.422,5.2-7.555-6.064,1.2-.61a1.271,1.271,0,0,0,.694-1A1.237,1.237,0,0,0,91.188,7.3L88.7,5.314ZM75.2,5.517c.779-2.117,5.132-3.659,13.2-2.863L85.8,3.908a1.291,1.291,0,0,0-.711,1,1.267,1.267,0,0,0,.474,1.135l1.643,1.3a21.926,21.926,0,0,0-3.2,4.794c-1.118.711-2.168,1.406-3.134,2.117C76.6,10.853,74.453,7.584,75.2,5.517Zm0,20.665c-.593-1.626.678-3.676,1.863-5.1a26.3,26.3,0,0,1,3.794-3.642c.39.288.8.559,1.2.847a22.7,22.7,0,0,0-.271,3.4V27.52a6.334,6.334,0,0,0-1.762,1.372c-.017,0-.017.017-.017.034C77.367,28.435,75.673,27.486,75.2,26.182Zm5.708,7a3.678,3.678,0,0,1,.339-1.558,39.053,39.053,0,0,0,3.981.119v5.3h-.44A3.864,3.864,0,0,1,80.907,33.178Zm5.369,29.879a15.355,15.355,0,0,0-1.948.627V39.563a3.828,3.828,0,0,0,.44.017h.491A18.378,18.378,0,0,0,95.474,54.791v5.962Zm30.777,1.66a13.789,13.789,0,0,1-26.932,0l6.928-1.728a1.272,1.272,0,0,0,.965-1.237V55.824a18.407,18.407,0,0,0,11.146,0v5.928a1.282,1.282,0,0,0,.965,1.237Zm-13.466-10.57A15.86,15.86,0,0,1,87.75,38.564l3.066-7.233a79.045,79.045,0,0,0,11.857-2.642h1.846a79.045,79.045,0,0,0,11.857,2.642l3.066,7.233A15.874,15.874,0,0,1,103.587,54.147ZM120.7,26.775a1.28,1.28,0,0,0-1.27,1.27v1.067c-.423-.034-.864-.085-1.287-.119l-.881-2.066a1.272,1.272,0,0,0-1.169-.779h-6.1a80.073,80.073,0,0,0,12.772-6.3,17.456,17.456,0,0,1,.085,1.88v5.082a3.828,3.828,0,0,0-.44-.017H120.7Zm1.711,10.265h-.44v-5.3a39.2,39.2,0,0,0,3.981-.119,3.943,3.943,0,0,1,.322,1.558A3.86,3.86,0,0,1,122.406,37.04Zm9.57-10.858c-.474,1.287-2.151,2.236-4.76,2.71a.1.1,0,0,0-.085-.034,6.526,6.526,0,0,0-1.745-1.355V21.71a20.671,20.671,0,0,0-.271-3.4c.407-.288.813-.559,1.2-.847a25.422,25.422,0,0,1,3.794,3.642C131.3,22.523,132.569,24.556,131.976,26.182Z"/>
    </g>
  </g>
</svg>
