<svg id="Grupo_1112748" data-name="Grupo 1112748" xmlns="http://www.w3.org/2000/svg" width="122.486" height="122.486" viewBox="0 0 122.486 122.486">
  <rect id="Rectángulo_402033" data-name="Rectángulo 402033" width="122.486" height="122.486" rx="5" transform="translate(0)" fill="#d7f5ea"/>
  <g id="Grupo_1115376" data-name="Grupo 1115376" transform="translate(12.554 12.46)">
    <g id="Grupo_1115375" data-name="Grupo 1115375" transform="translate(9.461 9.409)">
      <g id="Grupo_1115371" data-name="Grupo 1115371" transform="translate(1.004)">
        <path id="Trazado_885381" data-name="Trazado 885381" d="M69,49.184l6.542,5.471H24.32a1.315,1.315,0,0,1-1.312-1.312V50.5a1.315,1.315,0,0,1,1.312-1.312Z" transform="translate(-23.008 -43.74)" fill="#8d9ca8" fill-rule="evenodd"/>
        <path id="Trazado_885382" data-name="Trazado 885382" d="M73.584,53.014l1.962,1.641H24.321a1.315,1.315,0,0,1-1.312-1.312V50.5a1.315,1.315,0,0,1,1.312-1.312h.328V51.7a1.315,1.315,0,0,0,1.312,1.312Z" transform="translate(-23.008 -43.74)" fill="#8192a5" fill-rule="evenodd"/>
        <path id="Trazado_885383" data-name="Trazado 885383" d="M68.637,16h5.18a1.316,1.316,0,0,1,1.312,1.312V93.437a1.316,1.316,0,0,1-1.312,1.312h-5.18a1.316,1.316,0,0,1-1.312-1.312V17.312A1.316,1.316,0,0,1,68.637,16Z" transform="translate(-60.054 -16)" fill="#9facba" fill-rule="evenodd"/>
        <path id="Trazado_885384" data-name="Trazado 885384" d="M96.9,16h1.641a1.316,1.316,0,0,1,1.312,1.312V93.437a1.316,1.316,0,0,1-1.312,1.312H96.9a1.316,1.316,0,0,0,1.312-1.312V17.312A1.316,1.316,0,0,0,96.9,16Z" transform="translate(-84.774 -16)" fill="#8d9ca8" fill-rule="evenodd"/>
        <path id="Trazado_885385" data-name="Trazado 885385" d="M250.31,131.063h15.147a.987.987,0,0,1,.984.984v2.229a.987.987,0,0,1-.984.984H250.31a.987.987,0,0,1-.984-.984v-2.229A.987.987,0,0,1,250.31,131.063Z" transform="translate(-212.196 -112.186)" fill="#8192a5" fill-rule="evenodd"/>
        <path id="Trazado_885386" data-name="Trazado 885386" d="M265.281,131.063h.178a.987.987,0,0,1,.984.984v2.229a.987.987,0,0,1-.984.984H250.311a.987.987,0,0,1-.984-.984v-.39H264.3a.987.987,0,0,0,.984-.984v-1.838Z" transform="translate(-212.197 -112.186)" fill="#65788e" fill-rule="evenodd"/>
      </g>
      <g id="Grupo_1115372" data-name="Grupo 1115372" transform="translate(0 33.663)">
        <path id="Trazado_885387" data-name="Trazado 885387" d="M18.66,392.365h41.2a1.762,1.762,0,0,0,1.733-2.122,22.8,22.8,0,0,0-44.663,0,1.762,1.762,0,0,0,1.733,2.122Z" transform="translate(-16.891 -347.279)" fill="#8ac9fe" fill-rule="evenodd"/>
        <path id="Trazado_885388" data-name="Trazado 885388" d="M159.541,392.364h4.028a1.762,1.762,0,0,0,1.733-2.122,22.8,22.8,0,0,0-22.332-18.218q-1.018,0-2.014.088a22.805,22.805,0,0,1,20.318,18.13A1.763,1.763,0,0,1,159.541,392.364Z" transform="translate(-120.602 -347.278)" fill="#60b7ff" fill-rule="evenodd"/>
        <circle id="Elipse_11681" data-name="Elipse 11681" cx="11.523" cy="11.523" r="11.523" transform="matrix(0.16, -0.987, 0.987, 0.16, 9.142, 22.747)" fill="#f6dccd"/>
        <path id="Trazado_885389" data-name="Trazado 885389" d="M145.052,231.55a11.523,11.523,0,1,1-1.605,22.934,11.524,11.524,0,0,0,0-22.823A11.663,11.663,0,0,1,145.052,231.55Z" transform="translate(-122.684 -229.849)" fill="#f1cbbc" fill-rule="evenodd"/>
      </g>
      <g id="Grupo_1115373" data-name="Grupo 1115373" transform="translate(8.275 29.898)">
        <path id="Trazado_885390" data-name="Trazado 885390" d="M68.993,216.562H93.849a1.666,1.666,0,1,0,0-3.331h-.336q.036-.469.037-.947a12.133,12.133,0,0,0-8.394-11.542c.183-1.909-2.163-2.508-3.735-2.507s-3.918.6-3.735,2.507a12.133,12.133,0,0,0-8.394,11.542q0,.478.037.947h-.336a1.666,1.666,0,1,0,0,3.331Z" transform="translate(-67.327 -198.235)" fill="#ffe177" fill-rule="evenodd"/>
        <path id="Trazado_885391" data-name="Trazado 885391" d="M159.436,216.562h1.754a1.666,1.666,0,1,0,0-3.331h-.336q.036-.469.037-.947a12.133,12.133,0,0,0-8.394-11.542c.183-1.909-2.163-2.508-3.735-2.507a6.7,6.7,0,0,0-.877.058c1.437.19,3.009.873,2.857,2.449a12.133,12.133,0,0,1,8.394,11.542q0,.478-.037.947h.336a1.666,1.666,0,0,1,0,3.331Z" transform="translate(-134.668 -198.235)" fill="#ffd064" fill-rule="evenodd"/>
        <path id="Trazado_885392" data-name="Trazado 885392" d="M68.994,289.64a1.666,1.666,0,0,0,0,3.331H93.85a1.666,1.666,0,1,0,0-3.331Z" transform="translate(-67.328 -274.644)" fill="#ffc338" fill-rule="evenodd"/>
        <path id="Trazado_885393" data-name="Trazado 885393" d="M67.327,299.792a1.67,1.67,0,0,0,1.666,1.666H93.849a1.671,1.671,0,0,0,1.666-1.666Z" transform="translate(-67.327 -283.13)" fill="#ffd064" fill-rule="evenodd"/>
      </g>
      <g id="Grupo_1115374" data-name="Grupo 1115374" transform="translate(40.416 26.638)">
        <path id="Trazado_885394" data-name="Trazado 885394" d="M264.372,195.919l17.888-5.258,17.888,5.258a1.557,1.557,0,0,1,1.132,1.513v18.932a1.58,1.58,0,0,1-1.577,1.577H264.817a1.58,1.58,0,0,1-1.577-1.577V197.432A1.558,1.558,0,0,1,264.372,195.919Z" transform="translate(-263.24 -188.644)" fill="#8d9ca8" fill-rule="evenodd"/>
        <path id="Trazado_885395" data-name="Trazado 885395" d="M305.949,194.193l12.014-3.531,12.014,3.531v23.748H305.949Z" transform="translate(-298.942 -188.645)" fill="#8192a5" fill-rule="evenodd"/>
        <path id="Trazado_885396" data-name="Trazado 885396" d="M321.256,178.365h16.368a1.58,1.58,0,0,1,1.577,1.577v27.72H319.679v-27.72a1.58,1.58,0,0,1,1.577-1.577Z" transform="translate(-310.42 -178.365)" fill="#9facba" fill-rule="evenodd"/>
        <path id="Trazado_885397" data-name="Trazado 885397" d="M351.968,210.5h7.044a1.128,1.128,0,0,1,1.126,1.126v3.054a1.128,1.128,0,0,1-1.126,1.126h-7.044a1.128,1.128,0,0,1-1.126-1.126v-3.054A1.128,1.128,0,0,1,351.968,210.5Z" transform="translate(-336.47 -205.225)" fill="#d8ecfe" fill-rule="evenodd"/>
        <path id="Trazado_885398" data-name="Trazado 885398" d="M392.665,210.5h1.309a1.128,1.128,0,0,1,1.126,1.126v3.054a1.128,1.128,0,0,1-1.126,1.126h-1.309a1.128,1.128,0,0,0,1.126-1.126v-3.054A1.129,1.129,0,0,0,392.665,210.5Z" transform="translate(-371.431 -205.225)" fill="#c4e2ff" fill-rule="evenodd"/>
        <path id="Trazado_885399" data-name="Trazado 885399" d="M352.417,288.789h6.144a1.58,1.58,0,0,1,1.577,1.577v9.6h-9.3v-9.6A1.58,1.58,0,0,1,352.417,288.789Z" transform="translate(-336.468 -270.673)" fill="#eceff1" fill-rule="evenodd"/>
        <path id="Trazado_885400" data-name="Trazado 885400" d="M352.417,288.789h1.71a1.58,1.58,0,0,0-1.577,1.577v9.6h-1.71v-9.6A1.58,1.58,0,0,1,352.417,288.789Z" transform="translate(-336.468 -270.673)" fill="#d1d1d6" fill-rule="evenodd"/>
      </g>
    </g>
    <path id="Trazado_885401" data-name="Trazado 885401" d="M10.824,86.827A21.426,21.426,0,0,1,31.97,69.113h.009A21.426,21.426,0,0,1,53.126,86.827ZM26,8.115H17.57a1.312,1.312,0,0,0-1,1.275v4.132H10.611A1.312,1.312,0,0,0,9.3,14.834v5.471a1.313,1.313,0,0,0,1.313,1.313h5.957V72.055c-.254.212-.507.429-.755.653A24.043,24.043,0,0,0,8.011,88a1.311,1.311,0,0,0,1.3,1.452h45.32A1.312,1.312,0,0,0,55.939,88a24.112,24.112,0,0,0-17.5-20.631,12.811,12.811,0,0,0,6.1-8.447,2.976,2.976,0,0,0,.878-5.772,13.4,13.4,0,0,0-8.469-12.3,3.044,3.044,0,0,0-.72-1.346c-1.285-1.413-3.574-1.524-4.248-1.524h0c-.676,0-2.965.11-4.25,1.524A3.047,3.047,0,0,0,27,40.844l-.006,0V21.618H52.42l-2.8,5.337h-.9a2.3,2.3,0,0,0-2.3,2.3v2.229a2.3,2.3,0,0,0,2.3,2.3H63.872a2.3,2.3,0,0,0,2.3-2.3V29.251a2.3,2.3,0,0,0-2.3-2.3h-.9l-2.8-5.337h2.972a1.313,1.313,0,0,0,.842-2.32l-6.541-5.47a1.313,1.313,0,0,0-.842-.306H27V9.39a1.312,1.312,0,0,0-1-1.275ZM19.192,58.9v11.25a24.025,24.025,0,0,1,6.32-2.787,12.813,12.813,0,0,1-6.1-8.447c-.073,0-.147-.008-.22-.016Zm-7.27-39.911V16.147h4.645v2.846ZM24.373,10.7v31.54a13.4,13.4,0,0,0-5.18,6.915V10.7ZM56.13,16.147l3.4,2.846H27V16.147H56.13Zm3.881,10.808H52.584l2.8-5.337h1.826Zm3.532,4.2H49.052V29.579H63.543ZM42.785,52.971H39.577V47.4a1.312,1.312,0,1,0-2.625,0v5.575H27V47.4a1.312,1.312,0,1,0-2.625,0v5.575H21.165a10.778,10.778,0,0,1,5.992-9.321l.62,4.778a1.312,1.312,0,0,0,1.3,1.143,1.291,1.291,0,0,0,.171-.011,1.315,1.315,0,0,0,1.134-1.47L29.55,41.7c0-.019,0-.036-.005-.053s0-.032,0-.046a.166.166,0,0,1,0-.029v-.035c0-.014,0-.027.005-.039a.038.038,0,0,0,0-.012.331.331,0,0,1,.077-.161,4.156,4.156,0,0,1,4.7,0,.332.332,0,0,1,.077.161V41.5a.422.422,0,0,1,.006.045v.063c0,.015,0,.03,0,.046s0,.033,0,.052l-.83,6.385a1.313,1.313,0,0,0,2.6.338l.62-4.778a10.783,10.783,0,0,1,5.991,9.321Zm1.972,2.978a.359.359,0,0,1-.354.354H19.547a.353.353,0,1,1,0-.707H44.4A.358.358,0,0,1,44.757,55.949ZM31.98,66.487H31.97a10.2,10.2,0,0,1-9.859-7.56H41.838A10.2,10.2,0,0,1,31.98,66.487ZM65.708,42.611H72.38v2.682H65.708Zm-1.313,5.307a1.312,1.312,0,0,1-1.313-1.312V41.3a1.313,1.313,0,0,1,1.313-1.313h9.3A1.313,1.313,0,0,1,75,41.3v5.307a1.312,1.312,0,0,1-1.312,1.312ZM86.751,64.013H80.116V42.668l6.635,1.951ZM51.336,44.618l6.634-1.951V64.013H51.336ZM72.38,64.013H65.708V55.456H72.38Zm5.112-26.673V64.013H75V54.144a1.312,1.312,0,0,0-1.312-1.312h-9.3a1.313,1.313,0,0,0-1.313,1.312v9.869H60.6V37.339Zm10.943,5.037a1.312,1.312,0,0,1,.941,1.259V65.324a1.312,1.312,0,0,1-1.312,1.313H50.023a1.313,1.313,0,0,1-1.313-1.313V43.635a1.311,1.311,0,0,1,.942-1.259l8.318-2.445v-3.9a1.313,1.313,0,0,1,1.313-1.313H78.8a1.312,1.312,0,0,1,1.312,1.313v3.9Z" fill-rule="evenodd"/>
  </g>
</svg>
