<svg id="Grupo_1112749" data-name="Grupo 1112749" xmlns="http://www.w3.org/2000/svg" width="122.486" height="122.486" viewBox="0 0 122.486 122.486">
  <rect id="Rectángulo_402033" data-name="Rectángulo 402033" width="122.486" height="122.486" rx="5" transform="translate(0)" fill="#d7f5ea"/>
  <g id="Grupo_1115377" data-name="Grupo 1115377" transform="translate(1.555 1.546)">
    <path id="Trazado_885402" data-name="Trazado 885402" d="M410.378,153.326l3.833-7.182a7.137,7.137,0,0,0,.84-3.36h0a7.137,7.137,0,0,0-3.465-6.12L410.481,136h-5.625v5.826l-6.042,5.718h0l11.564,5.782Z" transform="translate(-313.126 -98.15)" fill="#ffceb6"/>
    <rect id="Rectángulo_409509" data-name="Rectángulo 409509" width="11.708" height="18.913" rx="5.854" transform="translate(88.964 25.038)" fill="#4f5dff"/>
    <path id="Trazado_885403" data-name="Trazado 885403" d="M352,214.572l8.523-15.165,11.564,5.782-9.408,17.63H352Z" transform="translate(-274.834 -150.014)" fill="#f78e00"/>
    <path id="Trazado_885404" data-name="Trazado 885404" d="M406.312,156.481v-4.135a4.369,4.369,0,0,0-1.342-3.15l-2.087-2.006a1.416,1.416,0,0,0-1.918-.04h0a1.416,1.416,0,0,0-.479,1.061V153.4l-1.672,2.976Z" transform="translate(-313.126 -106.98)" fill="#ffceb6"/>
    <path id="Trazado_885405" data-name="Trazado 885405" d="M69.756,214.572l-8.523-15.165L49.67,205.189l9.408,17.63H69.756Z" transform="translate(-27.546 -150.014)" fill="#f78e00"/>
    <path id="Trazado_885406" data-name="Trazado 885406" d="M28.673,153.326l-3.833-7.182a7.137,7.137,0,0,1-.84-3.36h0a7.137,7.137,0,0,1,3.465-6.12L28.571,136H34.2v5.826l6.042,5.718h0l-11.564,5.782Z" transform="translate(-6.549 -98.15)" fill="#ffceb6"/>
    <path id="Trazado_885407" data-name="Trazado 885407" d="M124.967,272.063V278h-9.139l-7.4-10.352v30.586H76.391V267.652l-7.282,10.2H56L67.539,260.54A10.193,10.193,0,0,1,76.021,256H108.8a10.193,10.193,0,0,1,8.482,4.54Z" transform="translate(-32.723 -196.303)" fill="#ffa100"/>
    <path id="Trazado_885408" data-name="Trazado 885408" d="M237.826,296l2.913,17.478-4.369,4.369L232,313.478,234.913,296Z" transform="translate(-176.681 -229.021)" fill="#ef5e3b"/>
    <path id="Trazado_885409" data-name="Trazado 885409" d="M160,456h21.847v2.913a2.913,2.913,0,0,1-2.913,2.913H160Z" transform="translate(-117.789 -359.892)" fill="#3942ed"/>
    <path id="Trazado_885410" data-name="Trazado 885410" d="M31.282,396.39,24,376H45.847l7.282,20.39Z" transform="translate(-6.549 -294.456)" fill="#4f5dff"/>
    <circle id="Elipse_11682" data-name="Elipse 11682" cx="2.702" cy="2.702" r="2.702" transform="translate(29.524 88.981)" fill="#788dff"/>
    <path id="Trazado_885411" data-name="Trazado 885411" d="M363.673,319.282,346.2,312,336,338.216l17.478,5.826Z" transform="translate(-261.747 -242.108)" fill="#ffc431"/>
    <path id="Trazado_885412" data-name="Trazado 885412" d="M416,388.369h5.826v-2.31a2.06,2.06,0,0,1,2.06-2.06h0a2.06,2.06,0,0,1,1.456.6l3.766,3.766v4.369a4.369,4.369,0,0,1-4.369,4.369h-5.826A2.913,2.913,0,0,1,416,394.2Z" transform="translate(-327.183 -301)" fill="#ffceb6"/>
    <rect id="Rectángulo_409510" data-name="Rectángulo 409510" width="2.702" height="5.404" transform="translate(23.22 27.739)" fill="#ffa100"/>
    <path id="Trazado_885413" data-name="Trazado 885413" d="M53.826,112H48v8.739a2.913,2.913,0,0,0,2.913,2.913h0a2.913,2.913,0,0,0,2.913-2.913Z" transform="translate(-26.18 -78.52)" fill="#c47220"/>
    <path id="Trazado_885414" data-name="Trazado 885414" d="M241.456,269.826,240,266.913,242.913,264l2.913,2.913-1.456,2.913Z" transform="translate(-183.225 -202.847)" fill="#e04f2b"/>
    <path id="Trazado_885415" data-name="Trazado 885415" d="M225.478,144v13.108a8.739,8.739,0,0,1-8.739,8.739h0A8.739,8.739,0,0,1,208,157.108v-5.826L215.282,144Z" transform="translate(-157.051 -104.694)" fill="#ffceb6"/>
    <path id="Trazado_885416" data-name="Trazado 885416" d="M225.478,111.282l.923-.461a3.6,3.6,0,0,0,1.99-3.22h0a3.6,3.6,0,0,0-3.6-3.6h-9.508A7.282,7.282,0,0,0,208,111.282v7.282l7.282-7.282Z" transform="translate(-157.051 -71.976)" fill="#c47220"/>
    <path id="Trazado_885417" data-name="Trazado 885417" d="M72,156.481v-4.135a4.369,4.369,0,0,1,1.342-3.15l2.087-2.006a1.416,1.416,0,0,1,1.918-.04h0a1.416,1.416,0,0,1,.479,1.061V153.4l1.672,2.976Z" transform="translate(-45.811 -106.98)" fill="#ffceb6"/>
    <circle id="Elipse_11683" data-name="Elipse 11683" cx="5.854" cy="5.854" r="5.854" transform="translate(18.717 17.833)" fill="#8be0e8"/>
    <path id="Trazado_885418" data-name="Trazado 885418" d="M84.369,408a4.369,4.369,0,1,0,4.369,4.369A4.369,4.369,0,0,0,84.369,408Zm0,5.826a1.456,1.456,0,1,1,1.456-1.456A1.456,1.456,0,0,1,84.369,413.826Z" transform="translate(-52.354 -320.631)"/>
    <ellipse id="Elipse_11684" data-name="Elipse 11684" cx="1.351" cy="1.801" rx="1.351" ry="1.801" transform="translate(56.542 44.851)"/>
    <path id="Trazado_885419" data-name="Trazado 885419" d="M2.06,0,0,2.06A6.387,6.387,0,0,0,4.546,3.943H8.312V1.03H4.546A3.492,3.492,0,0,1,2.06,0Z" transform="translate(64.057 55.327) rotate(180)"/>
    <ellipse id="Elipse_11685" data-name="Elipse 11685" cx="1.351" cy="1.801" rx="1.351" ry="1.801" transform="translate(62.847 44.851)"/>
    <path id="Trazado_885420" data-name="Trazado 885420" d="M100.674,149.485l2.6-6.324a1.456,1.456,0,0,0-.787-1.9L90.8,136.39l-5.019-7.529a11.629,11.629,0,0,0-9.695-5.188H68.053a10.136,10.136,0,0,0,1.836-5.826V105.639l.117-.059A5.057,5.057,0,0,0,67.745,96H58.237a8.749,8.749,0,0,0-8.739,8.739v13.108a10.136,10.136,0,0,0,1.836,5.826H43.3a11.629,11.629,0,0,0-9.695,5.188L22.5,145.52H17.456a1.457,1.457,0,0,0-1.372,1.946l7.282,20.391a1.457,1.457,0,0,0,1.372.967H61.15a4.374,4.374,0,0,0,4.369-4.369v-2.913a1.457,1.457,0,0,0-1.456-1.456H45.531l-.4-1.126V136.781a1.456,1.456,0,0,0-2.642-.846l-6.847,9.585H26l10.028-15.043a8.722,8.722,0,0,1,7.271-3.891h6.666l2.547,6.367a1.457,1.457,0,0,0,2.382.489l1.484-1.484.341.682-2.835,17.01a1.458,1.458,0,0,0,.407,1.269l4.369,4.369a1.457,1.457,0,0,0,2.06,0l4.369-4.369a1.457,1.457,0,0,0,.407-1.269l-2.835-17.01.341-.682,1.484,1.484a1.456,1.456,0,0,0,2.382-.489l2.547-6.367h6.666a8.722,8.722,0,0,1,7.271,3.891l2.6,3.894-.937-.391a1.457,1.457,0,0,0-1.918.817l-2.471,6.353L76.9,135.935a1.456,1.456,0,0,0-2.642.846v20.742L72.9,161.013a1.457,1.457,0,0,0,.9,1.91l.461.153v5.747h2.913v-4.776l14.1,4.7a1.455,1.455,0,0,0,1.807-.827L95.11,163h2.452a5.833,5.833,0,0,0,5.826-5.826V152.8a1.457,1.457,0,0,0-.426-1.03ZM62.607,163v1.456a1.458,1.458,0,0,1-1.456,1.456H47.612L46.572,163Zm-20.39-21.671V150.8l-1.541-4.316a1.457,1.457,0,0,0-1.372-.967h-.083Zm-3.939,7.107,6.242,17.478H25.765l-6.242-17.478Zm14.135-43.694a5.833,5.833,0,0,1,5.826-5.826h9.508a2.144,2.144,0,0,1,.959,4.062l-.615.308H58.237a1.457,1.457,0,0,0-1.03.426l-4.8,4.8ZM54.4,129.82l-1.294-3.234h1.342a10.148,10.148,0,0,0,2.2.99ZM59.694,152.2l-2.809-2.81,2.587-15.521h.445L62.5,149.389Zm-1.141-22.412,1.141-1.141,1.141,1.141-.584,1.169H59.138Zm6.435.034-2.244-2.244a10.149,10.149,0,0,0,2.2-.99h1.342Zm1.988-11.973a7.282,7.282,0,1,1-14.565,0v-5.223l6.429-6.429h8.136Zm10.2,23.479,2.192,3.069-2.192,5.637Zm13.735,24.229-14.736-4.912,9.1-23.4,14.762,6.151-1.65,4.006a3.517,3.517,0,0,0-5.19,3.093v.853H88.823a1.456,1.456,0,0,0-1.456,1.456v5.826A4.374,4.374,0,0,0,91.736,163h.224Zm9.568-8.384a2.916,2.916,0,0,1-2.913,2.913H91.736a1.458,1.458,0,0,1-1.456-1.456v-4.369h4.369a1.456,1.456,0,0,0,1.456-1.456v-2.31a.6.6,0,0,1,1.03-.427l3.34,3.339Z" transform="translate(-0.006 -65.433)"/>
    <path id="Trazado_885421" data-name="Trazado 885421" d="M26.361,66.208l2.57-1.371-4.818-9.028L33.1,51.317,36.572,57.5l2.539-1.427L33.472,46.037V41.231A2.869,2.869,0,0,0,29.1,38.783v-5.3a1.457,1.457,0,0,0-1.456-1.456H26.189v-1.6a7.282,7.282,0,1,0-2.913,0v1.6H21.82a1.457,1.457,0,0,0-1.456,1.456v3.666l-.2.118a8.593,8.593,0,0,0-3.16,11.414Zm-6-42.923a4.369,4.369,0,1,1,4.369,4.369A4.369,4.369,0,0,1,20.364,23.285Zm2.913,11.652h2.913v6.579a5.863,5.863,0,0,0-1.2,2.134,1.443,1.443,0,0,1-1.718-1.43Zm-2.913,5.906v1.376a4.374,4.374,0,0,0,4.369,4.369v1.286h2.913V45.366a2.927,2.927,0,0,1,.894-2.1l2.018-1.939v5.092a1.456,1.456,0,0,0,.187.714l.923,1.643-8.928,4.464-3.165-5.931a5.667,5.667,0,0,1,.787-6.464Z"/>
    <path id="Trazado_885422" data-name="Trazado 885422" d="M378.244,97.064l1.725,2.347a8.9,8.9,0,0,0,2.487-2.8l8.585-15.149a8.477,8.477,0,0,0-.25-8.773l-.1.067V60.369A4.374,4.374,0,0,0,386.317,56h-5.826a4.374,4.374,0,0,0-4.369,4.369V71.45a2.824,2.824,0,0,0-.485.343,2.874,2.874,0,0,0-.971,2.153v4.806l-5.639,10.033,2.539,1.427,3.474-6.181,8.725,4.362-3.842,6.78A6,6,0,0,1,378.244,97.064Zm2.248-38.151h1.456a1.456,1.456,0,0,0,2.913,0h1.456a1.458,1.458,0,0,1,1.456,1.456V73.478a1.458,1.458,0,0,1-1.456,1.456h-3.84a5.787,5.787,0,0,0-.862-1.054l-2.087-2.006a2.825,2.825,0,0,0-.493-.376V60.369a1.458,1.458,0,0,1,1.456-1.456Zm-4.023,22.576.923-1.643a1.457,1.457,0,0,0,.187-.714V74.041l2.018,1.939a2.927,2.927,0,0,1,.894,2.1v2.508H383.4V78.081c0-.078,0-.156-.006-.234h2.919a4.35,4.35,0,0,0,2.885-1.092c.017.175.028.35.028.527a5.576,5.576,0,0,1-.723,2.743l-3.3,5.831Z" transform="translate(-288.761 -32.715)"/>
  </g>
</svg>
