<svg xmlns="http://www.w3.org/2000/svg" width="110" height="110" viewBox="0 0 110 110">
  <g id="Grupo_1112801" data-name="Grupo 1112801" transform="translate(-273.332 -3741.5)">
    <rect id="Rectángulo_402033" data-name="Rectángulo 402033" width="110" height="110" rx="5" transform="translate(273.332 3741.5)" fill="#d8b3fe"/>
    <g id="Grupo_1115429" data-name="Grupo 1115429" transform="translate(286.972 3676.659)">
      <path id="Trazado_885519" data-name="Trazado 885519" d="M354.4,137.323h-6.928a.808.808,0,0,1-.808-.808V124.567a.808.808,0,0,1,.808-.808H354.4a.808.808,0,0,1,.593.259l2.9,3.133a.808.808,0,0,1,.215.549v5.683a.808.808,0,0,1-.215.549l-2.9,3.133A.808.808,0,0,1,354.4,137.323Z" transform="translate(-290.658 -20.752)" fill="#8e8391"/>
      <path id="Trazado_885520" data-name="Trazado 885520" d="M353.135,137.323H347.48a.807.807,0,0,1-.808-.808V124.566a.807.807,0,0,1,.808-.808h5.655a.807.807,0,0,0-.808.808v11.949A.807.807,0,0,0,353.135,137.323Z" transform="translate(-290.662 -20.751)" fill="#766d78"/>
      <path id="Trazado_885521" data-name="Trazado 885521" d="M311.566,126.747H314.6a1.991,1.991,0,0,0,1.991-1.991V110.124a1.991,1.991,0,0,0-1.991-1.991h-3.036a1.991,1.991,0,0,0-1.991,1.991l-1.824,6.429,1.824,8.2A1.991,1.991,0,0,0,311.566,126.747Z" transform="translate(-258.03 -7.651)" fill="#544f56"/>
      <path id="Trazado_885522" data-name="Trazado 885522" d="M315.265,126.629a2,2,0,0,1-.664.113h-3.036a1.99,1.99,0,0,1-1.99-1.99l-1.824-8.2,1.824-6.429a1.992,1.992,0,0,1,1.99-1.992H314.6a2,2,0,0,1,.664.113,1.992,1.992,0,0,0-1.328,1.879v14.631A1.99,1.99,0,0,0,315.265,126.629Z" transform="translate(-258.03 -7.647)" fill="#444145"/>
      <path id="Trazado_885523" data-name="Trazado 885523" d="M107.652,223.344a32.409,32.409,0,0,0,1.85,11.113,2.519,2.519,0,0,1-2.344,3.42h-7.82V223.344Z" transform="translate(-83.289 -104.248)" fill="#da2f3c"/>
      <path id="Trazado_885524" data-name="Trazado 885524" d="M57.829,108.5v15.368a2.792,2.792,0,0,1-.816,1.973l-3.737,3.737A4.852,4.852,0,0,1,49.85,131H27.459a1.991,1.991,0,0,0-1.96,1.645c-2.581,14.627-2.427,13.7-2.427,13.862a1.147,1.147,0,0,0,1.145,1.144,3.646,3.646,0,0,1,3.669,3.344,3.583,3.583,0,0,1-3.575,3.823H11.054a2.984,2.984,0,0,1-2.939-3.506l.9-5.136,2.949-16.722L14.1,117.368a2.948,2.948,0,0,0-2.9-3.459,3.7,3.7,0,0,1-3.7-3.836,3.759,3.759,0,0,1,3.787-3.564H55.837A1.99,1.99,0,0,1,57.829,108.5Z" transform="translate(-6.284 -6.289)" fill="#fdc202"/>
      <path id="Trazado_885525" data-name="Trazado 885525" d="M116.794,150.286h-13.41a1.616,1.616,0,0,1-1.616-1.616V140.86a1.616,1.616,0,0,1,1.616-1.616h13.41a1.616,1.616,0,0,1,1.616,1.616v7.811A1.616,1.616,0,0,1,116.794,150.286Z" transform="translate(-85.326 -33.735)" fill="#544f56"/>
      <path id="Trazado_885526" data-name="Trazado 885526" d="M19.751,117.368,17.622,129.45l-2.949,16.722-.9,5.136a2.984,2.984,0,0,0,2.939,3.506H11.053a2.984,2.984,0,0,1-2.939-3.506l.9-5.136,2.948-16.722L14.1,117.368a2.948,2.948,0,0,0-2.9-3.459,3.7,3.7,0,0,1-3.7-3.836,3.759,3.759,0,0,1,3.787-3.564h5.655a3.759,3.759,0,0,0-3.787,3.564,3.7,3.7,0,0,0,3.7,3.836,2.948,2.948,0,0,1,2.9,3.459Z" transform="translate(-6.282 -6.289)" fill="#f0a70a"/>
      <path id="Trazado_885527" data-name="Trazado 885527" d="M27.347,251.344l-2.093,11.875a2.423,2.423,0,0,1-2.387,2H16.939L19.888,248.5H24.96A2.423,2.423,0,0,1,27.347,251.344Z" transform="translate(-14.202 -125.34)" fill="#544f56"/>
      <path id="Trazado_885528" data-name="Trazado 885528" d="M25.53,248.568l-2.937,16.654H16.938L19.886,248.5h5.073A2.357,2.357,0,0,1,25.53,248.568Z" transform="translate(-14.201 -125.34)" fill="#444145"/>
      <path id="Trazado_885529" data-name="Trazado 885529" d="M109.039,150.29h-5.655a1.616,1.616,0,0,1-1.616-1.616v-7.81a1.615,1.615,0,0,1,1.616-1.616h5.655a1.615,1.615,0,0,0-1.616,1.616v7.81A1.616,1.616,0,0,0,109.039,150.29Z" transform="translate(-85.327 -33.74)" fill="#444145"/>
      <g id="Grupo_1115428" data-name="Grupo 1115428" transform="translate(0 99.008)">
        <path id="Trazado_885530" data-name="Trazado 885530" d="M81.507,108.618c-1.276,0-1.424-.934-3.062-.934a3.268,3.268,0,0,0-2.866,1.7.841.841,0,0,1-1.228.283c-2.157-1.531-4.1-.958-5.687-1.085v-1.947a1.212,1.212,0,0,0-.322-.823l-3.354-3.624a1.212,1.212,0,0,0-.889-.389H59.7a3.207,3.207,0,0,0-3.129-2.525H53.538a3.182,3.182,0,0,0-1.828.577,3.188,3.188,0,0,0-2.155-.839H14.532a1.212,1.212,0,0,0,0,2.423H49.555a.78.78,0,0,1,.78.779v15.368a1.588,1.588,0,0,1-.461,1.116l-3.736,3.736a3.616,3.616,0,0,1-2.571,1.064H21.176a3.2,3.2,0,0,0-3.153,2.646c-2.528,14.406-2.445,13.672-2.445,14.073a2.359,2.359,0,0,0,2.357,2.356,2.373,2.373,0,1,1,.094,4.744H4.772a1.771,1.771,0,0,1-1.746-2.084l.729-4.135H8.666a3.63,3.63,0,0,0,3.58-3l.41-2.328a1.212,1.212,0,0,0-2.387-.421l-.41,2.328a1.21,1.21,0,0,1-1.193,1H4.182l1.653-9.377.868-4.921h4.056a1.21,1.21,0,0,1,1.193,1.422l-.841,4.773a1.212,1.212,0,0,0,2.387.421c.848-4.913.9-4.853.9-5.409a3.637,3.637,0,0,0-3.636-3.63H7.13c2.047-11.614,1.943-10.876,1.943-11.388a4.162,4.162,0,0,0-4.161-4.153,2.492,2.492,0,0,1-2.489-2.49c0-.03,0-.059,0-.09A2.557,2.557,0,0,1,5,101.432H9.685a1.212,1.212,0,1,0,0-2.423H5a4.941,4.941,0,0,0-5,4.731q0,.09,0,.179a4.918,4.918,0,0,0,4.913,4.913,1.735,1.735,0,0,1,1.737,1.73c0,.247.338-1.763-6.01,34.246a4.2,4.2,0,0,0,4.132,4.929H18.029a4.795,4.795,0,1,0-.016-9.59l.936-5.306H23.87a3.714,3.714,0,0,0,3.051-1.6,3.762,3.762,0,0,0,.428-3.461,26.368,26.368,0,0,1-1.1-3.865h17.32a6.024,6.024,0,0,0,4.284-1.773l3.737-3.737a3.943,3.943,0,0,0,.416-.492,3.182,3.182,0,0,0,1.534.392h3.036a3.207,3.207,0,0,0,3.129-2.524h4.4a1.212,1.212,0,0,0,.889-.389l3.354-3.625a1.212,1.212,0,0,0,.322-.823V111c1.748.1,2.94-.317,4.285.638a3.268,3.268,0,0,0,4.754-1.092.842.842,0,0,1,1.209-.3,4.649,4.649,0,0,0,2.6.79,1.212,1.212,0,0,0,0-2.424ZM25.079,130.632a1.32,1.32,0,0,1-.149,1.231,1.273,1.273,0,0,1-1.06.553H19.377l1.033-5.854a.778.778,0,0,1,.767-.644h2.6A29.229,29.229,0,0,0,25.079,130.632Zm41.161-18.161-2.672,2.888H59.776v-3.4a1.212,1.212,0,1,0-2.423,0v5.145a.78.78,0,0,1-.779.779H53.538a.78.78,0,0,1-.779-.779V102.473a.78.78,0,0,1,.779-.779h3.036a.78.78,0,0,1,.779.779v4.64a1.212,1.212,0,0,0,2.423,0v-2.895h3.793l2.672,2.887Z" transform="translate(0 -99.008)"/>
        <path id="Trazado_885531" data-name="Trazado 885531" d="M97.1,145.21h13.41a2.831,2.831,0,0,0,2.827-2.827v-7.81a2.831,2.831,0,0,0-2.827-2.827H97.1a2.831,2.831,0,0,0-2.827,2.827v7.81A2.83,2.83,0,0,0,97.1,145.21Zm-.4-10.638a.4.4,0,0,1,.4-.4h13.41a.4.4,0,0,1,.4.4v7.81a.4.4,0,0,1-.4.4H97.1a.4.4,0,0,1-.4-.4Z" transform="translate(-79.044 -126.456)"/>
        <path id="Trazado_885532" data-name="Trazado 885532" d="M255.721,138.255h3.191a1.212,1.212,0,1,0,0-2.423h-3.191a1.212,1.212,0,1,0,0,2.423Z" transform="translate(-213.39 -129.883)"/>
        <path id="Trazado_885533" data-name="Trazado 885533" d="M255.721,168.339h3.191a1.212,1.212,0,0,0,0-2.423h-3.191a1.212,1.212,0,1,0,0,2.423Z" transform="translate(-213.39 -155.106)"/>
        <path id="Trazado_885534" data-name="Trazado 885534" d="M255.721,198.423h3.191a1.212,1.212,0,1,0,0-2.423h-3.191a1.212,1.212,0,1,0,0,2.423Z" transform="translate(-213.39 -180.33)"/>
        <path id="Trazado_885535" data-name="Trazado 885535" d="M127.987,168.339h6.139a1.212,1.212,0,1,0,0-2.423h-6.139a1.212,1.212,0,0,0,0,2.423Z" transform="translate(-106.293 -155.106)"/>
      </g>
    </g>
  </g>
</svg>
