<svg xmlns="http://www.w3.org/2000/svg" width="80" height="80" viewBox="0 0 80 80">
  <g id="Grupo_1115465" data-name="Grupo 1115465" transform="translate(-1045.14 -8646)">
    <g id="Grupo_1115451" data-name="Grupo 1115451" transform="translate(1018.106 8647)">
      <g id="Grupo_1115450" data-name="Grupo 1115450" transform="translate(33.033)">
        <path id="Trazado_885611" data-name="Trazado 885611" d="M197.5,165.161h-2.52a5.045,5.045,0,0,0-5.04,5.039,2.523,2.523,0,0,0,2.52,2.52h7.559a2.523,2.523,0,0,0,2.52-2.52A5.045,5.045,0,0,0,197.5,165.161Zm2.52,5.04h-7.559a2.523,2.523,0,0,1,2.52-2.52h2.52a2.525,2.525,0,0,1,2.521,2.52Z" transform="translate(-165.998 -139.963)" fill="#12263f"/>
        <path id="Trazado_885612" data-name="Trazado 885612" d="M185.63,121.3l-2.254-1.127a5.506,5.506,0,0,1-3.2,2.779l-1.107.369.8,2.391,1.107-.369A8.008,8.008,0,0,0,185.63,121.3Z" transform="translate(-156.786 -101.843)" fill="#12263f"/>
        <path id="Trazado_885613" data-name="Trazado 885613" d="M242.609,120.179l-2.254,1.127a8.008,8.008,0,0,0,4.661,4.043l1.107.369.8-2.391-1.107-.369A5.5,5.5,0,0,1,242.609,120.179Z" transform="translate(-208.725 -101.844)" fill="#12263f"/>
        <path id="Trazado_885614" data-name="Trazado 885614" d="M136.162,16.379a5.711,5.711,0,0,0-5.7,5.7,4.381,4.381,0,0,0,3.6,4.3l-.821,11.495-.651-.579a33.931,33.931,0,0,0-9.689-6.045V12.472A12.472,12.472,0,0,0,105.259,1.121,12.472,12.472,0,0,0,87.621,12.472V34.1a15.191,15.191,0,0,0-5.04,11.323v7.5a2.523,2.523,0,0,0,2.52,2.52V78.113h35.277V45.14s0-.005,0-.008l10.244,6.519a8.09,8.09,0,0,0,12.434-6.825V23.273A6.9,6.9,0,0,0,136.162,16.379Zm-19.052,13.1a12.472,12.472,0,0,0,.495-1.756h.254a5.008,5.008,0,0,0,2.52-.678v3.3Q118.771,29.828,117.11,29.474Zm-11.851,5.8A10.091,10.091,0,0,1,95.18,25.2V17.936A3.281,3.281,0,0,1,97,14.986l.7-.348V13.462a.863.863,0,0,1,1.7-.209l.133.531a5.089,5.089,0,0,0,8.974,1.865,8.862,8.862,0,0,0,5.573,1.99,3.765,3.765,0,0,0,1.26-.217V25.2A10.09,10.09,0,0,1,105.259,35.277ZM110.38,36.7l-.79,2.765-2.424-1.818A12.483,12.483,0,0,0,110.38,36.7Zm-7.029.948-2.424,1.818-.79-2.765A12.481,12.481,0,0,0,103.352,37.652ZM92.66,25.2a2.52,2.52,0,1,1,0-5.04Zm25.2-5.04a2.52,2.52,0,0,1,0,5.04ZM100.092,2.52a10,10,0,0,1,4.45,1.05l.716.358.716-.358a9.952,9.952,0,0,1,14.4,8.9v5.845a5.008,5.008,0,0,0-2.52-.678V13.859a3.784,3.784,0,0,0-3.78-3.78,4.274,4.274,0,0,0-3.042,1.26l-.369.369,1.782,1.782.369-.369a1.77,1.77,0,0,1,1.26-.522,1.26,1.26,0,0,1,0,2.52,6.329,6.329,0,0,1-5.04-2.52l-1.512-2.016L105.511,12.1l1.244,1.659-.147.221a2.57,2.57,0,0,1-4.631-.8l-.133-.531a3.382,3.382,0,0,0-6.648.489,5.777,5.777,0,0,0-2.527,4.508H92.66a5.008,5.008,0,0,0-2.52.678V12.472A9.963,9.963,0,0,1,100.092,2.52ZM90.14,27.04a5.007,5.007,0,0,0,2.52.678h.254a12.49,12.49,0,0,0,1,2.964,15.236,15.236,0,0,0-3.778,1.571Zm-2.52,28.4h5.04V75.594h-5.04Zm20.158,20.158V71.333l1.823-.912-1.127-2.254-1.956.978-1.956-.978-1.127,2.254,1.823.912v4.261H95.18V65.514h22.678V75.594H107.779Zm12.968-37.428a9.8,9.8,0,0,0-2.889,6.974V62.995H95.18V49.658c0-3.606-.411-5.234-1.629-6.452l-1.782,1.782c.469.469.891,1.18.891,4.67v3.258H85.1v-7.5A12.789,12.789,0,0,1,95.329,32.938a12.709,12.709,0,0,0,1.6,1.7l2.585,9.047,5.748-4.311,5.748,4.311,2.585-9.047a12.688,12.688,0,0,0,2.382-2.821,31.379,31.379,0,0,1,12.544,5.447l-4.5,7.2-3.138-2a7.324,7.324,0,0,1,1.648-2.517Zm19.789,6.66a5.571,5.571,0,0,1-8.561,4.7l-5.831-3.711,4.363-6.981q.2.175.405.354l2.1,1.865-.02.282c-.009.132-.014.265-.014.4v.585a5.525,5.525,0,0,0,1.629,3.933l1.782-1.782a3.021,3.021,0,0,1-.891-2.151V41.73c0-.072,0-.145.008-.217l1.1-15.428a4.355,4.355,0,0,0,2.138-2.046l.4-.8-2.254-1.127-.4.8a1.855,1.855,0,0,1-3.514-.829,3.189,3.189,0,0,1,3.185-3.185,4.379,4.379,0,0,1,4.374,4.374Z" transform="translate(-75.022)" fill="#12263f"/>
        <path id="Trazado_885615" data-name="Trazado 885615" d="M367.135,356.969a4.3,4.3,0,0,0,0-6.083l-1.629-1.629-1.782,1.782,1.629,1.629a1.782,1.782,0,0,1,0,2.52l-.738.738a4.3,4.3,0,0,0,0,6.083l.738.738a1.782,1.782,0,0,1,0,2.52l-.738.738a4.3,4.3,0,0,0,0,6.083l1.629,1.629,1.782-1.782-1.629-1.629a1.782,1.782,0,0,1,0-2.52l.738-.738a4.3,4.3,0,0,0,0-6.083l-.738-.738a1.782,1.782,0,0,1,0-2.52Z" transform="translate(-312.959 -295.973)" fill="#12263f"/>
        <path id="Trazado_885616" data-name="Trazado 885616" d="M36.812,340.453a4.3,4.3,0,0,0,0-6.083l-1.629-1.629L33.4,334.523l1.629,1.629a1.782,1.782,0,0,1,0,2.52l-.738.738a4.3,4.3,0,0,0,0,6.083l.738.738a1.782,1.782,0,0,1,0,2.52l-.738.738a4.3,4.3,0,0,0,0,6.083l1.629,1.629,1.782-1.782-1.629-1.629a1.782,1.782,0,0,1,0-2.52l.738-.738a4.3,4.3,0,0,0,0-6.083l-.738-.738a1.782,1.782,0,0,1,0-2.52Z" transform="translate(-33.033 -281.976)" fill="#12263f"/>
      </g>
    </g>
    <rect id="Rectángulo_409531" data-name="Rectángulo 409531" width="80" height="80" transform="translate(1045.14 8646)" fill="none"/>
  </g>
</svg>
