<svg xmlns="http://www.w3.org/2000/svg" width="80" height="80" viewBox="0 0 80 80">
  <g id="Grupo_1115466" data-name="Grupo 1115466" transform="translate(-628.14 -8646)">
    <g id="Grupo_1115449" data-name="Grupo 1115449" transform="translate(629.87 8645)">
      <rect id="Rectángulo_409525" data-name="Rectángulo 409525" width="2.42" height="2.42" transform="translate(48.142 67.69)" fill="#12263f"/>
      <rect id="Rectángulo_409526" data-name="Rectángulo 409526" width="2.42" height="2.42" transform="translate(27.571 67.69)" fill="#12263f"/>
      <rect id="Rectángulo_409527" data-name="Rectángulo 409527" width="3.649" height="2.581" transform="translate(42.217 58.152) rotate(-45)" fill="#12263f"/>
      <rect id="Rectángulo_409528" data-name="Rectángulo 409528" width="2.581" height="3.649" transform="translate(34.476 62.558) rotate(-45)" fill="#12263f"/>
      <path id="Trazado_885607" data-name="Trazado 885607" d="M33.161,31A5.161,5.161,0,0,0,28,36.161h2.581a2.581,2.581,0,1,1,5.161,0h2.581A5.161,5.161,0,0,0,33.161,31Z" transform="translate(6.097 8.71)" fill="#12263f"/>
      <path id="Trazado_885608" data-name="Trazado 885608" d="M59.387,54.045l-11.1-2.465v-2.7a18.143,18.143,0,0,0,7.821-9.169h.566a5.791,5.791,0,0,0,1.6-11.355l1.574-2.36a15.688,15.688,0,0,0-1.96-19.8l-.6-.6A15.585,15.585,0,0,0,46.2,1H32.319a15.585,15.585,0,0,0-11.1,4.595l-.6.6a15.688,15.688,0,0,0-1.96,19.795l1.574,2.36a5.791,5.791,0,0,0,1.6,11.361h.566a18.143,18.143,0,0,0,7.821,9.169v2.7l-11.1,2.465A15.39,15.39,0,0,0,7,69.16V79.71A1.29,1.29,0,0,0,8.29,81H70.226a1.29,1.29,0,0,0,1.29-1.29V69.16A15.39,15.39,0,0,0,59.387,54.045Zm4.667,5-1.7,1.134a1.04,1.04,0,0,1-.579.175h-.431a3.605,3.605,0,0,0-3.241,2,1.039,1.039,0,0,1-.934.577h-.76a1.023,1.023,0,0,1-.329-.054l-.926-.308a2.493,2.493,0,0,1-1.29-3.742l1.946-2.917-.035-.025,3.05.679a12.933,12.933,0,0,1,5.236,2.477Zm-24.8-10.3a15.392,15.392,0,0,1-9.524-3.3V43.392a.534.534,0,0,1,.225-.465,3.15,3.15,0,0,0,1.274-4.053A4.48,4.48,0,0,0,29.342,36.8a3.836,3.836,0,0,0-4.174.281l-.754.556a15.422,15.422,0,0,1-.64-4.377V28.1h2.957a15.2,15.2,0,0,0,12.526-6.512A15.2,15.2,0,0,0,51.785,28.1h2.957v5.161A15.5,15.5,0,0,1,39.258,48.742ZM59.9,33.9a3.226,3.226,0,0,1-3,3.2,18.115,18.115,0,0,0,.422-3.849V30.743A3.226,3.226,0,0,1,59.9,33.9ZM18.613,17.286a13.022,13.022,0,0,1,3.839-9.268l.6-.6a13.022,13.022,0,0,1,9.268-3.839H46.2a13.022,13.022,0,0,1,9.268,3.839l.6.6A13.107,13.107,0,0,1,57.7,24.556l-.85,1.275a1.27,1.27,0,0,0-.819-.315H51.785a12.645,12.645,0,0,1-11.365-7.028,1.345,1.345,0,0,0-2.31,0,12.645,12.645,0,0,1-11.378,7.028H22.484a1.27,1.27,0,0,0-.819.315l-.85-1.275a13.061,13.061,0,0,1-2.2-7.27Zm0,16.617a3.226,3.226,0,0,1,2.58-3.16v2.515a18.115,18.115,0,0,0,.422,3.849A3.226,3.226,0,0,1,18.613,33.9ZM25.4,40.116l1.3-.96a1.267,1.267,0,0,1,1.394-.1,1.889,1.889,0,0,1,.787.881.6.6,0,0,1-.17.732,3.044,3.044,0,0,0-1.5,2.29,15.484,15.484,0,0,1-1.81-2.843Zm4.41,16.129a2.493,2.493,0,0,1-1.29,3.742l-.928.31a1.044,1.044,0,0,1-.328.053H26.5a1.039,1.039,0,0,1-.934-.577,3.605,3.605,0,0,0-3.236-2H21.9a1.04,1.04,0,0,1-.579-.175L19.747,56.55l8.938-1.986Zm9.511,22.174H35.387A4.983,4.983,0,0,1,36.854,74.9a3.766,3.766,0,0,0,1.114-2.676,1.2,1.2,0,0,1,.668-1.081,4.41,4.41,0,0,1,1.963-.467h.443a2.089,2.089,0,0,1,2.088,2.088,2.041,2.041,0,0,1-.9,1.7l-.9.6A4.594,4.594,0,0,0,39.319,78.419Zm21.875,0V68.1H58.613V78.419H41.9a2.04,2.04,0,0,1,.849-1.206l.9-.6a4.614,4.614,0,0,0,2.058-3.846A4.668,4.668,0,0,0,41.041,68.1H40.6a7.012,7.012,0,0,0-3.116.735,3.77,3.77,0,0,0-2.1,3.394,1.205,1.205,0,0,1-.354.855,7.551,7.551,0,0,0-2.227,5.338H19.9V68.1H17.323V78.419H9.581V69.99l4.406-2.009-1.071-2.348L9.751,67.076A12.774,12.774,0,0,1,16.7,57.622l3.187,2.124a3.613,3.613,0,0,0,2.01.609h.431a1.039,1.039,0,0,1,.934.577,3.605,3.605,0,0,0,3.241,2h.76a3.6,3.6,0,0,0,1.146-.186l.925-.308a5.072,5.072,0,0,0,2.617-7.626l-.568-.852.409-.092a1.29,1.29,0,0,0,1.01-1.259v-2.5a17.783,17.783,0,0,0,12.9,0v2.5a1.29,1.29,0,0,0,1.01,1.259l6.4,1.419-1.4,2.1a5.072,5.072,0,0,0,2.617,7.626l.925.307a3.56,3.56,0,0,0,1.146.187h.76a3.605,3.605,0,0,0,3.241-2,1.039,1.039,0,0,1,.934-.577h.431a3.613,3.613,0,0,0,2.01-.609l2.164-1.441a12.857,12.857,0,0,1,2.985,8.275v3.564l-1.668-1.668L65.443,72.88l3.493,3.493v2.046Z" transform="translate(0)" fill="#12263f"/>
      <path id="Trazado_885609" data-name="Trazado 885609" d="M38.959,23.293l-2.581,2.581a1.29,1.29,0,0,0,0,1.825l2.581,2.581,1.825-1.825-1.668-1.668,1.668-1.668Z" transform="translate(8.419 6.472)" fill="#12263f"/>
      <path id="Trazado_885610" data-name="Trazado 885610" d="M28.7,25.874l-2.581-2.581-1.825,1.825,1.668,1.668-1.668,1.668,1.825,1.825L28.7,27.7A1.29,1.29,0,0,0,28.7,25.874Z" transform="translate(5.021 6.472)" fill="#12263f"/>
    </g>
    <rect id="Rectángulo_409530" data-name="Rectángulo 409530" width="80" height="80" transform="translate(628.14 8646)" fill="none"/>
  </g>
</svg>
