<svg xmlns="http://www.w3.org/2000/svg" width="80" height="80" viewBox="0 0 80 80">
  <g id="Grupo_1115471" data-name="Grupo 1115471" transform="translate(-1045.14 -9064)">
    <rect id="Rectángulo_409534" data-name="Rectángulo 409534" width="80" height="80" transform="translate(1045.14 9064)" fill="none"/>
    <g id="Grupo_1115470" data-name="Grupo 1115470" transform="translate(1048.14 9019.21)">
      <path id="Trazado_885631" data-name="Trazado 885631" d="M73.788,173.17l.073-.291-1.874-6.154.255-9.8c.05-1.9-.868-3.32-2.394-3.7L57.79,150.217l-.524,2.1,12.057,3.011c.714.178.766,1.14.756,1.546l-.225,8.623L52.372,161.13a6.491,6.491,0,0,0-12.419-3.1l-2.094-.523,3.856-7.716c.181-.363.679-1.187,1.394-1.009l12.057,3.011.524-2.1-12.057-3.011c-1.526-.381-3,.439-3.854,2.141l-4.16,8.324H8.655c-1.573,0-2.807,1.154-3.22,3.011L3.31,169.724,0,175.24v13.283a3.25,3.25,0,0,0,3.246,3.246H6.492a3.25,3.25,0,0,0,3.246-3.246v-1.082h9.489v-2.164H2.164v-5.413a5.382,5.382,0,0,0,3.246,1.085H9.737v-4.328h25.47v4.328h4.328a5.381,5.381,0,0,0,3.246-1.085v5.413H25.718v2.164h9.489v1.082a3.249,3.249,0,0,0,3.246,3.246H41.7a3.249,3.249,0,0,0,3.246-3.246v-10.29l16.513,4.124-.262,1.05a3.252,3.252,0,0,0,2.363,3.935l3.149.786a3.252,3.252,0,0,0,3.936-2.362l3.145-12.594ZM42.781,188.523A1.083,1.083,0,0,1,41.7,189.6H38.453a1.083,1.083,0,0,1-1.082-1.082v-1.082h5.41ZM40,171.212l1.947,3.246H2.993l1.947-3.246Zm-28.878-2.164a4.328,4.328,0,0,1,8.381,0Zm28.383-8.89,0-.011,30.537,7.626,1.1,3.621L40.294,163.69Zm26.669,12.226,5.064,1.265a3.256,3.256,0,0,1-3.489,1.359l-2.1-.524Zm-22.5-15.465a4.328,4.328,0,0,1,6.555,3.676L42.1,158.564a4.3,4.3,0,0,1,1.577-1.645ZM7.548,160.627c.088-.4.372-1.317,1.108-1.317H36.289c.736,0,1.019.921,1.108,1.317l1.871,8.421H21.717a6.49,6.49,0,0,0-12.8,0H5.677Zm.026,26.813v1.082A1.083,1.083,0,0,1,6.492,189.6H3.246a1.083,1.083,0,0,1-1.082-1.082v-1.082Zm0-8.655H5.41a3.251,3.251,0,0,1-3.06-2.164H7.573Zm31.961,0H37.371v-2.164h5.223a3.251,3.251,0,0,1-3.06,2.164Zm29.008,6.456a1.088,1.088,0,0,1-1.312.788l-3.149-.786a1.088,1.088,0,0,1-.788-1.312l.262-1.05,5.248,1.311Zm.786-3.149L44.945,176v-.763l-2.624-4.373,18.609,4.667.526-2.1L41.339,168.39l-.52-2.339,23.26,5.809-1.049,4.2,4.2,1.049a5.357,5.357,0,0,0,3.413-.269Z" transform="translate(0 -80.747)" fill="#12263f"/>
      <path id="Trazado_885632" data-name="Trazado 885632" d="M148.28,414.776h2.164v2.164H148.28Z" transform="translate(-126.89 -310.246)" fill="#12263f"/>
      <path id="Trazado_885633" data-name="Trazado 885633" d="M82.5,369.776h21.142v2.164H82.5Z" transform="translate(-70.599 -271.738)" fill="#12263f"/>
      <path id="Trazado_885634" data-name="Trazado 885634" d="M155.825,72.3l-4.758-6.8,5.732.035,1.212-8.569,5.96,6.276,4.648-3.355.022,2.744,2.164-.018-.057-6.932-6.511,4.7L156.5,52.23l-1.574,11.132-8.029-.05,7.16,10.226Z" transform="translate(-125.702 0)" fill="#12263f"/>
      <path id="Trazado_885635" data-name="Trazado 885635" d="M199.06,249.776h2.164v2.164H199.06Z" transform="translate(-170.344 -169.049)" fill="#12263f"/>
      <path id="Trazado_885636" data-name="Trazado 885636" d="M229.06,249.776h2.164v2.164H229.06Z" transform="translate(-196.017 -169.049)" fill="#12263f"/>
      <path id="Trazado_885637" data-name="Trazado 885637" d="M0,0H2.164V2.164H0Z" transform="translate(64.773 77.914) rotate(-75.992)" fill="#12263f"/>
      <path id="Trazado_885638" data-name="Trazado 885638" d="M0,0H2.164V2.164H0Z" transform="translate(60.576 76.865) rotate(-75.992)" fill="#12263f"/>
    </g>
  </g>
</svg>
