<svg xmlns="http://www.w3.org/2000/svg" width="85" height="85" viewBox="0 0 85 85">
  <g id="Grupo_1115531" data-name="Grupo 1115531" transform="translate(-200.14 -10660)">
    <rect id="Rectángulo_408622" data-name="Rectángulo 408622" width="85" height="85" transform="translate(200.14 10660)" fill="#81c784"/>
    <g id="Layer_55" transform="translate(210.021 10669.882)">
      <g id="Grupo_1115530" data-name="Grupo 1115530" transform="translate(0 0)">
        <g id="Grupo_1115472" data-name="Grupo 1115472" transform="translate(24.123 23.85)">
          <path id="Trazado_885639" data-name="Trazado 885639" d="M104.43,93.764c-3.1,3.9-7.68,3.351-9.219,3.029a.453.453,0,0,0-.548.438v6.84a8.5,8.5,0,0,0,16.991,0V96.5c0-.044,0-.089,0-.133a.455.455,0,0,0-.439-.446,8.845,8.845,0,0,1-6.1-2.2A.457.457,0,0,0,104.43,93.764Z" transform="translate(-94.663 -93.59)" fill="#f9d0b4"/>
        </g>
        <g id="Grupo_1115473" data-name="Grupo 1115473" transform="translate(41.092 27.856)">
          <path id="Trazado_885640" data-name="Trazado 885640" d="M161.819,109.312a3.525,3.525,0,0,0-.545.043v6.431c0,.192-.009.381-.021.57a3.545,3.545,0,1,0,.566-7.044Z" transform="translate(-161.253 -109.312)" fill="#f9d0b4"/>
        </g>
        <g id="Grupo_1115474" data-name="Grupo 1115474" transform="translate(20.031 27.856)">
          <path id="Trazado_885641" data-name="Trazado 885641" d="M82.7,115.786v-6.431a3.548,3.548,0,1,0,.021,7h0C82.706,116.167,82.7,115.978,82.7,115.786Z" transform="translate(-78.606 -109.312)" fill="#f9d0b4"/>
        </g>
        <g id="Grupo_1115475" data-name="Grupo 1115475" transform="translate(14.93 41.862)">
          <path id="Trazado_885642" data-name="Trazado 885642" d="M92.864,187.011a1.1,1.1,0,0,0,1.1-1.164l-.678-11.684a3.353,3.353,0,0,0-2.529-3.065l-4.877-1.228a16.643,16.643,0,0,1-1.618-.5l-3.645,4.206a.932.932,0,0,1-1.314.094l-1.625-1.408a.932.932,0,0,1-.094-1.314l3.136-3.618a2.924,2.924,0,0,1-.53-1.675v-1.383a8.426,8.426,0,0,1-7.827,0v1.383a2.927,2.927,0,0,1-.546,1.7l3.114,3.593a.932.932,0,0,1-.094,1.314l-1.625,1.408a.932.932,0,0,1-1.314-.094l-3.636-4.195a16.564,16.564,0,0,1-1.584.486L61.8,171.1a3.353,3.353,0,0,0-2.529,3.065l-.678,11.684a1.1,1.1,0,0,0,1.1,1.164H92.864Z" transform="translate(-58.588 -164.273)" fill="#3caadc"/>
        </g>
        <g id="Grupo_1115476" data-name="Grupo 1115476" transform="translate(42.167 10.852)">
          <path id="Trazado_885643" data-name="Trazado 885643" d="M176.743,42.584a11.217,11.217,0,0,0-3.231,21.975,1.165,1.165,0,0,1,.835,1.118v1.839a.42.42,0,0,0,.687.324l3.428-2.819a1.194,1.194,0,0,1,.518-.244,11.216,11.216,0,0,0-2.237-22.194Z" transform="translate(-165.471 -42.583)" fill="#edf4fc"/>
        </g>
        <g id="Grupo_1115477" data-name="Grupo 1115477" transform="translate(0.637 10.852)">
          <path id="Trazado_885644" data-name="Trazado 885644" d="M13.661,42.584a11.217,11.217,0,0,1,3.231,21.975,1.165,1.165,0,0,0-.835,1.118v1.839a.42.42,0,0,1-.687.324l-3.428-2.819a1.194,1.194,0,0,0-.518-.244,11.216,11.216,0,0,1,2.237-22.194Z" transform="translate(-2.5 -42.583)" fill="#edf4fc"/>
        </g>
        <g id="Grupo_1115478" data-name="Grupo 1115478" transform="translate(21.365 15.936)">
          <path id="Trazado_885645" data-name="Trazado 885645" d="M104.643,68.474a11.077,11.077,0,0,1,.44-2.908,4.8,4.8,0,0,0-5.822-.657A4.857,4.857,0,0,0,95.1,62.534H92.608a8.778,8.778,0,0,0-7.29,3.912,11.167,11.167,0,0,1-1.479,8.166v.621a3.529,3.529,0,0,1,2.213-.778,3.592,3.592,0,0,1,.545.043v-.408a.453.453,0,0,1,.548-.438c1.539.322,6.116.873,9.219-3.029a.457.457,0,0,1,.68-.043,8.844,8.844,0,0,0,6.1,2.2.455.455,0,0,1,.439.446c0,.044,0,.088,0,.133V74.5a3.527,3.527,0,0,1,3.005.952v-.461a11.165,11.165,0,0,1-1.95-6.515Z" transform="translate(-83.839 -62.534)" fill="#754e34"/>
        </g>
        <g id="Grupo_1115479" data-name="Grupo 1115479" transform="translate(28.159 41.862)">
          <path id="Trazado_885646" data-name="Trazado 885646" d="M113.614,170.948a.922.922,0,0,1,.222.534h2.209a.925.925,0,0,1,.222-.534l3.136-3.618a2.924,2.924,0,0,1-.53-1.675v-1.383a8.426,8.426,0,0,1-7.827,0v1.382a2.927,2.927,0,0,1-.546,1.7Z" transform="translate(-110.5 -164.272)" fill="#f9d0b4"/>
        </g>
        <g id="Grupo_1115480" data-name="Grupo 1115480" transform="translate(33.698 44.92)">
          <path id="Trazado_885647" data-name="Trazado 885647" d="M134.184,182.612a.932.932,0,0,0,1.314-.094l3.645-4.206a16.658,16.658,0,0,1-1.763-.755c-.475-.237-.886-.446-.963-.5a2.936,2.936,0,0,1-.816-.79l-3.136,3.618a.931.931,0,0,0,.094,1.314Z" transform="translate(-132.238 -176.272)" fill="#70d6f9"/>
        </g>
        <g id="Grupo_1115481" data-name="Grupo 1115481" transform="translate(24.604 44.945)">
          <path id="Trazado_885648" data-name="Trazado 885648" d="M99.123,177.244c-.04.022-.4.2-.84.418a16.6,16.6,0,0,1-1.732.735l3.636,4.195a.932.932,0,0,0,1.314.094l1.625-1.408a.931.931,0,0,0,.094-1.314l-3.114-3.593A2.934,2.934,0,0,1,99.123,177.244Z" transform="translate(-96.551 -176.371)" fill="#70d6f9"/>
        </g>
        <g id="Grupo_1115482" data-name="Grupo 1115482" transform="translate(14.93 60.472)">
          <path id="Trazado_885649" data-name="Trazado 885649" d="M59.688,241.43h4.883V237.3h-5.81l-.172,2.963A1.1,1.1,0,0,0,59.688,241.43Z" transform="translate(-58.588 -237.303)" fill="#f9d0b4"/>
        </g>
        <g id="Grupo_1115483" data-name="Grupo 1115483" transform="translate(44.447 60.472)">
          <path id="Trazado_885650" data-name="Trazado 885650" d="M180.1,237.3h-5.687v4.128h4.76a1.1,1.1,0,0,0,1.1-1.164Z" transform="translate(-174.416 -237.303)" fill="#f9d0b4"/>
        </g>
        <g id="Grupo_1115484" data-name="Grupo 1115484" transform="translate(23.486 23.213)">
          <path id="Trazado_885651" data-name="Trazado 885651" d="M101.3,111.34a9.143,9.143,0,0,1-9.132-9.132V95.374a1.081,1.081,0,0,1,.4-.845,1.092,1.092,0,0,1,.915-.222,8.509,8.509,0,0,0,8.59-2.8,1.095,1.095,0,0,1,1.624-.1,8.257,8.257,0,0,0,5.676,2.021,1.09,1.09,0,0,1,1.057,1.07l0,.146v7.567a9.142,9.142,0,0,1-9.132,9.132ZM93.437,95.6v6.611a7.858,7.858,0,0,0,15.716,0V94.691a9.5,9.5,0,0,1-6.21-2.243c-3.208,3.878-7.837,3.457-9.507,3.149Zm9.13-3.7h0Z" transform="translate(-92.163 -91.09)"/>
        </g>
        <g id="Grupo_1115485" data-name="Grupo 1115485" transform="translate(40.701 27.219)">
          <path id="Trazado_885652" data-name="Trazado 885652" d="M160.674,115.18a3.746,3.746,0,0,1-.386-.02.637.637,0,1,1,.128-1.268c.085.008.17.014.257.014a2.91,2.91,0,0,0,0-5.82c-.085,0-.169,0-.253.012a.637.637,0,1,1-.117-1.269c.123-.011.248-.017.37-.017a4.184,4.184,0,1,1,0,8.368Z" transform="translate(-159.716 -106.812)"/>
        </g>
        <g id="Grupo_1115486" data-name="Grupo 1115486" transform="translate(19.394 27.219)">
          <path id="Trazado_885653" data-name="Trazado 885653" d="M80.289,115.179a4.184,4.184,0,0,1,0-8.368,4.136,4.136,0,0,1,.416.021.637.637,0,0,1-.128,1.268,2.877,2.877,0,0,0-.288-.015,2.91,2.91,0,0,0,0,5.82c.077,0,.153,0,.228-.011a.637.637,0,1,1,.117,1.269C80.52,115.173,80.406,115.179,80.289,115.179Z" transform="translate(-76.105 -106.811)"/>
        </g>
        <g id="Grupo_1115487" data-name="Grupo 1115487" transform="translate(14.293 41.362)">
          <path id="Trazado_885654" data-name="Trazado 885654" d="M91,186.185H57.825a1.738,1.738,0,0,1-1.735-1.838l.678-11.684a3.972,3.972,0,0,1,3.01-3.646l4.882-1.229a15.872,15.872,0,0,0,1.523-.468.637.637,0,0,1,.7.182l3.636,4.195a.3.3,0,0,0,.415.03l1.625-1.408a.295.295,0,0,0,.03-.416l-3.114-3.592a.637.637,0,0,1-.037-.787,2.28,2.28,0,0,0,.427-1.331v-1.205a.637.637,0,1,1,1.274,0v1.205a3.538,3.538,0,0,1-.4,1.634l2.81,3.242a1.569,1.569,0,0,1-.158,2.213l-1.625,1.408a1.569,1.569,0,0,1-2.213-.157L66.2,168.663c-.414.138-.826.259-1.229.361l-4.882,1.229a2.7,2.7,0,0,0-2.048,2.482l-.678,11.685a.463.463,0,0,0,.463.49H91a.463.463,0,0,0,.463-.49l-.678-11.684a2.7,2.7,0,0,0-2.048-2.484l-4.877-1.227c-.416-.1-.839-.23-1.264-.373l-3.362,3.879a1.571,1.571,0,0,1-2.213.157L75.4,171.281a1.569,1.569,0,0,1-.157-2.213l2.834-3.271a3.541,3.541,0,0,1-.384-1.605v-1.245a.637.637,0,1,1,1.274,0v1.245a2.283,2.283,0,0,0,.415,1.311.637.637,0,0,1-.041.782L76.2,169.9a.294.294,0,0,0,.029.415l1.626,1.408a.3.3,0,0,0,.415-.029l3.645-4.206a.637.637,0,0,1,.7-.181,16.084,16.084,0,0,0,1.556.48l4.876,1.227a3.972,3.972,0,0,1,3.01,3.647l.678,11.682A1.739,1.739,0,0,1,91,186.185Z" transform="translate(-56.087 -162.31)"/>
        </g>
        <g id="Grupo_1115488" data-name="Grupo 1115488" transform="translate(43.81 53.781)">
          <path id="Trazado_885655" data-name="Trazado 885655" d="M172.553,222.42a.637.637,0,0,1-.637-.637v-10.1a.637.637,0,0,1,1.274,0v10.1A.637.637,0,0,1,172.553,222.42Z" transform="translate(-171.916 -211.046)"/>
        </g>
        <g id="Grupo_1115489" data-name="Grupo 1115489" transform="translate(20.277 53.781)">
          <path id="Trazado_885656" data-name="Trazado 885656" d="M80.206,222.42a.637.637,0,0,1-.637-.637v-10.1a.637.637,0,0,1,1.274,0v10.1A.637.637,0,0,1,80.206,222.42Z" transform="translate(-79.569 -211.046)"/>
        </g>
        <g id="Grupo_1115490" data-name="Grupo 1115490" transform="translate(41.53 10.214)">
          <path id="Trazado_885657" data-name="Trazado 885657" d="M172.907,66.711a1.063,1.063,0,0,1-.454-.1,1.048,1.048,0,0,1-.605-.956V63.813a.531.531,0,0,0-.378-.507,11.854,11.854,0,0,1,3.355-23.224h.058a11.853,11.853,0,0,1,2.363,23.455.567.567,0,0,0-.243.112l-3.429,2.819A1.051,1.051,0,0,1,172.907,66.711Zm1.918-25.354a10.58,10.58,0,0,0-3,20.727,1.812,1.812,0,0,1,1.292,1.729v1.38l3.074-2.527a1.844,1.844,0,0,1,.792-.375,10.578,10.578,0,0,0-2.11-20.933h-.052Z" transform="translate(-162.971 -40.083)"/>
        </g>
        <g id="Grupo_1115491" data-name="Grupo 1115491" transform="translate(0 10.214)">
          <path id="Trazado_885658" data-name="Trazado 885658" d="M13.771,66.711a1.05,1.05,0,0,1-.669-.242L9.674,63.65a.566.566,0,0,0-.243-.112,11.853,11.853,0,0,1,2.364-23.455h.058a11.854,11.854,0,0,1,3.355,23.224.531.531,0,0,0-.378.507v1.839a1.048,1.048,0,0,1-.605.956,1.063,1.063,0,0,1-.454.1ZM11.8,41.357A10.579,10.579,0,0,0,9.69,62.291a1.843,1.843,0,0,1,.793.375l3.074,2.527v-1.38a1.812,1.812,0,0,1,1.292-1.729,10.58,10.58,0,0,0-3-20.727H11.8Zm0-.637h0Z" transform="translate(0 -40.083)"/>
        </g>
        <g id="Grupo_1115492" data-name="Grupo 1115492" transform="translate(22.365 15.299)">
          <path id="Trazado_885659" data-name="Trazado 885659" d="M88.4,64.993a.637.637,0,0,1-.517-1.008,9.439,9.439,0,0,1,7.65-3.95h2.492a5.52,5.52,0,0,1,4.369,2.183,5.435,5.435,0,0,1,5.89.874.637.637,0,1,1-.842.956,4.166,4.166,0,0,0-4.927-.455.637.637,0,0,1-.874-.219,4.244,4.244,0,0,0-3.615-2.065H95.532a8.163,8.163,0,0,0-6.614,3.418.636.636,0,0,1-.519.266Z" transform="translate(-87.763 -60.034)"/>
        </g>
        <g id="Grupo_1115493" data-name="Grupo 1115493" transform="translate(30.967 48.435)">
          <path id="Trazado_885660" data-name="Trazado 885660" d="M124.1,191.34h-1.943a.637.637,0,0,1,0-1.274H124.1a.637.637,0,0,1,0,1.274Z" transform="translate(-121.521 -190.066)"/>
        </g>
        <g id="Grupo_1115494" data-name="Grupo 1115494" transform="translate(36.424 44.283)">
          <path id="Trazado_885661" data-name="Trazado 885661" d="M147.114,177.088a.638.638,0,0,1-.218-.038,17.411,17.411,0,0,1-1.831-.784c-.892-.446-.977-.5-1.023-.529a3.558,3.558,0,0,1-.994-.961.637.637,0,1,1,1.045-.729,2.29,2.29,0,0,0,.639.619c.012.007.143.082.9.461a16.148,16.148,0,0,0,1.7.727.637.637,0,0,1-.217,1.235Z" transform="translate(-142.934 -173.773)"/>
        </g>
        <g id="Grupo_1115495" data-name="Grupo 1115495" transform="translate(23.967 44.308)">
          <path id="Trazado_885662" data-name="Trazado 885662" d="M94.688,177.172a.637.637,0,0,1-.216-1.236,16.151,16.151,0,0,0,1.666-.707c.416-.206.766-.379.822-.409a2.28,2.28,0,0,0,.765-.682.637.637,0,1,1,1.037.74,3.6,3.6,0,0,1-1.2,1.062c-.033.018-.121.063-.863.43a17.338,17.338,0,0,1-1.8.763A.63.63,0,0,1,94.688,177.172Z" transform="translate(-94.051 -173.87)"/>
        </g>
        <g id="Grupo_1115496" data-name="Grupo 1115496" transform="translate(14.685 59.835)">
          <path id="Trazado_885663" data-name="Trazado 885663" d="M63.677,236.078H58.262a.637.637,0,1,1,0-1.274h5.415a.637.637,0,1,1,0,1.274Z" transform="translate(-57.625 -234.804)"/>
        </g>
        <g id="Grupo_1115497" data-name="Grupo 1115497" transform="translate(43.982 59.835)">
          <path id="Trazado_885664" data-name="Trazado 885664" d="M178.59,236.078h-5.359a.637.637,0,1,1,0-1.274h5.359a.637.637,0,1,1,0,1.274Z" transform="translate(-172.594 -234.804)"/>
        </g>
        <g id="Grupo_1115498" data-name="Grupo 1115498" transform="translate(17.967 4.907)">
          <path id="Trazado_885665" data-name="Trazado 885665" d="M71.143,25.261a.637.637,0,0,1-.439-1.1,21.242,21.242,0,0,1,8.28-4.877.637.637,0,1,1,.379,1.217,19.961,19.961,0,0,0-7.78,4.584A.635.635,0,0,1,71.143,25.261Z" transform="translate(-70.506 -19.256)"/>
        </g>
        <g id="Grupo_1115499" data-name="Grupo 1115499" transform="translate(38.005 4.907)">
          <path id="Trazado_885666" data-name="Trazado 885666" d="M157.787,25.238a.636.636,0,0,1-.439-.176,19.842,19.842,0,0,0-7.762-4.562.637.637,0,0,1,.377-1.217,21.117,21.117,0,0,1,8.263,4.857.637.637,0,0,1-.439,1.1Z" transform="translate(-149.138 -19.254)"/>
        </g>
        <g id="Grupo_1115500" data-name="Grupo 1115500" transform="translate(28.917 0.637)">
          <path id="Trazado_885667" data-name="Trazado 885667" d="M117.178,2.5a3.7,3.7,0,1,0,3.7,3.7A3.7,3.7,0,0,0,117.178,2.5Z" transform="translate(-113.477 -2.5)" fill="#87d147"/>
        </g>
        <g id="Grupo_1115501" data-name="Grupo 1115501" transform="translate(28.28 0)">
          <path id="Trazado_885668" data-name="Trazado 885668" d="M115.315,8.676a4.338,4.338,0,1,1,4.338-4.338,4.343,4.343,0,0,1-4.338,4.338Zm0-7.4a3.064,3.064,0,1,0,3.064,3.064,3.067,3.067,0,0,0-3.064-3.064Z" transform="translate(-110.977 0)"/>
        </g>
        <g id="Grupo_1115502" data-name="Grupo 1115502" transform="translate(30.377 2.971)">
          <path id="Trazado_885669" data-name="Trazado 885669" d="M121.076,14.87a.638.638,0,0,1-.451-.187l-1.233-1.233a.637.637,0,1,1,.9-.9l.783.783,1.487-1.487a.637.637,0,0,1,.9.9l-1.938,1.938A.636.636,0,0,1,121.076,14.87Z" transform="translate(-119.205 -11.657)"/>
        </g>
        <g id="Grupo_1115503" data-name="Grupo 1115503" transform="translate(29.69 35.924)">
          <path id="Trazado_885670" data-name="Trazado 885670" d="M119.558,143.279a3.793,3.793,0,0,1-2.9-1.261.637.637,0,0,1,.977-.819,2.7,2.7,0,0,0,3.848,0,.637.637,0,0,1,.977.819A3.792,3.792,0,0,1,119.558,143.279Z" transform="translate(-116.508 -140.972)"/>
        </g>
        <g id="Grupo_1115504" data-name="Grupo 1115504" transform="translate(35.157 30.835)">
          <circle id="Elipse_11692" data-name="Elipse 11692" cx="1.077" cy="1.077" r="1.077"/>
        </g>
        <g id="Grupo_1115505" data-name="Grupo 1115505" transform="translate(27.927 30.835)">
          <circle id="Elipse_11693" data-name="Elipse 11693" cx="1.077" cy="1.077" r="1.077"/>
        </g>
        <g id="Grupo_1115506" data-name="Grupo 1115506" transform="translate(48.156 18.858)">
          <path id="Trazado_885671" data-name="Trazado 885671" d="M198.633,74.8a2.727,2.727,0,0,0-3.856,0l-.212.212a.514.514,0,0,1-.727,0l-.212-.212a2.727,2.727,0,1,0-3.856,3.856l3.6,3.6a1.175,1.175,0,0,0,1.662,0l3.6-3.6a2.727,2.727,0,0,0,0-3.856Z" transform="translate(-188.971 -74.001)" fill="#fc657e"/>
        </g>
        <g id="Grupo_1115507" data-name="Grupo 1115507" transform="translate(47.52 18.22)">
          <path id="Trazado_885672" data-name="Trazado 885672" d="M192.343,81.373a1.806,1.806,0,0,1-1.282-.53l-3.6-3.6a3.364,3.364,0,0,1,4.757-4.757l.125.125.125-.125a3.364,3.364,0,1,1,4.757,4.757l-3.6,3.6A1.8,1.8,0,0,1,192.343,81.373Zm-2.5-8.6a2.09,2.09,0,0,0-1.478,3.567l3.6,3.6a.54.54,0,0,0,.761,0l3.6-3.6a2.09,2.09,0,0,0-2.955-2.955l-.212.212a1.152,1.152,0,0,1-1.628,0l-.212-.212A2.076,2.076,0,0,0,189.84,72.774Z" transform="translate(-186.477 -71.5)"/>
        </g>
        <g id="Grupo_1115508" data-name="Grupo 1115508" transform="translate(6.723 26.036)">
          <path id="Trazado_885673" data-name="Trazado 885673" d="M29.7,102.275a1.849,1.849,0,0,1-2.261-.065.19.19,0,0,0-.263.032,1.3,1.3,0,0,1-.594.421,5.059,5.059,0,0,1,.06.684,7.335,7.335,0,0,1-.229,1.587,1.071,1.071,0,0,0,1.65,1.11c.538-.4.836-1.583,1.7-3.794A.2.2,0,0,0,29.7,102.275Z" transform="translate(-26.384 -102.17)" fill="#f98fa6"/>
        </g>
        <g id="Grupo_1115509" data-name="Grupo 1115509" transform="translate(3.937 14.63)">
          <path id="Trazado_885674" data-name="Trazado 885674" d="M17.245,69.175a1.421,1.421,0,0,0,1.779-.287.19.19,0,0,1,.263-.032,1.849,1.849,0,0,0,2.261.065.189.189,0,0,1,.2-.009,2.352,2.352,0,0,0,3.492-1.1c1.417-2.574,5.87-2.134,6.473-4.593a2.5,2.5,0,0,0-2.17-3.006.187.187,0,0,1-.184-.137,1.655,1.655,0,0,0-2.04-1.226.185.185,0,0,1-.192-.1,1.566,1.566,0,0,0-1.969-.8.191.191,0,0,1-.195-.047,1.5,1.5,0,0,0-2.212-.01.184.184,0,0,1-.191.029,2.181,2.181,0,0,0-3.008,1.1.19.19,0,0,1-.155.11,2.517,2.517,0,0,0-2.461,2.715.188.188,0,0,1-.111.179c-.471.2-2.151,1.128-.956,3.472a.189.189,0,0,1,.013.141A2.887,2.887,0,0,0,17.245,69.175Z" transform="translate(-15.448 -57.411)" fill="#fc657e"/>
        </g>
        <g id="Grupo_1115510" data-name="Grupo 1115510" transform="translate(3.298 13.996)">
          <path id="Trazado_885675" data-name="Trazado 885675" d="M16.156,68.156a2.293,2.293,0,0,1-1.082-.275,3.462,3.462,0,0,1-1.718-4.109,3.278,3.278,0,0,1-.26-2.546,2.867,2.867,0,0,1,1.338-1.506,3.085,3.085,0,0,1,2.789-3.05,2.745,2.745,0,0,1,3.463-1.289,2.1,2.1,0,0,1,2.664.037,2.146,2.146,0,0,1,2.31.91A2.221,2.221,0,0,1,28,57.744a3.131,3.131,0,0,1,1.875,1.165,2.984,2.984,0,0,1,.588,2.6c-.388,1.583-1.928,2.167-3.417,2.733-1.247.473-2.537.963-3.116,2.016a3.3,3.3,0,0,1-1.98,1.729,3.1,3.1,0,0,1-2.151-.253,2.441,2.441,0,0,1-2.441-.01,1.854,1.854,0,0,1-1.206.428Zm3.4-.549h0Zm-1.91-.168h0Zm-1.958-.674a.755.755,0,0,0,.976-.138.823.823,0,0,1,1.143-.13,1.211,1.211,0,0,0,1.518.04.831.831,0,0,1,.88-.027,1.956,1.956,0,0,0,1.409.252,2.092,2.092,0,0,0,1.2-1.115c.805-1.463,2.386-2.063,3.78-2.593,1.29-.49,2.4-.913,2.631-1.845a1.721,1.721,0,0,0-.35-1.511,1.747,1.747,0,0,0-1.193-.706h-.009a.827.827,0,0,1-.8-.607,1.03,1.03,0,0,0-1.326-.764.823.823,0,0,1-.856-.431.924.924,0,0,0-1.214-.49.827.827,0,0,1-.838-.207.9.9,0,0,0-1.346.025.816.816,0,0,1-.852.132,1.535,1.535,0,0,0-2.185.786.827.827,0,0,1-.68.474,1.854,1.854,0,0,0-1.876,2.064.822.822,0,0,1-.495.78,1.683,1.683,0,0,0-.916.9,2.178,2.178,0,0,0,.274,1.7.822.822,0,0,1,.054.618,2.241,2.241,0,0,0,1.049,2.785l.018.009ZM14.7,59.586h0Zm2.405-2.692v0Zm.369-.253h0Zm8.345-.044h0Z" transform="translate(-12.943 -54.922)"/>
        </g>
        <g id="Grupo_1115511" data-name="Grupo 1115511" transform="translate(6.087 25.702)">
          <path id="Trazado_885676" data-name="Trazado 885676" d="M25.607,105.9a1.724,1.724,0,0,1-.938-.282,1.7,1.7,0,0,1-.741-1.8l.015-.068a6.529,6.529,0,0,0,.2-1.379,4.3,4.3,0,0,0-.035-.5.637.637,0,1,1,1.264-.159,5.626,5.626,0,0,1,.045.646,7.517,7.517,0,0,1-.229,1.661l-.015.067a.418.418,0,0,0,.19.455.4.4,0,0,0,.461.006,6.39,6.39,0,0,0,.9-1.977c.142-.386.3-.82.489-1.308a.637.637,0,0,1,1.19.457c-.185.481-.342.909-.482,1.29-.511,1.391-.793,2.158-1.345,2.564A1.635,1.635,0,0,1,25.607,105.9Z" transform="translate(-23.888 -100.859)"/>
        </g>
        <g id="Grupo_1115512" data-name="Grupo 1115512" transform="translate(7.456 18.096)">
          <path id="Trazado_885677" data-name="Trazado 885677" d="M30.65,73.142a.637.637,0,0,1-.554-.321,2.338,2.338,0,0,0-.576-.655.637.637,0,0,1,.74-1.037,3.552,3.552,0,0,1,.942,1.06.637.637,0,0,1-.553.953Z" transform="translate(-29.257 -71.012)"/>
        </g>
        <g id="Grupo_1115513" data-name="Grupo 1115513" transform="translate(7.793 19.025)">
          <path id="Trazado_885678" data-name="Trazado 885678" d="M31.219,76.783a.626.626,0,0,1-.178-.026.637.637,0,0,1-.434-.79,1.82,1.82,0,0,1,2.253-1.237.637.637,0,0,1-.356,1.223.544.544,0,0,0-.674.37.638.638,0,0,1-.612.459Z" transform="translate(-30.582 -74.657)"/>
        </g>
        <g id="Grupo_1115514" data-name="Grupo 1115514" transform="translate(12.768 17.108)">
          <path id="Trazado_885679" data-name="Trazado 885679" d="M51.939,69.575a.637.637,0,0,1-.637-.629.539.539,0,0,0-.164-.382.549.549,0,0,0-.387-.154h-.009a.637.637,0,0,1-.008-1.274,1.83,1.83,0,0,1,1.292.515,1.8,1.8,0,0,1,.55,1.278.637.637,0,0,1-.629.645h-.008Z" transform="translate(-50.105 -67.136)"/>
        </g>
        <g id="Grupo_1115517" data-name="Grupo 1115517" transform="translate(14.64 2.293)">
          <g id="Grupo_1115516" data-name="Grupo 1115516">
            <g id="Grupo_1115515" data-name="Grupo 1115515">
              <path id="Trazado_885680" data-name="Trazado 885680" d="M62.126,11.255a2.828,2.828,0,0,1-2.268-2.217c0-.051-.1-.051-.1,0a2.828,2.828,0,0,1-2.268,2.217c-.051,0-.051.076,0,.1a2.828,2.828,0,0,1,2.268,2.217c0,.051.1.051.1,0a2.828,2.828,0,0,1,2.268-2.217C62.177,11.332,62.177,11.255,62.126,11.255Z" transform="translate(-57.45 -9)" fill="#f5c84c"/>
            </g>
          </g>
        </g>
        <g id="Grupo_1115520" data-name="Grupo 1115520" transform="translate(44.995 36.95)">
          <g id="Grupo_1115519" data-name="Grupo 1115519">
            <g id="Grupo_1115518" data-name="Grupo 1115518">
              <path id="Trazado_885681" data-name="Trazado 885681" d="M179.667,146.495a1.875,1.875,0,0,1-1.5-1.47c0-.034-.068-.034-.068,0a1.875,1.875,0,0,1-1.5,1.47c-.034,0-.034.051,0,.068a1.875,1.875,0,0,1,1.5,1.47c0,.034.068.034.068,0a1.875,1.875,0,0,1,1.5-1.47C179.7,146.545,179.7,146.495,179.667,146.495Z" transform="translate(-176.566 -144.999)" fill="#fc657e"/>
            </g>
          </g>
        </g>
        <g id="Grupo_1115523" data-name="Grupo 1115523" transform="translate(53.387 45.87)">
          <g id="Grupo_1115522" data-name="Grupo 1115522">
            <g id="Grupo_1115521" data-name="Grupo 1115521">
              <path id="Trazado_885682" data-name="Trazado 885682" d="M213.119,181.4h-.586v-.586a.821.821,0,0,0-.815-.815.805.805,0,0,0-.815.815v.586h-.586a.821.821,0,0,0-.815.815.805.805,0,0,0,.815.815h.586v.586a.821.821,0,0,0,.815.815.805.805,0,0,0,.815-.815v-.586h.586a.821.821,0,0,0,.815-.815A.805.805,0,0,0,213.119,181.4Z" transform="translate(-209.5 -180)" fill="#87d147"/>
            </g>
          </g>
        </g>
        <g id="Grupo_1115526" data-name="Grupo 1115526" transform="translate(22.272)">
          <g id="Grupo_1115525" data-name="Grupo 1115525">
            <g id="Grupo_1115524" data-name="Grupo 1115524">
              <circle id="Elipse_11694" data-name="Elipse 11694" cx="0.866" cy="0.866" r="0.866" fill="#70d6f9"/>
            </g>
          </g>
        </g>
        <g id="Grupo_1115529" data-name="Grupo 1115529" transform="translate(52.597 54.534)">
          <g id="Grupo_1115528" data-name="Grupo 1115528">
            <g id="Grupo_1115527" data-name="Grupo 1115527">
              <circle id="Elipse_11695" data-name="Elipse 11695" cx="0.866" cy="0.866" r="0.866" fill="#f5c84c"/>
            </g>
          </g>
        </g>
      </g>
    </g>
  </g>
</svg>
