<svg xmlns="http://www.w3.org/2000/svg" width="100" height="100" viewBox="0 0 100 100">
  <g id="Grupo_1100965" data-name="Grupo 1100965" transform="translate(0.242)">
    <g id="Grupo_1098742" data-name="Grupo 1098742" transform="translate(0)">
      <rect id="Rectángulo_400898" data-name="Rectángulo 400898" width="100" height="100" rx="50" transform="translate(-0.242)" fill="#fff" opacity="0.859"/>
      <g id="Rectángulo_400907" data-name="Rectángulo 400907" transform="translate(-0.242)" fill="none" stroke="#3acc97" stroke-linecap="round" stroke-width="2" stroke-dasharray="7">
        <rect width="100" height="100" rx="50" stroke="none"/>
        <rect x="1" y="1" width="98" height="98" rx="49" fill="none"/>
      </g>
    </g>
    <g id="Grupo_1107006" data-name="Grupo 1107006" transform="translate(8.156 8.156)">
      <rect id="Rectángulo_400898-2" data-name="Rectángulo 400898" width="84" height="84" rx="42" transform="translate(-0.399 -0.157)" fill="#d7f5ea" opacity="0.859"/>
      <rect id="Rectángulo_400907-2" data-name="Rectángulo 400907" width="84" height="84" rx="42" transform="translate(-0.398 -0.157)" fill="none"/>
    </g>
    <g id="Grupo_1115615" data-name="Grupo 1115615" transform="translate(15.318 15.208)">
      <rect id="Rectángulo_409552" data-name="Rectángulo 409552" width="45.66" height="9.784" transform="translate(6.174 58.618)" fill="#f2b89e"/>
      <path id="Trazado_885801" data-name="Trazado 885801" d="M41.963,56.034H52.834V49.771a13.262,13.262,0,0,0-1.746-6.577h0a13.263,13.263,0,0,0-6.174-5.56l-4.255-1.4-6.305-1.942v-3.63H23.481v3.63l-6.305,1.942-4.251,1.4a13.263,13.263,0,0,0-6.174,5.56h0A13.263,13.263,0,0,0,5,49.771v6.263H15.871v9.784H41.963Z" transform="translate(0.087 2.585)" fill="#004a9e"/>
      <path id="Trazado_885802" data-name="Trazado 885802" d="M50.826,43.192h0a13.263,13.263,0,0,0-6.174-5.56l-4.255-1.4-6.305-1.942v-3.63h-7.61v3.63l-6.305,1.942-4.251,1.4a13.263,13.263,0,0,0-6.174,5.56h0A13.263,13.263,0,0,0,8,49.771v6.263h7.61v9.784H41.7V56.034H52.573V49.771a13.262,13.262,0,0,0-1.746-6.577Z" transform="translate(0.349 2.585)" fill="#0056c0"/>
      <path id="Trazado_885803" data-name="Trazado 885803" d="M27.436,39.727a19.6,19.6,0,0,0,5.436-5.436h0v-3.63H22v3.63h0a19.6,19.6,0,0,0,5.436,5.436Z" transform="translate(1.569 2.585)" fill="#d08c76"/>
      <path id="Trazado_885804" data-name="Trazado 885804" d="M14.1,15a7.588,7.588,0,0,0,.125,3.084l.652,2.619h26.5l.135-.536A25.051,25.051,0,0,0,42.237,15Z" transform="translate(0.871 1.22)" fill="#383838"/>
      <path id="Trazado_885805" data-name="Trazado 885805" d="M17.1,15a7.588,7.588,0,0,0,.125,3.084l.652,2.619H41.121l.135-.536A25.051,25.051,0,0,0,41.976,15Z" transform="translate(1.133 1.22)" fill="#4c4c4c"/>
      <path id="Trazado_885806" data-name="Trazado 885806" d="M17.467,20H16.261A3.261,3.261,0,0,0,13,23.261h0a3.261,3.261,0,0,0,3.261,3.261h1.993" transform="translate(0.784 1.656)" fill="#d08c76"/>
      <path id="Trazado_885807" data-name="Trazado 885807" d="M31.855,13.969h0a5.762,5.762,0,0,1,3.2-.969h0a2.1,2.1,0,0,1,1.995,1.438l.663,1.991a20.077,20.077,0,0,1,1.032,6.355h0A10.871,10.871,0,0,1,27.871,33.656h0A10.871,10.871,0,0,1,17,22.784h0a20.081,20.081,0,0,1,1.032-6.358l.662-1.988A2.1,2.1,0,0,1,20.69,13h0a5.763,5.763,0,0,1,3.2.969h0a7.184,7.184,0,0,0,3.983,1.206h0a7.184,7.184,0,0,0,3.983-1.205Z" transform="translate(1.133 1.046)" fill="#d08c76"/>
      <path id="Trazado_885808" data-name="Trazado 885808" d="M28.784,33.6a10.871,10.871,0,0,0,9.784-10.817h0a20.081,20.081,0,0,0-1.032-6.358l-.662-1.988A2.1,2.1,0,0,0,34.879,13a5.763,5.763,0,0,0-3.2.969,7.183,7.183,0,0,1-7.966,0,5.737,5.737,0,0,0-1.826-.788,2.084,2.084,0,0,0-1.2,1.258l-.663,1.991A20.077,20.077,0,0,0,19,22.784,10.871,10.871,0,0,0,28.784,33.6Z" transform="translate(1.307 1.046)" fill="#f2b89e"/>
      <path id="Trazado_885809" data-name="Trazado 885809" d="M14,16.133l2.021,2.021a4.24,4.24,0,0,0,3,1.24h0a4.171,4.171,0,0,0,.831-.083l1.826-.365a32.968,32.968,0,0,1,6.46-.639h0a32.937,32.937,0,0,1,6.455.639l1.831.366a4.172,4.172,0,0,0,.831.083h0a4.24,4.24,0,0,0,3-1.24l2.021-2.021-.852-5.544A10.135,10.135,0,0,0,31.394,2H24.871a10.137,10.137,0,0,0-10.019,8.595Z" transform="translate(0.871 0.087)" fill="#a3b8db"/>
      <path id="Trazado_885810" data-name="Trazado 885810" d="M17.823,10.595l-.417,2.711a5.637,5.637,0,0,0,1.586,4.845,4.22,4.22,0,0,0,1.53.965l.861-.173a32.94,32.94,0,0,1,12.916,0l1.83.365a4.171,4.171,0,0,0,.831.083,4.24,4.24,0,0,0,3-1.24l2.021-2.019-.852-5.544A10.135,10.135,0,0,0,31.1,2H27.842a10.136,10.136,0,0,0-10.019,8.6Z" transform="translate(1.162 0.087)" fill="#c0cee8"/>
      <path id="Trazado_885811" data-name="Trazado 885811" d="M36.954,20H38.16a3.261,3.261,0,0,1,3.261,3.261h0a3.261,3.261,0,0,1-3.261,3.261H36.167" transform="translate(2.803 1.656)" fill="#d08c76"/>
      <path id="Trazado_885812" data-name="Trazado 885812" d="M43.44,64.046l-1.4-8.386L38,51H15.174L13,64.046Z" transform="translate(0.784 4.357)" fill="#c0cee8"/>
      <path id="Trazado_885813" data-name="Trazado 885813" d="M17.384,57.556l-1.051,6.315H43.15l-1.4-8.386L39.6,53H22.765a5.454,5.454,0,0,0-5.38,4.557Z" transform="translate(1.075 4.531)" fill="#d6dfef"/>
      <path id="Trazado_885814" data-name="Trazado 885814" d="M16.349,52.394,12,36.087,16.349,35,20.7,52.394" transform="translate(0.697 2.963)" fill="#93add1"/>
      <path id="Trazado_885815" data-name="Trazado 885815" d="M31.7,13.473V8H23v5.473" transform="translate(1.656 0.61)" fill="#0056c0"/>
      <rect id="Rectángulo_409553" data-name="Rectángulo 409553" width="2.174" height="13.046" transform="translate(27.917 42.311)" fill="#004a9e"/>
      <path id="Trazado_885816" data-name="Trazado 885816" d="M30.976,13H25.29A30.4,30.4,0,0,0,14,15.174l2.02,2.021a4.24,4.24,0,0,0,3,1.24,4.171,4.171,0,0,0,.831-.083l1.826-.365a32.94,32.94,0,0,1,12.916,0l1.83.365a4.172,4.172,0,0,0,.831.083,4.24,4.24,0,0,0,3-1.24l2.021-2.021A30.405,30.405,0,0,0,30.976,13Z" transform="translate(0.871 1.046)" fill="#d6dfef"/>
      <path id="Trazado_885817" data-name="Trazado 885817" d="M32.784,34.2h0V31.651a10.817,10.817,0,0,1-8.3,1.087A1.158,1.158,0,0,0,23,33.835h0a1.183,1.183,0,0,0,.209.676,19.634,19.634,0,0,0,4.683,4.727A19.6,19.6,0,0,0,32.784,34.2Z" transform="translate(1.656 2.671)" fill="#f2b89e"/>
      <path id="Trazado_885818" data-name="Trazado 885818" d="M32.436,34h0A19.6,19.6,0,0,1,27,39.436h0l4.349,5.436,5.233-9.6" transform="translate(2.004 2.876)" fill="#a3b8db"/>
      <path id="Trazado_885819" data-name="Trazado 885819" d="M22.332,34h0a19.6,19.6,0,0,0,5.436,5.436h0l-4.349,5.436-5.233-9.6" transform="translate(1.236 2.876)" fill="#a3b8db"/>
      <path id="Trazado_885820" data-name="Trazado 885820" d="M38.349,52.394,42.7,36.087,38.349,35,34,52.394" transform="translate(2.614 2.963)" fill="#93add1"/>
      <path id="Trazado_885821" data-name="Trazado 885821" d="M61.614,39.61A7.61,7.61,0,0,1,54,47.22a7.4,7.4,0,0,1-2.74-.522L34.251,63.712A3.075,3.075,0,0,1,29.9,59.363L46.916,42.35a7.4,7.4,0,0,1-.522-2.74A7.61,7.61,0,0,1,54,32a7.469,7.469,0,0,1,1.924.25l-4.1,4.1L52.917,40.7l4.349,1.087,4.1-4.1A7.47,7.47,0,0,1,61.614,39.61Z" transform="translate(2.179 2.701)" fill="#595959"/>
      <path id="Trazado_885822" data-name="Trazado 885822" d="M57.193,41.329l-4.349-1.087L29.83,63.256a3.071,3.071,0,0,0,4.349,0L51.192,46.242a7.4,7.4,0,0,0,2.74.522,7.61,7.61,0,0,0,7.61-7.61,7.47,7.47,0,0,0-.25-1.924Z" transform="translate(2.251 3.157)" fill="#4c4c4c"/>
      <path id="Trazado_885823" data-name="Trazado 885823" d="M63.824,39.338a1.08,1.08,0,0,0-1.05.28L59.11,43.282,55.993,42.5l-.781-3.119,3.664-3.663a1.087,1.087,0,0,0-.487-1.819,8.492,8.492,0,0,0-2.206-.288,8.709,8.709,0,0,0-8.5,6.858,14.28,14.28,0,0,0-1.4-.837l.08-.3A1.087,1.087,0,0,0,45.576,38l-4.349-1.087a1.075,1.075,0,0,0-1.2.544l-4.5-1.378V33.84a12.046,12.046,0,0,0,4.116-4.575h1.32A4.339,4.339,0,0,0,43.5,21.4a26.091,26.091,0,0,0,.7-4.977,1.049,1.049,0,0,0,.014-.369L43.36,10.51A11.165,11.165,0,0,0,32.266,1H25.743a11.164,11.164,0,0,0-11.089,9.517L13.8,16.055a1.078,1.078,0,0,0,.053.529,8.711,8.711,0,0,0-.066.87,8.735,8.735,0,0,0,.26,2.11l.46,1.837a4.338,4.338,0,0,0,2.536,7.864h1.32a12.046,12.046,0,0,0,4.116,4.575v2.233l-4.5,1.383a1.074,1.074,0,0,0-1.2-.544L12.433,38a1.087,1.087,0,0,0-.786,1.335l.082.305A14.319,14.319,0,0,0,4,52.355v6.263a1.087,1.087,0,0,0,1.087,1.087v8.7H7.261v-8.7h6.871l-1.42,8.519,2.144.357,2.023-12.137H36.164L31.312,61.3A4.162,4.162,0,1,0,37.2,67.182l4.9-4.9,1.05,6.305,2.144-.357-1.3-7.835.683-.686h6.073v8.7h2.174v-8.7a1.087,1.087,0,0,0,1.087-1.087V52.357a14.269,14.269,0,0,0-.109-1.668,8.48,8.48,0,0,0,2.283.32,8.707,8.707,0,0,0,8.7-8.7,8.536,8.536,0,0,0-.287-2.2,1.087,1.087,0,0,0-.769-.769ZM47.542,43.09a8.371,8.371,0,0,0,.3,1.674l-4,4L45.7,41.8a12.105,12.105,0,0,1,1.838,1.287Zm-5.788-3.8,2.222.556-3.2,11.989-2.44,2.441h-.326ZM30.091,45.411,32.5,48.427a1.087,1.087,0,0,0,.849.408.917.917,0,0,0,.095,0,1.087,1.087,0,0,0,.86-.562l4.807-8.82.326.1L35.765,54.27H30.091ZM27.917,54.27H22.243L18.568,39.553l.326-.1L23.7,48.268a1.087,1.087,0,0,0,.86.562.916.916,0,0,0,.093,0,1.087,1.087,0,0,0,.849-.408l2.412-3.016ZM36.995,38.8l-3.814,6.99-2.609-3.261A20.571,20.571,0,0,0,34.86,38.14ZM17.661,17.471l-.814-.814a29.155,29.155,0,0,1,9.315-1.524h5.686a29.155,29.155,0,0,1,9.315,1.522l-.814.814a3.153,3.153,0,0,1-2.844.862l-1.83-.366a34.057,34.057,0,0,0-13.344,0l-1.823.366A3.153,3.153,0,0,1,17.661,17.471Zm14.6-4.5c-.14,0-.278-.01-.419-.01H26.161c-.14,0-.278.008-.419.01V9.7h6.523Zm8.7,14.123H40.5a11.921,11.921,0,0,0,.463-3.261c0-.362-.012-.725-.032-1.087h.032a2.174,2.174,0,0,1,0,4.349Zm0-6.523H40.7q-.049-.319-.109-.636a5.271,5.271,0,0,0,1.141-.8q-.121.747-.289,1.485a4.189,4.189,0,0,0-.484-.049ZM25.743,3.174h6.523a9,9,0,0,1,8.944,7.673l.573,3.727a31.3,31.3,0,0,0-7.343-1.507V8.61a1.087,1.087,0,0,0-1.087-1.087h-8.7A1.087,1.087,0,0,0,23.569,8.61v4.457a31.3,31.3,0,0,0-7.344,1.5l.573-3.726a9,9,0,0,1,8.945-7.67ZM16.154,19.04h0a5.3,5.3,0,0,0,1.258.911q-.058.31-.109.622h-.258a4.393,4.393,0,0,0-.5.05Zm.891,8.051a2.174,2.174,0,1,1,0-4.349h.032c-.02.362-.032.725-.032,1.087a11.922,11.922,0,0,0,.463,3.261ZM19.22,23.83a18.971,18.971,0,0,1,.287-3.281,5.342,5.342,0,0,0,1.425-.084l1.825-.366a32.027,32.027,0,0,1,12.49,0l1.832.367a5.336,5.336,0,0,0,1.041.1c.128,0,.25-.028.377-.037a19.068,19.068,0,0,1,.29,3.3,9.784,9.784,0,1,1-19.569,0ZM29,35.789a11.879,11.879,0,0,0,4.349-.831v1.561A18.4,18.4,0,0,1,29,40.961a18.4,18.4,0,0,1-4.349-4.442V34.958A11.879,11.879,0,0,0,29,35.789Zm-5.856,2.355a20.571,20.571,0,0,0,4.288,4.386L24.826,45.79,21.014,38.8Zm-6.894,1.138L20,54.27H17.881L14.032,39.837ZM6.174,57.531V52.355A12.137,12.137,0,0,1,12.3,41.8l3.341,12.527a1.076,1.076,0,0,0-.761.852l-.39,2.353Zm45.66-4.986v4.986H46.849Zm4.349-3.711a6.306,6.306,0,0,1-2.337-.445,1.087,1.087,0,0,0-1.171.24L35.661,65.645a1.988,1.988,0,1,1-2.812-2.812L49.863,45.82a1.087,1.087,0,0,0,.241-1.172,6.3,6.3,0,0,1-.445-2.336,6.529,6.529,0,0,1,6.056-6.505L53.24,38.281a1.087,1.087,0,0,0-.286,1.032l1.087,4.349a1.087,1.087,0,0,0,.79.791L59.18,45.54a1.081,1.081,0,0,0,1.033-.286l2.477-2.475a6.532,6.532,0,0,1-6.507,6.055Z"/>
    </g>
  </g>
</svg>
