<svg xmlns="http://www.w3.org/2000/svg" width="100" height="100" viewBox="0 0 100 100">
  <g id="Grupo_1100965" data-name="Grupo 1100965" transform="translate(0.242)">
    <g id="Grupo_1098742" data-name="Grupo 1098742" transform="translate(0)">
      <rect id="Rectángulo_400898" data-name="Rectángulo 400898" width="100" height="100" rx="50" transform="translate(-0.242)" fill="#fff" opacity="0.859"/>
      <g id="Rectángulo_400907" data-name="Rectángulo 400907" transform="translate(-0.242)" fill="none" stroke="#3acc97" stroke-linecap="round" stroke-width="2" stroke-dasharray="7">
        <rect width="100" height="100" rx="50" stroke="none"/>
        <rect x="1" y="1" width="98" height="98" rx="49" fill="none"/>
      </g>
    </g>
    <g id="Grupo_1107006" data-name="Grupo 1107006" transform="translate(8.156 8.156)">
      <rect id="Rectángulo_400898-2" data-name="Rectángulo 400898" width="84" height="84" rx="42" transform="translate(-0.399 -0.157)" fill="#d7f5ea" opacity="0.859"/>
      <rect id="Rectángulo_400907-2" data-name="Rectángulo 400907" width="84" height="84" rx="42" transform="translate(-0.398 -0.157)" fill="none"/>
    </g>
    <g id="Grupo_1115663" data-name="Grupo 1115663" transform="translate(-14.231 12.867)">
      <g id="Grupo_1115662" data-name="Grupo 1115662" transform="translate(34.635 3.672)">
        <g id="Grupo_1115655" data-name="Grupo 1115655" transform="translate(1.131 1.939)">
          <g id="Grupo_1115654" data-name="Grupo 1115654">
            <g id="Grupo_1115653" data-name="Grupo 1115653">
              <g id="Grupo_1115652" data-name="Grupo 1115652">
                <g id="Grupo_1115651" data-name="Grupo 1115651">
                  <g id="Grupo_1115650" data-name="Grupo 1115650">
                    <g id="Grupo_1115649" data-name="Grupo 1115649">
                      <g id="Grupo_1115646" data-name="Grupo 1115646" transform="translate(33.394 39.924)">
                        <path id="Trazado_885915" data-name="Trazado 885915" d="M291.653,323.886q3.121,1.5,6.245,3l7.471-8.349a2.772,2.772,0,0,0-3.97-3.862Z" transform="translate(-291.653 -313.913)" fill="#f89f8e"/>
                      </g>
                      <g id="Grupo_1115647" data-name="Grupo 1115647" transform="translate(37.934 42.662)">
                        <path id="Trazado_885916" data-name="Trazado 885916" d="M322.951,342.211q3.048,1.644,6.1,3.284L336.9,337.5a2.772,2.772,0,0,0-3.785-4.044Z" transform="translate(-322.951 -332.79)" fill="#fdb0a0"/>
                      </g>
                      <g id="Grupo_1115648" data-name="Grupo 1115648">
                        <circle id="Elipse_11705" data-name="Elipse 11705" cx="24.477" cy="24.477" r="24.477" transform="translate(1.548 0.001)" fill="#64b9fc"/>
                        <path id="Trazado_885917" data-name="Trazado 885917" d="M250.983,63.172A24.478,24.478,0,0,1,226.506,87.65c-.821,0-1.635-.04-2.435-.12a24.48,24.48,0,0,0,0-48.717c.8-.08,1.614-.12,2.435-.12a24.478,24.478,0,0,1,24.476,24.478Z" transform="translate(-200.481 -38.694)" fill="#31a7fb"/>
                        <path id="Trazado_885918" data-name="Trazado 885918" d="M179.481,64.045a24.36,24.36,0,0,1-4.375,13.969l-7.159-2.384a1.45,1.45,0,0,0-1.678.591l-1.538,2.391a1.451,1.451,0,0,1-.607.53l-4.16,1.94a1.451,1.451,0,0,1-1.447-.128l-5.127-3.6a1.451,1.451,0,0,1-.495-1.768l.764-1.749a1.45,1.45,0,0,1,.976-.826l5.578-1.4a1.451,1.451,0,0,0,.938-.745l1.887-3.682a1.45,1.45,0,0,0-.053-1.418l-2.029-3.319a1.451,1.451,0,0,0-1.238-.694h-1.61a1.451,1.451,0,0,0-1.221.667l-2.812,4.38a1.451,1.451,0,0,1-1.642.6l-2.274-.689a1.451,1.451,0,0,0-1.456.372l-1.28,1.3a1.451,1.451,0,0,1-1.836.194L142.751,66.7a1.451,1.451,0,0,1-.542-.661l-1.663-4.073a1.451,1.451,0,0,1,.1-1.292l2.55-4.275a1.451,1.451,0,0,1,1.7-.635l4.312,1.421a1.451,1.451,0,0,0,1.118-.088l6.778-3.492a1.451,1.451,0,0,0,.783-1.388l-.205-3.016A1.451,1.451,0,0,0,157,48.071l-1.474-.916a1.451,1.451,0,0,1-.538-1.867l2.713-5.573A24.48,24.48,0,0,1,179.481,64.045Z" transform="translate(-128.979 -39.567)" fill="#99d53b"/>
                        <path id="Trazado_885919" data-name="Trazado 885919" d="M278.609,64.043a24.36,24.36,0,0,1-4.375,13.969l-4.005-1.335A24.49,24.49,0,0,0,256.385,40.62l.441-.907a24.481,24.481,0,0,1,21.783,24.33Z" transform="translate(-228.107 -39.565)" fill="#8dc637"/>
                        <path id="Trazado_885920" data-name="Trazado 885920" d="M362.816,155a24.446,24.446,0,0,1-1.411,8.21c-2.522-.659-7.283-3.2-6.423-9.134a9.566,9.566,0,0,1,5.921-7.92.727.727,0,0,1,.245-.054A24.4,24.4,0,0,1,362.816,155Z" transform="translate(-312.313 -130.524)" fill="#8dc637"/>
                        <path id="Trazado_885921" data-name="Trazado 885921" d="M99.706,275.66a3.144,3.144,0,0,0-3.162.8c-.733.691-1.462,1.657-2.422,2.432a24.54,24.54,0,0,1-7-9,7.623,7.623,0,0,1,5.526-1.119,9.56,9.56,0,0,1,7.92,5.922A.724.724,0,0,1,99.706,275.66Z" transform="translate(-83.399 -235.304)" fill="#31a7fb"/>
                        <path id="Trazado_885922" data-name="Trazado 885922" d="M107.51,61.77a9.576,9.576,0,0,1-9.228-2.123,24.558,24.558,0,0,1,11.9-9.757q.555.067,1.143.152a2.584,2.584,0,0,1,.59.157,2.531,2.531,0,0,1,1.564,1.937c.411,2.485.017,8.125-5.967,9.633Z" transform="translate(-92.939 -48.267)" fill="#31a7fb"/>
                        <path id="Trazado_885923" data-name="Trazado 885923" d="M120.684,345.877a2.772,2.772,0,0,0-3.416-.976l-9.416,4.175a3.694,3.694,0,0,0-3.651-3.139H96.235a14.535,14.535,0,0,1-4.614-.752l-6.722-2.25a6.02,6.02,0,0,0-3.593-.072l-4.365,1.27a6.019,6.019,0,0,0-3.658,3,12.293,12.293,0,0,1-4.226,4.649l-7.61,4.927,9.393,9.393,9.8-7.494,18.907,1.271a5.713,5.713,0,0,0,3.126-.688l17.046-9.329a2.772,2.772,0,0,0,.962-3.989Z" transform="translate(-61.448 -298.535)" fill="#ffcec0"/>
                        <path id="Trazado_885924" data-name="Trazado 885924" d="M157.626,362.084l-17.046,9.329a5.717,5.717,0,0,1-3.125.689l-18.908-1.271-9.8,7.494-2.962-2.962,10.234-7.823a1.02,1.02,0,0,1,.687-.207l18.524,1.245a5.721,5.721,0,0,0,3.126-.688l17.046-9.329a2.758,2.758,0,0,0,1.327-1.645,2.771,2.771,0,0,1,.9,5.168Z" transform="translate(-99.352 -310.754)" fill="#fdb0a0"/>
                      </g>
                    </g>
                  </g>
                </g>
              </g>
            </g>
          </g>
        </g>
        <g id="Grupo_1115657" data-name="Grupo 1115657" transform="translate(0 32.352)">
          <g id="Grupo_1115656" data-name="Grupo 1115656">
            <path id="Trazado_885925" data-name="Trazado 885925" d="M54.427,257.477a2.534,2.534,0,0,1-.708-2.386c.567-2.455,3.077-7.519,9.186-6.635a9.562,9.562,0,0,1,7.92,5.921.724.724,0,0,1-.862.971,3.145,3.145,0,0,0-3.162.8c-2.114,1.991-4.184,6.266-11.888,1.7a2.6,2.6,0,0,1-.485-.369Z" transform="translate(-53.654 -248.353)" fill="#99d53b"/>
            <path id="Trazado_885926" data-name="Trazado 885926" d="M69.966,274.461a3.147,3.147,0,0,0-3.163.795c-2.113,1.992-4.183,6.266-11.887,1.7a2.546,2.546,0,0,1-1.241-2.481c7.309,4.1,9.335-.031,11.405-1.981a3.142,3.142,0,0,1,3.163-.795.725.725,0,0,0,.862-.972c0-.007-.006-.014-.008-.021a9.641,9.641,0,0,1,1.731,2.78A.724.724,0,0,1,69.966,274.461Z" transform="translate(-53.658 -267.466)" fill="#8dc637"/>
          </g>
        </g>
        <g id="Grupo_1115659" data-name="Grupo 1115659" transform="translate(5.149)">
          <g id="Grupo_1115658" data-name="Grupo 1115658">
            <path id="Trazado_885927" data-name="Trazado 885927" d="M103.339,25.7a2.534,2.534,0,0,1,1.564,1.937c.41,2.486.018,8.124-5.968,9.633a9.562,9.562,0,0,1-9.578-2.46.724.724,0,0,1,.427-1.227,3.145,3.145,0,0,0,2.621-1.94c1.2-2.646,1.483-7.387,10.344-6.1a2.582,2.582,0,0,1,.589.157Z" transform="translate(-89.148 -25.33)" fill="#a3e440"/>
            <path id="Trazado_885928" data-name="Trazado 885928" d="M107.968,37.6a9.652,9.652,0,0,1-8.254-1.336,10.554,10.554,0,0,0,4.957-.137c5.985-1.509,6.378-7.148,5.967-9.633a2.547,2.547,0,0,0-.267-.783c.444.036.915.088,1.413.161a2.678,2.678,0,0,1,.589.157,2.533,2.533,0,0,1,1.562,1.938C114.346,30.452,113.954,36.089,107.968,37.6Z" transform="translate(-98.181 -25.655)" fill="#8dc637"/>
          </g>
        </g>
        <g id="Grupo_1115661" data-name="Grupo 1115661" transform="translate(45.871 14.713)">
          <g id="Grupo_1115660" data-name="Grupo 1115660">
            <path id="Trazado_885929" data-name="Trazado 885929" d="M378.994,143.207a2.534,2.534,0,0,1-2.386.708c-2.455-.567-7.519-3.077-6.635-9.186a9.562,9.562,0,0,1,5.921-7.92.724.724,0,0,1,.971.862,3.145,3.145,0,0,0,.8,3.162c1.991,2.114,6.266,4.184,1.7,11.888A2.592,2.592,0,0,1,378.994,143.207Z" transform="translate(-369.87 -126.754)" fill="#a3e440"/>
            <path id="Trazado_885930" data-name="Trazado 885930" d="M395.979,127.672a3.147,3.147,0,0,0,.795,3.163c1.992,2.113,6.266,4.183,1.7,11.887A2.546,2.546,0,0,1,396,143.962c4.1-7.309-.031-9.335-1.981-11.405a3.142,3.142,0,0,1-.795-3.163.725.725,0,0,0-.972-.862l-.021.008a9.641,9.641,0,0,1,2.78-1.731A.724.724,0,0,1,395.979,127.672Z" transform="translate(-388.984 -126.754)" fill="#99d53b"/>
          </g>
        </g>
      </g>
      <path id="Trazado_885931" data-name="Trazado 885931" d="M95.9,52.341a3.858,3.858,0,0,0-4.757-1.36l-1.673.742a3.856,3.856,0,0,0-4.92-4.37A3.849,3.849,0,0,0,83.1,45.2a3.911,3.911,0,0,0-.47-.295,25.582,25.582,0,0,0,3.92-8.415c.154.044.306.085.452.119a3.561,3.561,0,0,0,.8.091,3.629,3.629,0,0,0,.735-.076,17.633,17.633,0,0,0,2.486,2.029,1.088,1.088,0,0,0,1.221-1.8,15.542,15.542,0,0,1-1.733-1.361,3.71,3.71,0,0,0,.427-.582c4.4-7.426,1.148-10.407-1-12.379-.311-.285-.6-.554-.845-.809a2.07,2.07,0,0,1-.54-2.121,1.812,1.812,0,0,0-2.43-2.165,10.934,10.934,0,0,0-1.652.847A25.621,25.621,0,0,0,81.2,13.455a1.088,1.088,0,0,0-1.652,1.416,23.429,23.429,0,0,1,3.169,4.773A11.049,11.049,0,0,0,79.532,26.2a10.766,10.766,0,0,0-.112,1.416,1.088,1.088,0,0,0,1.075,1.1h.013A1.088,1.088,0,0,0,81.6,27.644a8.6,8.6,0,0,1,.09-1.129,8.465,8.465,0,0,1,4.623-6.782,4.246,4.246,0,0,0,1.2,3.477c.3.313.617.609.958.921,2.015,1.848,4.1,3.759.6,9.666-.02.033-.042.064-.064.095a14.026,14.026,0,0,1-3.038-8.515,1.088,1.088,0,0,0-2.175.044,16.334,16.334,0,0,0,2.724,8.767,8.263,8.263,0,0,1-3.663-2.608A1.088,1.088,0,1,0,81.116,32.9a10.066,10.066,0,0,0,3.392,2.773,23.366,23.366,0,0,1-3.061,7.092l-6.37-2.121a2.536,2.536,0,0,0-2.937,1.035L70.6,44.066a.363.363,0,0,1-.152.132l-4.16,1.94a.362.362,0,0,1-.362-.032L60.8,42.5a.364.364,0,0,1-.124-.442l.764-1.749a.365.365,0,0,1,.244-.206l5.577-1.4a2.538,2.538,0,0,0,1.641-1.3l1.886-3.682a2.552,2.552,0,0,0-.093-2.482l-2.029-3.319A2.554,2.554,0,0,0,66.5,26.7h-1.61a2.529,2.529,0,0,0-2.136,1.167l-2.812,4.38a.364.364,0,0,1-.411.151l-2.273-.689a2.53,2.53,0,0,0-2.548.651l-1.28,1.3a.363.363,0,0,1-.459.048l-2.836-1.877A.363.363,0,0,1,50,31.673L48.34,27.6a.365.365,0,0,1,.024-.323L50.914,23a.36.36,0,0,1,.425-.159l4.312,1.421a2.553,2.553,0,0,0,1.957-.154l6.779-3.492a2.536,2.536,0,0,0,1.37-2.429l-.205-3.016a2.544,2.544,0,0,0-1.193-1.984l-1.474-.916a.362.362,0,0,1-.135-.467l2.373-4.875a23.109,23.109,0,0,1,11.089,4.741,1.088,1.088,0,1,0,1.343-1.712A25.309,25.309,0,0,0,61.791,4.523a25.728,25.728,0,0,0-5.376.567,3.624,3.624,0,0,0-.374-.71,17.61,17.61,0,0,0,.93-3.073,1.088,1.088,0,1,0-2.13-.443,15.533,15.533,0,0,1-.6,2.121,3.693,3.693,0,0,0-.7-.173c-8.541-1.24-10.06,2.9-11.064,5.64-.145.4-.282.769-.427,1.089A2.07,2.07,0,0,1,40.3,10.848a1.812,1.812,0,0,0-1.077,3.071,10.915,10.915,0,0,0,1.7,1.4,25.31,25.31,0,0,0-4.692,14.765,25.612,25.612,0,0,0,.9,6.731,10.794,10.794,0,0,0-3.483,5.7,3.593,3.593,0,0,0-.014,1.535,17.623,17.623,0,0,0-2.03,2.487,1.088,1.088,0,1,0,1.8,1.221,15.558,15.558,0,0,1,1.361-1.734,3.69,3.69,0,0,0,.582.427,13.019,13.019,0,0,0,6.492,2.185,6.408,6.408,0,0,0,2.041-.322,25.646,25.646,0,0,0,4.3,3.407,7.1,7.1,0,0,0-1.536,1.987,11.228,11.228,0,0,1-3.852,4.237l-7.61,4.928A1.088,1.088,0,1,0,36.358,64.7l7.61-4.928a13.4,13.4,0,0,0,4.6-5.06,4.953,4.953,0,0,1,3-2.46l4.365-1.271a4.906,4.906,0,0,1,2.943.059l6.722,2.25a15.593,15.593,0,0,0,4.959.808h7.966a2.6,2.6,0,0,1,0,5.21h-9.6a21.906,21.906,0,0,0-5.114.606,1.088,1.088,0,1,0,.508,2.116,19.739,19.739,0,0,1,4.606-.545h9.6A4.786,4.786,0,0,0,83.3,56.841l8.731-3.871a1.683,1.683,0,0,1,2.075.593,1.683,1.683,0,0,1-.584,2.423l-17.046,9.33a4.607,4.607,0,0,1-2.53.557L55.035,64.6a1.088,1.088,0,0,0-.734.221l-9.8,7.494a1.088,1.088,0,1,0,1.322,1.729L55.3,66.8l18.5,1.243a6.8,6.8,0,0,0,3.721-.82L94.563,57.9a3.859,3.859,0,0,0,1.34-5.554Zm-9.168-2.605a1.684,1.684,0,0,1,.141,2.489l-1.113,1.132-.016.018-2.905,1.288a4.813,4.813,0,0,0-1.69-1.947l3.426-2.949a1.683,1.683,0,0,1,2.158-.032ZM81.808,46.95a1.678,1.678,0,0,1,.631,1.787l-3.71,3.193c-.07,0-.14-.005-.21-.005H75.088a25.735,25.735,0,0,0,6.021-5.09c.045-.051.087-.1.131-.156A1.673,1.673,0,0,1,81.808,46.95ZM44.033,10.438c.178-.393.328-.8.487-1.237.941-2.567,1.915-5.222,8.709-4.236.038.006.075.015.112.023a14.028,14.028,0,0,1-6.717,6.052,1.088,1.088,0,1,0,.869,1.995A16.334,16.334,0,0,0,54.561,7.18a8.762,8.762,0,0,1-.612,3.567,6.408,6.408,0,0,1-4.644,3.813,8.465,8.465,0,0,1-8.031-1.693A4.245,4.245,0,0,0,44.033,10.438Zm15.53,38.541a7.075,7.075,0,0,0-4.242-.084l-4.365,1.271a7.054,7.054,0,0,0-.727.257,23.446,23.446,0,0,1-4.352-3.2,14.743,14.743,0,0,0,1.84-1.775c.285-.311.554-.6.81-.845a2.071,2.071,0,0,1,2.12-.541,1.812,1.812,0,0,0,2.165-2.43,10.372,10.372,0,0,0-5.284-5.572,1.088,1.088,0,0,0-.919,1.973,8.166,8.166,0,0,1,3.9,3.79,4.24,4.24,0,0,0-3.476,1.2c-.314.3-.609.617-.921.958-1.848,2.015-3.759,4.1-9.667.6-.033-.019-.063-.042-.094-.063a14.028,14.028,0,0,1,8.515-3.038,1.088,1.088,0,0,0-.022-2.176h-.023a16.335,16.335,0,0,0-8.767,2.724,6.972,6.972,0,0,1,6.31-4.914,1.088,1.088,0,0,0-.02-2.176h-.021a8.5,8.5,0,0,0-3.262.69,23.472,23.472,0,0,1-.664-5.54,23.157,23.157,0,0,1,4.461-13.742,10.389,10.389,0,0,0,3.864.726,12.7,12.7,0,0,0,3.11-.4,8.588,8.588,0,0,0,6.12-5.086,10.794,10.794,0,0,0,.78-4.336A23.538,23.538,0,0,1,61.79,6.7q.51,0,1.016.022l-2.012,4.134a2.532,2.532,0,0,0,.942,3.267l1.474.916a.364.364,0,0,1,.17.283l.205,3.016a.363.363,0,0,1-.2.347l-6.779,3.492a.365.365,0,0,1-.279.022L52.02,20.777a2.524,2.524,0,0,0-2.975,1.111l-2.55,4.275a2.551,2.551,0,0,0-.17,2.26L47.988,32.5a2.531,2.531,0,0,0,.949,1.157l2.836,1.877a2.543,2.543,0,0,0,3.212-.339l1.28-1.3a.361.361,0,0,1,.364-.093l2.274.689a2.55,2.55,0,0,0,2.873-1.058l2.812-4.38a.361.361,0,0,1,.305-.167H66.5a.365.365,0,0,1,.309.173l2.029,3.319a.364.364,0,0,1,.013.354l-1.886,3.682a.363.363,0,0,1-.235.186L61.157,38a2.556,2.556,0,0,0-1.708,1.445l-.764,1.749a2.546,2.546,0,0,0,.866,3.094l5.127,3.6a2.544,2.544,0,0,0,2.533.224l4.16-1.94a2.535,2.535,0,0,0,1.061-.927l1.538-2.39a.363.363,0,0,1,.42-.148l5.731,1.909c-.213.269-.43.535-.655.794a23.506,23.506,0,0,1-9.259,6.509,13.413,13.413,0,0,1-3.922-.689Z" transform="translate(0)"/>
    </g>
  </g>
</svg>
