<svg xmlns="http://www.w3.org/2000/svg" width="100" height="100" viewBox="0 0 100 100">
  <g id="Grupo_1100965" data-name="Grupo 1100965" transform="translate(0.242)">
    <g id="Grupo_1098742" data-name="Grupo 1098742" transform="translate(0)">
      <rect id="Rectángulo_400898" data-name="Rectángulo 400898" width="100" height="100" rx="50" transform="translate(-0.242)" fill="#fff" opacity="0.859"/>
      <g id="Rectángulo_400907" data-name="Rectángulo 400907" transform="translate(-0.242)" fill="none" stroke="#3acc97" stroke-linecap="round" stroke-width="2" stroke-dasharray="7">
        <rect width="100" height="100" rx="50" stroke="none"/>
        <rect x="1" y="1" width="98" height="98" rx="49" fill="none"/>
      </g>
    </g>
    <g id="Grupo_1107006" data-name="Grupo 1107006" transform="translate(8.156 8.156)">
      <rect id="Rectángulo_400898-2" data-name="Rectángulo 400898" width="84" height="84" rx="42" transform="translate(-0.399 -0.157)" fill="#d7f5ea" opacity="0.859"/>
      <rect id="Rectángulo_400907-2" data-name="Rectángulo 400907" width="84" height="84" rx="42" transform="translate(-0.398 -0.157)" fill="none"/>
    </g>
    <g id="Layer_55" transform="translate(17.006 17.248)">
      <g id="Grupo_1115609" data-name="Grupo 1115609" transform="translate(0 0)">
        <g id="Grupo_1115551" data-name="Grupo 1115551" transform="translate(24.222 23.947)">
          <path id="Trazado_885712" data-name="Trazado 885712" d="M104.47,93.765c-3.115,3.918-7.711,3.365-9.257,3.042a.455.455,0,0,0-.55.44v6.868a8.53,8.53,0,0,0,17.06,0v-7.6c0-.045,0-.089,0-.133a.457.457,0,0,0-.44-.448,8.881,8.881,0,0,1-6.128-2.211A.459.459,0,0,0,104.47,93.765Z" transform="translate(-94.663 -93.59)" fill="#f9d0b4"/>
        </g>
        <g id="Grupo_1115552" data-name="Grupo 1115552" transform="translate(41.26 27.97)">
          <path id="Trazado_885713" data-name="Trazado 885713" d="M161.822,109.312a3.539,3.539,0,0,0-.547.043v6.457c0,.192-.009.383-.021.572a3.56,3.56,0,1,0,.569-7.073Z" transform="translate(-161.253 -109.312)" fill="#f9d0b4"/>
        </g>
        <g id="Grupo_1115553" data-name="Grupo 1115553" transform="translate(20.113 27.97)">
          <path id="Trazado_885714" data-name="Trazado 885714" d="M82.715,115.813v-6.457a3.563,3.563,0,1,0,.021,7.029h0C82.723,116.2,82.715,116.005,82.715,115.813Z" transform="translate(-78.606 -109.312)" fill="#f9d0b4"/>
        </g>
        <g id="Grupo_1115554" data-name="Grupo 1115554" transform="translate(14.991 42.033)">
          <path id="Trazado_885715" data-name="Trazado 885715" d="M93,187.1a1.105,1.105,0,0,0,1.1-1.169l-.68-11.731a3.366,3.366,0,0,0-2.539-3.077l-4.9-1.233a16.708,16.708,0,0,1-1.625-.5l-3.66,4.223a.935.935,0,0,1-1.319.094L77.755,172.3a.935.935,0,0,1-.094-1.319l3.149-3.633a2.936,2.936,0,0,1-.532-1.682v-1.388a8.461,8.461,0,0,1-7.859,0v1.388a2.939,2.939,0,0,1-.548,1.707L75,170.976A.935.935,0,0,1,74.9,172.3l-1.632,1.414a.935.935,0,0,1-1.319-.094L68.3,169.4a16.623,16.623,0,0,1-1.59.488l-4.9,1.234A3.366,3.366,0,0,0,59.27,174.2l-.68,11.731a1.1,1.1,0,0,0,1.1,1.169H93Z" transform="translate(-58.588 -164.273)" fill="#3caadc"/>
        </g>
        <g id="Grupo_1115555" data-name="Grupo 1115555" transform="translate(42.339 10.896)">
          <path id="Trazado_885716" data-name="Trazado 885716" d="M176.789,42.584a11.263,11.263,0,0,0-3.244,22.065,1.17,1.17,0,0,1,.838,1.123v1.847a.422.422,0,0,0,.69.326l3.442-2.83a1.2,1.2,0,0,1,.52-.245,11.261,11.261,0,0,0-2.246-22.285Z" transform="translate(-165.471 -42.583)" fill="#edf4fc"/>
        </g>
        <g id="Grupo_1115556" data-name="Grupo 1115556" transform="translate(0.64 10.896)">
          <path id="Trazado_885717" data-name="Trazado 885717" d="M13.706,42.584A11.263,11.263,0,0,1,16.95,64.648a1.17,1.17,0,0,0-.838,1.123v1.847a.422.422,0,0,1-.69.326l-3.442-2.83a1.2,1.2,0,0,0-.52-.245,11.261,11.261,0,0,1,2.246-22.285Z" transform="translate(-2.5 -42.583)" fill="#edf4fc"/>
        </g>
        <g id="Grupo_1115557" data-name="Grupo 1115557" transform="translate(21.452 16.001)">
          <path id="Trazado_885718" data-name="Trazado 885718" d="M104.728,68.5a11.123,11.123,0,0,1,.442-2.92,4.824,4.824,0,0,0-5.846-.66,4.877,4.877,0,0,0-4.179-2.385h-2.5a8.814,8.814,0,0,0-7.319,3.928,11.213,11.213,0,0,1-1.485,8.2v.623a3.543,3.543,0,0,1,2.222-.781,3.607,3.607,0,0,1,.547.043v-.41a.455.455,0,0,1,.55-.44c1.545.323,6.141.876,9.257-3.042a.459.459,0,0,1,.683-.043,8.88,8.88,0,0,0,6.128,2.211.457.457,0,0,1,.44.448c0,.045,0,.089,0,.133v1.141a3.541,3.541,0,0,1,3.017.956v-.463a11.211,11.211,0,0,1-1.958-6.541Z" transform="translate(-83.839 -62.534)" fill="#754e34"/>
        </g>
        <g id="Grupo_1115558" data-name="Grupo 1115558" transform="translate(28.274 42.032)">
          <path id="Trazado_885719" data-name="Trazado 885719" d="M113.627,170.975a.926.926,0,0,1,.223.537h2.218a.929.929,0,0,1,.223-.537l3.148-3.633a2.936,2.936,0,0,1-.532-1.682v-1.388a8.461,8.461,0,0,1-7.859,0v1.388a2.939,2.939,0,0,1-.548,1.707Z" transform="translate(-110.5 -164.272)" fill="#f9d0b4"/>
        </g>
        <g id="Grupo_1115559" data-name="Grupo 1115559" transform="translate(33.836 45.103)">
          <path id="Trazado_885720" data-name="Trazado 885720" d="M134.192,182.638a.935.935,0,0,0,1.319-.094l3.66-4.223a16.727,16.727,0,0,1-1.771-.758c-.477-.238-.89-.448-.966-.5a2.947,2.947,0,0,1-.82-.793l-3.148,3.633a.935.935,0,0,0,.094,1.319Z" transform="translate(-132.238 -176.272)" fill="#70d6f9"/>
        </g>
        <g id="Grupo_1115560" data-name="Grupo 1115560" transform="translate(24.705 45.128)">
          <path id="Trazado_885721" data-name="Trazado 885721" d="M99.134,177.248c-.04.022-.406.2-.844.42a16.661,16.661,0,0,1-1.739.738l3.651,4.212a.935.935,0,0,0,1.319.094l1.632-1.414a.935.935,0,0,0,.094-1.319l-3.126-3.607A2.946,2.946,0,0,1,99.134,177.248Z" transform="translate(-96.551 -176.371)" fill="#70d6f9"/>
        </g>
        <g id="Grupo_1115561" data-name="Grupo 1115561" transform="translate(14.991 60.719)">
          <path id="Trazado_885722" data-name="Trazado 885722" d="M59.693,241.447h4.9V237.3H58.762l-.172,2.975A1.105,1.105,0,0,0,59.693,241.447Z" transform="translate(-58.588 -237.303)" fill="#f9d0b4"/>
        </g>
        <g id="Grupo_1115562" data-name="Grupo 1115562" transform="translate(44.628 60.719)">
          <path id="Trazado_885723" data-name="Trazado 885723" d="M180.126,237.3h-5.71v4.144H179.2a1.105,1.105,0,0,0,1.1-1.169Z" transform="translate(-174.416 -237.303)" fill="#f9d0b4"/>
        </g>
        <g id="Grupo_1115563" data-name="Grupo 1115563" transform="translate(23.582 23.307)">
          <path id="Trazado_885724" data-name="Trazado 885724" d="M101.333,111.423a9.18,9.18,0,0,1-9.17-9.17V95.392a1.086,1.086,0,0,1,.4-.849,1.1,1.1,0,0,1,.918-.223,8.544,8.544,0,0,0,8.625-2.814,1.1,1.1,0,0,1,1.631-.1,8.291,8.291,0,0,0,5.7,2.029,1.1,1.1,0,0,1,1.061,1.075l0,.147v7.6a9.18,9.18,0,0,1-9.169,9.169Zm-7.89-15.808v6.638a7.89,7.89,0,0,0,15.781,0V94.706a9.538,9.538,0,0,1-6.235-2.252c-3.221,3.894-7.869,3.471-9.546,3.162ZM102.61,91.9h0Z" transform="translate(-92.163 -91.09)"/>
        </g>
        <g id="Grupo_1115564" data-name="Grupo 1115564" transform="translate(40.867 27.33)">
          <path id="Trazado_885725" data-name="Trazado 885725" d="M160.678,115.214a3.763,3.763,0,0,1-.387-.02.64.64,0,0,1,.129-1.273c.085.008.171.014.258.014a2.922,2.922,0,0,0,0-5.843c-.086,0-.17,0-.254.012a.64.64,0,1,1-.117-1.274c.124-.012.249-.017.371-.017a4.2,4.2,0,0,1,0,8.4Z" transform="translate(-159.716 -106.812)"/>
        </g>
        <g id="Grupo_1115565" data-name="Grupo 1115565" transform="translate(19.473 27.33)">
          <path id="Trazado_885726" data-name="Trazado 885726" d="M80.306,115.213a4.2,4.2,0,0,1,0-8.4,4.152,4.152,0,0,1,.418.021.64.64,0,1,1-.128,1.273,2.889,2.889,0,0,0-.289-.015,2.922,2.922,0,0,0,0,5.843c.077,0,.154,0,.229-.011a.64.64,0,1,1,.117,1.274C80.538,115.207,80.423,115.213,80.306,115.213Z" transform="translate(-76.105 -106.811)"/>
        </g>
        <g id="Grupo_1115566" data-name="Grupo 1115566" transform="translate(14.351 41.53)">
          <path id="Trazado_885727" data-name="Trazado 885727" d="M91.143,186.283H57.832a1.745,1.745,0,0,1-1.742-1.846l.68-11.731a3.988,3.988,0,0,1,3.022-3.661l4.9-1.234a15.924,15.924,0,0,0,1.529-.47.64.64,0,0,1,.7.183l3.651,4.212a.3.3,0,0,0,.417.03l1.632-1.414a.3.3,0,0,0,.03-.417l-3.126-3.607a.64.64,0,0,1-.037-.79,2.289,2.289,0,0,0,.429-1.336v-1.21a.64.64,0,0,1,1.279,0v1.21a3.553,3.553,0,0,1-.4,1.641L73.62,169.1a1.576,1.576,0,0,1-.159,2.222l-1.631,1.414a1.575,1.575,0,0,1-2.222-.158l-3.367-3.884c-.416.139-.829.26-1.234.362l-4.9,1.234a2.715,2.715,0,0,0-2.057,2.492l-.68,11.733a.465.465,0,0,0,.464.492H91.143a.465.465,0,0,0,.464-.492l-.68-11.731a2.714,2.714,0,0,0-2.057-2.494l-4.9-1.232c-.417-.105-.843-.231-1.269-.374l-3.375,3.895a1.577,1.577,0,0,1-2.222.158l-1.632-1.414a1.575,1.575,0,0,1-.158-2.222l2.846-3.284a3.556,3.556,0,0,1-.385-1.612v-1.25a.64.64,0,0,1,1.279,0v1.25a2.292,2.292,0,0,0,.417,1.316.64.64,0,0,1-.041.785l-3.148,3.633a.3.3,0,0,0,.029.417l1.632,1.414a.3.3,0,0,0,.417-.029l3.66-4.223a.639.639,0,0,1,.7-.182,16.146,16.146,0,0,0,1.562.482l4.9,1.232a3.988,3.988,0,0,1,3.022,3.662l.68,11.73a1.746,1.746,0,0,1-1.742,1.846Z" transform="translate(-56.087 -162.31)"/>
        </g>
        <g id="Grupo_1115567" data-name="Grupo 1115567" transform="translate(43.988 54.001)">
          <path id="Trazado_885728" data-name="Trazado 885728" d="M172.556,222.466a.64.64,0,0,1-.64-.64V211.686a.64.64,0,0,1,1.279,0v10.141A.64.64,0,0,1,172.556,222.466Z" transform="translate(-171.916 -211.046)"/>
        </g>
        <g id="Grupo_1115568" data-name="Grupo 1115568" transform="translate(20.359 54.001)">
          <path id="Trazado_885729" data-name="Trazado 885729" d="M80.209,222.466a.64.64,0,0,1-.64-.64V211.686a.64.64,0,1,1,1.279,0v10.141A.64.64,0,0,1,80.209,222.466Z" transform="translate(-79.569 -211.046)"/>
        </g>
        <g id="Grupo_1115569" data-name="Grupo 1115569" transform="translate(41.7 10.256)">
          <path id="Trazado_885730" data-name="Trazado 885730" d="M172.947,66.82a1.067,1.067,0,0,1-.456-.1,1.052,1.052,0,0,1-.608-.96V63.91a.533.533,0,0,0-.379-.509,11.9,11.9,0,0,1,3.369-23.318h.059a11.9,11.9,0,0,1,2.373,23.551.57.57,0,0,0-.244.113l-3.442,2.83A1.055,1.055,0,0,1,172.947,66.82Zm1.926-25.458a10.623,10.623,0,0,0-3.008,20.812,1.819,1.819,0,0,1,1.3,1.736V65.3l3.086-2.537a1.851,1.851,0,0,1,.8-.377,10.621,10.621,0,0,0-2.118-21.019h-.052Z" transform="translate(-162.971 -40.083)"/>
        </g>
        <g id="Grupo_1115570" data-name="Grupo 1115570" transform="translate(0 10.256)">
          <path id="Trazado_885731" data-name="Trazado 885731" d="M13.827,66.82a1.055,1.055,0,0,1-.672-.243L9.713,63.746a.568.568,0,0,0-.244-.112,11.9,11.9,0,0,1,2.374-23.551H11.9A11.9,11.9,0,0,1,15.27,63.4a.533.533,0,0,0-.379.509v1.847a1.052,1.052,0,0,1-.608.96,1.067,1.067,0,0,1-.456.1ZM11.849,41.363A10.622,10.622,0,0,0,9.73,62.382a1.85,1.85,0,0,1,.8.377L13.612,65.3V63.91a1.819,1.819,0,0,1,1.3-1.736A10.623,10.623,0,0,0,11.9,41.363Zm0-.64h0Z" transform="translate(0 -40.083)"/>
        </g>
        <g id="Grupo_1115571" data-name="Grupo 1115571" transform="translate(22.456 15.361)">
          <path id="Trazado_885732" data-name="Trazado 885732" d="M88.4,65.013A.64.64,0,0,1,87.883,64a9.478,9.478,0,0,1,7.681-3.967h2.5a5.543,5.543,0,0,1,4.387,2.192,5.457,5.457,0,0,1,5.914.877.64.64,0,0,1-.845.96,4.183,4.183,0,0,0-4.948-.457.64.64,0,0,1-.878-.22,4.261,4.261,0,0,0-3.63-2.074h-2.5a8.2,8.2,0,0,0-6.641,3.432A.639.639,0,0,1,88.4,65.013Z" transform="translate(-87.763 -60.034)"/>
        </g>
        <g id="Grupo_1115572" data-name="Grupo 1115572" transform="translate(31.094 48.632)">
          <path id="Trazado_885733" data-name="Trazado 885733" d="M124.112,191.345h-1.951a.64.64,0,1,1,0-1.279h1.951a.64.64,0,1,1,0,1.279Z" transform="translate(-121.521 -190.066)"/>
        </g>
        <g id="Grupo_1115573" data-name="Grupo 1115573" transform="translate(36.573 44.463)">
          <path id="Trazado_885734" data-name="Trazado 885734" d="M147.131,177.1a.641.641,0,0,1-.219-.039,17.477,17.477,0,0,1-1.838-.787c-.9-.448-.981-.5-1.027-.531a3.572,3.572,0,0,1-1-.965.64.64,0,1,1,1.049-.732,2.3,2.3,0,0,0,.641.622c.013.007.144.082.906.463a16.215,16.215,0,0,0,1.7.729.639.639,0,0,1-.218,1.24Z" transform="translate(-142.934 -173.773)"/>
        </g>
        <g id="Grupo_1115574" data-name="Grupo 1115574" transform="translate(24.065 44.488)">
          <path id="Trazado_885735" data-name="Trazado 885735" d="M94.691,177.185a.64.64,0,0,1-.217-1.241,16.219,16.219,0,0,0,1.673-.71c.417-.207.769-.381.825-.41a2.289,2.289,0,0,0,.768-.685.64.64,0,1,1,1.041.743,3.618,3.618,0,0,1-1.2,1.066c-.034.018-.121.063-.867.432a17.4,17.4,0,0,1-1.806.767A.632.632,0,0,1,94.691,177.185Z" transform="translate(-94.051 -173.87)"/>
        </g>
        <g id="Grupo_1115575" data-name="Grupo 1115575" transform="translate(14.745 60.079)">
          <path id="Trazado_885736" data-name="Trazado 885736" d="M63.7,236.083H58.265a.64.64,0,1,1,0-1.279H63.7a.64.64,0,1,1,0,1.279Z" transform="translate(-57.625 -234.804)"/>
        </g>
        <g id="Grupo_1115576" data-name="Grupo 1115576" transform="translate(44.162 60.079)">
          <path id="Trazado_885737" data-name="Trazado 885737" d="M178.615,236.083h-5.381a.64.64,0,1,1,0-1.279h5.381a.64.64,0,1,1,0,1.279Z" transform="translate(-172.594 -234.804)"/>
        </g>
        <g id="Grupo_1115577" data-name="Grupo 1115577" transform="translate(18.04 4.927)">
          <path id="Trazado_885738" data-name="Trazado 885738" d="M71.145,25.286a.64.64,0,0,1-.441-1.1,21.329,21.329,0,0,1,8.313-4.9.64.64,0,1,1,.38,1.222,20.043,20.043,0,0,0-7.812,4.6.638.638,0,0,1-.441.176Z" transform="translate(-70.506 -19.256)"/>
        </g>
        <g id="Grupo_1115578" data-name="Grupo 1115578" transform="translate(38.16 4.927)">
          <path id="Trazado_885739" data-name="Trazado 885739" d="M157.823,25.262a.639.639,0,0,1-.441-.176,19.923,19.923,0,0,0-7.793-4.581.64.64,0,1,1,.379-1.222,21.2,21.2,0,0,1,8.3,4.877.639.639,0,0,1-.441,1.1Z" transform="translate(-149.138 -19.254)"/>
        </g>
        <g id="Grupo_1115579" data-name="Grupo 1115579" transform="translate(29.035 0.64)">
          <path id="Trazado_885740" data-name="Trazado 885740" d="M117.193,2.5a3.716,3.716,0,1,0,3.716,3.716A3.716,3.716,0,0,0,117.193,2.5Z" transform="translate(-113.477 -2.5)" fill="#87d147"/>
        </g>
        <g id="Grupo_1115580" data-name="Grupo 1115580" transform="translate(28.396 0)">
          <path id="Trazado_885741" data-name="Trazado 885741" d="M115.333,8.711a4.356,4.356,0,1,1,4.356-4.356,4.361,4.361,0,0,1-4.356,4.356Zm0-7.432a3.076,3.076,0,1,0,3.076,3.076,3.08,3.08,0,0,0-3.076-3.076Z" transform="translate(-110.977 0)"/>
        </g>
        <g id="Grupo_1115581" data-name="Grupo 1115581" transform="translate(30.501 2.983)">
          <path id="Trazado_885742" data-name="Trazado 885742" d="M121.084,14.883a.641.641,0,0,1-.452-.187l-1.238-1.238a.64.64,0,1,1,.9-.9l.786.786,1.494-1.494a.64.64,0,0,1,.9.9L121.536,14.7A.639.639,0,0,1,121.084,14.883Z" transform="translate(-119.205 -11.657)"/>
        </g>
        <g id="Grupo_1115582" data-name="Grupo 1115582" transform="translate(29.811 36.071)">
          <path id="Trazado_885743" data-name="Trazado 885743" d="M119.57,143.289a3.809,3.809,0,0,1-2.913-1.267.64.64,0,0,1,.98-.822,2.711,2.711,0,0,0,3.864,0,.64.64,0,1,1,.98.822A3.807,3.807,0,0,1,119.57,143.289Z" transform="translate(-116.508 -140.972)"/>
        </g>
        <g id="Grupo_1115583" data-name="Grupo 1115583" transform="translate(35.3 30.96)">
          <circle id="Elipse_11696" data-name="Elipse 11696" cx="1.081" cy="1.081" r="1.081"/>
        </g>
        <g id="Grupo_1115584" data-name="Grupo 1115584" transform="translate(28.041 30.96)">
          <circle id="Elipse_11697" data-name="Elipse 11697" cx="1.081" cy="1.081" r="1.081"/>
        </g>
        <g id="Grupo_1115585" data-name="Grupo 1115585" transform="translate(48.352 18.935)">
          <path id="Trazado_885744" data-name="Trazado 885744" d="M198.672,74.8a2.738,2.738,0,0,0-3.872,0l-.213.213a.516.516,0,0,1-.73,0l-.213-.213a2.738,2.738,0,0,0-3.872,3.872l3.615,3.615a1.18,1.18,0,0,0,1.669,0l3.615-3.615A2.738,2.738,0,0,0,198.672,74.8Z" transform="translate(-188.971 -74.001)" fill="#fc657e"/>
        </g>
        <g id="Grupo_1115586" data-name="Grupo 1115586" transform="translate(47.714 18.295)">
          <path id="Trazado_885745" data-name="Trazado 885745" d="M192.367,81.413a1.813,1.813,0,0,1-1.287-.532l-3.615-3.616a3.377,3.377,0,0,1,4.776-4.776l.126.126.125-.125a3.377,3.377,0,1,1,4.777,4.776l-3.615,3.615A1.812,1.812,0,0,1,192.367,81.413Zm-2.514-8.634a2.1,2.1,0,0,0-1.484,3.582l3.615,3.615a.542.542,0,0,0,.764,0l3.615-3.615a2.1,2.1,0,1,0-2.967-2.967l-.213.213a1.157,1.157,0,0,1-1.635,0l-.213-.213a2.084,2.084,0,0,0-1.483-.614Z" transform="translate(-186.477 -71.5)"/>
        </g>
        <g id="Grupo_1115587" data-name="Grupo 1115587" transform="translate(6.751 26.142)">
          <path id="Trazado_885746" data-name="Trazado 885746" d="M29.71,102.275a1.857,1.857,0,0,1-2.27-.066.19.19,0,0,0-.264.032,1.307,1.307,0,0,1-.6.423,5.08,5.08,0,0,1,.06.687,7.364,7.364,0,0,1-.23,1.593,1.075,1.075,0,0,0,1.657,1.115c.541-.4.84-1.589,1.7-3.809A.2.2,0,0,0,29.71,102.275Z" transform="translate(-26.384 -102.17)" fill="#f98fa6"/>
        </g>
        <g id="Grupo_1115588" data-name="Grupo 1115588" transform="translate(3.953 14.69)">
          <path id="Trazado_885747" data-name="Trazado 885747" d="M17.252,69.223a1.427,1.427,0,0,0,1.786-.289A.19.19,0,0,1,19.3,68.9a1.857,1.857,0,0,0,2.27.066.19.19,0,0,1,.2-.009,2.361,2.361,0,0,0,3.506-1.108c1.423-2.584,5.894-2.143,6.5-4.612A2.5,2.5,0,0,0,29.6,60.221a.188.188,0,0,1-.185-.137,1.662,1.662,0,0,0-2.049-1.231.186.186,0,0,1-.193-.1,1.572,1.572,0,0,0-1.977-.805A.192.192,0,0,1,25,57.9a1.51,1.51,0,0,0-2.221-.01.185.185,0,0,1-.191.029,2.19,2.19,0,0,0-3.02,1.107.19.19,0,0,1-.156.11,2.527,2.527,0,0,0-2.471,2.727.188.188,0,0,1-.111.18c-.473.206-2.16,1.133-.96,3.486a.19.19,0,0,1,.013.142,2.9,2.9,0,0,0,1.369,3.551Z" transform="translate(-15.448 -57.411)" fill="#fc657e"/>
        </g>
        <g id="Grupo_1115589" data-name="Grupo 1115589" transform="translate(3.312 14.053)">
          <path id="Trazado_885748" data-name="Trazado 885748" d="M16.169,68.21a2.3,2.3,0,0,1-1.086-.277,3.476,3.476,0,0,1-1.725-4.126,3.291,3.291,0,0,1-.261-2.556A2.878,2.878,0,0,1,14.44,59.74a3.1,3.1,0,0,1,2.8-3.062,2.757,2.757,0,0,1,3.477-1.295,2.106,2.106,0,0,1,2.675.037,2.154,2.154,0,0,1,2.319.913,2.23,2.23,0,0,1,2.353,1.422,3.144,3.144,0,0,1,1.882,1.169,3,3,0,0,1,.591,2.615c-.389,1.589-1.935,2.176-3.431,2.744-1.252.475-2.547.967-3.129,2.024a3.31,3.31,0,0,1-1.988,1.736,3.117,3.117,0,0,1-2.16-.254,2.45,2.45,0,0,1-2.45-.01,1.862,1.862,0,0,1-1.211.43Zm3.417-.551h0Zm-1.918-.169h0ZM15.7,66.814a.758.758,0,0,0,.98-.138.827.827,0,0,1,1.148-.13,1.216,1.216,0,0,0,1.524.04.834.834,0,0,1,.884-.027,1.964,1.964,0,0,0,1.415.253,2.1,2.1,0,0,0,1.2-1.119c.809-1.469,2.4-2.072,3.8-2.6,1.295-.492,2.413-.916,2.642-1.852a1.728,1.728,0,0,0-.351-1.518,1.754,1.754,0,0,0-1.2-.709h-.009a.83.83,0,0,1-.8-.609,1.035,1.035,0,0,0-1.332-.767.826.826,0,0,1-.859-.432.928.928,0,0,0-1.219-.492.83.83,0,0,1-.841-.208.9.9,0,0,0-1.351.026.819.819,0,0,1-.855.133,1.541,1.541,0,0,0-2.194.789.831.831,0,0,1-.683.476A1.861,1.861,0,0,0,15.717,60a.826.826,0,0,1-.5.783,1.689,1.689,0,0,0-.92.9,2.186,2.186,0,0,0,.275,1.7.826.826,0,0,1,.054.62,2.25,2.25,0,0,0,1.053,2.8l.018.009Zm-.991-7.208h0Zm2.415-2.7v0Zm.371-.254h0Zm8.379-.044h0Z" transform="translate(-12.943 -54.922)"/>
        </g>
        <g id="Grupo_1115590" data-name="Grupo 1115590" transform="translate(6.112 25.807)">
          <path id="Trazado_885749" data-name="Trazado 885749" d="M25.614,105.918a1.731,1.731,0,0,1-.942-.284,1.7,1.7,0,0,1-.744-1.8l.015-.068a6.556,6.556,0,0,0,.2-1.385,4.32,4.32,0,0,0-.036-.5.64.64,0,1,1,1.269-.16,5.649,5.649,0,0,1,.046.649,7.548,7.548,0,0,1-.23,1.668l-.015.067a.419.419,0,0,0,.191.457.4.4,0,0,0,.463.006,6.415,6.415,0,0,0,.908-1.985c.142-.387.3-.824.491-1.313a.64.64,0,0,1,1.194.459c-.186.483-.344.913-.484,1.3-.513,1.4-.8,2.166-1.351,2.575A1.642,1.642,0,0,1,25.614,105.918Z" transform="translate(-23.888 -100.859)"/>
        </g>
        <g id="Grupo_1115591" data-name="Grupo 1115591" transform="translate(7.486 18.17)">
          <path id="Trazado_885750" data-name="Trazado 885750" d="M30.656,73.151a.64.64,0,0,1-.556-.322,2.347,2.347,0,0,0-.578-.658.64.64,0,0,1,.743-1.041,3.566,3.566,0,0,1,.946,1.064.64.64,0,0,1-.555.957Z" transform="translate(-29.257 -71.012)"/>
        </g>
        <g id="Grupo_1115592" data-name="Grupo 1115592" transform="translate(7.825 19.103)">
          <path id="Trazado_885751" data-name="Trazado 885751" d="M31.222,76.792a.629.629,0,0,1-.179-.026.64.64,0,0,1-.435-.793,1.827,1.827,0,0,1,2.263-1.243.64.64,0,0,1-.357,1.228.546.546,0,0,0-.677.372A.64.64,0,0,1,31.222,76.792Z" transform="translate(-30.582 -74.657)"/>
        </g>
        <g id="Grupo_1115593" data-name="Grupo 1115593" transform="translate(12.82 17.178)">
          <path id="Trazado_885752" data-name="Trazado 885752" d="M51.946,69.585a.64.64,0,0,1-.639-.631.541.541,0,0,0-.165-.384.551.551,0,0,0-.389-.155h-.009a.64.64,0,0,1-.008-1.279,1.837,1.837,0,0,1,1.3.517,1.812,1.812,0,0,1,.552,1.284.639.639,0,0,1-.631.648Z" transform="translate(-50.105 -67.136)"/>
        </g>
        <g id="Grupo_1115596" data-name="Grupo 1115596" transform="translate(14.7 2.303)">
          <g id="Grupo_1115595" data-name="Grupo 1115595">
            <g id="Grupo_1115594" data-name="Grupo 1115594">
              <path id="Trazado_885753" data-name="Trazado 885753" d="M62.145,11.264a2.839,2.839,0,0,1-2.277-2.226c0-.051-.1-.051-.1,0a2.839,2.839,0,0,1-2.277,2.226c-.051,0-.051.077,0,.1a2.839,2.839,0,0,1,2.277,2.226c0,.051.1.051.1,0a2.839,2.839,0,0,1,2.277-2.226C62.2,11.341,62.2,11.264,62.145,11.264Z" transform="translate(-57.45 -9)" fill="#f5c84c"/>
            </g>
          </g>
        </g>
        <g id="Grupo_1115599" data-name="Grupo 1115599" transform="translate(45.178 37.101)">
          <g id="Grupo_1115598" data-name="Grupo 1115598">
            <g id="Grupo_1115597" data-name="Grupo 1115597">
              <path id="Trazado_885754" data-name="Trazado 885754" d="M179.679,146.5a1.883,1.883,0,0,1-1.51-1.476c0-.034-.068-.034-.068,0a1.882,1.882,0,0,1-1.51,1.476c-.034,0-.034.051,0,.068a1.883,1.883,0,0,1,1.51,1.476c0,.034.068.034.068,0a1.882,1.882,0,0,1,1.51-1.476C179.713,146.552,179.713,146.5,179.679,146.5Z" transform="translate(-176.566 -144.999)" fill="#fc657e"/>
            </g>
          </g>
        </g>
        <g id="Grupo_1115602" data-name="Grupo 1115602" transform="translate(53.605 46.057)">
          <g id="Grupo_1115601" data-name="Grupo 1115601">
            <g id="Grupo_1115600" data-name="Grupo 1115600">
              <path id="Trazado_885755" data-name="Trazado 885755" d="M213.133,181.407h-.589v-.589a.824.824,0,0,0-.819-.819.808.808,0,0,0-.819.819v.589h-.589a.824.824,0,0,0-.819.819.808.808,0,0,0,.819.819h.589v.589a.824.824,0,0,0,.819.819.808.808,0,0,0,.819-.819v-.589h.589a.824.824,0,0,0,.819-.819A.808.808,0,0,0,213.133,181.407Z" transform="translate(-209.5 -180)" fill="#87d147"/>
            </g>
          </g>
        </g>
        <g id="Grupo_1115605" data-name="Grupo 1115605" transform="translate(22.363)">
          <g id="Grupo_1115604" data-name="Grupo 1115604">
            <g id="Grupo_1115603" data-name="Grupo 1115603">
              <circle id="Elipse_11698" data-name="Elipse 11698" cx="0.87" cy="0.87" r="0.87" fill="#70d6f9"/>
            </g>
          </g>
        </g>
        <g id="Grupo_1115608" data-name="Grupo 1115608" transform="translate(52.812 54.756)">
          <g id="Grupo_1115607" data-name="Grupo 1115607">
            <g id="Grupo_1115606" data-name="Grupo 1115606">
              <circle id="Elipse_11699" data-name="Elipse 11699" cx="0.87" cy="0.87" r="0.87" fill="#f5c84c"/>
            </g>
          </g>
        </g>
      </g>
    </g>
  </g>
</svg>
