<svg xmlns="http://www.w3.org/2000/svg" width="100" height="100" viewBox="0 0 100 100">
  <g id="Grupo_1100965" data-name="Grupo 1100965" transform="translate(0.242)">
    <g id="Grupo_1098742" data-name="Grupo 1098742" transform="translate(0)">
      <rect id="Rectángulo_400898" data-name="Rectángulo 400898" width="100" height="100" rx="50" transform="translate(-0.242)" fill="#fff" opacity="0.859"/>
      <g id="Rectángulo_400907" data-name="Rectángulo 400907" transform="translate(-0.242)" fill="none" stroke="#3acc97" stroke-linecap="round" stroke-width="2" stroke-dasharray="7">
        <rect width="100" height="100" rx="50" stroke="none"/>
        <rect x="1" y="1" width="98" height="98" rx="49" fill="none"/>
      </g>
    </g>
    <g id="Grupo_1107006" data-name="Grupo 1107006" transform="translate(8.156 8.156)">
      <rect id="Rectángulo_400898-2" data-name="Rectángulo 400898" width="84" height="84" rx="42" transform="translate(-0.399 -0.157)" fill="#d7f5ea" opacity="0.859"/>
      <rect id="Rectángulo_400907-2" data-name="Rectángulo 400907" width="84" height="84" rx="42" transform="translate(-0.398 -0.157)" fill="none"/>
    </g>
    <g id="Grupo_1115550" data-name="Grupo 1115550" transform="translate(18.385 19.008)">
      <g id="Grupo_1115548" data-name="Grupo 1115548" transform="translate(1.237 0.908)">
        <g id="Grupo_1115542" data-name="Grupo 1115542">
          <g id="Grupo_1115541" data-name="Grupo 1115541" transform="translate(2.903)">
            <path id="Trazado_885694" data-name="Trazado 885694" d="M88.872,55.552H41.846l0-5.712a23.513,23.513,0,0,1,47.025-.02Z" transform="translate(-40.536 -24.039)" fill="#ffb938"/>
            <path id="Trazado_885695" data-name="Trazado 885695" d="M204.637,39.007l-.013-30.286a10.824,10.824,0,0,0-10.018,0l.013,30.282h10.018Z" transform="translate(-174.805 -7.494)" fill="#ffe645"/>
            <path id="Trazado_885696" data-name="Trazado 885696" d="M223.444,8.727a10.823,10.823,0,0,0-7.426-.951,10.817,10.817,0,0,1,2.584.951l.013,30.286h4.842Z" transform="translate(-193.625 -7.501)" fill="#f5d60c"/>
            <g id="Grupo_1115540" data-name="Grupo 1115540" transform="translate(0 6.199)">
              <path id="Trazado_885697" data-name="Trazado 885697" d="M31.043,78.4l0,5.711H41.868l-.01-24.383a.916.916,0,0,0-1.485-.718A24.786,24.786,0,0,0,31.043,78.4Z" transform="translate(-31.043 -58.794)" fill="#ffe645"/>
              <path id="Trazado_885698" data-name="Trazado 885698" d="M85.229,59.725a.916.916,0,0,0-1.485-.718,25.038,25.038,0,0,0-3.356,3.248L80.4,84.108H85.24Z" transform="translate(-74.414 -58.794)" fill="#f5d60c"/>
              <path id="Trazado_885699" data-name="Trazado 885699" d="M351.632,59.622l.01,24.394h10.823l0-5.732A24.786,24.786,0,0,0,353.116,58.9.916.916,0,0,0,351.632,59.622Z" transform="translate(-312.822 -58.703)" fill="#ffe645"/>
              <path id="Trazado_885700" data-name="Trazado 885700" d="M362.462,78.285A24.785,24.785,0,0,0,353.115,58.9a.916.916,0,0,0-1.484.719v2.526a24.709,24.709,0,0,1,5.987,16.136l0,5.732h4.842Z" transform="translate(-312.821 -58.704)" fill="#f5d60c"/>
            </g>
          </g>
          <path id="Trazado_885701" data-name="Trazado 885701" d="M50.091,276.263l.852-.45a18.492,18.492,0,0,1,8.634-2.143,2.943,2.943,0,0,0,2.94-3.045A2.976,2.976,0,0,0,59.5,267.8H10.083a2.993,2.993,0,0,0-3.017,2.843,2.943,2.943,0,0,0,2.942,3.042,18.493,18.493,0,0,1,8.635,2.136l.852.449a18.5,18.5,0,0,0,8.635,2.136l13.327-.006a18.5,18.5,0,0,0,8.634-2.143Z" transform="translate(-7.064 -236.292)" fill="#ffe645"/>
          <path id="Trazado_885702" data-name="Trazado 885702" d="M214.5,270.625a2.976,2.976,0,0,0-3.019-2.82h-4.842a2.976,2.976,0,0,1,3.019,2.82,2.943,2.943,0,0,1-2.94,3.045,18.492,18.492,0,0,0-8.634,2.143l-.852.45a18.492,18.492,0,0,1-8.634,2.143l-8.618,0,.134,0,13.327-.006a18.493,18.493,0,0,0,8.634-2.143l.852-.45a18.492,18.492,0,0,1,8.634-2.143A2.943,2.943,0,0,0,214.5,270.625Z" transform="translate(-159.046 -236.292)" fill="#f5d60c"/>
        </g>
        <g id="Grupo_1115547" data-name="Grupo 1115547" transform="translate(13.102 37.02)">
          <g id="Grupo_1115546" data-name="Grupo 1115546">
            <g id="Grupo_1115543" data-name="Grupo 1115543" transform="translate(3.166)">
              <path id="Trazado_885703" data-name="Trazado 885703" d="M146,313.356a2.354,2.354,0,0,0-2.817,1.773l-1.628,7.159c-1.5,6.6,14.187,15.581,16.317,6.216l.336-1.479a2.754,2.754,0,0,1,5.37,1.221l-.336,1.479c-2.139,9.407,15.906,8.022,17.4,1.452l1.628-7.159A2.354,2.354,0,0,0,180.5,321.2Z" transform="translate(-141.451 -313.297)" fill="#9ef"/>
            </g>
            <g id="Grupo_1115544" data-name="Grupo 1115544" transform="translate(5.55 0)">
              <path id="Trazado_885704" data-name="Trazado 885704" d="M197.8,321.2l-34.5-7.845a2.35,2.35,0,0,0-2.163.609l31.818,7.236a2.354,2.354,0,0,1,1.773,2.817l-1.628,7.159c-.606,2.667-3.939,4.479-7.542,5.062,4.86.885,11.5-1.186,12.384-5.062l1.628-7.159A2.354,2.354,0,0,0,197.8,321.2Z" transform="translate(-161.141 -313.298)" fill="#82e2f5"/>
            </g>
            <g id="Grupo_1115545" data-name="Grupo 1115545" transform="translate(0 1.384)">
              <path id="Trazado_885705" data-name="Trazado 885705" d="M116.588,332.75l1.789.407,1.815-7.981-1.789-.407a1.66,1.66,0,0,0-1.986,1.25l-1.079,4.745A1.659,1.659,0,0,0,116.588,332.75Z" transform="translate(-115.297 -324.728)" fill="#365dca"/>
              <path id="Trazado_885706" data-name="Trazado 885706" d="M467.23,402.27l-1.789-.407-1.815,7.981,1.788.407A1.66,1.66,0,0,0,467.4,409l1.079-4.745A1.66,1.66,0,0,0,467.23,402.27Z" transform="translate(-421.458 -392.525)" fill="#365dca"/>
            </g>
          </g>
        </g>
      </g>
      <g id="Grupo_1115549" data-name="Grupo 1115549" transform="translate(0.434 0.001)">
        <path id="Trazado_885707" data-name="Trazado 885707" d="M61.916,49.307a2.763,2.763,0,0,0-1.6-1.136l-1.028-.234a3.325,3.325,0,0,0-2.534-2.99l-12.78-2.906c3.191-1.52,6.133-2.846,9.778-2.847,4.424,0,5.174-6.461.941-7.551l0-4.953A25.622,25.622,0,0,0,45,6.6a1.936,1.936,0,0,0-2.224-.036A24.12,24.12,0,0,0,34.867,3V2.134a.908.908,0,0,0-.488-.8,11.738,11.738,0,0,0-10.859,0,.908.908,0,0,0-.487.805V3a24.109,24.109,0,0,0-7.907,3.57,1.936,1.936,0,0,0-2.224.038,25.962,25.962,0,0,0-4.521,4.662.908.908,0,0,0,1.452,1.091,24.331,24.331,0,0,1,4.126-4.276.9.9,0,0,0,.087.234l.01,23.19H5.05l0-4.8A23.622,23.622,0,0,1,7.495,16.167a.908.908,0,0,0-1.629-.8A25.421,25.421,0,0,0,3.232,26.71l0,4.939c-4.23,1.142-3.47,7.565.955,7.565,3.731,0,6.712,1.429,9.988,2.939L13.5,45.147A2.649,2.649,0,0,0,15.43,48.22l1.206.274A9.123,9.123,0,0,0,19.5,53.661a15.809,15.809,0,0,0,7.327,4.166c4.146.943,7.13-.736,7.985-4.491l.336-1.479a1.847,1.847,0,0,1,3.6.819l-.336,1.479A5.634,5.634,0,0,0,39.7,59.614c1.473,1.528,4.048,2.368,6.98,2.368a16.5,16.5,0,0,0,3.06-.293.908.908,0,0,0-.338-1.784c-3.49.661-6.863.037-8.4-1.552a3.909,3.909,0,0,1-.824-3.8l.336-1.479c1.046-4.6-6.094-6.228-7.141-1.624l-.336,1.479c-.438,1.928-1.8,4.034-5.811,3.123-4.47-1.017-9.509-5.533-8.735-8.936l1.628-7.159h0a1.447,1.447,0,0,1,1.73-1.089l34.5,7.845a1.473,1.473,0,0,1,1.089,1.73l-1.628,7.159a4.785,4.785,0,0,1-2.248,2.746.908.908,0,0,0,.97,1.535,7.507,7.507,0,0,0,2.35-2.242l1.212.276a2.621,2.621,0,0,0,3.073-1.934l1.079-4.745a2.552,2.552,0,0,0-.331-1.937ZM43.867,8.017a23.815,23.815,0,0,1,9.006,18.672l0,4.824H43.868l-.012-23.49s.011-.008.011-.006Zm-1.825.247.01,23.249H34.879L34.868,4.874a22.337,22.337,0,0,1,7.174,3.389ZM33.051,2.7l.012,28.811h-8.2L24.849,2.705a9.922,9.922,0,0,1,8.2,0ZM15.863,8.273a22.32,22.32,0,0,1,7.171-3.394l.011,26.633H15.872Zm-.03,38.176a.752.752,0,0,1-.566-.9L16.345,40.8a.8.8,0,0,1,.9-.566l.9.205-1.412,6.211ZM18.677,38.7l-1.029-.234a2.57,2.57,0,0,0-3.057,1.872C11.234,38.7,8.009,37.4,4.188,37.4c-2.65,0-2.586-4.069.067-4.07H53.67c2.635,0,2.74,4.048.079,4.049-4.531,0-8.91,1.944-12.9,3.954l-18.6-4.23a3.267,3.267,0,0,0-3.576,1.6Zm41.8,12.139L59.4,55.586a.753.753,0,0,1-.9.566l-.9-.205,1.13-4.967.283-1.243.9.205a.751.751,0,0,1,.566.9Z" transform="translate(-0.434 -0.001)"/>
        <path id="Trazado_885708" data-name="Trazado 885708" d="M173.48,349.207l3.659-2.3a.908.908,0,0,0-.967-1.537l-3.659,2.3C171.5,348.311,172.526,349.808,173.48,349.207Z" transform="translate(-151.312 -303.429)"/>
        <path id="Trazado_885709" data-name="Trazado 885709" d="M176.313,363.053a.9.9,0,0,0,.483-.14l8.84-5.564a.908.908,0,0,0-.967-1.537l-8.84,5.564A.921.921,0,0,0,176.313,363.053Z" transform="translate(-154.248 -312.609)"/>
        <path id="Trazado_885710" data-name="Trazado 885710" d="M351.221,389.628l3.659-2.3a.908.908,0,0,0-.967-1.537l-3.659,2.3C349.236,388.732,350.267,390.23,351.221,389.628Z" transform="translate(-307.535 -338.957)"/>
        <path id="Trazado_885711" data-name="Trazado 885711" d="M354.052,403.474a.9.9,0,0,0,.483-.14l8.84-5.564a.908.908,0,0,0-.967-1.537l-8.84,5.564A.921.921,0,0,0,354.052,403.474Z" transform="translate(-310.471 -348.137)"/>
      </g>
    </g>
  </g>
</svg>
