<svg xmlns="http://www.w3.org/2000/svg" width="100" height="100" viewBox="0 0 100 100">
  <g id="Grupo_1100965" data-name="Grupo 1100965" transform="translate(0.242)">
    <g id="Grupo_1098742" data-name="Grupo 1098742" transform="translate(0)">
      <rect id="Rectángulo_400898" data-name="Rectángulo 400898" width="100" height="100" rx="50" transform="translate(-0.242)" fill="#fff" opacity="0.859"/>
      <g id="Rectángulo_400907" data-name="Rectángulo 400907" transform="translate(-0.242)" fill="none" stroke="#3acc97" stroke-linecap="round" stroke-width="2" stroke-dasharray="7">
        <rect width="100" height="100" rx="50" stroke="none"/>
        <rect x="1" y="1" width="98" height="98" rx="49" fill="none"/>
      </g>
    </g>
    <g id="Grupo_1107006" data-name="Grupo 1107006" transform="translate(8.156 8.156)">
      <rect id="Rectángulo_400898-2" data-name="Rectángulo 400898" width="84" height="84" rx="42" transform="translate(-0.399 -0.157)" fill="#d7f5ea" opacity="0.859"/>
      <rect id="Rectángulo_400907-2" data-name="Rectángulo 400907" width="84" height="84" rx="42" transform="translate(-0.398 -0.157)" fill="none"/>
    </g>
    <g id="Grupo_1115665" data-name="Grupo 1115665" transform="translate(19.749 19.99)">
      <path id="Trazado_885932" data-name="Trazado 885932" d="M39,33V17A16,16,0,0,0,7,17V33c0,4.03-2.08,6.75-4.4,7.67a.986.986,0,0,0-.22,1.69,17.96,17.96,0,0,0,3.79,2.31H39Z" fill="#806856"/>
      <path id="Trazado_885933" data-name="Trazado 885933" d="M33,43h1a10.98,10.98,0,0,1,9.11,4.83L45,51v7a1,1,0,0,1-1,1H2a1,1,0,0,1-1-1V54A11,11,0,0,1,12,43Z" fill="#5b5b5b"/>
      <path id="Trazado_885934" data-name="Trazado 885934" d="M29,36.8V41L23,59,17,41V36.8Z" fill="#e2b793"/>
      <path id="Trazado_885935" data-name="Trazado 885935" d="M35.738,25.9a1,1,0,0,0-.767.931A12.418,12.418,0,0,1,30.5,35.6l-3.94,3.15a5.694,5.694,0,0,1-7.12,0L15.5,35.6a12.418,12.418,0,0,1-4.471-8.767,1,1,0,0,0-.767-.931A3.492,3.492,0,0,1,8,24.363c-1-1.637-1-2.646-1-5.637a1.661,1.661,0,0,1,2.479-1.5,3.251,3.251,0,0,1,1.473,2.3.485.485,0,0,0,.554.4c1.887-.287,8.53-1.63,10.95-6.522a2.039,2.039,0,0,1,2.329-1.026c2.873.71,8.351,2.471,9.836,5.833a.489.489,0,0,0,.869.061,2.881,2.881,0,0,1,1.031-1.05A1.661,1.661,0,0,1,39,18.726c0,2.991,0,4-1,5.637A3.492,3.492,0,0,1,35.738,25.9Z" fill="#eec7a4"/>
      <path id="Trazado_885936" data-name="Trazado 885936" d="M23,59H19l-3.127-8.351A1,1,0,0,0,14.937,50h-3.42a1,1,0,0,1-.92-1.394L13,43l4-2Z" fill="#f1f3f5"/>
      <path id="Trazado_885937" data-name="Trazado 885937" d="M23,59h4l3.127-8.351A1,1,0,0,1,31.063,50h3.42a1,1,0,0,0,.92-1.394L33,43l-4-2Z" fill="#f1f3f5"/>
      <path id="Trazado_885938" data-name="Trazado 885938" d="M44,36h4v5.85H44Z" fill="#7d838f"/>
      <circle id="Elipse_11706" data-name="Elipse 11706" cx="13" cy="13" r="13" transform="translate(33 11)" fill="#5b5b5b"/>
      <circle id="Elipse_11707" data-name="Elipse 11707" cx="9" cy="9" r="9" transform="translate(37 15)" fill="#51c0e8"/>
      <path id="Trazado_885939" data-name="Trazado 885939" d="M44,41h4a1,1,0,0,1,1,1V56a3,3,0,1,1-6,0V42A1,1,0,0,1,44,41Z" fill="#8c634c"/>
      <g id="Grupo_1115664" data-name="Grupo 1115664">
        <path id="Trazado_885940" data-name="Trazado 885940" d="M2,60H44a1.992,1.992,0,0,0,.841-.191A3.945,3.945,0,0,0,50,56V42a1.993,1.993,0,0,0-1-1.722v-2.61a13.995,13.995,0,1,0-9.825-25.88A17,17,0,0,0,6,17V33c0,3.872-2.03,6.051-3.761,6.737a1.926,1.926,0,0,0-1.216,1.511,2.035,2.035,0,0,0,.731,1.892,19.224,19.224,0,0,0,2.52,1.692A11.973,11.973,0,0,0,0,54v4A2,2,0,0,0,2,60Zm17.693-2L16.81,50.3A2.009,2.009,0,0,0,14.937,49h-3.42l2.257-5.27,2.642-1.32L21.612,58ZM8.975,18.092a2.27,2.27,0,0,1,.993,1.626,1.5,1.5,0,0,0,1.694,1.2c2.082-.321,9.079-1.779,11.694-7.065a1.038,1.038,0,0,1,1.185-.5c2.12.522,7.062,2,8.821,4.666a13.829,13.829,0,0,0-.057,11.849,11.064,11.064,0,0,1-3.429,4.952l-3.942,3.15a4.82,4.82,0,0,1-5.87,0l-3.939-3.15a11.432,11.432,0,0,1-4.1-8.056,2,2,0,0,0-1.549-1.839A2.486,2.486,0,0,1,8.85,23.838C8,22.448,8,21.66,8,18.73a.658.658,0,0,1,.975-.638ZM36.321,48.213,34.53,44.032a10,10,0,0,1,7.47,4V56a3.959,3.959,0,0,0,.556,2H28.442l2.621-7h3.42a2,2,0,0,0,1.838-2.787ZM43,40.278A1.993,1.993,0,0,0,42,42v3.072a12.084,12.084,0,0,0-2-1.437v-7a13.86,13.86,0,0,0,3,1.038ZM38,42.7a11.954,11.954,0,0,0-4-.7h-.764L30,40.382v-3.1l1.124-.9a12.841,12.841,0,0,0,3.442-4.33A14.094,14.094,0,0,0,38,35.473ZM18.814,39.53a6.694,6.694,0,0,0,8.37,0L28,38.879v1.96l-5,15-5-15v-1.96ZM24.388,58l5.2-15.59,2.642,1.32L34.483,49h-3.42a2.008,2.008,0,0,0-1.873,1.3L26.307,58ZM48,56a2,2,0,0,1-4,0V42h4ZM47,40H45V37.949c.332.024.662.051,1,.051s.668-.027,1-.051ZM58,24A12,12,0,1,1,46,12,12,12,0,0,1,58,24ZM23,2A14.929,14.929,0,0,1,37.432,12.953a14.084,14.084,0,0,0-3,3.179c-2.332-2.634-6.747-4.067-9.415-4.725a3.021,3.021,0,0,0-3.45,1.56c-2.029,4.1-7.491,5.491-9.736,5.9A4.05,4.05,0,0,0,10,16.378a2.509,2.509,0,0,0-1.957-.3A15.006,15.006,0,0,1,23,2ZM2.968,41.6C5.289,40.68,8,37.875,8,33V25.851A4.847,4.847,0,0,0,10.032,26.9a13.473,13.473,0,0,0,4.844,9.483l1.124.9v3.1L12.764,42H12a11.909,11.909,0,0,0-5.865,1.542A19.733,19.733,0,0,1,2.968,41.6ZM2,54a10,10,0,0,1,9.472-9.973L9.679,48.212A2,2,0,0,0,11.517,51h3.42l2.621,7H2Z" fill="#373737"/>
        <path id="Trazado_885941" data-name="Trazado 885941" d="M46,34a10,10,0,0,0,0-20,1,1,0,0,0,0,2,8.008,8.008,0,1,1-4.443,1.351,1,1,0,1,0-1.114-1.662A10,10,0,0,0,46,34Z" fill="#373737"/>
        <path id="Trazado_885942" data-name="Trazado 885942" d="M43,22a1,1,0,0,0,.707-.293l1-1a1,1,0,1,0-1.414-1.414l-1,1A1,1,0,0,0,43,22Z" fill="#373737"/>
        <path id="Trazado_885943" data-name="Trazado 885943" d="M43.293,27.707a1,1,0,0,0,1.414,0l6-6a1,1,0,1,0-1.414-1.414l-6,6A1,1,0,0,0,43.293,27.707Z" fill="#373737"/>
      </g>
    </g>
  </g>
</svg>
