<svg xmlns="http://www.w3.org/2000/svg" width="85" height="85" viewBox="0 0 85 85">
  <g id="Grupo_1115736" data-name="Grupo 1115736" transform="translate(-180.14 -15425)">
    <rect id="Rectángulo_408751" data-name="Rectángulo 408751" width="85" height="85" rx="10" transform="translate(180.14 15425)" fill="#81c784"/>
    <g id="Layer_71" transform="translate(211.216 15436.64)">
      <g id="Grupo_1115735" data-name="Grupo 1115735" transform="translate(-21.595)">
        <g id="Grupo_1115667" data-name="Grupo 1115667" transform="translate(0 22.773)">
          <g id="Grupo_1115666" data-name="Grupo 1115666">
            <circle id="Elipse_11708" data-name="Elipse 11708" cx="13.772" cy="13.772" r="13.772" transform="translate(0 19.474) rotate(-45)" fill="#fcdd86"/>
          </g>
        </g>
        <g id="Grupo_1115669" data-name="Grupo 1115669" transform="translate(21.664 0.592)">
          <g id="Grupo_1115668" data-name="Grupo 1115668">
            <circle id="Elipse_11709" data-name="Elipse 11709" cx="13.772" cy="13.772" r="13.772" fill="#9be5f9"/>
          </g>
        </g>
        <g id="Grupo_1115671" data-name="Grupo 1115671" transform="translate(37.62 28.478)">
          <g id="Grupo_1115670" data-name="Grupo 1115670">
            <circle id="Elipse_11710" data-name="Elipse 11710" cx="13.772" cy="13.772" r="13.772" fill="#b598f9"/>
          </g>
        </g>
        <g id="Grupo_1115673" data-name="Grupo 1115673" transform="translate(26.877 8.445)">
          <g id="Grupo_1115672" data-name="Grupo 1115672">
            <path id="Trazado_885944" data-name="Trazado 885944" d="M107.463,36.722a4.559,4.559,0,0,0-6.2.311l-.5.5a.476.476,0,0,1-.673,0l-.5-.5a4.56,4.56,0,0,0-6.2-.311,4.459,4.459,0,0,0-.217,6.508l6.188,6.189a1.507,1.507,0,0,0,2.131,0l6.188-6.189A4.459,4.459,0,0,0,107.463,36.722Z" transform="translate(-91.867 -35.652)" fill="#fc657e"/>
          </g>
        </g>
        <g id="Grupo_1115675" data-name="Grupo 1115675" transform="translate(12.398 38.458)">
          <g id="Grupo_1115674" data-name="Grupo 1115674" transform="translate(0)">
            <path id="Trazado_885945" data-name="Trazado 885945" d="M40.253,162.351a2.832,2.832,0,0,0-1.152.243,3.564,3.564,0,0,1-2.871,0,2.831,2.831,0,0,0-1.152-.243,4.3,4.3,0,0,0-3.985,5.987l2.211,5.274a2.324,2.324,0,0,0,3.49,1.408,1.666,1.666,0,0,1,1.742,0,2.324,2.324,0,0,0,3.49-1.408l2.211-5.274A4.3,4.3,0,0,0,40.253,162.351Z" transform="translate(-30.742 -162.351)" fill="#fc657e"/>
          </g>
        </g>
        <g id="Grupo_1115677" data-name="Grupo 1115677" transform="translate(19.03 32.75)">
          <g id="Grupo_1115676" data-name="Grupo 1115676" transform="translate(0)">
            <path id="Trazado_885946" data-name="Trazado 885946" d="M62.736,138.475a2.887,2.887,0,0,0-4,2.68.611.611,0,0,0,.375.559,2.887,2.887,0,0,0,4-2.68A.612.612,0,0,0,62.736,138.475Z" transform="translate(-58.741 -138.254)" fill="#b2e26d"/>
          </g>
        </g>
        <g id="Grupo_1115679" data-name="Grupo 1115679" transform="translate(44.201 36.615)">
          <g id="Grupo_1115678" data-name="Grupo 1115678">
            <path id="Trazado_885947" data-name="Trazado 885947" d="M166.387,154.571A1.385,1.385,0,0,0,165,155.956v8.5a1.385,1.385,0,1,0,2.77,0v-8.5A1.385,1.385,0,0,0,166.387,154.571Z" transform="translate(-165.002 -154.571)" fill="#818182"/>
          </g>
        </g>
        <g id="Grupo_1115681" data-name="Grupo 1115681" transform="translate(41.431 37.734)">
          <g id="Grupo_1115680" data-name="Grupo 1115680" transform="translate(0)">
            <path id="Trazado_885948" data-name="Trazado 885948" d="M154.693,159.293a1.385,1.385,0,0,0-1.385,1.385v6.263a1.385,1.385,0,0,0,2.77,0v-6.263A1.385,1.385,0,0,0,154.693,159.293Z" transform="translate(-153.308 -159.293)" fill="#818182"/>
          </g>
        </g>
        <g id="Grupo_1115683" data-name="Grupo 1115683" transform="translate(55.814 36.615)">
          <g id="Grupo_1115682" data-name="Grupo 1115682">
            <path id="Trazado_885949" data-name="Trazado 885949" d="M215.409,154.571a1.385,1.385,0,0,0-1.385,1.385v8.5a1.385,1.385,0,1,0,2.77,0v-8.5A1.385,1.385,0,0,0,215.409,154.571Z" transform="translate(-214.024 -154.571)" fill="#818182"/>
          </g>
        </g>
        <g id="Grupo_1115685" data-name="Grupo 1115685" transform="translate(58.584 37.734)">
          <g id="Grupo_1115684" data-name="Grupo 1115684">
            <path id="Trazado_885950" data-name="Trazado 885950" d="M227.1,159.293a1.385,1.385,0,0,0-1.385,1.385v6.263a1.385,1.385,0,1,0,2.77,0v-6.263A1.385,1.385,0,0,0,227.1,159.293Z" transform="translate(-225.717 -159.293)" fill="#818182"/>
          </g>
        </g>
        <g id="Grupo_1115687" data-name="Grupo 1115687" transform="translate(46.971 40.865)">
          <g id="Grupo_1115686" data-name="Grupo 1115686">
            <path id="Trazado_885951" data-name="Trazado 885951" d="M176.7,172.513h8.842v2.77H176.7Z" transform="translate(-176.696 -172.513)" fill="#edf4fc"/>
          </g>
        </g>
        <g id="Grupo_1115689" data-name="Grupo 1115689" transform="translate(53.022 17.535)">
          <g id="Grupo_1115688" data-name="Grupo 1115688">
            <path id="Trazado_885952" data-name="Trazado 885952" d="M205.264,75.488a1.847,1.847,0,0,1-1.469-1.445c0-.024-.071-.024-.071,0a1.847,1.847,0,0,1-1.469,1.445c-.024,0-.024.047,0,.071A1.847,1.847,0,0,1,203.724,77c0,.024.071.024.071,0a1.847,1.847,0,0,1,1.469-1.445C205.288,75.535,205.288,75.488,205.264,75.488Z" transform="translate(-202.238 -74.025)" fill="#fc657e"/>
          </g>
        </g>
        <g id="Grupo_1115691" data-name="Grupo 1115691" transform="translate(15.256 2.985)">
          <g id="Grupo_1115690" data-name="Grupo 1115690">
            <path id="Trazado_885953" data-name="Trazado 885953" d="M46.2,13.9h-.569v-.545a.748.748,0,0,0-.758-.758.759.759,0,0,0-.758.734V13.9h-.545a.748.748,0,0,0-.758.758.734.734,0,0,0,.758.758h.545v.545a.748.748,0,0,0,.758.758.759.759,0,0,0,.758-.734v-.569h.545a.748.748,0,0,0,.758-.758A.759.759,0,0,0,46.2,13.9Z" transform="translate(-42.808 -12.6)" fill="#70d6f9"/>
          </g>
        </g>
        <g id="Grupo_1115693" data-name="Grupo 1115693" transform="translate(43.256 59.031)">
          <g id="Grupo_1115692" data-name="Grupo 1115692">
            <circle id="Elipse_11711" data-name="Elipse 11711" cx="0.805" cy="0.805" r="0.805" fill="#87d147"/>
          </g>
        </g>
        <g id="Grupo_1115695" data-name="Grupo 1115695" transform="translate(23.358)">
          <g id="Grupo_1115694" data-name="Grupo 1115694">
            <path id="Trazado_885954" data-name="Trazado 885954" d="M77.818,0a.805.805,0,1,0,.805.805A.805.805,0,0,0,77.818,0Z" transform="translate(-77.013 0)" fill="#f5c84c"/>
          </g>
        </g>
        <g id="Grupo_1115697" data-name="Grupo 1115697" transform="translate(35.356 53.618)">
          <g id="Grupo_1115696" data-name="Grupo 1115696">
            <path id="Trazado_885955" data-name="Trazado 885955" d="M132.01,228.446a2.629,2.629,0,0,1-2.108-2.061c0-.047-.095-.047-.095,0a2.629,2.629,0,0,1-2.108,2.061c-.047,0-.047.071,0,.095a2.629,2.629,0,0,1,2.108,2.061c0,.047.095.047.095,0a2.629,2.629,0,0,1,2.108-2.061C132.057,228.517,132.057,228.446,132.01,228.446Z" transform="translate(-127.663 -226.35)" fill="#f5c84c"/>
          </g>
        </g>
        <g id="Grupo_1115700" data-name="Grupo 1115700" transform="translate(5.115 27.886)">
          <g id="Grupo_1115699" data-name="Grupo 1115699">
            <g id="Grupo_1115698" data-name="Grupo 1115698">
              <path id="Trazado_885956" data-name="Trazado 885956" d="M14.364,117.72a14.364,14.364,0,1,0,14.365,14.364A14.381,14.381,0,0,0,14.364,117.72Zm0,27.545a13.18,13.18,0,1,1,13.18-13.18A13.2,13.2,0,0,1,14.364,145.265Z" transform="translate(0 -117.72)"/>
            </g>
          </g>
        </g>
        <g id="Grupo_1115703" data-name="Grupo 1115703" transform="translate(21.072)">
          <g id="Grupo_1115702" data-name="Grupo 1115702">
            <g id="Grupo_1115701" data-name="Grupo 1115701">
              <path id="Trazado_885957" data-name="Trazado 885957" d="M81.724,0A14.365,14.365,0,1,0,96.089,14.365,14.381,14.381,0,0,0,81.724,0Zm0,27.545A13.18,13.18,0,1,1,94.9,14.365,13.195,13.195,0,0,1,81.724,27.545Z" transform="translate(-67.36)"/>
            </g>
          </g>
        </g>
        <g id="Grupo_1115705" data-name="Grupo 1115705" transform="translate(25.487 11.961)">
          <g id="Grupo_1115704" data-name="Grupo 1115704">
            <path id="Trazado_885958" data-name="Trazado 885958" d="M105.306,53.575H97.489a.592.592,0,0,0-.508.288l-.8,1.335-1.693-4.326a.592.592,0,0,0-1.056-.095l-1.722,2.8H86.592a.592.592,0,1,0,0,1.184H92.04a.592.592,0,0,0,.5-.282l1.272-2.068,1.7,4.342a.592.592,0,0,0,.5.374l.049,0a.592.592,0,0,0,.508-.288l1.249-2.081h7.482a.592.592,0,0,0,0-1.184Z" transform="translate(-86 -50.495)"/>
          </g>
        </g>
        <g id="Grupo_1115707" data-name="Grupo 1115707" transform="translate(16.518 34.23)">
          <g id="Grupo_1115706" data-name="Grupo 1115706">
            <path id="Trazado_885959" data-name="Trazado 885959" d="M49.043,144.594a.592.592,0,0,0-.629,1,4.29,4.29,0,0,1,1.888,3.287.592.592,0,0,0,1.184,0A5.417,5.417,0,0,0,49.043,144.594Z" transform="translate(-48.138 -144.504)"/>
          </g>
        </g>
        <g id="Grupo_1115710" data-name="Grupo 1115710" transform="translate(37.028 27.886)">
          <g id="Grupo_1115709" data-name="Grupo 1115709">
            <g id="Grupo_1115708" data-name="Grupo 1115708">
              <path id="Trazado_885960" data-name="Trazado 885960" d="M149.084,117.72a14.365,14.365,0,1,0,14.364,14.364,14.381,14.381,0,0,0-14.364-14.364Zm0,27.545a13.18,13.18,0,1,1,13.18-13.18A13.2,13.2,0,0,1,149.084,145.265Z" transform="translate(-134.719 -117.72)"/>
            </g>
          </g>
        </g>
        <g id="Grupo_1115713" data-name="Grupo 1115713" transform="translate(26.285 7.85)">
          <g id="Grupo_1115712" data-name="Grupo 1115712">
            <g id="Grupo_1115711" data-name="Grupo 1115711">
              <path id="Trazado_885961" data-name="Trazado 885961" d="M107.667,37.995a5.011,5.011,0,0,0-1.721-3.636,5.141,5.141,0,0,0-7.006.337l-.422.422L98.1,34.7a5.14,5.14,0,0,0-7.006-.337,5.01,5.01,0,0,0-1.721,3.636,5.071,5.071,0,0,0,1.477,3.735l6.188,6.188a2.1,2.1,0,0,0,2.969,0l6.188-6.188A5.072,5.072,0,0,0,107.667,37.995Zm-2.314,2.9-6.188,6.188a.937.937,0,0,1-1.294,0l-6.188-6.188a3.867,3.867,0,0,1,.189-5.644,3.756,3.756,0,0,1,2.493-.926,4.1,4.1,0,0,1,2.894,1.211l.5.5a1.068,1.068,0,0,0,1.511,0l.5-.5a3.954,3.954,0,0,1,5.387-.285,3.867,3.867,0,0,1,.189,5.644Z" transform="translate(-89.366 -33.138)"/>
            </g>
          </g>
        </g>
        <g id="Grupo_1115716" data-name="Grupo 1115716" transform="translate(11.805 37.866)">
          <g id="Grupo_1115715" data-name="Grupo 1115715" transform="translate(0)">
            <g id="Grupo_1115714" data-name="Grupo 1115714">
              <path id="Trazado_885962" data-name="Trazado 885962" d="M42.461,162.062a4.936,4.936,0,0,0-4.118-2.21,3.412,3.412,0,0,0-1.392.294,2.987,2.987,0,0,1-2.39,0,3.412,3.412,0,0,0-1.392-.294,4.936,4.936,0,0,0-4.118,2.21,4.814,4.814,0,0,0-.413,4.6l2.2,5.242a2.915,2.915,0,0,0,4.361,1.715,1.071,1.071,0,0,1,1.119,0,2.967,2.967,0,0,0,1.51.443h.048a2.953,2.953,0,0,0,2.8-2.158l2.2-5.242A4.814,4.814,0,0,0,42.461,162.062Zm-.68,4.14-2.211,5.274a.6.6,0,0,0-.024.069,1.732,1.732,0,0,1-2.608,1.064,2.264,2.264,0,0,0-2.366,0,1.781,1.781,0,0,1-.907.266,1.758,1.758,0,0,1-1.7-1.33.6.6,0,0,0-.024-.069L29.73,166.2a3.648,3.648,0,0,1,.307-3.485,3.755,3.755,0,0,1,3.132-1.681,2.225,2.225,0,0,1,.912.192,4.137,4.137,0,0,0,3.351,0,2.229,2.229,0,0,1,.912-.192,3.754,3.754,0,0,1,3.132,1.681,3.647,3.647,0,0,1,.307,3.485Z" transform="translate(-28.239 -159.852)"/>
            </g>
          </g>
        </g>
        <g id="Grupo_1115719" data-name="Grupo 1115719" transform="translate(18.438 32.157)">
          <g id="Grupo_1115718" data-name="Grupo 1115718">
            <g id="Grupo_1115717" data-name="Grupo 1115717">
              <path id="Trazado_885963" data-name="Trazado 885963" d="M61.054,136.019a3.479,3.479,0,0,0-4.814,3.229,1.2,1.2,0,0,0,.741,1.1,3.479,3.479,0,0,0,4.814-3.229h0a1.2,1.2,0,0,0-.741-1.1Zm-1.459,3.026a2.27,2.27,0,0,1-2.17.2,2.3,2.3,0,0,1,3.177-2.131.021.021,0,0,1,.009.014A2.3,2.3,0,0,1,59.594,139.045Z" transform="translate(-56.24 -135.753)"/>
            </g>
          </g>
        </g>
        <g id="Grupo_1115722" data-name="Grupo 1115722" transform="translate(43.609 36.023)">
          <g id="Grupo_1115721" data-name="Grupo 1115721">
            <g id="Grupo_1115720" data-name="Grupo 1115720">
              <path id="Trazado_885964" data-name="Trazado 885964" d="M164.479,152.07a1.979,1.979,0,0,0-1.977,1.977v8.5a1.977,1.977,0,1,0,3.954,0v-8.5A1.979,1.979,0,0,0,164.479,152.07Zm.793,10.478a.793.793,0,0,1-1.586,0v-8.5a.793.793,0,1,1,1.586,0Z" transform="translate(-162.502 -152.07)"/>
            </g>
          </g>
        </g>
        <g id="Grupo_1115725" data-name="Grupo 1115725" transform="translate(40.839 37.141)">
          <g id="Grupo_1115724" data-name="Grupo 1115724" transform="translate(0)">
            <g id="Grupo_1115723" data-name="Grupo 1115723">
              <path id="Trazado_885965" data-name="Trazado 885965" d="M152.785,156.793a1.979,1.979,0,0,0-1.977,1.977v6.263a1.977,1.977,0,0,0,3.954,0V158.77A1.979,1.979,0,0,0,152.785,156.793Zm.793,8.24a.793.793,0,0,1-1.586,0V158.77a.793.793,0,0,1,1.586,0Z" transform="translate(-150.808 -156.793)"/>
            </g>
          </g>
        </g>
        <g id="Grupo_1115728" data-name="Grupo 1115728" transform="translate(55.222 36.023)">
          <g id="Grupo_1115727" data-name="Grupo 1115727">
            <g id="Grupo_1115726" data-name="Grupo 1115726">
              <path id="Trazado_885966" data-name="Trazado 885966" d="M213.5,152.07a1.979,1.979,0,0,0-1.977,1.977v8.5a1.977,1.977,0,1,0,3.954,0v-8.5A1.98,1.98,0,0,0,213.5,152.07Zm.793,10.478a.793.793,0,1,1-1.586,0v-8.5a.793.793,0,1,1,1.586,0Z" transform="translate(-211.524 -152.07)"/>
            </g>
          </g>
        </g>
        <g id="Grupo_1115731" data-name="Grupo 1115731" transform="translate(57.991 37.141)">
          <g id="Grupo_1115730" data-name="Grupo 1115730">
            <g id="Grupo_1115729" data-name="Grupo 1115729">
              <path id="Trazado_885967" data-name="Trazado 885967" d="M225.194,156.793a1.979,1.979,0,0,0-1.977,1.977v6.263a1.977,1.977,0,0,0,3.954,0V158.77A1.979,1.979,0,0,0,225.194,156.793Zm.793,8.24a.793.793,0,0,1-1.586,0V158.77a.793.793,0,0,1,1.586,0Z" transform="translate(-223.217 -156.793)"/>
            </g>
          </g>
        </g>
        <g id="Grupo_1115734" data-name="Grupo 1115734" transform="translate(46.379 40.273)">
          <g id="Grupo_1115733" data-name="Grupo 1115733">
            <g id="Grupo_1115732" data-name="Grupo 1115732">
              <path id="Trazado_885968" data-name="Trazado 885968" d="M183.63,170.013h-8.842a.592.592,0,0,0-.592.592v2.77a.592.592,0,0,0,.592.592h8.842a.592.592,0,0,0,.592-.592v-2.77A.592.592,0,0,0,183.63,170.013Zm-.592,2.77H175.38V171.2h7.658Z" transform="translate(-174.196 -170.013)"/>
            </g>
          </g>
        </g>
      </g>
    </g>
  </g>
</svg>
