<svg xmlns="http://www.w3.org/2000/svg" width="38.856" height="45.895" viewBox="0 0 38.856 45.895">
  <g id="Layer_x0020_1" transform="translate(-131)">
    <g id="_488288328" transform="translate(131)">
      <g id="Grupo_1115746" data-name="Grupo 1115746">
        <g id="Grupo_1115738" data-name="Grupo 1115738" transform="translate(0 12.51)">
          <path id="Trazado_885976" data-name="Trazado 885976" d="M147.76,495.75h-3.336a.7.7,0,0,1-.619-.484l-1.022-4.2a9.174,9.174,0,0,1-2.045-.915l-3.417,2.152a.728.728,0,0,1-.834-.081l-2.341-2.341a.591.591,0,0,1-.108-.78l2.233-3.686a8.882,8.882,0,0,1-.78-2.1l-3.955-.942a.658.658,0,0,1-.538-.619v-3.336a.668.668,0,0,1,.484-.619l4.224-1.022a8.779,8.779,0,0,1,.942-2.018l-2.179-3.47a.7.7,0,0,1,.108-.807l2.367-2.341a.631.631,0,0,1,.78-.135l3.686,2.26a10.537,10.537,0,0,1,2.1-.807l.888-3.955a.687.687,0,0,1,.646-.511h3.336a.669.669,0,0,1,.646.484l1,4.224a11.334,11.334,0,0,1,2.018.915l3.444-2.152a.687.687,0,0,1,.807.081l2.367,2.341a.691.691,0,0,1,.108.834l-2.233,3.659a13.35,13.35,0,0,1,.807,2.125l4.789,1.076a.671.671,0,0,1,.484.78.685.685,0,0,1-.78.484l-5.192-1.184a.6.6,0,0,1-.484-.484,8.069,8.069,0,0,0-.969-2.5.74.74,0,0,1,0-.673l2.152-3.551-1.641-1.641-3.363,2.125a.566.566,0,0,1-.7,0,11.565,11.565,0,0,0-2.421-1.13.645.645,0,0,1-.457-.484l-.888-3.982h-2.314l-.888,3.847a.678.678,0,0,1-.484.484,10.038,10.038,0,0,0-2.5.915.526.526,0,0,1-.646-.027l-3.578-2.152L135.842,471l2.1,3.363a.657.657,0,0,1,0,.7,10.939,10.939,0,0,0-1.1,2.448.772.772,0,0,1-.484.43l-4.035.969v2.314l3.874.915a.544.544,0,0,1,.484.484,8.94,8.94,0,0,0,.942,2.5.686.686,0,0,1,0,.646l-2.179,3.551,1.641,1.641,3.363-2.125a.657.657,0,0,1,.7,0,11.763,11.763,0,0,0,2.448,1.13.651.651,0,0,1,.43.484l.968,4.035h2.287l.888-3.847a.6.6,0,0,1,.484-.484,10.3,10.3,0,0,0,2.475-.942.656.656,0,0,1,.619,1.157,9.3,9.3,0,0,1-2.421.968l-.888,3.955A.681.681,0,0,1,147.76,495.75Z" transform="translate(-131 -465)" fill="#144735" fill-rule="evenodd"/>
        </g>
        <g id="Grupo_1115739" data-name="Grupo 1115739" transform="translate(7.156 19.908)">
          <path id="Trazado_885977" data-name="Trazado 885977" d="M405.259,756.438a8.219,8.219,0,1,1,8.205-8.205A8.25,8.25,0,0,1,405.259,756.438Zm0-15.146a6.927,6.927,0,1,0,6.914,6.941A6.923,6.923,0,0,0,405.259,741.291Z" transform="translate(-397 -740)" fill="#144735" fill-rule="evenodd"/>
        </g>
        <g id="Grupo_1115740" data-name="Grupo 1115740" transform="translate(10.384 23.109)">
          <path id="Trazado_885978" data-name="Trazado 885978" d="M522.031,869.062a5.031,5.031,0,1,1,5.031-5.031A5.023,5.023,0,0,1,522.031,869.062Zm0-8.77a3.739,3.739,0,1,0,3.739,3.739A3.766,3.766,0,0,0,522.031,860.291Z" transform="translate(-517 -859)" fill="#144735" fill-rule="evenodd"/>
        </g>
        <g id="Grupo_1115741" data-name="Grupo 1115741" transform="translate(22.249 30.319)">
          <path id="Trazado_885979" data-name="Trazado 885979" d="M964.564,1140.075a6.537,6.537,0,1,1,6.537-6.51A6.545,6.545,0,0,1,964.564,1140.075Zm0-11.783a5.246,5.246,0,1,0,5.219,5.273A5.264,5.264,0,0,0,964.564,1128.291Z" transform="translate(-958 -1127)" fill="#144735" fill-rule="evenodd"/>
        </g>
        <g id="Grupo_1115742" data-name="Grupo 1115742" transform="translate(28.329 32.956)">
          <path id="Trazado_885980" data-name="Trazado 885980" d="M1186.314,1231.107a.68.68,0,0,1-.458-.161l-1.668-1.695a.7.7,0,0,1-.188-.457v-3.121a.673.673,0,0,1,1.345,0v2.825l1.48,1.507a.65.65,0,0,1,0,.942A1.11,1.11,0,0,1,1186.314,1231.107Z" transform="translate(-1184 -1225)" fill="#144735" fill-rule="evenodd"/>
        </g>
        <g id="Grupo_1115743" data-name="Grupo 1115743" transform="translate(19.747 27.817)">
          <path id="Trazado_885981" data-name="Trazado 885981" d="M874.066,1052.079a9.039,9.039,0,1,1,9.012-9.012A9.059,9.059,0,0,1,874.066,1052.079Zm0-16.787a7.748,7.748,0,1,0,7.721,7.775A7.762,7.762,0,0,0,874.066,1035.291Z" transform="translate(-865 -1034)" fill="#144735" fill-rule="evenodd"/>
        </g>
        <g id="Grupo_1115744" data-name="Grupo 1115744" transform="translate(17.117)">
          <path id="Trazado_885982" data-name="Trazado 885982" d="M769.987,18.939a.683.683,0,0,1-.673-.673V9.335h-1.426a.592.592,0,0,1-.538-.323.61.61,0,0,1,0-.673L772.005.35A.68.68,0,0,1,772.57,0a.694.694,0,0,1,.565.35l4.654,8.017a.741.741,0,0,1,0,.673.659.659,0,0,1-.565.35H775.8V16.76a.666.666,0,0,1-.673.673.683.683,0,0,1-.672-.673v-8.1a.683.683,0,0,1,.672-.673h.969L772.57,1.964,769.046,7.99h.942a.666.666,0,0,1,.672.673v9.6A.683.683,0,0,1,769.987,18.939Z" transform="translate(-767.25)" fill="#144735" fill-rule="evenodd"/>
        </g>
        <g id="Grupo_1115745" data-name="Grupo 1115745" transform="translate(28.216 3.713)">
          <path id="Trazado_885983" data-name="Trazado 885983" d="M1187.734,167.7a.666.666,0,0,1-.673-.673V148.734a.666.666,0,0,1,.673-.673h1.049l-3.632-7.909-3.632,7.909h1.049a.666.666,0,0,1,.672.673v14.258a.673.673,0,1,1-1.345,0V149.407h-1.4a.634.634,0,0,1-.565-.3.679.679,0,0,1-.054-.646l4.681-10.089a.653.653,0,0,1,1.184,0l4.681,10.089a.9.9,0,0,1-.054.646.634.634,0,0,1-.565.3h-1.4v17.621A.745.745,0,0,1,1187.734,167.7Z" transform="translate(-1179.82 -138)" fill="#144735" fill-rule="evenodd"/>
        </g>
      </g>
    </g>
  </g>
</svg>
