<svg id="_011---Completed-Task-List" data-name="011---Completed-Task-List" xmlns="http://www.w3.org/2000/svg" width="42.632" height="42.621" viewBox="0 0 42.632 42.621">
  <path id="Shape" d="M31.263,19.895a11.3,11.3,0,0,0-1.421.1V6.274a2.132,2.132,0,0,0-.18-.853c-.007-.017-.018-.031-.026-.047a2.139,2.139,0,0,0-.421-.612L25.082.627a2.139,2.139,0,0,0-.614-.421C24.452.2,24.438.188,24.421.18A2.132,2.132,0,0,0,23.568,0H2.842A2.842,2.842,0,0,0,0,2.842V33.4a2.842,2.842,0,0,0,2.842,2.842H21.057A11.362,11.362,0,1,0,31.263,19.895ZM27.417,4.974H26.29a1.421,1.421,0,0,1-1.421-1.421V2.426ZM2.842,34.816A1.421,1.421,0,0,1,1.421,33.4V2.842A1.421,1.421,0,0,1,2.842,1.421H23.448V3.553A2.842,2.842,0,0,0,26.29,6.395h2.132V20.269a11.332,11.332,0,0,0-7.95,14.547Zm28.421,6.395a9.947,9.947,0,1,1,9.947-9.947,9.947,9.947,0,0,1-9.947,9.947Z" fill="#144735"/>
  <path id="Shape-2" data-name="Shape" d="M14.445,5.2,13.089,6.56a2.121,2.121,0,0,0-1.695-.853H7.132A2.132,2.132,0,0,0,5,7.839V12.1a2.132,2.132,0,0,0,2.132,2.132h4.263A2.132,2.132,0,0,0,13.526,12.1V8.133L15.45,6.209a.711.711,0,1,0-1-1Zm-2.34,6.9a.711.711,0,0,1-.711.711H7.132a.711.711,0,0,1-.711-.711V7.839a.711.711,0,0,1,.711-.711h4.263a.706.706,0,0,1,.661.466L9.974,9.676l-.919-.919a.711.711,0,0,0-1,1l1.421,1.421a.711.711,0,0,0,1,0l1.629-1.629Z" transform="translate(-1.447 -1.444)" fill="#144735"/>
  <path id="Shape-3" data-name="Shape" d="M14.445,19.212l-1.356,1.355a2.121,2.121,0,0,0-1.695-.853H7.132A2.132,2.132,0,0,0,5,21.846v4.263A2.132,2.132,0,0,0,7.132,28.24h4.263a2.132,2.132,0,0,0,2.132-2.132V22.14l1.923-1.923a.711.711,0,0,0-1-1Zm-2.34,6.9a.711.711,0,0,1-.711.711H7.132a.711.711,0,0,1-.711-.711V21.846a.711.711,0,0,1,.711-.711h4.263a.706.706,0,0,1,.661.466L9.974,23.683l-.919-.919a.711.711,0,0,0-1,1L9.471,25.19a.711.711,0,0,0,1,0l1.629-1.629Z" transform="translate(-1.447 -5.503)" fill="#144735"/>
  <path id="Shape-4" data-name="Shape" d="M14.445,33.212l-1.356,1.355a2.121,2.121,0,0,0-1.695-.853H7.132A2.132,2.132,0,0,0,5,35.846v4.263A2.132,2.132,0,0,0,7.132,42.24h4.263a2.132,2.132,0,0,0,2.132-2.132V36.14l1.923-1.923a.711.711,0,0,0-1-1Zm-2.34,6.9a.711.711,0,0,1-.711.711H7.132a.711.711,0,0,1-.711-.711V35.846a.711.711,0,0,1,.711-.711h4.263a.706.706,0,0,1,.661.466L9.974,37.683l-.919-.919a.711.711,0,0,0-1,1L9.471,39.19a.711.711,0,0,0,1,0l1.629-1.629Z" transform="translate(-1.447 -9.556)" fill="#144735"/>
  <path id="Path" d="M46.625,36.113a.711.711,0,0,0-.982.213l-5.918,9.206-1.508-1.508a.711.711,0,0,0-1,1l2.132,2.132a.711.711,0,0,0,.5.208.669.669,0,0,0,.075,0,.711.711,0,0,0,.522-.322l6.395-9.947A.711.711,0,0,0,46.625,36.113Z" transform="translate(-10.714 -10.421)" fill="#144735"/>
  <path id="Path-2" data-name="Path" d="M22.711,9.421h4.974a.711.711,0,0,0,0-1.421H22.711a.711.711,0,1,0,0,1.421Z" transform="translate(-6.368 -2.316)" fill="#144735"/>
  <path id="Path-3" data-name="Path" d="M22.711,14.421h4.263a.711.711,0,1,0,0-1.421H22.711a.711.711,0,1,0,0,1.421Z" transform="translate(-6.368 -3.763)" fill="#144735"/>
  <path id="Path-4" data-name="Path" d="M22.711,23.421h9.237a.711.711,0,1,0,0-1.421H22.711a.711.711,0,1,0,0,1.421Z" transform="translate(-6.368 -6.368)" fill="#144735"/>
  <path id="Path-5" data-name="Path" d="M22.711,28.421h4.263a.711.711,0,1,0,0-1.421H22.711a.711.711,0,1,0,0,1.421Z" transform="translate(-6.368 -7.816)" fill="#144735"/>
  <path id="Path-6" data-name="Path" d="M24.842,36H22.711a.711.711,0,1,0,0,1.421h2.132a.711.711,0,0,0,0-1.421Z" transform="translate(-6.368 -10.421)" fill="#144735"/>
  <path id="Path-7" data-name="Path" d="M24.132,41H22.711a.711.711,0,0,0,0,1.421h1.421a.711.711,0,0,0,0-1.421Z" transform="translate(-6.368 -11.868)" fill="#144735"/>
</svg>
