<svg id="Grupo_1107363" data-name="Grupo 1107363" xmlns="http://www.w3.org/2000/svg" width="122.487" height="122.487" viewBox="0 0 122.487 122.487">
  <rect id="Rectángulo_402033" data-name="Rectángulo 402033" width="122.486" height="122.486" rx="5" transform="translate(0)" fill="#d7f5ea"/>
  <g id="Grupo_1115235" data-name="Grupo 1115235" transform="translate(17.818 17.707)">
    <path id="Trazado_885095" data-name="Trazado 885095" d="M63.375,45.143V43.107A8.253,8.253,0,0,0,57.855,41H55.093s-1.381,8.285-4.143,12.428L42.665,47.9l-8.285,5.524C31.618,49.285,30.237,41,30.237,41H26.094a6.905,6.905,0,0,0-6.9,6.9V58.952L16.428,41H4L8.143,68.618H57.852A2.762,2.762,0,0,1,55.3,64.794Z" transform="translate(0.762 14.72)" fill="#fff"/>
    <path id="Trazado_885096" data-name="Trazado 885096" d="M9,26h8.285V43.952H9Z" transform="translate(2.666 9.007)" fill="#71caf0"/>
    <g id="Grupo_1115234" data-name="Grupo 1115234" transform="translate(22.713 12.912)">
      <path id="Trazado_885097" data-name="Trazado 885097" d="M45.071,26.9a3.452,3.452,0,1,0,0-6.9H43v6.9Z" transform="translate(-7.097 -6.191)" fill="#fce0b9"/>
      <path id="Trazado_885098" data-name="Trazado 885098" d="M20.452,20a3.452,3.452,0,1,0,0,6.9h2.071V20Z" transform="translate(-17 -6.191)" fill="#fce0b9"/>
      <path id="Trazado_885099" data-name="Trazado 885099" d="M48.749,13.846a6.114,6.114,0,0,0-9.231-2.705,6.114,6.114,0,0,1-6.8.21l-.6-.377a6.115,6.115,0,0,0-9.14,3.576L21,23.809v9.666h.069a15.183,15.183,0,0,0,30.241,0h.069V23.809Z" transform="translate(-15.476 -10)" fill="#fce0b9"/>
    </g>
    <path id="Trazado_885100" data-name="Trazado 885100" d="M9,39v5.524a4.143,4.143,0,1,0,8.285,0V39Z" transform="translate(2.666 13.958)" fill="#78af4f"/>
    <path id="Trazado_885101" data-name="Trazado 885101" d="M68.4,69.365l-3.173-7.729L60.337,49.713V33.143h.69a2.071,2.071,0,0,0,0-4.143H48.594a2.071,2.071,0,0,0,0,4.143h.69V49.713L41.211,69.365a2.762,2.762,0,0,0,2.549,3.824H65.855A2.762,2.762,0,0,0,68.4,69.365Z" transform="translate(14.853 10.149)" fill="#71caf0"/>
    <path id="Trazado_885102" data-name="Trazado 885102" d="M11.285,45.481V36.524h1.381a2.762,2.762,0,0,0,0-5.524H4.381A1.381,1.381,0,0,0,3,32.381l1.808,13.1Z" transform="translate(0.381 10.911)" fill="#fce0b9"/>
    <path id="Trazado_885103" data-name="Trazado 885103" d="M32.5,13.5l.6.377a6.114,6.114,0,0,0,6.8-.21,6.114,6.114,0,0,1,9.231,2.705L51.76,26.34l-.576-13.776A10.9,10.9,0,0,0,36.119,4.243L29.666,7.008A9.666,9.666,0,0,0,20,16.674l1.381,9.666,1.979-9.259A6.115,6.115,0,0,1,32.5,13.5Z" transform="translate(6.856 0.381)" fill="#665642"/>
    <path id="Trazado_885104" data-name="Trazado 885104" d="M32,24.143a5.524,5.524,0,0,0,5.524,5.524h6.9A2.761,2.761,0,0,0,47.19,26.9V20H32Zm6.9-1.381a1.381,1.381,0,1,1-1.381,1.381A1.381,1.381,0,0,1,38.9,22.762Z" transform="translate(11.427 6.721)" fill="#71caf0"/>
    <circle id="Elipse_11662" data-name="Elipse 11662" cx="1.381" cy="1.381" r="1.381" transform="translate(48.95 29.483)" fill="#fff"/>
    <path id="Trazado_885105" data-name="Trazado 885105" d="M23.762,29.666h6.9a5.524,5.524,0,0,0,5.524-5.524V20H21v6.9A2.761,2.761,0,0,0,23.762,29.666Zm5.524-6.9A1.381,1.381,0,1,1,27.9,24.143,1.381,1.381,0,0,1,29.285,22.762Z" transform="translate(7.237 6.721)" fill="#71caf0"/>
    <circle id="Elipse_11663" data-name="Elipse 11663" cx="1.381" cy="1.381" r="1.381" transform="translate(35.141 29.483)" fill="#fff"/>
    <path id="Trazado_885106" data-name="Trazado 885106" d="M51,38.762v5.524a2.761,2.761,0,0,0,2.762,2.762h5.526a1.381,1.381,0,0,0,1.381-1.381V37.381A1.381,1.381,0,0,0,59.286,36H53.76A2.761,2.761,0,0,0,51,38.762Z" transform="translate(18.663 12.816)" fill="#fce0b9"/>
    <path id="Trazado_885107" data-name="Trazado 885107" d="M12,33.762a2.761,2.761,0,0,0,2.762,2.762H18.9a1.381,1.381,0,0,0,1.381-1.381V32.381A1.381,1.381,0,0,0,18.9,31H14.762A2.761,2.761,0,0,0,12,33.762Z" transform="translate(3.809 10.911)" fill="#fce0b9"/>
    <path id="Trazado_885108" data-name="Trazado 885108" d="M52.285,37.762A2.761,2.761,0,0,0,49.524,35H45.381A1.381,1.381,0,0,0,44,36.381v2.762a1.381,1.381,0,0,0,1.381,1.381h4.143A2.761,2.761,0,0,0,52.285,37.762Z" transform="translate(15.997 12.435)" fill="#fce0b9"/>
    <circle id="Elipse_11664" data-name="Elipse 11664" cx="2.762" cy="2.762" r="2.762" transform="translate(72.425 23.96)" fill="#fca947"/>
    <circle id="Elipse_11665" data-name="Elipse 11665" cx="2.762" cy="2.762" r="2.762" transform="translate(68.283 8.77)" fill="#fca947"/>
    <path id="Trazado_885109" data-name="Trazado 885109" d="M55.41,53.034a8.878,8.878,0,0,0-7.259-1.178l-3.688,1.005L41.21,60.778a2.763,2.763,0,0,0,2.55,3.824H65.855A2.762,2.762,0,0,0,68.4,60.778l-3.173-7.729A8.876,8.876,0,0,1,55.41,53.034Z" transform="translate(14.853 18.736)" fill="#fca947"/>
    <path id="Trazado_885110" data-name="Trazado 885110" d="M43.761,64.262H60.28l-.768-.3A32.917,32.917,0,0,1,44.774,52.436l-.311.084-3.252,7.917a2.762,2.762,0,0,0,2.549,3.825Z" transform="translate(14.853 19.076)" fill="#e68f29"/>
    <path id="Trazado_885111" data-name="Trazado 885111" d="M33.9,37.458A15.105,15.105,0,0,1,27,35.8v5.8l6.9,8.285,6.9-8.285V35.8A15.105,15.105,0,0,1,33.9,37.458Z" transform="translate(9.522 12.739)" fill="#fce0b9"/>
    <path id="Trazado_885112" data-name="Trazado 885112" d="M29.666,9.281l6.453-2.766a10.9,10.9,0,0,1,15.065,8.321l.464,11.075.112.429-.576-13.776A10.9,10.9,0,0,0,36.119,4.243L29.666,7.008A9.666,9.666,0,0,0,20,16.674l.119.833A9.661,9.661,0,0,1,29.666,9.281Z" transform="translate(6.856 0.381)" fill="#735f47"/>
    <path id="Trazado_885113" data-name="Trazado 885113" d="M28.842,36.795l8.589,8.016L40.107,41.6V35.8a14.991,14.991,0,0,1-11.265,1Z" transform="translate(10.224 12.739)" fill="#f5cba1"/>
    <path id="Trazado_885114" data-name="Trazado 885114" d="M48.463,41s-1.381,8.285-4.143,12.428l-.1-.068c-.014.021-.026.047-.04.068l-8.215-5.477,0,0s-8.238,5.428-8.252,5.408l-.1.066-.159-.49c-2.428-4.05-3.706-11.144-3.831-11.863-.007-.046-.012-.075-.012-.075H21.4c.8,4.069,2.127,11.235,4.387,15.285a1.387,1.387,0,0,0,1.983.483l8.12-5.413,8.12,5.413A1.387,1.387,0,0,0,46,56.284c2.261-4.05,4.032-11.216,4.93-15.285H48.463Z" transform="translate(7.391 14.72)" fill="#ccc"/>
    <path id="Trazado_885115" data-name="Trazado 885115" d="M44.428,42.143,38.9,38v2.762L32,49.047l8.285,5.524C43.047,50.428,44.428,42.143,44.428,42.143Z" transform="translate(11.427 13.577)" fill="#fff"/>
    <path id="Trazado_885116" data-name="Trazado 885116" d="M28.524,38,23,42.143s1.381,8.285,4.143,12.428l8.285-5.524-6.9-8.285Z" transform="translate(7.999 13.577)" fill="#fff"/>
    <path id="Trazado_885117" data-name="Trazado 885117" d="M13.143,45.143A4.142,4.142,0,0,1,9,41v2.762a4.143,4.143,0,1,0,8.285,0V41A4.142,4.142,0,0,1,13.143,45.143Z" transform="translate(2.666 14.72)" fill="#619c35"/>
    <path id="Trazado_885118" data-name="Trazado 885118" d="M27.667,26.083a2.417,2.417,0,1,1,2.417-2.417A2.419,2.419,0,0,1,27.667,26.083Zm0-2.762a.345.345,0,0,0-.345.345c0,.38.69.38.69,0A.345.345,0,0,0,27.667,23.321Z" transform="translate(8.856 7.198)"/>
    <path id="Trazado_885119" data-name="Trazado 885119" d="M37.667,26.083a2.417,2.417,0,1,1,2.417-2.417A2.419,2.419,0,0,1,37.667,26.083Zm0-2.762a.345.345,0,0,0-.345.345c0,.38.69.38.69,0A.345.345,0,0,0,37.667,23.321Z" transform="translate(12.664 7.198)"/>
    <path id="Trazado_885120" data-name="Trazado 885120" d="M33.428,35.178A5.186,5.186,0,0,1,28.25,30h2.071a3.107,3.107,0,1,0,6.214,0h2.071A5.186,5.186,0,0,1,33.428,35.178Z" transform="translate(9.998 10.53)"/>
    <path id="Trazado_885121" data-name="Trazado 885121" d="M7.537,83.527A1.379,1.379,0,0,0,8.9,84.719h71.8a4.143,4.143,0,0,0,3.825-5.729L77.249,61.244h.7a2.765,2.765,0,0,0,2.762-2.762V50.2a2.765,2.765,0,0,0-2.762-2.762H76.571V44.6a3.453,3.453,0,0,0-.69-6.835H63.447a3.453,3.453,0,0,0-.69,6.835v1.45H61.378a2.765,2.765,0,0,0-2.762,2.762v2.762a2.765,2.765,0,0,0,2.762,2.762h1.378v.936a9.651,9.651,0,0,0-4.14-.936h-2.3l-4.6-3.452V49.335A16.566,16.566,0,0,0,60,35.005h.69a4.832,4.832,0,1,0,0-9.665h-.747L59.42,12.886a1.218,1.218,0,0,0-.017-.157A12.285,12.285,0,0,0,42.431,3.354l-6.2,2.658A11.059,11.059,0,0,0,25.475,17.055a1.338,1.338,0,0,0,.014.2l1.156,8.089h-.479a4.833,4.833,0,0,0,0,9.666h.69a16.568,16.568,0,0,0,8.285,14.329v1.551l-4.6,3.452h-2.3a9.629,9.629,0,0,0-6.9,2.915V48.816h1.381a2.765,2.765,0,0,0,2.762-2.762V43.292a2.765,2.765,0,0,0-2.762-2.762H21.332V35.007a1.38,1.38,0,0,0-1.381-1.381H11.666a1.38,1.38,0,0,0-1.381,1.381V40.53H4.762A2.765,2.765,0,0,0,2,43.292a1.233,1.233,0,0,0,.014.189Zm74.318-2.185a1.356,1.356,0,0,1-1.148.614H58.614a1.382,1.382,0,0,1-1.273-1.918l2.994-7.287,3.034-.827a7.5,7.5,0,0,1,6.128,1,10.19,10.19,0,0,0,9.893.812l2.592,6.313A1.351,1.351,0,0,1,81.855,81.342Zm-3.9-22.861H72.422A1.381,1.381,0,0,1,71.042,57.1V51.577A1.381,1.381,0,0,1,72.422,50.2h5.526ZM64.137,41.911h-.69a.69.69,0,0,1,0-1.381H75.88a.69.69,0,1,1,0,1.381H69.663v2.762h4.145v2.762H72.422a4.122,4.122,0,0,0-3.028,1.335,4.134,4.134,0,0,0-3.873-2.716h0V43.292a1.38,1.38,0,0,0-1.381-1.381Zm-2.759,6.9h4.143a1.381,1.381,0,1,1,0,2.762H61.378Zm4.143,5.524a4.11,4.11,0,0,0,2.759-1.076V57.1a4.148,4.148,0,0,0,4.143,4.143h1.842l4.079,9.937a7.483,7.483,0,0,1-7.315-.559,10.274,10.274,0,0,0-8.387-1.362l-.983.268,3.755-9.14a1.368,1.368,0,0,0,.1-.525V54.339Zm-2.765,4.177v1.074L54.789,78.982a4.136,4.136,0,0,0-.083,2.974h-9.9V65.2L50.946,69.3a1.383,1.383,0,0,0,1.915-.383C55.152,65.477,56.506,59.584,57,57.1h1.616A6.869,6.869,0,0,1,62.756,58.516ZM54.34,56.311a42.054,42.054,0,0,1-3.079,9.876l-5.789-3.858,5.92-7.1a1.383,1.383,0,0,0,.32-.885ZM29.618,28.1H42.046v2.762A4.148,4.148,0,0,1,37.9,35.007H31a1.381,1.381,0,0,1-1.381-1.381Zm.326-2.762,1.6-7.513a4.735,4.735,0,0,1,7.076-2.77l.6.377a7.474,7.474,0,0,0,8.33-.258A4.733,4.733,0,0,1,54.674,17.2l2.15,8.143H29.944ZM44.807,28.1H57.235v5.524a1.381,1.381,0,0,1-1.381,1.381h-6.9a4.148,4.148,0,0,1-4.143-4.143Zm17.952,2.071a2.074,2.074,0,0,1-2.071,2.071H60V28.1h.69A2.074,2.074,0,0,1,62.759,30.174ZM36.522,8.77a1.361,1.361,0,0,0,.544-.112l6.453-2.766a9.525,9.525,0,0,1,13.146,7.193l.088,2.113a7.5,7.5,0,0,0-10.8-2.269,4.722,4.722,0,0,1-5.261.163l-.6-.377a7.492,7.492,0,0,0-11.221,4.459l-.359,1.675-.269-1.888A8.3,8.3,0,0,1,36.522,8.77ZM26.166,32.245a2.071,2.071,0,0,1,0-4.143h.69v4.143Zm3.7,5.347a4.083,4.083,0,0,0,1.13.177h6.9a6.88,6.88,0,0,0,5.524-2.8,6.88,6.88,0,0,0,5.524,2.8h6.9a4.083,4.083,0,0,0,1.13-.177,13.8,13.8,0,0,1-27.115,0ZM43.427,51.577a16.463,16.463,0,0,0,5.524-.967v3.229l-5.524,6.628L37.9,53.839V50.611A16.463,16.463,0,0,0,43.427,51.577Zm-8.285,2.762a1.387,1.387,0,0,0,.319.885l5.92,7.1-5.789,3.858a42.007,42.007,0,0,1-3.079-9.876ZM19.952,75.052a1.38,1.38,0,0,0,1.381-1.381V64.005a6.912,6.912,0,0,1,6.9-6.9h1.616c.494,2.483,1.849,8.376,4.14,11.813a1.382,1.382,0,0,0,1.915.383L42.046,65.2V81.957H31V76.433H28.237v5.524H10.107L6.772,57.773h3.513v.708a5.529,5.529,0,0,0,5.524,5.524,5.458,5.458,0,0,0,2.8-.79c-.021.261-.04.523-.04.79v8.285H15.809v2.762Zm-6.9-20.713h5.524v4.143a2.762,2.762,0,1,1-5.524,0Zm5.524-2.762H13.047V48.816a4.116,4.116,0,0,0,2.762-1.077,4.109,4.109,0,0,0,2.762,1.077Zm4.145-5.524H18.571a1.381,1.381,0,1,1,0-2.762h4.143Zm-9.669-9.666h5.524V40.53a4.116,4.116,0,0,0-2.762,1.077,4.109,4.109,0,0,0-2.762-1.077Zm0,6.9a1.381,1.381,0,0,1,0,2.762H8.9v2.762h1.381v6.2H6.391L4.776,43.292Z" transform="translate(0 0)"/>
    <path id="Trazado_885122" data-name="Trazado 885122" d="M56.143,25.285A4.143,4.143,0,1,0,52,21.143,4.148,4.148,0,0,0,56.143,25.285Zm0-5.524a1.381,1.381,0,1,1-1.381,1.381A1.381,1.381,0,0,1,56.143,19.762Z" transform="translate(19.044 5.579)"/>
    <path id="Trazado_885123" data-name="Trazado 885123" d="M57.285,10.143a4.143,4.143,0,1,0-4.143,4.143A4.148,4.148,0,0,0,57.285,10.143Zm-4.143,1.381a1.381,1.381,0,1,1,1.381-1.381A1.381,1.381,0,0,1,53.143,11.524Z" transform="translate(17.902 1.389)"/>
  </g>
</svg>
