<svg id="Grupo_1112538" data-name="Grupo 1112538" xmlns="http://www.w3.org/2000/svg" width="122.486" height="122.486" viewBox="0 0 122.486 122.486">
  <rect id="Rectángulo_402033" data-name="Rectángulo 402033" width="122.486" height="122.486" rx="5" transform="translate(0)" fill="#d7f5ea"/>
  <g id="Grupo_1115256" data-name="Grupo 1115256" transform="translate(25.01 25.004)">
    <path id="Trazado_885171" data-name="Trazado 885171" d="M117.835,362.141l-1.964-8.292a12.01,12.01,0,0,0-9.835-9.1l-5.05-.788a4.939,4.939,0,0,1-4.177-4.88h-12.5a4.939,4.939,0,0,1-4.177,4.88l-5.05.788a12.01,12.01,0,0,0-9.835,9.1l-1.964,8.292Z" transform="translate(-54.325 -291.085)" fill="#6d92ac"/>
    <path id="Trazado_885172" data-name="Trazado 885172" d="M195.532,343.262a11.492,11.492,0,0,0,17.11,0l0,0a4.935,4.935,0,0,1-2.308-4.175h-12.5a4.934,4.934,0,0,1-2.309,4.175Z" transform="translate(-167.854 -291.086)" fill="#ffd0c7"/>
    <path id="Trazado_885173" data-name="Trazado 885173" d="M174.255,86.6a15.655,15.655,0,1,0-26.417,0Z" transform="translate(-124.813 -53.681)" fill="#c68a65"/>
    <path id="Trazado_885174" data-name="Trazado 885174" d="M189.1,154.244c-.038-.059-.075-.118-.115-.177a25.363,25.363,0,0,1-16.882-6.5,15.809,15.809,0,0,0-9.419,6.683v7.833a13.208,13.208,0,1,0,26.416,0Z" transform="translate(-139.659 -126.672)" fill="#ffd0c7"/>
    <path id="Trazado_885175" data-name="Trazado 885175" d="M348.25,283.059a7.679,7.679,0,0,1-10.454-4.312l-9.729-26.486,9.562-4.459,14.036,24.477A7.679,7.679,0,0,1,348.25,283.059Z" transform="translate(-281.635 -212.723)" fill="#6d92ac"/>
    <path id="Trazado_885176" data-name="Trazado 885176" d="M328.946,157.405l.681-7.788a6.858,6.858,0,0,0-2.081-5.543l-1.672-1.606a3.427,3.427,0,0,0-5.581,3.679l1.8,4.768L321.8,154.2a12.413,12.413,0,0,0,1,6.072Z" transform="translate(-274.772 -121.477)" fill="#ffd0c7"/>
    <path id="Trazado_885177" data-name="Trazado 885177" d="M14.438,283.059a7.679,7.679,0,0,0,10.454-4.312l9.729-26.486L25.058,247.8,11.022,272.279a7.679,7.679,0,0,0,3.416,10.779Z" transform="translate(-8.587 -212.723)" fill="#6d92ac"/>
    <path id="Trazado_885178" data-name="Trazado 885178" d="M124.953,157.405l-.681-7.788a6.857,6.857,0,0,1,2.081-5.543l1.672-1.606a3.427,3.427,0,0,1,5.581,3.679l-1.8,4.768.287,3.283a12.413,12.413,0,0,1-1,6.072Z" transform="translate(-106.66 -121.477)" fill="#ffd0c7"/>
    <g id="Grupo_1115255" data-name="Grupo 1115255" transform="translate(0 0.007)">
      <path id="Trazado_885179" data-name="Trazado 885179" d="M275.138,229.948l1.341.6a1.415,1.415,0,0,0,1.157-2.583l-1.341-.6a1.415,1.415,0,0,0-1.157,2.583Z" transform="translate(-235.477 -195.078)"/>
      <path id="Trazado_885180" data-name="Trazado 885180" d="M209.64,230.674a1.412,1.412,0,0,0,.578-.124l1.341-.6a1.415,1.415,0,0,0-1.157-2.583l-1.341.6a1.416,1.416,0,0,0,.579,2.707Z" transform="translate(-178.753 -195.08)"/>
      <path id="Trazado_885181" data-name="Trazado 885181" d="M68.983,99.932a1.415,1.415,0,1,0-2.455,1.408l2.3,4.015a6.264,6.264,0,1,1-11.313,5.275l-9.28-25.265,7.2-3.359,4.75,8.284a1.415,1.415,0,0,0,2.456-1.408l-5.4-9.412a1.415,1.415,0,0,0-1.431-.7l.474-5.415a8.236,8.236,0,0,0-2.51-6.687l-.87-.836a17.075,17.075,0,0,0-33.3,0l-.87.835a8.236,8.236,0,0,0-2.51,6.687l.474,5.415a1.416,1.416,0,0,0-1.431.7L1.233,103.947a9.09,9.09,0,0,0,7.891,13.616h0l0,0H63.394l0,0h0a9.092,9.092,0,0,0,7.891-13.616Zm-12.175,14.8H15.71a9.094,9.094,0,0,0,1.949-3.129l4.257-11.59,4.134-.645A6.463,6.463,0,0,0,27.418,99,12.9,12.9,0,0,0,45.1,99a6.444,6.444,0,0,0,1.368.37l4.134.645,4.257,11.59A9.1,9.1,0,0,0,56.808,114.736ZM26.873,77.693l-.259-2.962L28.3,70.264a4.816,4.816,0,0,0,.268-1.085,14.219,14.219,0,0,1,3.548-1.627,26.65,26.65,0,0,0,13.372,6.061l.421,1.118-.259,2.962a13.871,13.871,0,0,0,.622,5.468l-.407.19a1.415,1.415,0,0,0-.73,1.771l.788,2.146a11.793,11.793,0,0,1-19.319,0l.788-2.146a1.415,1.415,0,0,0-.73-1.771l-.407-.19A13.877,13.877,0,0,0,26.873,77.693ZM43.918,92.97a14.55,14.55,0,0,0,3.139-2.6l2.428,6.61-2.581-.4a3.538,3.538,0,0,1-1.372-.522l-.006,0A3.731,3.731,0,0,1,43.918,92.97Zm-12.6,1.3a14.761,14.761,0,0,0,9.886,0,6.31,6.31,0,0,0,1.505,3.064,10.062,10.062,0,0,1-12.9,0A6.31,6.31,0,0,0,31.316,94.273ZM28.6,92.97a3.64,3.64,0,0,1-2.986,3.6l-2.581.4,2.428-6.61A14.551,14.551,0,0,0,28.6,92.97ZM53.471,73.112l-.61,6.974-4,1.867a11.03,11.03,0,0,1-.392-4.014l.287-3.282a1.412,1.412,0,0,0-.085-.622l-1.8-4.768a2.021,2.021,0,0,1,.072-1.586,1.991,1.991,0,0,1,1.456-1.1,2.063,2.063,0,0,1,.363-.032,1.988,1.988,0,0,1,1.385.562l1.672,1.606a5.417,5.417,0,0,1,1.652,4.4ZM36.259,55.368a14.287,14.287,0,0,1,12.976,8.369,4.9,4.9,0,0,0-1.334.054,4.793,4.793,0,0,0-3.5,2.655,4.863,4.863,0,0,0-.174,3.818l.1.261a23.865,23.865,0,0,1-10.906-5.592,1.415,1.415,0,0,0-1.284-.321A17.034,17.034,0,0,0,28,66.221a4.788,4.788,0,0,0-3.387-2.43,4.906,4.906,0,0,0-1.334-.054,14.3,14.3,0,0,1,12.976-8.369ZM20.7,68.713l1.672-1.606a2.012,2.012,0,0,1,3.2.573,2.021,2.021,0,0,1,.072,1.586l-1.8,4.768a1.416,1.416,0,0,0-.085.622l.287,3.282a11.027,11.027,0,0,1-.392,4.014l-4-1.867-.61-6.974a5.419,5.419,0,0,1,1.652-4.4ZM6.475,114.148a6.264,6.264,0,0,1-2.787-8.793L17.078,82.006l7.2,3.359L15,110.631a6.264,6.264,0,0,1-8.527,3.517Z" transform="translate(-0.026 -45.102)"/>
      <path id="Trazado_885182" data-name="Trazado 885182" d="M230.491,273.991a1.416,1.416,0,0,0,2,0,1.771,1.771,0,0,1,2.505,0,1.415,1.415,0,1,0,2-2,4.6,4.6,0,0,0-6.509,0,1.415,1.415,0,0,0,0,2Z" transform="translate(-197.512 -232.337)"/>
      <path id="Trazado_885183" data-name="Trazado 885183" d="M425.787,102l2.292,1.323-5.137,2.925a1.415,1.415,0,1,0,1.4,2.46l7.282-4.146a1.415,1.415,0,0,0,.007-2.456l-2.1-1.212,4.593-2.188a1.415,1.415,0,1,0-1.217-2.556l-7.023,3.345a1.415,1.415,0,0,0-.1,2.5Z" transform="translate(-362.467 -82.423)"/>
      <path id="Trazado_885184" data-name="Trazado 885184" d="M384.426,15.533a1.415,1.415,0,0,0,1.989-.227l5.216-6.558a1.415,1.415,0,0,0-.907-2.282l-2.4-.344,3.449-3.74A1.415,1.415,0,1,0,389.693.464l-5.274,5.719a1.415,1.415,0,0,0,.84,2.361l2.62.375L384.2,13.545a1.415,1.415,0,0,0,.226,1.989Z" transform="translate(-329.557 -0.008)"/>
      <path id="Trazado_885185" data-name="Trazado 885185" d="M.807,98.7,5.4,100.891,3.3,102.1a1.415,1.415,0,0,0,.007,2.456l7.282,4.146a1.415,1.415,0,0,0,1.4-2.46L6.854,103.32,9.146,102a1.415,1.415,0,0,0-.1-2.5L2.024,96.148A1.415,1.415,0,1,0,.807,98.7Z" transform="translate(0 -82.422)"/>
      <path id="Trazado_885186" data-name="Trazado 885186" d="M73.6,6.121l-2.4.344a1.415,1.415,0,0,0-.907,2.282l5.216,6.558a1.415,1.415,0,1,0,2.215-1.762l-3.68-4.626,2.62-.375a1.415,1.415,0,0,0,.84-2.361L72.23.463a1.415,1.415,0,0,0-2.081,1.919Z" transform="translate(-59.899 -0.007)"/>
      <circle id="Elipse_11668" data-name="Elipse 11668" cx="1.415" cy="1.415" r="1.415" transform="translate(63.161 48.585)"/>
    </g>
  </g>
</svg>
