<svg id="Grupo_1107313" data-name="Grupo 1107313" xmlns="http://www.w3.org/2000/svg" width="122.486" height="122.487" viewBox="0 0 122.486 122.487">
  <rect id="Rectángulo_402033" data-name="Rectángulo 402033" width="122.486" height="122.486" rx="5" transform="translate(0)" fill="#d7f5ea"/>
  <g id="Grupo_1115253" data-name="Grupo 1115253" transform="translate(4.301 18.199)">
    <g id="Grupo_1115251" data-name="Grupo 1115251" transform="translate(17.969 1.261)">
      <g id="Grupo_1115236" data-name="Grupo 1115236" transform="translate(19.37 0)">
        <path id="Trazado_885124" data-name="Trazado 885124" d="M190.419,57.519H184.88v-30.5A19.522,19.522,0,0,0,165.359,7.5h-2.741A19.521,19.521,0,0,0,143.1,27.021v30.5h-3.625V68.106l2.265-2.314a2.592,2.592,0,0,1,1.844-.764,2.565,2.565,0,0,1,1.826.755,2.6,2.6,0,0,1-.011,3.671l-5.987,5.987V91.064h56.9a1.681,1.681,0,0,0,1.681-1.681v-24.3a7.566,7.566,0,0,0-7.566-7.566Z" transform="translate(-139.409 -7.5)" fill="#f3f0f3"/>
      </g>
      <g id="Grupo_1115237" data-name="Grupo 1115237" transform="translate(19.6)">
        <path id="Trazado_885125" data-name="Trazado 885125" d="M161.34,32.333a15.5,15.5,0,0,1,7.47-13.252A19.532,19.532,0,0,1,185.125,7.559Q184.371,7.5,183.6,7.5h-2.741A19.521,19.521,0,0,0,161.34,27.021Z" transform="translate(-157.883 -7.5)" fill="#e2dee2"/>
        <path id="Trazado_885126" data-name="Trazado 885126" d="M144.237,209.075V225.2H140.78v6.015a7.529,7.529,0,0,1,3.7-.969H147.5a2.522,2.522,0,0,0,2.522-2.522v-5.784a17.188,17.188,0,0,1-5.786-12.867Z" transform="translate(-140.78 -175.183)" fill="#e2dee2"/>
      </g>
      <path id="Trazado_885127" data-name="Trazado 885127" d="M268.373,311.533h5.791v32.445h-5.791Z" transform="translate(-227.32 -260.414)" fill="#e2dee2"/>
      <g id="Grupo_1115238" data-name="Grupo 1115238" transform="translate(23.057 9.335)">
        <path id="Trazado_885128" data-name="Trazado 885128" d="M178.567,104.806A17.247,17.247,0,0,1,161.34,87.579V78.52a15.515,15.515,0,0,1,15.5-15.5h10.789a15.515,15.515,0,0,1,15.5,15.5v9.059A17.247,17.247,0,0,1,185.9,104.806Z" transform="translate(-161.34 -63.022)" fill="#b5adb6"/>
      </g>
      <path id="Trazado_885129" data-name="Trazado 885129" d="M171.694,97.706a12.4,12.4,0,0,1-5.417-10.256V78.709a10.737,10.737,0,0,1,4.87-9,15.491,15.491,0,0,1,12.744-6.69h-7.055a15.515,15.515,0,0,0-15.5,15.5v9.059a17.247,17.247,0,0,0,17.227,17.227h7.055a17.214,17.214,0,0,1-13.927-7.1Z" transform="translate(-138.282 -53.687)" fill="#a79ba7"/>
      <g id="Grupo_1115245" data-name="Grupo 1115245" transform="translate(27.995 14.273)">
        <g id="Grupo_1115239" data-name="Grupo 1115239">
          <path id="Trazado_885130" data-name="Trazado 885130" d="M210.2,124.3h-7.072a12.418,12.418,0,0,1-12.418-12.418V103.14a10.749,10.749,0,0,1,10.749-10.749h10.41a10.749,10.749,0,0,1,10.749,10.749v8.741A12.418,12.418,0,0,1,210.2,124.3Z" transform="translate(-190.708 -92.391)" fill="#fed2a4"/>
        </g>
        <path id="Trazado_885131" data-name="Trazado 885131" d="M208.681,179h-4.035l-2.522,3.195H190.709v1.733a12.418,12.418,0,0,0,12.418,12.418H210.2a12.418,12.418,0,0,0,12.418-12.418v-1.733H211.2Z" transform="translate(-190.709 -164.438)" fill="#fff"/>
        <g id="Grupo_1115241" data-name="Grupo 1115241" transform="translate(2.025 0)">
          <g id="Grupo_1115240" data-name="Grupo 1115240">
            <path id="Trazado_885132" data-name="Trazado 885132" d="M207.979,96.866a10.732,10.732,0,0,1,8.725-4.474h-5.229a10.732,10.732,0,0,0-8.725,4.474Z" transform="translate(-202.75 -92.392)" fill="#ffbd86"/>
          </g>
        </g>
        <g id="Grupo_1115242" data-name="Grupo 1115242" transform="translate(0 17.757)">
          <path id="Trazado_885133" data-name="Trazado 885133" d="M195.939,199.733V198H190.71v1.733a12.418,12.418,0,0,0,12.418,12.418h5.229a12.418,12.418,0,0,1-12.418-12.418Z" transform="translate(-190.71 -198)" fill="#f3f0f3"/>
        </g>
        <g id="Grupo_1115243" data-name="Grupo 1115243" transform="translate(0 4.474)">
          <path id="Trazado_885134" data-name="Trazado 885134" d="M220.592,119H192.734a10.7,10.7,0,0,0-2.025,6.275v7.007h11.414l2.522-3.195h4.035l2.522,3.195h11.414v-7.007A10.7,10.7,0,0,0,220.592,119Z" transform="translate(-190.709 -119)" fill="#8ac9fe"/>
        </g>
        <g id="Grupo_1115244" data-name="Grupo 1115244" transform="translate(0 4.474)">
          <path id="Trazado_885135" data-name="Trazado 885135" d="M190.709,125.275v7.007h5.229v-7.007A10.7,10.7,0,0,1,197.963,119h-5.229A10.7,10.7,0,0,0,190.709,125.275Z" transform="translate(-190.709 -119)" fill="#60b7ff"/>
        </g>
      </g>
      <g id="Grupo_1115247" data-name="Grupo 1115247" transform="translate(57.232 62.127)">
        <g id="Grupo_1115246" data-name="Grupo 1115246">
          <path id="Trazado_885136" data-name="Trazado 885136" d="M375.86,380.783h-2.774a.5.5,0,0,1-.5-.5V377.5a.5.5,0,0,0-.5-.5h-3.195a.5.5,0,0,0-.5.5v2.774a.5.5,0,0,1-.5.5H365.1a.5.5,0,0,0-.5.5v3.195a.5.5,0,0,0,.5.5h2.774a.5.5,0,0,1,.5.5v2.774a.5.5,0,0,0,.5.5h3.195a.5.5,0,0,0,.5-.5v-2.774a.5.5,0,0,1,.5-.5h2.774a.5.5,0,0,0,.5-.5v-3.195A.5.5,0,0,0,375.86,380.783Z" transform="translate(-364.595 -377)" fill="#05e39c"/>
        </g>
      </g>
      <g id="Grupo_1115248" data-name="Grupo 1115248" transform="translate(0 41.236)">
        <path id="Trazado_885137" data-name="Trazado 885137" d="M49.694,269.679a2.765,2.765,0,0,0-3.909.01l-1.977,2.019V256.061a1.721,1.721,0,0,0-1.723-1.723l-.759,0a1.744,1.744,0,0,0-1.732,1.732v12l-.91,0v-13.6a1.721,1.721,0,0,0-1.723-1.723l-.759,0a1.744,1.744,0,0,0-1.732,1.732v13.6l-.914,0V254.486a1.722,1.722,0,0,0-1.723-1.723l-.759,0a1.743,1.743,0,0,0-1.732,1.732V268.1l-.921,0v-11.27a1.721,1.721,0,0,0-1.723-1.723l-.758,0a1.744,1.744,0,0,0-1.732,1.732v36.548a1.628,1.628,0,0,0,1.617,1.684h17.92V279.526l5.938-5.938A2.765,2.765,0,0,0,49.694,269.679Z" transform="translate(-24.208 -252.75)" fill="#05e39c"/>
      </g>
      <g id="Grupo_1115250" data-name="Grupo 1115250" transform="translate(0 43.598)">
        <g id="Grupo_1115249" data-name="Grupo 1115249">
          <path id="Trazado_885138" data-name="Trazado 885138" d="M28.849,305.081v-25.29h-.427v-11.27A1.721,1.721,0,0,0,26.7,266.8l-.758,0a1.744,1.744,0,0,0-1.732,1.732v36.548a1.628,1.628,0,0,0,1.617,1.684h4.641A1.628,1.628,0,0,1,28.849,305.081Z" transform="translate(-24.208 -266.799)" fill="#0ed290"/>
        </g>
      </g>
    </g>
    <g id="Grupo_1115252" data-name="Grupo 1115252" transform="translate(16.708 0)">
      <path id="Trazado_885139" data-name="Trazado 885139" d="M237.561,137.038A1.261,1.261,0,0,0,236.3,138.3v3.609a1.261,1.261,0,1,0,2.522,0V138.3A1.261,1.261,0,0,0,237.561,137.038Z" transform="translate(-199.378 -113.997)"/>
      <path id="Trazado_885140" data-name="Trazado 885140" d="M321.151,137.038a1.261,1.261,0,0,0-1.261,1.261v3.609a1.261,1.261,0,1,0,2.522,0V138.3A1.261,1.261,0,0,0,321.151,137.038Z" transform="translate(-268.914 -113.997)"/>
      <path id="Trazado_885141" data-name="Trazado 885141" d="M205.629,84.892H195.219a12.024,12.024,0,0,0-12.01,12.01v8.741a13.694,13.694,0,0,0,13.679,13.679h4.581a1.261,1.261,0,1,0,0-2.522h-4.581a11.17,11.17,0,0,1-11.157-11.157v-.472h9.338a2.926,2.926,0,0,0,2.31-1.119l1.512-1.916a.418.418,0,0,1,.33-.16h2.406a.418.418,0,0,1,.33.16l1.512,1.915a2.926,2.926,0,0,0,2.31,1.119h9.338v.472a11.2,11.2,0,0,1-8.107,10.731,1.261,1.261,0,0,0,.688,2.426,13.728,13.728,0,0,0,9.941-13.158V96.9a12.024,12.024,0,0,0-12.01-12.01Zm-10.409,2.522h10.41a9.438,9.438,0,0,1,5.755,1.952h-21.92a9.438,9.438,0,0,1,5.755-1.952Zm19.9,15.235h-9.338a.418.418,0,0,1-.33-.16l-1.512-1.915a2.926,2.926,0,0,0-2.31-1.119h-2.406a2.926,2.926,0,0,0-2.31,1.119l-1.512,1.916a.418.418,0,0,1-.33.16h-9.338V96.9a9.43,9.43,0,0,1,1.438-5.014h26.509a9.429,9.429,0,0,1,1.438,5.014Z" transform="translate(-155.214 -70.618)"/>
      <path id="Trazado_885142" data-name="Trazado 885142" d="M248.825,213.9a1.261,1.261,0,1,0,0-2.522H233.356a1.261,1.261,0,0,0,0,2.522Z" transform="translate(-195.88 -175.835)"/>
      <path id="Trazado_885143" data-name="Trazado 885143" d="M237.737,240.022h14a1.261,1.261,0,1,0,0-2.522h-14a1.261,1.261,0,1,0,0,2.522Z" transform="translate(-199.525 -197.567)"/>
      <path id="Trazado_885144" data-name="Trazado 885144" d="M362.644,383.792h3.195a1.767,1.767,0,0,0,1.765-1.765v-2.018h2.018a1.767,1.767,0,0,0,1.765-1.765v-3.195a1.767,1.767,0,0,0-1.765-1.765H367.6v-2.018a1.767,1.767,0,0,0-1.765-1.765h-3.195a1.767,1.767,0,0,0-1.765,1.765v2.018H358.86a1.767,1.767,0,0,0-1.765,1.765v3.195a1.767,1.767,0,0,0,1.765,1.765h2.018v2.018A1.767,1.767,0,0,0,362.644,383.792Zm-3.026-6.305v-1.681h2.018a1.767,1.767,0,0,0,1.765-1.765v-2.018h1.681v2.018a1.767,1.767,0,0,0,1.765,1.765h2.018v1.681h-2.018a1.767,1.767,0,0,0-1.765,1.765v2.018H363.4v-2.018a1.767,1.767,0,0,0-1.765-1.765Z" transform="translate(-299.863 -307.373)"/>
      <path id="Trazado_885145" data-name="Trazado 885145" d="M95.915,64.313a1.261,1.261,0,0,0,1.261-1.261v-4.2a8.837,8.837,0,0,0-8.827-8.827H84.071V20.782A20.806,20.806,0,0,0,63.288,0H60.547A20.806,20.806,0,0,0,39.765,20.782V50.019H38.83V45.811a2.982,2.982,0,0,0-2.979-2.987h-.009l-.759,0a2.973,2.973,0,0,0-1.535.43,2.989,2.989,0,0,0-2.821-2.02h-.009l-.759,0a2.989,2.989,0,0,0-2.185.958l-.07-.073a2.987,2.987,0,0,0-2.114-.874l-.758,0a3,3,0,0,0-2.974,2.692,3,3,0,0,0-1.4-.345l-.758,0a3.006,3.006,0,0,0-2.99,2.993V83.139a2.96,2.96,0,0,0,.858,2.115,2.834,2.834,0,0,0,2.02.833H94.234a2.946,2.946,0,0,0,2.942-2.942V68.936a1.261,1.261,0,1,0-2.522,0V83.144a.421.421,0,0,1-.42.42H66.075V53.633a18.5,18.5,0,0,0,15.474-9.171V51.28a1.261,1.261,0,0,0,1.261,1.261h5.539a6.312,6.312,0,0,1,6.305,6.305v4.2a1.261,1.261,0,0,0,1.261,1.261ZM60.547,2.522h2.741a18.292,18.292,0,0,1,17.75,13.97A16.75,16.75,0,0,0,67.312,9.335H56.523A16.749,16.749,0,0,0,42.8,16.492a18.292,18.292,0,0,1,17.75-13.97ZM57.761,83.564H38.768V79.7a1.261,1.261,0,1,0-2.522,0v3.867H19.586a.315.315,0,0,1-.235-.092.459.459,0,0,1-.121-.331V46.6a.483.483,0,0,1,.475-.475l.759,0h0a.46.46,0,0,1,.457.462v11.27a1.261,1.261,0,0,0,1.261,1.261h0l.921,0a1.261,1.261,0,0,0,1.258-1.261v-13.6a.482.482,0,0,1,.475-.475l.758,0h0a.461.461,0,0,1,.458.462v13.6A1.261,1.261,0,0,0,27.317,59.1h0l.914,0a1.261,1.261,0,0,0,1.258-1.261v-13.6a.483.483,0,0,1,.475-.474l.759,0h0a.46.46,0,0,1,.457.462v13.6a1.261,1.261,0,0,0,1.265,1.261l.91,0a1.261,1.261,0,0,0,1.257-1.261v-12a.483.483,0,0,1,.474-.475l.759,0h0a.46.46,0,0,1,.457.462V61.455a1.261,1.261,0,0,0,2.162.882l1.968-2.01a1.507,1.507,0,0,1,1.068-.445h0a1.479,1.479,0,0,1,1.054.435,1.5,1.5,0,0,1-.011,2.126l-5.938,5.938a1.261,1.261,0,0,0-.369.892v4.54a1.261,1.261,0,1,0,2.522,0V69.795l5.569-5.569a4.017,4.017,0,0,0-5.506-5.847V52.541h2.2a1.261,1.261,0,0,0,1.261-1.261V44.462a18.5,18.5,0,0,0,15.474,9.171V83.564Zm5.791,0H60.283V53.641h3.269Zm18-48.411A15.984,15.984,0,0,1,65.583,51.119h-7.33A15.984,15.984,0,0,1,42.287,35.153V26.094A14.252,14.252,0,0,1,56.523,11.858H67.312A14.253,14.253,0,0,1,81.549,26.094v9.059Z" transform="translate(-16.708 0)"/>
    </g>
  </g>
</svg>
