<svg id="Grupo_1112688" data-name="Grupo 1112688" xmlns="http://www.w3.org/2000/svg" width="122.486" height="122.486" viewBox="0 0 122.486 122.486">
  <rect id="Rectángulo_402033" data-name="Rectángulo 402033" width="122.486" height="122.486" rx="5" transform="translate(0)" fill="#d7f5ea"/>
  <g id="Grupo_1115363" data-name="Grupo 1115363" transform="translate(-53.211 18.204)">
    <path id="Trazado_885316" data-name="Trazado 885316" d="M343.652,429.5l5.044,12.609h5.044V429.5Z" transform="translate(-214.461 -357.291)" fill="#f9bb69"/>
    <path id="Trazado_885317" data-name="Trazado 885317" d="M313.652,429.5l5.044,12.609h5.044V429.5Z" transform="translate(-189.505 -357.291)" fill="#f6d76f"/>
    <path id="Trazado_885318" data-name="Trazado 885318" d="M283.652,429.5l5.044,12.609h5.044V429.5Z" transform="translate(-164.548 -357.291)" fill="#fae7a7"/>
    <path id="Trazado_885319" data-name="Trazado 885319" d="M268.652,434.544a2.522,2.522,0,0,1,2.522,2.522v5.044h5.044V429.5Z" transform="translate(-152.07 -357.291)" fill="#f6d76f"/>
    <path id="Trazado_885320" data-name="Trazado 885320" d="M223.652,442.109H228.7v-5.044a2.522,2.522,0,0,1,2.522-2.522l-7.566-5.044Z" transform="translate(-114.636 -357.291)" fill="#fae7a7"/>
    <path id="Trazado_885321" data-name="Trazado 885321" d="M313.783,7.5l-15.131,38,15.131,38h5.044V7.5Z" transform="translate(-177.026 -6.239)" fill="#666362"/>
    <path id="Trazado_885322" data-name="Trazado 885322" d="M230.088,7.5a3.783,3.783,0,1,1-7.566,0h-13.87V83.492h30.262V73.4L228.827,51.8l10.087-21.6V7.5Z" transform="translate(-102.158 -6.239)" fill="#7f7c7b"/>
    <path id="Trazado_885323" data-name="Trazado 885323" d="M333.7,112.5h-5.044v53.3H333.7a5.044,5.044,0,0,0,5.044-5.044V117.544A5.044,5.044,0,0,0,333.7,112.5Z" transform="translate(-201.983 -93.586)" fill="#4c4948"/>
    <path id="Trazado_885324" data-name="Trazado 885324" d="M258.827,160.752V117.544a5.044,5.044,0,0,0-5.044-5.044H243.7a5.044,5.044,0,0,0-5.044,5.044v43.208A5.044,5.044,0,0,0,243.7,165.8h10.087A5.044,5.044,0,0,0,258.827,160.752Z" transform="translate(-127.114 -93.586)" fill="#666362"/>
    <path id="Trazado_885325" data-name="Trazado 885325" d="M191.342,194.491,177,169.651a5.042,5.042,0,0,0-8.739,0l-2.911,5.041,15.8,27.361h5.824a5.043,5.043,0,0,0,4.369-7.562Z" transform="translate(-66.137 -139.027)" fill="#f9bb69"/>
    <path id="Trazado_885326" data-name="Trazado 885326" d="M94.023,219.453a5.02,5.02,0,0,0-.673,2.617,5.115,5.115,0,0,0,5.153,4.945h22.749a5.044,5.044,0,0,0,4.368-7.566l-11.429-19.8a5.044,5.044,0,0,0-8.736,0Z" transform="translate(-6.239 -163.989)" fill="#f6d76f"/>
    <path id="Trazado_885327" data-name="Trazado 885327" d="M196.174,212.14a2.522,2.522,0,0,0-2.522,2.522v7.183a2.522,2.522,0,1,0,5.044,0v-7.183A2.522,2.522,0,0,0,196.174,212.14Z" transform="translate(-89.68 -176.474)" fill="#666362"/>
    <circle id="Elipse_11677" data-name="Elipse 11677" cx="2.522" cy="2.522" r="2.522" transform="translate(103.972 52.938)" fill="#666362"/>
    <circle id="Elipse_11678" data-name="Elipse 11678" cx="2.522" cy="2.522" r="2.522" transform="translate(131.713 8.827)" fill="#d0cdcd"/>
    <circle id="Elipse_11679" data-name="Elipse 11679" cx="1.261" cy="1.261" r="1.261" transform="translate(110.277 10.087)"/>
    <circle id="Elipse_11680" data-name="Elipse 11680" cx="1.261" cy="1.261" r="1.261" transform="translate(115.321 10.087)"/>
    <path id="Trazado_885328" data-name="Trazado 885328" d="M141.8,0H127.93a1.261,1.261,0,0,0-1.261,1.261,2.522,2.522,0,1,1-5.044,0A1.261,1.261,0,0,0,120.364,0h-13.87a1.261,1.261,0,0,0-1.261,1.261V23.054a1.261,1.261,0,1,0,2.522,0V2.522h11.508a5.045,5.045,0,0,0,9.768,0h11.508v73.47H107.755V64.286h2.522v2.879a6.312,6.312,0,0,0,6.3,6.3h15.131a6.312,6.312,0,0,0,6.3-6.3V23.958a6.312,6.312,0,0,0-6.3-6.3H116.582a6.312,6.312,0,0,0-6.3,6.3V28.1a6.294,6.294,0,0,0-9.244,1.888L86.691,54.833a6.3,6.3,0,0,0,5.461,9.453h13.081V77.253a1.261,1.261,0,0,0,1.261,1.261h1.261v6.3a1.261,1.261,0,0,0,1.261,1.261h5.044a1.261,1.261,0,0,0,1.261-1.261V79.775a1.261,1.261,0,0,1,2.522,0v5.044A1.261,1.261,0,0,0,119.1,86.08h20.175a1.261,1.261,0,0,0,1.261-1.261v-6.3H141.8a1.261,1.261,0,0,0,1.261-1.261V1.261A1.261,1.261,0,0,0,141.8,0Zm-29,23.958a3.787,3.787,0,0,1,3.783-3.783h15.131a3.787,3.787,0,0,1,3.783,3.783V67.166a3.787,3.787,0,0,1-3.783,3.783H116.582a3.787,3.787,0,0,1-3.783-3.783V64.286h8.037a6.3,6.3,0,0,0,5.461-9.453L112.8,31.454ZM92.153,61.765a3.782,3.782,0,0,1-3.277-5.671l14.341-24.84a3.782,3.782,0,0,1,6.555,0l14.342,24.84a3.782,3.782,0,0,1-3.277,5.671ZM112.8,79.775v3.783h-2.522V78.514h2.739a3.767,3.767,0,0,0-.217,1.261Zm10.087,3.783h-2.522V79.775a3.767,3.767,0,0,0-.217-1.261h2.739Zm5.044,0h-2.522V78.514h2.522Zm5.044,0h-2.522V78.514h2.522Zm5.044,0H135.5V78.514h2.522Z"/>
    <path id="Trazado_885329" data-name="Trazado 885329" d="M189.934,204.64a3.787,3.787,0,0,0-3.783,3.783v7.183a3.783,3.783,0,1,0,7.566,0v-7.183A3.787,3.787,0,0,0,189.934,204.64Zm1.261,10.966a1.261,1.261,0,0,1-2.522,0v-7.183a1.261,1.261,0,1,1,2.522,0Z" transform="translate(-83.44 -170.235)"/>
    <path id="Trazado_885330" data-name="Trazado 885330" d="M189.934,307.375a3.783,3.783,0,1,0,3.783,3.783A3.787,3.787,0,0,0,189.934,307.375Zm0,5.044a1.261,1.261,0,1,1,1.261-1.261A1.262,1.262,0,0,1,189.934,312.419Z" transform="translate(-83.44 -255.698)"/>
    <path id="Trazado_885331" data-name="Trazado 885331" d="M358.718,48.783a3.783,3.783,0,1,0-3.783,3.783A3.787,3.787,0,0,0,358.718,48.783Zm-5.044,0a1.261,1.261,0,1,1,1.261,1.261A1.262,1.262,0,0,1,353.674,48.783Z" transform="translate(-220.7 -37.434)"/>
  </g>
</svg>
