<svg id="Grupo_1112637" data-name="Grupo 1112637" xmlns="http://www.w3.org/2000/svg" width="122.486" height="122.487" viewBox="0 0 122.486 122.487">
  <rect id="Rectángulo_402033" data-name="Rectángulo 402033" width="122.486" height="122.486" rx="5" transform="translate(0)" fill="#d7f5ea"/>
  <g id="Grupo_1115359" data-name="Grupo 1115359" transform="translate(22.758 22.353)">
    <g id="Grupo_1115357" data-name="Grupo 1115357" transform="translate(1.699 1.255)">
      <g id="Grupo_1115342" data-name="Grupo 1115342" transform="translate(23.836 39.104)">
        <path id="Trazado_885277" data-name="Trazado 885277" d="M39.172,41.29v1.957H36.149a1.775,1.775,0,0,0-1.255.514L30.9,47.751a1.774,1.774,0,0,0,1.255,3.023h.74V68.338H20.354V67.084l5.018-3.764L22.863,41.993l1.041-4.14,2.722,1.631,1.041-7.314,3.45.314A8.84,8.84,0,0,1,39.172,41.29Z" transform="translate(-20.354 -32.17)" fill="#e6e9ed"/>
      </g>
      <g id="Grupo_1115343" data-name="Grupo 1115343" transform="translate(5.093 39.104)">
        <path id="Trazado_885278" data-name="Trazado 885278" d="M24.157,68.338H11.611a2.527,2.527,0,0,0,2.509-2.509A5.017,5.017,0,0,0,9.1,60.811H6.593a4.9,4.9,0,0,0-1.142.138l-.038-.138V55.793h4.868v-1A1.216,1.216,0,0,1,12.1,53.7l.841.5,2.434-4.341-.841-.5a1.28,1.28,0,0,1,0-2.183l.841-.5-2.434-4.341-.841.5a1.216,1.216,0,0,1-1.819-1.091v-1H5.414v-.577a7.524,7.524,0,0,1,6.837-7.577l4.592-.414,1.041,7.314,2.722-1.631,1.041,4.14L19.139,63.32l5.018,3.764Z" transform="translate(-5.414 -32.17)" fill="#e6e9ed"/>
      </g>
      <g id="Grupo_1115344" data-name="Grupo 1115344" transform="translate(18.818 48.927)">
        <path id="Trazado_885279" data-name="Trazado 885279" d="M23.881,40,26.39,61.327l-5.018,3.764-5.018-3.764L18.863,40Z" transform="translate(-16.354 -40)" fill="#ff826e"/>
      </g>
      <g id="Grupo_1115345" data-name="Grupo 1115345" transform="translate(20.286 42.654)">
        <path id="Trazado_885280" data-name="Trazado 885280" d="M24.625,37.133l-1.041,4.14H18.565l-1.041-4.14L21.074,35Z" transform="translate(-17.524 -35)" fill="#fc6e51"/>
      </g>
      <g id="Grupo_1115346" data-name="Grupo 1115346" transform="translate(16.522 38.891)">
        <path id="Trazado_885281" data-name="Trazado 885281" d="M21.838,34.509,26.856,32l2.3.213-1.041,7.314L25.388,37.9l-3.55-2.133L18.288,37.9l-2.722,1.631-1.041-7.314L16.82,32Z" transform="translate(-14.524 -32)" fill="#ccd1d9"/>
      </g>
      <g id="Grupo_1115347" data-name="Grupo 1115347" transform="translate(43.909 17.564)">
        <path id="Trazado_885282" data-name="Trazado 885282" d="M50.718,16.016l10.475,18.6a2.028,2.028,0,0,1,.251.979,1.986,1.986,0,0,1-1.982,1.982H38.336A1.986,1.986,0,0,1,36.354,35.6a2.028,2.028,0,0,1,.251-.979l10.475-18.6A1.974,1.974,0,0,1,48.812,15h.176a1.974,1.974,0,0,1,1.731,1.016Z" transform="translate(-36.354 -15)" fill="#ff826e"/>
      </g>
      <g id="Grupo_1115348" data-name="Grupo 1115348" transform="translate(36.382 51.436)">
        <path id="Trazado_885283" data-name="Trazado 885283" d="M65.481,48.273V64.582a1.258,1.258,0,0,1-1.255,1.255H30.354V48.273H42.046a1.767,1.767,0,0,0,1.38-.665L47.917,42l4.491,5.608a1.767,1.767,0,0,0,1.38.665Z" transform="translate(-30.354 -42)" fill="#d3a06c"/>
      </g>
      <g id="Grupo_1115349" data-name="Grupo 1115349" transform="translate(53.945 50.181)">
        <path id="Trazado_885284" data-name="Trazado 885284" d="M63.912,45.5a1.774,1.774,0,0,1-1.255,3.023H50.225a1.767,1.767,0,0,1-1.38-.665l-4.491-5.608V41H58.668a1.775,1.775,0,0,1,1.255.514Z" transform="translate(-44.354 -41)" fill="#b27946"/>
      </g>
      <g id="Grupo_1115350" data-name="Grupo 1115350" transform="translate(33.872 50.181)">
        <path id="Trazado_885285" data-name="Trazado 885285" d="M48.427,41v1.255l-4.491,5.608a1.767,1.767,0,0,1-1.38.665H30.123A1.774,1.774,0,0,1,28.868,45.5l3.989-3.989A1.775,1.775,0,0,1,34.112,41H48.427Z" transform="translate(-28.354 -41)" fill="#b27946"/>
      </g>
      <g id="Grupo_1115351" data-name="Grupo 1115351" transform="translate(7.527)">
        <path id="Trazado_885286" data-name="Trazado 885286" d="M17.867,10.171,13.2,12.5a3.763,3.763,0,0,0-2.083,3.362v2.7H9.863a3.8,3.8,0,0,0-1.418.276l-.953-5.7a11.209,11.209,0,0,1-.138-1.719A10.408,10.408,0,0,1,17.779,1H29.547A10.424,10.424,0,0,1,39.972,11.425a11.209,11.209,0,0,1-.138,1.719l-.953,5.7a3.8,3.8,0,0,0-1.418-.276H36.208V17.309a3.759,3.759,0,0,0-3.764-3.764H30.952a27.094,27.094,0,0,1-13.085-3.375Z" transform="translate(-7.354 -1)" fill="#656d78"/>
      </g>
      <g id="Grupo_1115352" data-name="Grupo 1115352" transform="translate(0 47.672)">
        <path id="Trazado_885287" data-name="Trazado 885287" d="M11.39,46.527a2.509,2.509,0,1,0-2.509,2.509A2.516,2.516,0,0,0,11.39,46.527Zm-9.2,1.091a1.28,1.28,0,0,0,0-2.183l-.841-.5,2.672-4.679.477.376a1.2,1.2,0,0,0,1.945-.991V39h4.868v1A1.216,1.216,0,0,0,13.134,41.1l.841-.5,2.434,4.341-.841.5a1.28,1.28,0,0,0,0,2.183l.841.5-2.434,4.341-.841-.5a1.216,1.216,0,0,0-1.819,1.091v1H6.447v-1a1.216,1.216,0,0,0-1.819-1.091l-.841.5L1.354,48.12Z" transform="translate(-1.354 -39)" fill="#fcd770"/>
      </g>
      <g id="Grupo_1115353" data-name="Grupo 1115353" transform="translate(1.255 67.745)">
        <path id="Trazado_885288" data-name="Trazado 885288" d="M14.9,60.018a2.527,2.527,0,0,1-2.509,2.509H4.863a2.516,2.516,0,0,1-2.509-2.509,4.991,4.991,0,0,1,3.877-4.88A4.9,4.9,0,0,1,7.372,55H9.881A5.017,5.017,0,0,1,14.9,60.018Z" transform="translate(-2.354 -55)" fill="#f0d0b4"/>
      </g>
      <g id="Grupo_1115354" data-name="Grupo 1115354" transform="translate(36.369 17.564)">
        <path id="Trazado_885289" data-name="Trazado 885289" d="M33.029,15.276a3.765,3.765,0,0,1-1.418,7.251H30.344c.013-.138.013-.263.013-.4V15h1.255a3.8,3.8,0,0,1,1.418.276Z" transform="translate(-30.344 -15)" fill="#f0d0b4"/>
      </g>
      <g id="Grupo_1115355" data-name="Grupo 1115355" transform="translate(11.291 9.171)">
        <path id="Trazado_885290" data-name="Trazado 885290" d="M35.445,16.7v7.126c0,.138,0,.263-.013.4a11,11,0,0,1-7.515,10.036V38.03L22.9,40.539,17.881,38.03V34.266A11,11,0,0,1,10.367,24.23c-.013-.138-.013-.263-.013-.4V14.006a3.763,3.763,0,0,1,2.083-3.362L17.1,8.31a27.094,27.094,0,0,0,13.085,3.375h1.493a3.759,3.759,0,0,1,3.764,3.764Z" transform="translate(-10.354 -8.31)" fill="#f0d0b4"/>
      </g>
      <g id="Grupo_1115356" data-name="Grupo 1115356" transform="translate(6.273 17.564)">
        <path id="Trazado_885291" data-name="Trazado 885291" d="M11.372,22.126c0,.138,0,.263.013.4H10.118A3.764,3.764,0,0,1,8.7,15.276,3.8,3.8,0,0,1,10.118,15h1.255Z" transform="translate(-6.354 -15)" fill="#f0d0b4"/>
      </g>
    </g>
    <g id="Grupo_1115358" data-name="Grupo 1115358" transform="translate(0 0)">
      <path id="Trazado_885292" data-name="Trazado 885292" d="M76.971,57.189a3.054,3.054,0,0,0-.887-2.141L72.106,51.07a3.045,3.045,0,0,0-2.141-.888H45.607v-.7a10.058,10.058,0,0,0-9.192-10.066L31.808,39v-1.75a12.237,12.237,0,0,0,7.4-9.65h.124a5.017,5.017,0,0,0,2.8-9.179l.8-4.817A11.681,11.681,0,0,0,31.416,0H19.655A11.68,11.68,0,0,0,8.131,13.6l.8,4.817a5.017,5.017,0,0,0,2.8,9.179h.124a12.235,12.235,0,0,0,7.4,9.65V39l-5.741.522a8.829,8.829,0,0,0-7.959,8.151h-.02V48.2c0,.054-.006.107-.006.161l.006.581h0l.078.636L4,48.288,0,55.31l1.9,1.153L.009,57.592l3.654,6.536,1.879-1.155v5.263A6.283,6.283,0,0,0,1.7,74.018a3.768,3.768,0,0,0,3.764,3.764h66.49a2.512,2.512,0,0,0,2.509-2.509V60.165a3.028,3.028,0,0,0,2.509-2.976Zm-39.625.519a.52.52,0,0,1-.368-.887l3.981-3.979a.516.516,0,0,1,.365-.152H54.038L50.18,57.513a.519.519,0,0,1-.406.2ZM20.275,41.427l3.8,1.9-3.833,2.3-.591-4.141Zm3.868,10.009h2.786l2.295,19.5L25.536,73.7l-3.687-2.766Zm2.923-2.509h-3.06l-.573-2.293,2.1-1.262,2.1,1.262ZM27,43.324l3.8-1.9.629.058-.591,4.14ZM39.335,25.091V20.073a2.509,2.509,0,0,1,0,5.018ZM9.226,22.582a2.512,2.512,0,0,1,2.509-2.509v5.018A2.512,2.512,0,0,1,9.226,22.582Zm2.509-6.456v1.438c-.135,0-.262.029-.394.04l-.735-4.412A9.171,9.171,0,0,1,19.655,2.509H31.416A9.17,9.17,0,0,1,40.465,13.19L39.73,17.6c-.133-.011-.26-.04-.4-.04a5.023,5.023,0,0,0-5.018-5.018H32.825A25.853,25.853,0,0,1,16.3,6.564L14.7,8.491a28.252,28.252,0,0,0,2.473,1.818l-2.658,1.33a4.989,4.989,0,0,0-2.775,4.487Zm2.509,9.812V16.126a2.5,2.5,0,0,1,1.386-2.244l4.119-2.059a28.35,28.35,0,0,0,13.076,3.232h1.492a2.512,2.512,0,0,1,2.509,2.509v8.374a9.742,9.742,0,0,1-6.669,9.253l-.858.286V39.37l-3.764,1.882L21.771,39.37V35.477l-.858-.286A9.742,9.742,0,0,1,14.244,25.938ZM4.6,60.668l-1.219-2.18a2.532,2.532,0,0,0,.009-4.061L4.8,51.947a2.431,2.431,0,0,0,1.839-.118,2.471,2.471,0,0,0,1.332-1.647h2.436a2.513,2.513,0,0,0,1.252,1.943,2.408,2.408,0,0,0,2.184.114l1.219,2.18a2.534,2.534,0,0,0,0,4.067l-1.219,2.18a2.4,2.4,0,0,0-2.184.114,2.517,2.517,0,0,0-1.251,1.946H8.039a2.513,2.513,0,0,0-1.252-1.943A2.4,2.4,0,0,0,4.6,60.668Zm8.308,4.568V63.981l-.075-1.017,1.955,1.165,3.654-6.536-1.893-1.148,1.893-1.129L14.79,48.78,12.91,49.936V47.672H8.1a6.289,6.289,0,0,1,5.648-5.652l3.395-.309,1.144,8.009,2.9-1.738.57,2.279L19.188,72.081l4.257,3.192H16.522a3.721,3.721,0,0,0,.231-1.255,6.28,6.28,0,0,0-6.273-6.273H8.052V65.236ZM5.462,75.272a1.256,1.256,0,0,1-1.255-1.255,3.768,3.768,0,0,1,3.764-3.764H10.48a3.768,3.768,0,0,1,3.764,3.764,1.256,1.256,0,0,1-1.255,1.255Zm22.164,0,4.258-3.193L29.317,50.262l.57-2.279,2.9,1.738,1.144-8.009,2.261.206A7.562,7.562,0,0,1,43.1,49.484v.7H41.324a3.045,3.045,0,0,0-2.141.887L35.2,55.048a3.058,3.058,0,0,0-.886,2.141,3.028,3.028,0,0,0,2.509,2.976V75.272ZM39.335,60.218H49.772a3.018,3.018,0,0,0,2.366-1.137l2.251-2.814v19H39.335ZM56.9,75.272v-19l2.252,2.814a3.014,3.014,0,0,0,2.365,1.137H71.953V75.272ZM73.942,57.709H61.515a.518.518,0,0,1-.405-.194l-3.859-4.824H69.964a.524.524,0,0,1,.368.152L74.31,56.82a.52.52,0,0,1-.368.888Z" transform="translate(0 0)"/>
      <path id="Trazado_885293" data-name="Trazado 885293" d="M49.354,56h2.509v2.509H49.354Z" transform="translate(12.562 14.254)"/>
      <path id="Trazado_885294" data-name="Trazado 885294" d="M53.354,56h2.509v2.509H53.354Z" transform="translate(13.581 14.254)"/>
      <path id="Trazado_885295" data-name="Trazado 885295" d="M45.354,20h2.509v7.527H45.354Z" transform="translate(11.544 5.091)"/>
      <path id="Trazado_885296" data-name="Trazado 885296" d="M45.354,28h2.509v2.509H45.354Z" transform="translate(11.544 7.127)"/>
      <path id="Trazado_885297" data-name="Trazado 885297" d="M38.6,39.091H59.711a3.243,3.243,0,0,0,2.826-4.832l-10.465-18.6A3.244,3.244,0,0,0,49.246,14h-.183a3.244,3.244,0,0,0-2.825,1.652L35.769,34.261a3.244,3.244,0,0,0,2.828,4.83Zm-.64-3.6L48.425,16.882a.73.73,0,0,1,.637-.373h.183a.736.736,0,0,1,.64.374l10.464,18.6a.735.735,0,0,1-.639,1.1H38.6a.735.735,0,0,1-.734-.734.753.753,0,0,1,.094-.361Z" transform="translate(8.999 3.564)"/>
      <circle id="Elipse_11675" data-name="Elipse 11675" cx="1.255" cy="1.255" r="1.255" transform="translate(19.262 17.564)"/>
      <circle id="Elipse_11676" data-name="Elipse 11676" cx="1.255" cy="1.255" r="1.255" transform="translate(29.298 17.564)"/>
      <path id="Trazado_885298" data-name="Trazado 885298" d="M22.766,21.15l-1.423-.711A11.975,11.975,0,0,0,22.206,16H19.7a9.416,9.416,0,0,1-.99,4.193l-.694,1.386,3.632,1.815Z" transform="translate(4.585 4.072)"/>
      <path id="Trazado_885299" data-name="Trazado 885299" d="M21.345,26.878A5.284,5.284,0,0,0,26.1,23.94l.132-.265-2.244-1.123-.132.265a2.805,2.805,0,0,1-5.018,0l-.132-.265L16.46,23.675l.132.263A5.283,5.283,0,0,0,21.345,26.878Z" transform="translate(4.19 5.74)"/>
      <path id="Trazado_885300" data-name="Trazado 885300" d="M8.118,49.527a3.764,3.764,0,1,0-3.764-3.764A3.768,3.768,0,0,0,8.118,49.527Zm0-5.018a1.255,1.255,0,1,1-1.255,1.255A1.256,1.256,0,0,1,8.118,44.509Z" transform="translate(1.108 10.691)"/>
      <path id="Trazado_885301" data-name="Trazado 885301" d="M30.052,10.222V7.713H28.8A17.681,17.681,0,0,1,18.259,4.2l-1.5,2.007A20.194,20.194,0,0,0,28.8,10.222Z" transform="translate(4.265 1.069)"/>
    </g>
  </g>
</svg>
