<svg id="Grupo_1112513" data-name="Grupo 1112513" xmlns="http://www.w3.org/2000/svg" width="122.486" height="122.486" viewBox="0 0 122.486 122.486">
  <rect id="Rectángulo_402033" data-name="Rectángulo 402033" width="122.486" height="122.486" rx="5" transform="translate(0)" fill="#d7f5ea"/>
  <g id="Layer_31" data-name="Layer 31" transform="translate(15.995 19.397)">
    <path id="Trazado_885187" data-name="Trazado 885187" d="M42.374,13.644,54.786,33.5H42.128L36.4,22.04A5.626,5.626,0,0,0,32.221,19L14,16.626V11H37.6a5.626,5.626,0,0,1,4.771,2.644Z" transform="translate(5.69 1.22)" fill="#f8c460"/>
    <path id="Trazado_885188" data-name="Trazado 885188" d="M14,16.626l6.048.786.239-2.233A6.247,6.247,0,0,0,19.223,11H14Z" transform="translate(5.69 1.22)" fill="#faaf42"/>
    <path id="Trazado_885189" data-name="Trazado 885189" d="M11.013,48.379h5.626l3.47-32.387a6.319,6.319,0,1,0-12.565,0Z" transform="translate(3.051 0.407)" fill="#f8c460"/>
    <path id="Trazado_885190" data-name="Trazado 885190" d="M12.939,33A4.194,4.194,0,0,0,9.69,34.557l.436,4.069h5.626l.436-4.069A4.194,4.194,0,0,0,12.939,33Z" transform="translate(3.938 10.161)" fill="#faaf42"/>
    <rect id="Rectángulo_409461" data-name="Rectángulo 409461" width="51" height="14" rx="5" transform="translate(89.005 73.753) rotate(180)" fill="#7a838b"/>
    <path id="Trazado_885191" data-name="Trazado 885191" d="M74.819,54.718H38.252a7.032,7.032,0,0,1-7.032-7.032,6.958,6.958,0,0,1,.44-2.373,7.015,7.015,0,0,0,2.373,13.624H70.6a7.012,7.012,0,0,0,6.592-4.659,6.958,6.958,0,0,1-2.373.44Z" transform="translate(10.972 15.165)" fill="#5d6972"/>
    <rect id="Rectángulo_409462" data-name="Rectángulo 409462" width="42" height="5" rx="2" transform="translate(84.005 69.753) rotate(180)" fill="#e6e6e6"/>
    <path id="Trazado_885192" data-name="Trazado 885192" d="M0,0H42.192a2.813,2.813,0,0,1-2.813,2.813H2.813A2.813,2.813,0,0,1,0,0Z" transform="translate(84.384 67.07) rotate(180)" fill="#cecece"/>
    <path id="Trazado_885193" data-name="Trazado 885193" d="M0,0H28.128V5.626H0Z" transform="translate(77.352 60.037) rotate(180)" fill="#e6e6e6"/>
    <path id="Trazado_885194" data-name="Trazado 885194" d="M0,0H28.128V2.813H0Z" transform="translate(77.352 57.225) rotate(180)" fill="#cecece"/>
    <path id="Trazado_885195" data-name="Trazado 885195" d="M34.948,30.251H47.606L40.574,19H34.681a2.813,2.813,0,0,0-2.8,2.532l-.215,2.155Z" transform="translate(12.87 4.471)" fill="#faaf42"/>
    <path id="Trazado_885196" data-name="Trazado 885196" d="M52.464,23.261,54.371,32.8a2.813,2.813,0,0,0,2.759,2.261H67.987a2.813,2.813,0,0,1,2.759,2.261l1.688,8.438a2.813,2.813,0,0,1-2.759,3.364H34.023a2.813,2.813,0,0,1-2.8-3.094l2.25-22.5A2.813,2.813,0,0,1,36.273,21H49.7a2.813,2.813,0,0,1,2.759,2.261Z" transform="translate(12.684 5.284)" fill="#f8c460"/>
    <path id="Trazado_885197" data-name="Trazado 885197" d="M72.263,44.909h-24.7A11.251,11.251,0,0,1,36.372,32.533L37.525,21H36.273a2.813,2.813,0,0,0-2.8,2.532l-2.25,22.5a2.813,2.813,0,0,0,2.8,3.094H69.675a2.813,2.813,0,0,0,2.759-3.364Z" transform="translate(12.684 5.284)" fill="#faaf42"/>
    <ellipse id="Elipse_11669" data-name="Elipse 11669" cx="3" cy="2.5" rx="3" ry="2.5" transform="translate(42.005 64.753)" fill="#f8c460"/>
    <circle id="Elipse_11670" data-name="Elipse 11670" cx="2.5" cy="2.5" r="2.5" transform="translate(79.005 64.753)" fill="#f8c460"/>
    <path id="Trazado_885198" data-name="Trazado 885198" d="M36.406,24h9.845l2.813,15.47H35Z" transform="translate(14.224 6.503)" fill="#a7d0e1"/>
    <path id="Trazado_885199" data-name="Trazado 885199" d="M39.782,29.116,40.242,24H36.406L35,39.47H49.064L48.3,35.251H45.379a5.626,5.626,0,0,1-5.6-6.135Z" transform="translate(14.224 6.503)" fill="#80bbce"/>
    <path id="Trazado_885200" data-name="Trazado 885200" d="M0,0H8.438V4.219A4.219,4.219,0,0,1,0,4.219Z" transform="translate(21.096 54.412) rotate(180)" fill="#e6e6e6"/>
    <path id="Trazado_885201" data-name="Trazado 885201" d="M13.219,35A4.219,4.219,0,0,0,9,39.219v4.219h8.438V39.219H16.032a2.813,2.813,0,0,1-2.813-2.813Z" transform="translate(3.658 10.973)" fill="#cecece"/>
    <path id="Trazado_885202" data-name="Trazado 885202" d="M10.845,60.69h15.47V59.283a2.813,2.813,0,0,0-1.125-2.25l-4.5-3.375V41H10.845a9.845,9.845,0,0,0,0,19.69Z" transform="translate(0.406 13.412)" fill="#7a838b"/>
    <path id="Trazado_885203" data-name="Trazado 885203" d="M25.187,56.714l-.75-.563H15.061A9.835,9.835,0,0,1,6.321,41.786a9.845,9.845,0,0,0,4.52,18.584h15.47V58.964A2.813,2.813,0,0,0,25.187,56.714Z" transform="translate(0.41 13.731)" fill="#5d6972"/>
    <circle id="Elipse_11671" data-name="Elipse 11671" cx="2.5" cy="2.5" r="2.5" transform="translate(13.005 16.753)" fill="#faaf42"/>
    <ellipse id="Elipse_11672" data-name="Elipse 11672" cx="3" cy="2.5" rx="3" ry="2.5" transform="translate(14.005 13.753)" fill="#e6e6e6"/>
    <path id="Trazado_885204" data-name="Trazado 885204" d="M81.571,58.631H78.759V55.818h3.6a4.219,4.219,0,0,0,4.133-5.046l-1.688-8.438a4.23,4.23,0,0,0-4.135-3.392H69.814a1.406,1.406,0,0,1-1.38-1.125L66.523,28.27a4.23,4.23,0,0,0-4.135-3.392H55.975L49.249,14.118a6.984,6.984,0,0,0-5.956-3.305H22.826c-.069-.083-.131-.17-.2-.252A7.725,7.725,0,0,0,9.2,16.549L12.43,46.786a5.578,5.578,0,0,0-1.179,3.406v2.813a11.251,11.251,0,0,0,0,22.5h15.47A1.406,1.406,0,0,0,28.128,74.1V72.7A4.243,4.243,0,0,0,26.44,69.32L22.5,66.366V50.193a5.578,5.578,0,0,0-1.183-3.412l2.918-27.248L37.7,21.6a4.219,4.219,0,0,1,3.131,2.29L44.5,31.241,42.509,51.177a4.219,4.219,0,0,0,4.2,4.641h1.111v2.813H45a8.438,8.438,0,0,0,0,16.877H81.571a8.438,8.438,0,1,0,0-16.877ZM14.064,50.193a2.813,2.813,0,0,1,5.626,0v2.813H14.064ZM24.753,71.57a1.416,1.416,0,0,1,.563,1.125H11.251a8.438,8.438,0,0,1,0-16.877H19.69V67.07a1.406,1.406,0,0,0,.563,1.125Zm-2.99-55.321-3.07,28.646a5.194,5.194,0,0,0-3.631,0l-3.07-28.646a4.914,4.914,0,1,1,9.772,0ZM38.125,18.83,24.539,16.74l.02-.187a7.707,7.707,0,0,0-.257-2.927H43.288a4.2,4.2,0,0,1,3.578,1.983l5.8,9.268H48.957a4.19,4.19,0,0,0-3.53,1.925l-2.083-4.176a7.032,7.032,0,0,0-5.219-3.8Zm7.54,33.717a1.388,1.388,0,0,1-.357-1.084l2.25-22.5a1.406,1.406,0,0,1,1.406-1.266H62.4a1.406,1.406,0,0,1,1.38,1.125l1.9,9.542a4.23,4.23,0,0,0,4.135,3.392H80.671a1.406,1.406,0,0,1,1.38,1.125l1.688,8.438a1.406,1.406,0,0,1-1.378,1.688H46.707a1.39,1.39,0,0,1-1.042-.463Zm4.966,3.271H75.946v2.813H50.63ZM81.571,72.7H45a5.626,5.626,0,0,1,0-11.251H81.571a5.626,5.626,0,0,1,0,11.251Z" transform="translate(0 0)"/>
    <path id="Trazado_885205" data-name="Trazado 885205" d="M69.786,47H33.219a4.219,4.219,0,0,0,0,8.438h22.5a1.406,1.406,0,0,0,0-2.813H37.18a3.951,3.951,0,0,0,0-2.813H65.825a3.951,3.951,0,0,0,0,2.813H61.347a1.406,1.406,0,0,0,0,2.813h8.438a4.219,4.219,0,0,0,0-8.438Zm-35.16,4.219a1.406,1.406,0,1,1-1.406-1.406A1.406,1.406,0,0,1,34.626,51.219Zm35.16,1.406a1.406,1.406,0,1,1,1.406-1.406A1.406,1.406,0,0,1,69.786,52.626Z" transform="translate(11.786 15.85)"/>
    <path id="Trazado_885206" data-name="Trazado 885206" d="M49.472,41.283a1.406,1.406,0,0,0,1.382-1.658L49.832,34a1.406,1.406,0,1,0-2.766.5l.719,3.967H36.955l1.15-12.658h7.388l.563,3.065a1.406,1.406,0,1,0,2.766-.5l-.768-4.219A1.406,1.406,0,0,0,46.659,23H36.814a1.406,1.406,0,0,0-1.406,1.28L34,39.75a1.406,1.406,0,0,0,1.406,1.533Z" transform="translate(13.816 6.097)"/>
    <path id="Trazado_885207" data-name="Trazado 885207" d="M13.219,11a4.219,4.219,0,1,0,4.219,4.219A4.219,4.219,0,0,0,13.219,11Zm0,5.626a1.406,1.406,0,1,1,1.406-1.406A1.406,1.406,0,0,1,13.219,16.626Z" transform="translate(3.658 1.22)"/>
    <g id="Grupo_1115257" data-name="Grupo 1115257" transform="translate(54.85 31.909)">
      <path id="Trazado_885208" data-name="Trazado 885208" d="M41.813,27.813H40.406a1.406,1.406,0,0,1,0-2.813h1.406a1.406,1.406,0,0,1,0,2.813Z" transform="translate(-39 -25)" fill="#fff"/>
      <path id="Trazado_885209" data-name="Trazado 885209" d="M57.813,34.813H56.406a1.406,1.406,0,0,1,0-2.813h1.406a1.406,1.406,0,0,1,0,2.813Z" transform="translate(-32.498 -22.155)" fill="#fff"/>
    </g>
  </g>
</svg>
