<svg id="Grupo_1112588" data-name="Grupo 1112588" xmlns="http://www.w3.org/2000/svg" width="122.487" height="122.486" viewBox="0 0 122.487 122.486">
  <rect id="Rectángulo_402033" data-name="Rectángulo 402033" width="122.486" height="122.486" rx="5" transform="translate(0)" fill="#d7f5ea"/>
  <g id="filled_outline" data-name="filled outline" transform="translate(0.128 -104.082)">
    <path id="Trazado_885210" data-name="Trazado 885210" d="M93.954,196.727l15.7,6.026,1.56,7.947-1.117,5.911-65.02-12.283L40,198.778l1.675-8.866,9.425-1.281Z" transform="translate(-19.489 -42.737)" fill="#f85542"/>
    <circle id="Elipse_11673" data-name="Elipse 11673" cx="7.519" cy="7.519" r="7.519" transform="translate(71.29 163.842)" fill="#ebebeb"/>
    <circle id="Elipse_11674" data-name="Elipse 11674" cx="7.519" cy="7.519" r="7.519" transform="translate(25.454 155.467)" fill="#ebebeb"/>
    <path id="Trazado_885211" data-name="Trazado 885211" d="M67.3,249.6a9.025,9.025,0,1,1,8.863-7.35A9.025,9.025,0,0,1,67.3,249.6Zm-.015-15.041a6.027,6.027,0,1,0,1.129.106A6.132,6.132,0,0,0,67.287,234.554Z" transform="translate(-34.326 -77.585)" fill="#878787"/>
    <path id="Trazado_885212" data-name="Trazado 885212" d="M311.144,294.159a9.023,9.023,0,1,1,8.862-7.349A9.023,9.023,0,0,1,311.144,294.159Zm-.006-15.04a6.018,6.018,0,1,0,1.119.105A6.018,6.018,0,0,0,311.138,279.119Z" transform="translate(-232.331 -113.774)" fill="#878787"/>
    <path id="Trazado_885213" data-name="Trazado 885213" d="M0,0H27.07V3.007H0Z" transform="translate(49.254 166.061) rotate(-79.285)" fill="#de4c3b"/>
    <path id="Trazado_885214" data-name="Trazado 885214" d="M153.788,227.775a1.471,1.471,0,0,1-.28-.026l-4.434-.837a1.5,1.5,0,1,1,.558-2.955l4.434.837a1.5,1.5,0,0,1-.277,2.981Z" transform="translate(-107.037 -71.395)" fill="#c94536"/>
    <path id="Trazado_885215" data-name="Trazado 885215" d="M240.259,244.111a1.456,1.456,0,0,1-.281-.027l-4.433-.837a1.5,1.5,0,1,1,.558-2.955l4.433.837a1.5,1.5,0,0,1-.277,2.981Z" transform="translate(-177.253 -84.66)" fill="#c94536"/>
    <path id="Trazado_885216" data-name="Trazado 885216" d="M65.762,142.016H65.5a1.5,1.5,0,1,1,0-3.008h.258a8.711,8.711,0,0,0,6.2-2.567,1.5,1.5,0,1,1,2.127,2.127A11.7,11.7,0,0,1,65.762,142.016Z" transform="translate(-38.977 0)" fill="#fcd795"/>
    <path id="Trazado_885217" data-name="Trazado 885217" d="M17.5,167.517a1.5,1.5,0,0,1-1.5-1.5,6.337,6.337,0,0,1,3.522-5.7l.317-.159a1.5,1.5,0,1,1,1.345,2.69l-.317.159a3.344,3.344,0,0,0-1.859,3.008,1.5,1.5,0,0,1-1.5,1.5Z" transform="translate(0 -19.486)" fill="#fcd795"/>
    <path id="Trazado_885218" data-name="Trazado 885218" d="M111.224,286.015c-8.725,0-8.725-6.015-17.451-6.015s-8.725,6.015-17.451,6.015S67.6,280,58.883,280s-8.722,6.015-17.445,6.015S32.719,280,24,280v30.077h87.224Z" transform="translate(-6.496 -116.93)" fill="#4298d1"/>
    <path id="Trazado_885219" data-name="Trazado 885219" d="M111.224,334.016c-8.725,0-8.725-6.015-17.451-6.015s-8.725,6.015-17.451,6.015S67.6,328,58.883,328s-8.722,6.015-17.445,6.015S32.719,328,24,328v21.054h87.224Z" transform="translate(-6.496 -155.907)" fill="#69b9e7"/>
    <path id="Trazado_885220" data-name="Trazado 885220" d="M111.224,382.015c-8.725,0-8.725-6.015-17.451-6.015s-8.725,6.015-17.451,6.015S67.6,376,58.883,376s-8.722,6.015-17.445,6.015S32.719,376,24,376v12.031h87.224Z" transform="translate(-6.496 -194.884)" fill="#4298d1"/>
    <g id="Grupo_1115258" data-name="Grupo 1115258" transform="translate(80.666 143.431)">
      <path id="Trazado_885221" data-name="Trazado 885221" d="M430.924,180.551l.3-.514a3.008,3.008,0,1,0-5.216-3l-.3.514a3.009,3.009,0,0,0-.393,1.7l.3,4.5,4.039-2.008A3.008,3.008,0,0,0,430.924,180.551Z" transform="translate(-413.032 -175.53)" fill="#69b9e7"/>
      <path id="Trazado_885222" data-name="Trazado 885222" d="M444.622,252.775l.559.2a3.008,3.008,0,0,0,2.026-5.664l-.559-.2a3.006,3.006,0,0,0-1.741-.086l-4.378,1.092,2.692,3.621a3.007,3.007,0,0,0,1.4,1.037Z" transform="translate(-425.391 -233.512)" fill="#69b9e7"/>
      <path id="Trazado_885223" data-name="Trazado 885223" d="M360.79,181.314l-.32-.5a3.008,3.008,0,0,1,5.073-3.233l.32.5a3.008,3.008,0,0,1,.47,1.678l-.092,4.511-4.128-1.82a3.008,3.008,0,0,1-1.322-1.136Z" transform="translate(-359.999 -176.066)" fill="#69b9e7"/>
    </g>
    <path id="Trazado_885224" data-name="Trazado 885224" d="M141.9,160.486l-42.854-8.1,12.3-8.39,22.166,4.188Z" transform="translate(-67.435 -6.496)" fill="#bef5fa"/>
    <path id="Trazado_885225" data-name="Trazado 885225" d="M0,0H10.527V3.007H0Z" transform="translate(52.326 149.801) rotate(-79.285)" fill="#b1e4e9"/>
    <path id="Trazado_885226" data-name="Trazado 885226" d="M17.5,194.751h87.224a1.5,1.5,0,0,0,1.5-1.5V169.185a1.5,1.5,0,0,0-1.5-1.5c-3.895,0-5.738-1.27-7.873-2.742a17.983,17.983,0,0,0-4.721-2.538l-.5-2.573a1.5,1.5,0,0,0-.936-1.115l-15.247-5.862-8.127-11.915a1.505,1.505,0,0,0-.963-.631l-22.167-4.18a1.515,1.515,0,0,0-.211,0,1.483,1.483,0,0,0-.918.233l-12.008,8.192-9.075,1.231A1.5,1.5,0,0,0,20.7,147l-1.669,8.873a1.5,1.5,0,0,0,.368,1.292l4.611,5.049c-.028.282-.049.561-.051.842a14.3,14.3,0,0,0-6.458-1.386,1.5,1.5,0,0,0-1.5,1.5v30.077A1.5,1.5,0,0,0,17.5,194.751ZM87.277,173.7c3.894,0,5.737,1.27,7.871,2.742a15.161,15.161,0,0,0,8.076,3.215v6a12.279,12.279,0,0,1-6.369-2.666,15.651,15.651,0,0,0-19.158,0c-2.134,1.472-3.977,2.742-7.871,2.742s-5.733-1.27-7.866-2.742a15.64,15.64,0,0,0-19.15,0c-2.133,1.472-3.975,2.742-7.868,2.742s-5.733-1.27-7.865-2.742a15.181,15.181,0,0,0-8.069-3.205v-6.013a12.229,12.229,0,0,1,6.361,2.671,15.006,15.006,0,0,0,9.573,3.274,15.012,15.012,0,0,0,9.576-3.274c2.133-1.472,3.975-2.742,7.869-2.742s5.733,1.27,7.865,2.742a15.643,15.643,0,0,0,19.152,0C81.539,174.967,83.382,173.7,87.277,173.7Zm15.947,18.046H19.008v-8.953a12.229,12.229,0,0,1,6.361,2.671,15.006,15.006,0,0,0,9.573,3.274,15.013,15.013,0,0,0,9.576-3.274c2.133-1.472,3.975-2.742,7.869-2.742s5.733,1.27,7.865,2.742a15.643,15.643,0,0,0,19.152,0c2.135-1.472,3.978-2.742,7.873-2.742s5.737,1.27,7.871,2.742a15.161,15.161,0,0,0,8.076,3.215Zm-14.284-30c-.524-.048-1.075-.075-1.663-.075a14.549,14.549,0,0,0-5.959,1.151c-.284-.08-.583-.177-.837-.222a9.027,9.027,0,0,0-9.813,5.051c-.276.014-.542.035-.842.035-3.891,0-5.733-1.27-7.866-2.742A15.1,15.1,0,0,0,53.14,161.7l1.842-9.761,19.1,3.607,14.762,5.676ZM44.244,139.2l9.732,1.839-1.394,7.389-17.124-3.235Zm12.688,2.4,8.252,1.559,5.993,8.785-15.639-2.955Zm-33.475,7.024,8.118-1.1,20.45,3.863-1.972,10.453a13.782,13.782,0,0,0-5.452,1.927l-2.613-.5a9.017,9.017,0,0,0-16.976-4.415l-2.884-3.156Zm3.86,16.486a5.958,5.958,0,0,1-.261-3.125A6.016,6.016,0,1,1,37,167.531a14.153,14.153,0,0,1-2.055.15,11.748,11.748,0,0,1-7.624-2.577Zm-1.949,2.312a15.015,15.015,0,0,0,9.573,3.272,15.012,15.012,0,0,0,9.576-3.274c2.133-1.472,3.975-2.742,7.869-2.742s5.733,1.27,7.865,2.742a15.643,15.643,0,0,0,19.152,0c2.135-1.472,3.978-2.742,7.873-2.742s5.737,1.27,7.871,2.742a15.161,15.161,0,0,0,8.076,3.215v6a12.279,12.279,0,0,1-6.369-2.666,15.651,15.651,0,0,0-19.158,0c-2.134,1.472-3.977,2.742-7.871,2.742s-5.733-1.27-7.866-2.742a15.64,15.64,0,0,0-19.15,0c-2.133,1.472-3.975,2.742-7.868,2.742s-5.733-1.27-7.865-2.742a15.181,15.181,0,0,0-8.069-3.205v-6.013a12.229,12.229,0,0,1,6.361,2.671Z" transform="translate(0 -0.1)"/>
    <path id="Trazado_885227" data-name="Trazado 885227" d="M149.074,226.913l4.434.837a1.472,1.472,0,0,0,.28.026,1.5,1.5,0,0,0,.277-2.981l-4.434-.837a1.5,1.5,0,1,0-.558,2.955Z" transform="translate(-107.037 -71.397)"/>
    <path id="Trazado_885228" data-name="Trazado 885228" d="M240.537,241.129l-4.433-.837a1.5,1.5,0,1,0-.558,2.955l4.433.837a1.456,1.456,0,0,0,.281.027,1.5,1.5,0,0,0,.277-2.981Z" transform="translate(-177.253 -84.66)"/>
    <path id="Trazado_885229" data-name="Trazado 885229" d="M420.937,167.687a4.486,4.486,0,0,0-2.735,2.107l-.3.515a4.489,4.489,0,0,0-.59,2.548l.3,4.5a1.5,1.5,0,0,0,2.17,1.247l4.041-2.009a4.508,4.508,0,0,0,1.9-1.792h0l.294-.514a4.512,4.512,0,0,0-5.089-6.6Zm2.48,5.105-.3.515a1.5,1.5,0,0,1-.634.6l-2.02,1-.15-2.251a1.5,1.5,0,0,1,.2-.848l.3-.515a1.5,1.5,0,1,1,2.607,1.5Z" transform="translate(-325.869 -25.603)"/>
    <path id="Trazado_885230" data-name="Trazado 885230" d="M433.665,240.154a1.5,1.5,0,0,0-.843,2.356l2.692,3.62a4.5,4.5,0,0,0,2.1,1.557h0l.559.2a4.512,4.512,0,1,0,3.038-8.5l-.559-.2a4.487,4.487,0,0,0-2.611-.129Zm5.977,1.869.558.2a1.5,1.5,0,0,1-1.013,2.832l-.557-.2a1.491,1.491,0,0,1-.7-.519l-1.347-1.81,2.189-.546a1.524,1.524,0,0,1,.871.043Z" transform="translate(-338.226 -83.578)"/>
    <path id="Trazado_885231" data-name="Trazado 885231" d="M357.489,168.293a4.512,4.512,0,0,0-4.779,6.831l.319.5a4.5,4.5,0,0,0,1.984,1.7l4.128,1.82a1.5,1.5,0,0,0,2.11-1.345l.092-4.512a4.51,4.51,0,0,0-.707-2.517l-.32-.5A4.483,4.483,0,0,0,357.489,168.293Zm.8,7.192-2.063-.911a1.5,1.5,0,0,1-.662-.568l-.319-.5a1.5,1.5,0,0,1,2.536-1.617l.318.5a1.5,1.5,0,0,1,.236.84Z" transform="translate(-272.84 -26.136)"/>
    <path id="Trazado_885232" data-name="Trazado 885232" d="M71.96,136.441a8.711,8.711,0,0,1-6.2,2.567H65.5a1.5,1.5,0,1,0,0,3.008h.258a11.7,11.7,0,0,0,8.325-3.448,1.5,1.5,0,1,0-2.127-2.127Z" transform="translate(-38.977)"/>
    <path id="Trazado_885233" data-name="Trazado 885233" d="M17.5,167.517a1.5,1.5,0,0,0,1.5-1.5,3.344,3.344,0,0,1,1.859-3.008l.317-.159a1.5,1.5,0,1,0-1.345-2.69l-.317.159a6.337,6.337,0,0,0-3.522,5.7A1.5,1.5,0,0,0,17.5,167.517Z" transform="translate(0 -19.486)"/>
  </g>
</svg>
