<svg id="Grupo_1112713" data-name="Grupo 1112713" xmlns="http://www.w3.org/2000/svg" width="122.486" height="122.486" viewBox="0 0 122.486 122.486">
  <rect id="Rectángulo_402033" data-name="Rectángulo 402033" width="122.486" height="122.486" rx="5" transform="translate(0)" fill="#d7f5ea"/>
  <g id="Grupo_1115369" data-name="Grupo 1115369" transform="translate(20.217 20.212)">
    <path id="Trazado_885332" data-name="Trazado 885332" d="M208.458,302.738,208,312.814h43.761l-.981-18.628a11.52,11.52,0,0,0-7.225-10.09l-17.778-4.1a25.7,25.7,0,0,0-3.018,1.231,12.627,12.627,0,0,0-5.514,5.388Z" transform="translate(-172.444 -232.125)" fill="#f6f6e7"/>
    <g id="Grupo_1115364" data-name="Grupo 1115364" transform="translate(35.556 58.808)">
      <path id="Trazado_885333" data-name="Trazado 885333" d="M262.513,347.245a11.489,11.489,0,0,0-.65-3.252H226.621l-4.469,8.205h40.622Z" transform="translate(-219.733 -343.993)" fill="#394d5d"/>
      <path id="Trazado_885334" data-name="Trazado 885334" d="M217.573,439.993h-9.324l-.249,5.47h43.761l-.289-5.47h-33.9Z" transform="translate(-208 -423.583)" fill="#394d5d"/>
    </g>
    <path id="Trazado_885335" data-name="Trazado 885335" d="M304,175.993v14.075a8.055,8.055,0,0,0,3.056,6.094,14.892,14.892,0,0,0,17.6.392l.41-.312a8.225,8.225,0,0,0,3.546-6.488V175.993" transform="translate(-252.034 -145.903)" fill="#f4d8c3"/>
    <path id="Trazado_885336" data-name="Trazado 885336" d="M304,180.3l3.024,1.512a11.592,11.592,0,0,0,5.182,1.223,2.556,2.556,0,0,0,2.126-1.138l1.217-1.827a2.556,2.556,0,0,1,4.253,0l1.217,1.827a2.556,2.556,0,0,0,2.127,1.138,6.6,6.6,0,0,0,4.669-1.934l.8-.8V167.993H304Z" transform="translate(-252.034 -139.27)" fill="#394d5d"/>
    <g id="Grupo_1115365" data-name="Grupo 1115365" transform="translate(57.436 34.193)">
      <path id="Trazado_885337" data-name="Trazado 885337" d="M336,199.993h2.735v2.735H336Z" transform="translate(-336 -199.993)" fill="#fff"/>
      <path id="Trazado_885338" data-name="Trazado 885338" d="M408,199.993h2.735v2.735H408Z" transform="translate(-395.692 -199.993)" fill="#fff"/>
    </g>
    <path id="Trazado_885339" data-name="Trazado 885339" d="M54.5,170.181,49.21,151.153a19.387,19.387,0,0,0-5.917-9.407l-1.094-.957a19.4,19.4,0,0,0-12.77-4.8H28.99a19.4,19.4,0,0,0-8.676,2.051l-1.592.795A19.4,19.4,0,0,0,8,156.189v.922a56.314,56.314,0,0,0,2.4,14.81,19.49,19.49,0,0,0,18.507,13.3h6.441c1.368,0,16.41-4.1,16.41-4.1l4.1-1.368Z" transform="translate(-6.632 -112.74)" fill="#bca996"/>
    <g id="Grupo_1115366" data-name="Grupo 1115366" transform="translate(12.64 35.56)">
      <path id="Trazado_885340" data-name="Trazado 885340" d="M112,207.993h2.735v24.615H112Z" transform="translate(-105.495 -207.993)" fill="#826346"/>
      <path id="Trazado_885341" data-name="Trazado 885341" d="M84.22,243.138H80.954a5.487,5.487,0,0,1-1.324-.163l-4.983-1.246.665-2.653,4.979,1.244a2.728,2.728,0,0,0,.663.082H84.22a2.735,2.735,0,1,0,0-5.47H79.414a5.47,5.47,0,0,1,0-10.94H82.68a5.485,5.485,0,0,1,1.324.163l4.983,1.246-.665,2.653-4.979-1.244a2.729,2.729,0,0,0-.663-.082H79.414a2.735,2.735,0,0,0,0,5.47H84.22a5.47,5.47,0,1,1,0,10.94Z" transform="translate(-73.944 -221.258)" fill="#826346"/>
    </g>
    <path id="Trazado_885342" data-name="Trazado 885342" d="M310.086,29.872l-1.538-5.845a11.971,11.971,0,0,0-8.034-8.472V13.929a6.017,6.017,0,0,0-3.024-5.311,5.089,5.089,0,0,0-4.893,0,6.017,6.017,0,0,0-3.024,5.311v3.2a12.184,12.184,0,0,0-5.4,7.277l-1.437,5.463H280v6.838h32.821V29.872Z" transform="translate(-232.137 -6.619)" fill="#2b472f"/>
    <g id="Grupo_1115367" data-name="Grupo 1115367" transform="translate(53.334 1.372)">
      <path id="Trazado_885343" data-name="Trazado 885343" d="M312,135.993h2.735v6.838H312Z" transform="translate(-312 -114.113)" fill="#1b381f"/>
      <path id="Trazado_885344" data-name="Trazado 885344" d="M352,135.993h2.735v6.838H352Z" transform="translate(-345.162 -114.113)" fill="#1b381f"/>
      <path id="Trazado_885345" data-name="Trazado 885345" d="M392,135.993h2.735v6.838H392Z" transform="translate(-378.325 -114.113)" fill="#1b381f"/>
      <path id="Trazado_885346" data-name="Trazado 885346" d="M432,135.993h2.735v6.838H432Z" transform="translate(-411.487 -114.113)" fill="#1b381f"/>
      <path id="Trazado_885347" data-name="Trazado 885347" d="M368,7.993a5.129,5.129,0,0,1,2.447.626,6.017,6.017,0,0,1,3.024,5.311V16.2h-4.1a25.254,25.254,0,0,0-1.3-7.995Z" transform="translate(-358.427 -7.993)" fill="#1b381f"/>
      <path id="Trazado_885348" data-name="Trazado 885348" d="M376,48.656a12.186,12.186,0,0,1,12.137,9.08l1.538,5.845h-6.838V60.392a12.054,12.054,0,0,0-3.654-8.644Z" transform="translate(-365.06 -41.701)" fill="#1b381f"/>
    </g>
    <path id="Trazado_885349" data-name="Trazado 885349" d="M274.94,358.333V338.718a5.47,5.47,0,1,0-10.94,0v19.614" transform="translate(-218.872 -276.277)" fill="#f4d8c3"/>
    <g id="Grupo_1115368" data-name="Grupo 1115368" transform="translate(46.888 57.143)">
      <path id="Trazado_885350" data-name="Trazado 885350" d="M274.3,341.865l.6.9Z" transform="translate(-274.296 -340.563)" fill="#bca996"/>
      <path id="Trazado_885351" data-name="Trazado 885351" d="M288.456,334.257l.455.682Z" transform="translate(-286.035 -334.256)" fill="#bca996"/>
      <path id="Trazado_885352" data-name="Trazado 885352" d="M277.172,334.933l-.455-.684a5.415,5.415,0,0,0-2.421,1.3l.6.9a10.337,10.337,0,0,1,1.742,5.756v1.914a1.368,1.368,0,1,0,2.735,0v-1.914a13.079,13.079,0,0,0-2.2-7.273Z" transform="translate(-274.296 -334.249)" fill="#bca996"/>
    </g>
    <path id="Trazado_885353" data-name="Trazado 885353" d="M87.332,205.5l-4.987-1.246a5.375,5.375,0,0,0-.821-.137v-2.761a1.368,1.368,0,1,0-2.735,0V204.1H77.754a5.47,5.47,0,0,0,0,10.94h1.035v5.409a.9.9,0,0,1-.159-.021l-4.979-1.244a1.368,1.368,0,0,0-.684,2.648l.019,0,4.983,1.246a5.375,5.375,0,0,0,.821.137v2.761a1.368,1.368,0,0,0,2.735,0v-2.735h1.035a5.47,5.47,0,1,0,0-10.94H81.524v-5.409a.9.9,0,0,1,.159.021l4.979,1.244a1.367,1.367,0,1,0,.683-2.648l-.019,0Zm-4.767,9.532a2.735,2.735,0,0,1,0,5.47H81.524v-5.47ZM77.76,212.3a2.735,2.735,0,1,1,0-5.47h1.03v5.47Z" transform="translate(-59.644 -165.8)"/>
    <path id="Trazado_885354" data-name="Trazado 885354" d="M80.684,21.885H79.009L77.74,17.06A13.615,13.615,0,0,0,71.1,8.6a13.365,13.365,0,0,0-1.354-.63V7.31A7.337,7.337,0,0,0,66.01.8a6.467,6.467,0,0,0-6.2,0A7.337,7.337,0,0,0,56.069,7.31V9.8a13.515,13.515,0,0,0-5.355,7.644L49.55,21.885H47.863A1.368,1.368,0,0,0,46.5,23.253V30.09a1.368,1.368,0,0,0,1.368,1.368H50.6V44.165a8.507,8.507,0,0,0,.578,3.054,26.661,26.661,0,0,0-4.134,2.154L43.9,38.053a20.709,20.709,0,0,0-6.334-10.07l-1.094-.957a20.759,20.759,0,0,0-13.675-5.138h-.439a20.863,20.863,0,0,0-9.287,2.188l-1.592.8A20.767,20.767,0,0,0,0,43.448v.922A57.759,57.759,0,0,0,2.479,59.614a20.856,20.856,0,0,0,19.8,14.237h6.436a44.538,44.538,0,0,0,5.47-1.172v8.01a1.368,1.368,0,0,0,2.735,0v-4.1h6.838v4.1a1.368,1.368,0,0,0,2.735,0V62.442a4.123,4.123,0,0,1,1.145-2.831,10.333,10.333,0,0,1,1.59,5.488v1.915a1.368,1.368,0,1,0,2.735,0V65.1a13.047,13.047,0,0,0-1.883-6.709A4.086,4.086,0,0,1,53.5,59.541a4.13,4.13,0,0,1,1.2,2.9V80.689a1.368,1.368,0,0,0,2.735,0v-4.1h20.3l.219,4.175a1.368,1.368,0,0,0,1.361,1.3h.074a1.368,1.368,0,0,0,1.294-1.437v0L79.7,61.988a12.923,12.923,0,0,0-6.17-10.308l.331-.25a9.633,9.633,0,0,0,4.085-7.577V31.458h2.735a1.368,1.368,0,0,0,1.368-1.368V23.253a1.368,1.368,0,0,0-1.368-1.368Zm-10.94,6.838v-4.1h4.1v4.1Zm-9.573-4.1v4.1h-4.1v-4.1Zm2.735,0h4.1v4.1h-4.1ZM61.117,3.2a3.7,3.7,0,0,1,3.588,0,4.65,4.65,0,0,1,2.3,3.986,13.58,13.58,0,0,0-8.191,1.079V7.309A4.674,4.674,0,0,1,61.117,3.2ZM53.365,18.137a10.8,10.8,0,0,1,5.82-7.02l.8-.38a10.818,10.818,0,0,1,15.106,7.018l1.094,4.13H52.376ZM49.231,24.62h4.1v4.1h-4.1ZM36.923,73.851V71.983c2.393-.619,4.871-1.281,6.838-1.813v3.681Zm8.84-16.243a6.791,6.791,0,0,0-2,4.834v4.893c-6.777,1.839-14.106,3.725-15.043,3.781H22.277a18.123,18.123,0,0,1-17.2-12.367A55.457,55.457,0,0,1,2.735,44.37v-.922A18.028,18.028,0,0,1,12.7,27.32l1.592-.8a18.113,18.113,0,0,1,8.07-1.9H22.8a18.033,18.033,0,0,1,11.874,4.461l1.094.957a18,18,0,0,1,5.5,8.752l5.087,18.333a6.6,6.6,0,0,0-.591.484Zm31.208,4.525.19,3.513H57.436v-3.2a6.823,6.823,0,0,0-.41-2.266H76.654a10.035,10.035,0,0,1,.323,1.957ZM57.436,73.851v-5.47H77.3l.289,5.47ZM75.5,57.441H55.236a6.809,6.809,0,0,0-6.386-1.577l-1.034-3.725a23.944,23.944,0,0,1,4.73-2.514A11.175,11.175,0,0,0,54.14,51.3a15.413,15.413,0,0,0,9.943,3.382,16.591,16.591,0,0,0,6.667-1.368,10.129,10.129,0,0,1,4.756,4.127Zm-3.289-8.191-.41.312a13.447,13.447,0,0,1-15.889-.342,6.712,6.712,0,0,1-2.579-5.054v-.922l1.045.522a13.021,13.021,0,0,0,5.793,1.368,3.919,3.919,0,0,0,3.264-1.746l1.217-1.827a1.231,1.231,0,0,1,1.977,0l1.217,1.827a3.918,3.918,0,0,0,3.264,1.746,7.914,7.914,0,0,0,4.1-1.139,6.882,6.882,0,0,1-3,5.255Zm3-8.785-.4.4a5.2,5.2,0,0,1-3.7,1.533,1.188,1.188,0,0,1-.989-.529l-1.217-1.827a3.923,3.923,0,0,0-6.529,0L61.16,41.869a1.188,1.188,0,0,1-.989.529,10.274,10.274,0,0,1-4.57-1.079l-2.267-1.134V31.458h21.88Zm4.1-11.742H76.581v-4.1h2.735Z"/>
    <path id="Trazado_885355" data-name="Trazado 885355" d="M336.032,199.993h2.735v2.735h-2.735Z" transform="translate(-278.59 -165.8)"/>
    <path id="Trazado_885356" data-name="Trazado 885356" d="M408.032,199.993h2.735v2.735h-2.735Z" transform="translate(-338.283 -165.8)"/>
  </g>
</svg>
