<svg xmlns="http://www.w3.org/2000/svg" width="47.097" height="46.885" viewBox="0 0 47.097 46.885">
  <g id="Operation_risk_trouble" transform="translate(-2.029 -2.362)">
    <path id="Trazado_885450" data-name="Trazado 885450" d="M42.508,25.99,36.72,24.9a1.367,1.367,0,1,0-.5,2.686l4.673.877V31.4l-4.672.876a1.366,1.366,0,0,0-1.068.988A12.731,12.731,0,0,1,33.9,36.3a1.366,1.366,0,0,0,.056,1.454l2.682,3.921-2.074,2.074L30.64,41.06A1.367,1.367,0,0,0,29.185,41a12.7,12.7,0,0,1-3.029,1.253,1.366,1.366,0,0,0-.987,1.067L24.292,48H21.359l-.876-4.671a1.366,1.366,0,0,0-.987-1.068A12.678,12.678,0,0,1,16.465,41a1.367,1.367,0,0,0-1.455.056L11.09,43.743,9.017,41.669,11.7,37.749a1.367,1.367,0,0,0,.056-1.455,12.668,12.668,0,0,1-1.252-3.03,1.366,1.366,0,0,0-1.068-.988L4.763,31.4V28.468l4.673-.877A1.366,1.366,0,0,0,10.5,26.6a12.656,12.656,0,0,1,1.252-3.029A1.367,1.367,0,0,0,11.7,22.12L9.017,18.2l2.074-2.074,3.921,2.683a1.366,1.366,0,0,0,1.454.056,12.732,12.732,0,0,1,3.03-1.252,1.366,1.366,0,0,0,.987-1.068l.876-4.672h2.933l.877,4.673a1.367,1.367,0,1,0,2.687-.5l-1.086-5.787a1.367,1.367,0,0,0-1.343-1.114h-5.2a1.367,1.367,0,0,0-1.343,1.115l-.932,4.97a15.369,15.369,0,0,0-2.082.86L11.7,13.228a1.365,1.365,0,0,0-1.738.162L6.281,17.068a1.367,1.367,0,0,0-.162,1.738l2.854,4.171a15.435,15.435,0,0,0-.86,2.081l-4.97.933a1.367,1.367,0,0,0-1.114,1.343v5.2a1.367,1.367,0,0,0,1.115,1.343l4.969.932a15.45,15.45,0,0,0,.86,2.081L6.12,41.062A1.367,1.367,0,0,0,6.281,42.8l3.678,3.678a1.367,1.367,0,0,0,1.738.162l4.171-2.854a15.506,15.506,0,0,0,2.082.86l.932,4.969a1.367,1.367,0,0,0,1.343,1.115h5.2a1.367,1.367,0,0,0,1.343-1.114l.933-4.97a15.538,15.538,0,0,0,2.08-.86l4.171,2.853a1.367,1.367,0,0,0,1.738-.162L39.37,42.8a1.367,1.367,0,0,0,.162-1.738l-2.854-4.171a15.364,15.364,0,0,0,.86-2.081l4.97-.932a1.367,1.367,0,0,0,1.115-1.343v-5.2a1.367,1.367,0,0,0-1.114-1.343Z" transform="translate(0 -1.484)" fill="#144735"/>
    <path id="Trazado_885451" data-name="Trazado 885451" d="M17.369,33.293a8.816,8.816,0,1,0,8.816-8.816,8.816,8.816,0,0,0-8.816,8.816Zm14.9,0a6.082,6.082,0,1,1-6.082-6.082,6.082,6.082,0,0,1,6.082,6.082Z" transform="translate(-3.359 -4.843)" fill="#144735"/>
    <path id="Trazado_885452" data-name="Trazado 885452" d="M47.31,2.362a9.624,9.624,0,1,0,9.624,9.624A9.624,9.624,0,0,0,47.31,2.362Zm0,16.514a6.89,6.89,0,1,1,6.89-6.89A6.89,6.89,0,0,1,47.31,18.876Z" transform="translate(-7.808)" fill="#144735"/>
    <path id="Trazado_885453" data-name="Trazado 885453" d="M49.393,7.865a1.569,1.569,0,0,0-1.411,1.713l.35,3.619a1.218,1.218,0,0,0,2.424,0l.35-3.619a1.666,1.666,0,0,0,0-.3,1.569,1.569,0,0,0-1.713-1.411Z" transform="translate(-10.061 -1.203)" fill="#144735"/>
    <path id="Trazado_885454" data-name="Trazado 885454" d="M49.625,17.155a1.367,1.367,0,0,0-1.367,1.367v.113a1.367,1.367,0,1,0,2.734,0v-.114a1.367,1.367,0,0,0-1.367-1.367Z" transform="translate(-10.123 -3.239)" fill="#144735"/>
  </g>
</svg>
