<svg xmlns="http://www.w3.org/2000/svg" width="40" height="40" viewBox="0 0 40 40">
  <path id="Trazado_884959" data-name="Trazado 884959" d="M37.543,18.828a7.3,7.3,0,0,1-3.823-6.444V0H21.963V12.384a7.3,7.3,0,0,1-1.963,5,7.3,7.3,0,0,1-1.963-5V4.707H6.279v7.677a7.3,7.3,0,0,1-3.823,6.444H0V20A20,20,0,0,0,34.142,34.142,19.87,19.87,0,0,0,40,20V18.828ZM24.307,12.384V2.344H26.67V5.02h2.344V2.344h2.363v10.04a9.739,9.739,0,0,0,2.454,6.444h-7.1a8.8,8.8,0,0,0,2.279-5.894V7.6H26.67v5.347a6.571,6.571,0,0,1-3.788,5.879H21.86l0,0a9.74,9.74,0,0,0,2.452-6.441Zm-15.684,0V7.051h2.363v2.1H13.33v-2.1h2.363v5.333a9.74,9.74,0,0,0,2.452,6.441l0,0H11.051a8.8,8.8,0,0,0,2.279-5.894V11.343H10.986v1.606A6.571,6.571,0,0,1,7.2,18.828H6.169A9.739,9.739,0,0,0,8.623,12.384ZM2.382,21.172h9.59a3.509,3.509,0,0,0-.2,1.181,1.183,1.183,0,0,1-1.182,1.182H2.7a17.732,17.732,0,0,1-.314-2.363Zm.96,4.707h7.244a3.529,3.529,0,0,0,3.525-3.525,1.183,1.183,0,0,1,1.177-1.181h22.33a17.747,17.747,0,0,1-.314,2.363H22.353a3.525,3.525,0,1,0,0,7.051,1.182,1.182,0,0,1,0,2.363H17.646a3.562,3.562,0,0,0-3.525,3.525v.183A17.745,17.745,0,0,1,3.342,25.879Zm29.143,6.606A17.541,17.541,0,0,1,20,37.656a17.834,17.834,0,0,1-3.535-.352v-.83a1.209,1.209,0,0,1,1.181-1.181h4.707a3.525,3.525,0,0,0,0-7.051,1.182,1.182,0,0,1,0-2.363h14.3a17.593,17.593,0,0,1-4.173,6.606Z" fill="#144735"/>
</svg>
