<svg xmlns="http://www.w3.org/2000/svg" width="110" height="110" viewBox="0 0 110 110">
  <g id="Grupo_1108259" data-name="Grupo 1108259" transform="translate(-273.332 -3741.5)">
    <rect id="Rect치ngulo_402033" data-name="Rect치ngulo 402033" width="110" height="110" rx="5" transform="translate(273.332 3741.5)" fill="#d8b3fe"/>
    <g id="Grupo_1115399" data-name="Grupo 1115399" transform="translate(288.878 3755.225)">
      <path id="Trazado_885477" data-name="Trazado 885477" d="M45.646,36.065a12.447,12.447,0,0,0,.974-.883,7.789,7.789,0,0,0,7.7-1.077,10.385,10.385,0,1,0,5.608-19.121,10.605,10.605,0,0,0-2.6.35A7.789,7.789,0,0,0,49.54,8.493a7.308,7.308,0,0,0-.753,0,10.385,10.385,0,0,0-19.264,0,7.308,7.308,0,0,0-.753,0,7.789,7.789,0,0,0-7.724,6.841,10.605,10.605,0,0,0-2.661-.35A10.385,10.385,0,1,0,23.994,34.1a7.789,7.789,0,0,0,7.7,1.077,12.448,12.448,0,0,0,.974.883" transform="translate(0.298 0.273)" fill="#5e6472"/>
      <path id="Trazado_885478" data-name="Trazado 885478" d="M29.981,26v8.918a19.471,19.471,0,1,0,12.981,0V26" transform="translate(2.982 7.43)" fill="#b8f2e6"/>
      <rect id="Rect치ngulo_409512" data-name="Rect치ngulo 409512" width="15.577" height="5.192" rx="2" transform="translate(31.665 28.238)" fill="#faf3dd"/>
      <circle id="Elipse_11688" data-name="Elipse 11688" cx="3.894" cy="3.894" r="3.894" transform="translate(35.559 56.64)" fill="#ffa69e"/>
      <g id="Grupo_1115398" data-name="Grupo 1115398" transform="translate(14.79 11.363)">
        <ellipse id="Elipse_11689" data-name="Elipse 11689" cx="5.192" cy="2.596" rx="5.192" ry="2.596" transform="translate(0 11.683)" fill="#b8f2e6"/>
        <ellipse id="Elipse_11690" data-name="Elipse 11690" cx="5.192" cy="2.596" rx="5.192" ry="2.596" transform="translate(19.471)" fill="#b8f2e6"/>
        <ellipse id="Elipse_11691" data-name="Elipse 11691" cx="5.192" cy="2.596" rx="5.192" ry="2.596" transform="translate(38.943 11.683)" fill="#b8f2e6"/>
      </g>
      <path id="Trazado_885479" data-name="Trazado 885479" d="M41.439,41.953a6.49,6.49,0,0,0-1.973-4.673l-1.817,1.869a3.894,3.894,0,0,1,1.194,2.8,3.816,3.816,0,0,1-1.623,3.141,5.011,5.011,0,0,0-4.543,0,3.816,3.816,0,0,1-1.623-3.141,3.894,3.894,0,0,1,1.194-2.8L30.431,37.28a6.49,6.49,0,0,0,.234,9.541,4.6,4.6,0,0,0-.338.61A6.49,6.49,0,0,0,22.11,52.26l2.6.545a3.894,3.894,0,0,1,3.751-3.063,3.609,3.609,0,0,1,1.3.273,5.192,5.192,0,0,0,2.6,4.167,3.894,3.894,0,0,1-3.894,3.349,3,3,0,0,1-.636-.065l-.571,2.6a5.868,5.868,0,0,0,1.207.117,6.491,6.491,0,0,0,6.361-5.194h.259a6.49,6.49,0,0,0,6.361,5.192,5.867,5.867,0,0,0,1.207-.117l-.571-2.6a3,3,0,0,1-.636.065,3.894,3.894,0,0,1-3.894-3.349,5.192,5.192,0,0,0,2.6-4.167,3.609,3.609,0,0,1,1.3-.273,3.894,3.894,0,0,1,3.8,3.063l2.6-.545a6.49,6.49,0,0,0-8.217-4.829,4.6,4.6,0,0,0-.338-.61,6.49,6.49,0,0,0,2.155-4.868Zm-6.49,10.385a2.6,2.6,0,1,1,2.6-2.6A2.6,2.6,0,0,1,34.948,52.338Z" transform="translate(4.506 10.792)"/>
      <path id="Trazado_885480" data-name="Trazado 885480" d="M60.223,13.959a11.878,11.878,0,0,0-1.649.117A9.087,9.087,0,0,0,49.9,7.468a11.683,11.683,0,0,0-20.834,0A9.087,9.087,0,0,0,20.4,14.076a11.878,11.878,0,0,0-1.713-.117,11.683,11.683,0,1,0,5.543,21.964,9.2,9.2,0,0,0,7.438,1.025v4.5a20.769,20.769,0,1,0,15.577,0v-4.5a9.2,9.2,0,0,0,7.438-1.025,11.683,11.683,0,1,0,5.543-21.964Zm-2.6,46.731A18.173,18.173,0,1,1,33.392,43.568a1.3,1.3,0,0,0,.87-1.22v-7.62H44.646v7.62a1.3,1.3,0,0,0,.87,1.22A18.173,18.173,0,0,1,57.627,60.69ZM32.963,30.834a1.3,1.3,0,0,1,1.3-1.3H44.646a1.3,1.3,0,1,1,0,2.6H34.261A1.3,1.3,0,0,1,32.963,30.834Zm27.26,3.894a9.087,9.087,0,0,1-4.907-1.441,1.3,1.3,0,0,0-1.506.065,6.49,6.49,0,0,1-6.4.9h-.169v-.493a3.894,3.894,0,0,0-2.6-6.815H34.261a3.894,3.894,0,0,0-2.6,6.776v.493H31.5a6.49,6.49,0,0,1-6.4-.9,1.3,1.3,0,0,0-1.506-.065,9.087,9.087,0,1,1-4.907-16.693,9.255,9.255,0,0,1,2.337.312,1.3,1.3,0,0,0,1.558-1.1,6.49,6.49,0,0,1,7.1-5.7,1.3,1.3,0,0,0,1.3-.8,9.087,9.087,0,0,1,16.875,0,1.3,1.3,0,0,0,1.3.8,6.49,6.49,0,0,1,7.178,5.7,1.3,1.3,0,0,0,1.61,1.1,9.256,9.256,0,0,1,2.285-.312,9.087,9.087,0,0,1,0,18.173Z" transform="translate(0)"/>
      <path id="Trazado_885481" data-name="Trazado 885481" d="M18.49,17c-3.7,0-6.49,1.675-6.49,3.894s2.791,3.894,6.49,3.894,6.49-1.675,6.49-3.894S22.19,17,18.49,17Zm0,5.192c-2.518,0-3.894-.974-3.894-1.3s1.376-1.3,3.894-1.3,3.894.974,3.894,1.3S21.009,22.192,18.49,22.192Z" transform="translate(1.492 4.747)"/>
      <path id="Trazado_885482" data-name="Trazado 885482" d="M33.49,8C29.791,8,27,9.675,27,11.894s2.791,3.894,6.49,3.894,6.49-1.675,6.49-3.894S37.19,8,33.49,8Zm0,5.192c-2.518,0-3.894-.974-3.894-1.3s1.376-1.3,3.894-1.3,3.894.974,3.894,1.3S36.009,13.192,33.49,13.192Z" transform="translate(5.963 2.064)"/>
      <path id="Trazado_885483" data-name="Trazado 885483" d="M48.49,17c-3.7,0-6.49,1.675-6.49,3.894s2.791,3.894,6.49,3.894,6.49-1.675,6.49-3.894S52.19,17,48.49,17Zm0,5.192c-2.518,0-3.894-.974-3.894-1.3s1.376-1.3,3.894-1.3,3.894.974,3.894,1.3S51.009,22.192,48.49,22.192Z" transform="translate(10.435 4.747)"/>
      <path id="Trazado_885484" data-name="Trazado 885484" d="M23,15h2.6v2.6H23Z" transform="translate(4.771 4.151)"/>
      <path id="Trazado_885485" data-name="Trazado 885485" d="M31,17h2.6v2.6H31Z" transform="translate(7.156 4.747)"/>
      <path id="Trazado_885486" data-name="Trazado 885486" d="M39,15h2.6v2.6H39Z" transform="translate(9.54 4.151)"/>
    </g>
  </g>
</svg>
