<svg xmlns="http://www.w3.org/2000/svg" width="110" height="110" viewBox="0 0 110 110">
  <g id="Grupo_1108258" data-name="Grupo 1108258" transform="translate(-273.332 -3741.5)">
    <rect id="Rectángulo_402033" data-name="Rectángulo 402033" width="110" height="110" rx="5" transform="translate(273.332 3741.5)" fill="#d8b3fe"/>
    <g id="Grupo_1115397" data-name="Grupo 1115397" transform="translate(265.314 3756.234)">
      <g id="Grupo_1115389" data-name="Grupo 1115389" transform="translate(28.572 1.572)">
        <path id="Trazado_885467" data-name="Trazado 885467" d="M37.014,31.272c-.25,10.647,3.11,21.49,8.112,30.809,4.864,9.06,11.61,18.022,20.557,23.363a6.784,6.784,0,0,0,7.648,0,44.755,44.755,0,0,0,8.884-7.071A12.034,12.034,0,0,1,93.187,63.36c.241-.424.473-.852.7-1.28,5-9.318,8.357-20.162,8.112-30.809l-.089-3.759-3.284-1.828L69.507,10,40.383,25.685,37.1,27.513Zm12.347,11L62.8,43.934A6.392,6.392,0,0,1,65.3,39.6L57.147,28.8a17.024,17.024,0,0,1,24.068,0L73.059,39.6a6.392,6.392,0,0,1,2.508,4.338L89,42.271A17.009,17.009,0,0,1,76.963,63.1L71.689,50.649a6.493,6.493,0,0,1-5.015,0L61.4,63.1A17.009,17.009,0,0,1,49.361,42.271Z" transform="translate(-37.001 -10)" fill="#ffda8f" fill-rule="evenodd"/>
      </g>
      <g id="Grupo_1115390" data-name="Grupo 1115390" transform="translate(40.348 33.844)">
        <path id="Trazado_885468" data-name="Trazado 885468" d="M112.451,215.168A17.009,17.009,0,0,0,124.49,236l5.274-12.453a6.436,6.436,0,0,1-3.927-5.926,6.56,6.56,0,0,1,.049-.789Z" transform="translate(-111.868 -215.168)" fill="#b5cdcd" fill-rule="evenodd"/>
      </g>
      <g id="Grupo_1115391" data-name="Grupo 1115391" transform="translate(48.718 15.392)">
        <path id="Trazado_885469" data-name="Trazado 885469" d="M173.238,113.631a6.434,6.434,0,0,1,7.755,0l8.157-10.794a17.024,17.024,0,0,0-24.068,0Z" transform="translate(-165.081 -97.859)" fill="#b5cdcd" fill-rule="evenodd"/>
      </g>
      <g id="Grupo_1115392" data-name="Grupo 1115392" transform="translate(63.26 33.844)">
        <path id="Trazado_885470" data-name="Trazado 885470" d="M262.806,236a17.009,17.009,0,0,0,12.039-20.831l-13.435,1.663a6.551,6.551,0,0,1,.049.789,6.436,6.436,0,0,1-3.927,5.926Z" transform="translate(-257.532 -215.168)" fill="#b5cdcd" fill-rule="evenodd"/>
      </g>
      <g id="Grupo_1115393" data-name="Grupo 1115393" transform="translate(54.317 29.867)">
        <path id="Trazado_885471" data-name="Trazado 885471" d="M207.116,202.742a6.42,6.42,0,0,0,6.434-6.429,6.563,6.563,0,0,0-.049-.789,6.435,6.435,0,0,0-12.771,0,6.56,6.56,0,0,0-.049.789,6.42,6.42,0,0,0,6.434,6.429Z" transform="translate(-200.682 -189.883)" fill="#ecf2f3" fill-rule="evenodd"/>
      </g>
      <g id="Grupo_1115394" data-name="Grupo 1115394" transform="translate(73.406 54.915)">
        <path id="Trazado_885472" data-name="Trazado 885472" d="M322.42,364.16a12.03,12.03,0,1,0,11.651-15.03c-.228,0-.451,0-.678.018A12.034,12.034,0,0,0,322.42,364.16Z" transform="translate(-322.041 -349.13)" fill="#e0ef9b" fill-rule="evenodd"/>
      </g>
      <g id="Grupo_1115395" data-name="Grupo 1115395" transform="translate(26.998 -0.001)">
        <path id="Trazado_885473" data-name="Trazado 885473" d="M87.335,53.475c3.833-7.372,8.1-18.406,7.813-30.668l-.089-3.759a1.573,1.573,0,0,0-.807-1.337l-3.284-1.828-.019-.011L61.823.188a1.573,1.573,0,0,0-1.492,0L50.248,5.618a1.573,1.573,0,1,0,1.492,2.77l9.338-5.029L89.446,18.637l2.488,1.385L92,22.881c.279,12.1-4.156,23.007-7.923,30.023l-.293.539a13.6,13.6,0,0,0-11.722,16,42.747,42.747,0,0,1-7.97,6.227,5.229,5.229,0,0,1-6.035,0c-7.579-4.525-14.3-12.181-19.977-22.757-3.772-7.027-8.209-17.941-7.925-30.029l.064-2.858,2.487-1.384,6.585-3.544a1.573,1.573,0,1,0-1.491-2.77l-6.595,3.549-.02.011L27.9,17.711A1.573,1.573,0,0,0,27.1,19.05l-.085,3.757c-.3,12.773,4.347,24.229,8.3,31.59,5.95,11.084,13.062,19.149,21.137,23.971a8.389,8.389,0,0,0,9.259,0,44.953,44.953,0,0,0,7.436-5.613A13.6,13.6,0,1,0,87.335,53.475Zm-1.9,23.912A10.45,10.45,0,1,1,95.893,66.935,10.466,10.466,0,0,1,85.436,77.387Z" transform="translate(-26.998 0.001)"/>
        <path id="Trazado_885474" data-name="Trazado 885474" d="M102.485,107.513a18.582,18.582,0,0,0,13.152,22.757,1.571,1.571,0,0,0,1.855-.906l4.723-11.152a8.052,8.052,0,0,0,3.22,0l4.723,11.152a1.571,1.571,0,0,0,1.855.906,18.582,18.582,0,0,0,13.151-22.757,1.572,1.572,0,0,0-1.713-1.154l-12.031,1.489a8,8,0,0,0-1.611-2.784l7.3-9.665a1.573,1.573,0,0,0-.143-2.061,18.614,18.614,0,0,0-26.293,0,1.573,1.573,0,0,0-.143,2.061l7.3,9.666a8,8,0,0,0-1.611,2.784L104.2,106.359A1.57,1.57,0,0,0,102.485,107.513Zm21.34,7.716a4.856,4.856,0,1,1,4.861-4.856,4.864,4.864,0,0,1-4.861,4.856Zm7.982-4.258,10.614-1.314a15.441,15.441,0,0,1-9.923,17.167l-4.168-9.84A8,8,0,0,0,131.807,110.971Zm-17.9-16.328a15.474,15.474,0,0,1,19.835,0l-6.44,8.522a8,8,0,0,0-6.955,0Zm-8.679,15.014,10.614,1.314a8,8,0,0,0,3.476,6.013l-4.168,9.84a15.441,15.441,0,0,1-9.923-17.166Z" transform="translate(-90.071 -74.076)"/>
        <path id="Trazado_885475" data-name="Trazado 885475" d="M373.178,397.416l-4.129,4.555-1.519-1.16a1.573,1.573,0,0,0-1.909,2.5l2.668,2.038a1.573,1.573,0,0,0,2.12-.194l5.1-5.627a1.573,1.573,0,0,0-2.331-2.113Z" transform="translate(-311.837 -334.47)"/>
      </g>
      <g id="Grupo_1115396" data-name="Grupo 1115396" transform="translate(43.195 8.782)">
        <path id="Trazado_885476" data-name="Trazado 885476" d="M131.546,58.984a1.577,1.577,0,1,1,.711-.171l-.009,0A1.565,1.565,0,0,1,131.546,58.984Z" transform="translate(-129.972 -55.837)"/>
      </g>
    </g>
  </g>
</svg>
