<svg xmlns="http://www.w3.org/2000/svg" width="110" height="110" viewBox="0 0 110 110">
  <g id="Grupo_1108257" data-name="Grupo 1108257" transform="translate(-273.332 -3741.5)">
    <rect id="Rectángulo_402033" data-name="Rectángulo 402033" width="110" height="110" rx="5" transform="translate(273.332 3741.5)" fill="#d8b3fe"/>
    <g id="Grupo_1115388" data-name="Grupo 1115388" transform="translate(286.325 3755.457)">
      <g id="Grupo_1115378" data-name="Grupo 1115378" transform="translate(17.861 3.059)">
        <path id="Trazado_885455" data-name="Trazado 885455" d="M106.595,36.133h11.587c2.391-5.728,2.541-10.006,2.546-16.9a18.094,18.094,0,0,0-14.506,16.92A3.378,3.378,0,0,1,106.595,36.133Z" transform="translate(-106.222 -19.231)" fill="#ffda8f" fill-rule="evenodd"/>
      </g>
      <g id="Grupo_1115379" data-name="Grupo 1115379" transform="translate(39.722 3.141)">
        <path id="Trazado_885456" data-name="Trazado 885456" d="M243.651,19.746c.009,6.846.164,11.11,2.55,16.82h11.215a3.359,3.359,0,0,1,.368.018A18.086,18.086,0,0,0,243.651,19.746Z" transform="translate(-243.651 -19.746)" fill="#ffda8f" fill-rule="evenodd"/>
      </g>
      <g id="Grupo_1115380" data-name="Grupo 1115380" transform="translate(14.561 19.961)">
        <path id="Trazado_885457" data-name="Trazado 885457" d="M89.148,132.827H124.4a3.671,3.671,0,0,0,.368-7.324,3.321,3.321,0,0,0-.368-.018H89.148a3.383,3.383,0,0,0-.373.018,3.67,3.67,0,0,0-.127,7.287A3.588,3.588,0,0,0,89.148,132.827Z" transform="translate(-85.475 -125.485)" fill="#ffda8f" fill-rule="evenodd"/>
      </g>
      <g id="Grupo_1115381" data-name="Grupo 1115381" transform="translate(29.821 1.591)">
        <path id="Trazado_885458" data-name="Trazado 885458" d="M181.408,28.371h12.451c-2.387-5.71-2.541-9.974-2.55-16.82V10.8a.8.8,0,0,0-.8-.8h-5.764a.8.8,0,0,0-.8.8v.673C183.949,18.366,183.8,22.643,181.408,28.371Z" transform="translate(-181.408 -10.001)" fill="#ffe6b4" fill-rule="evenodd"/>
      </g>
      <g id="Grupo_1115382" data-name="Grupo 1115382" transform="translate(17.733 27.266)">
        <path id="Trazado_885459" data-name="Trazado 885459" d="M123.543,193.564a12.912,12.912,0,0,0,4.519-.918,20.049,20.049,0,0,0,5.35-3.041c4.846-3.791,8.26-9.615,8.26-14.5v-3.691a3.646,3.646,0,0,1-.5.036H105.919a3.6,3.6,0,0,1-.5-.036V175.1c0,4.887,3.414,10.71,8.26,14.5A20.135,20.135,0,0,0,119,192.641,12.837,12.837,0,0,0,123.543,193.564Z" transform="translate(-105.419 -171.411)" fill="#f5c6af" fill-rule="evenodd"/>
      </g>
      <g id="Grupo_1115383" data-name="Grupo 1115383" transform="translate(2.735 46.569)">
        <path id="Trazado_885460" data-name="Trazado 885460" d="M16.568,322.76H71.191a36.582,36.582,0,0,1-4.091-5.837,25.081,25.081,0,0,1-3.191-13.747,17.04,17.04,0,0,0,6.205-1.936,27.191,27.191,0,0,0-12.1-8.483c1.582,6.214-1.532,10.051-3.682,12.647l-10.078-9.8-10.074,9.8c-2.155-2.6-5.264-6.432-3.687-12.647-12.1,4.318-17.093,14.806-18.988,23.361-1.109,5.019.154,6.642,5.06,6.642Z" transform="translate(-11.135 -292.757)" fill="#ecf2f3" fill-rule="evenodd"/>
      </g>
      <g id="Grupo_1115384" data-name="Grupo 1115384" transform="translate(21.667 45.459)">
        <path id="Trazado_885461" data-name="Trazado 885461" d="M130.581,286.892c-1.577,6.214,1.532,10.051,3.687,12.647l10.074-9.8a12.837,12.837,0,0,1-4.541-.923,20.134,20.134,0,0,1-5.323-3.037A31.989,31.989,0,0,0,130.581,286.892Z" transform="translate(-130.15 -285.783)" fill="#b5cdcd" fill-rule="evenodd"/>
      </g>
      <g id="Grupo_1115385" data-name="Grupo 1115385" transform="translate(35.857 45.459)">
        <path id="Trazado_885462" data-name="Trazado 885462" d="M219.359,289.742l10.078,9.8c2.15-2.6,5.264-6.432,3.682-12.647a31.684,31.684,0,0,0-3.891-1.109,20.05,20.05,0,0,1-5.35,3.041A12.913,12.913,0,0,1,219.359,289.742Z" transform="translate(-219.359 -285.783)" fill="#b5cdcd" fill-rule="evenodd"/>
      </g>
      <g id="Grupo_1115386" data-name="Grupo 1115386" transform="translate(55.497 50.024)">
        <path id="Trazado_885463" data-name="Trazado 885463" d="M342.837,321.44a25.079,25.079,0,0,0,3.191,13.747,36.566,36.566,0,0,0,4.091,5.837c1.836,2.123,3.914,3.923,5.6,3.923,3.341,0,8.26-7.1,9.687-9.76a25.16,25.16,0,0,0,3.191-13.747c-4.473-.391-9.414-3.323-12.878-6.964a25.638,25.638,0,0,1-6.673,5.028A17.044,17.044,0,0,1,342.837,321.44Z" transform="translate(-342.825 -314.476)" fill="#e0ef9b" fill-rule="evenodd"/>
      </g>
      <g id="Grupo_1115387" data-name="Grupo 1115387" transform="translate(1.146 0)">
        <path id="Trazado_885464" data-name="Trazado 885464" d="M395.127,390.34a1.591,1.591,0,0,0-1.932,2.528l2.718,2.078a1.591,1.591,0,0,0,2.145-.2l5.2-5.737a1.591,1.591,0,0,0-2.358-2.136l-4.213,4.653Z" transform="translate(-330.307 -324.897)"/>
        <path id="Trazado_885465" data-name="Trazado 885465" d="M82.856,56.952A1.591,1.591,0,0,0,81.4,55.4c-3.784-.331-8.441-2.873-11.864-6.475a1.591,1.591,0,0,0-1.153-.5h0a1.591,1.591,0,0,0-1.152.494,24.086,24.086,0,0,1-5.16,4.1,28.719,28.719,0,0,0-11.863-7.933c-.041-.016-.082-.031-.124-.044q-.544-.193-1.1-.368c3.94-3.929,6.59-9.093,6.59-13.725v-2.5a5.261,5.261,0,0,0-.224-9.745A19.624,19.624,0,0,0,41.261,1.9,2.39,2.39,0,0,0,38.926,0H33.162a2.388,2.388,0,0,0-2.306,1.782A19.673,19.673,0,0,0,16.363,18.715a5.259,5.259,0,0,0-.221,9.745v2.5c0,4.628,2.651,9.794,6.59,13.726q-.54.17-1.07.356a1.581,1.581,0,0,0-.2.073A28.71,28.71,0,0,0,8.484,54.407a37.081,37.081,0,0,0-6.928,15.18c-.469,2.122-.822,4.789.625,6.59,1.413,1.76,3.942,1.985,5.988,1.985H18.574a1.591,1.591,0,0,0,0-3.181H8.169c-1.9,0-3.083-.268-3.507-.8-.449-.56-.449-1.876,0-3.91,1.653-7.446,5.7-16.559,15.435-21.159C19.8,54.489,22.709,58,24.56,60.231a1.591,1.591,0,0,0,2.333.125l8.965-8.718,8.969,8.719a1.591,1.591,0,0,0,1.109.45l.086,0a1.59,1.59,0,0,0,1.139-.574C49.009,58,51.916,54.484,51.62,49.122a25.359,25.359,0,0,1,7.469,5.366,13.756,13.756,0,0,1-3.718.916,1.591,1.591,0,0,0-1.452,1.548A26.691,26.691,0,0,0,57.3,71.482c.022.04.888,1.594,2.239,3.5H32.975a1.591,1.591,0,1,0,0,3.181H62.063c1.918,2.119,4.18,3.923,6.324,3.923,5.175,0,11.032-10.5,11.089-10.6a26.776,26.776,0,0,0,3.38-14.531ZM52.106,18.37H43.348c-1.655-4.322-1.968-7.887-2.024-13.119A16.447,16.447,0,0,1,52.106,18.37ZM33.956,3.181h4.175c.01,6.157.166,10.327,1.833,15.189H32.127C33.791,13.509,33.947,9.338,33.956,3.181ZM30.765,5.126c-.052,5.3-.357,8.887-2.021,13.245H19.613A16.661,16.661,0,0,1,30.765,5.126ZM18.233,21.552H28.875c.094.076.184.086.26,0H53.486a2.08,2.08,0,0,1,0,4.16H18.233a2.08,2.08,0,1,1,0-4.16Zm1.091,9.406V28.893H52.4v2.064c0,6.065-5.875,13.565-12.574,16.052a10.068,10.068,0,0,1-7.949,0C25.188,44.509,19.324,37.01,19.324,30.958Zm6.6,25.9a10.822,10.822,0,0,1-2.47-9.067q1.052-.34,2.178-.616a21.382,21.382,0,0,0,5.128,2.812c.577.214,1.133.391,1.676.538Zm19.867,0-6.516-6.334c.536-.146,1.085-.32,1.654-.532a21.367,21.367,0,0,0,5.152-2.817q1.114.271,2.177.615a10.828,10.828,0,0,1-2.467,9.068Zm30.88,13.122C74.792,73.49,70.386,78.9,68.388,78.9s-6.4-5.414-8.286-8.927A22.978,22.978,0,0,1,57.09,58.371a19.97,19.97,0,0,0,5.259-1.861,1.589,1.589,0,0,0,.181-.094,26.8,26.8,0,0,0,5.857-4.154,23.928,23.928,0,0,0,11.3,6.11A23.054,23.054,0,0,1,76.673,69.979Z" transform="translate(-1.146 0)"/>
        <path id="Trazado_885466" data-name="Trazado 885466" d="M147.565,471.373a1.591,1.591,0,0,0,0,3.181h.009a1.591,1.591,0,0,0-.009-3.181Z" transform="translate(-122.936 -396.392)"/>
      </g>
    </g>
  </g>
</svg>
