<svg id="Grupo_1112750" data-name="Grupo 1112750" xmlns="http://www.w3.org/2000/svg" width="122.486" height="122.486" viewBox="0 0 122.486 122.486">
  <rect id="Rectángulo_402033" data-name="Rectángulo 402033" width="122.486" height="122.486" rx="5" transform="translate(0)" fill="#d7f5ea"/>
  <g id="Layer_5" data-name="Layer 5" transform="translate(18.59 18.742)">
    <path id="Trazado_885423" data-name="Trazado 885423" d="M41.45,12.818,25.243,32.963,28.9,53.139H72.632L67.009,25.6,44.888,12.216a2.651,2.651,0,0,0-3.438.6Z" transform="translate(8.212 3.849)" fill="#dbe6fd"/>
    <path id="Trazado_885424" data-name="Trazado 885424" d="M0,0H5.3V5.3H0Z" transform="matrix(0.985, -0.174, 0.174, 0.985, 66.186, 39.107)" fill="#a7d0e1"/>
    <path id="Trazado_885425" data-name="Trazado 885425" d="M42.816,5.3,21.859,31.192a2.651,2.651,0,0,0,2.518,4.278l2.156-.38L42.74,14.946a2.651,2.651,0,0,1,3.438-.606L68.3,27.725l2.156-.38a2.651,2.651,0,0,0,.905-4.882Z" transform="translate(6.919 1.724)" fill="#ea5b5a"/>
    <path id="Trazado_885426" data-name="Trazado 885426" d="M43.987,12.976a1.325,1.325,0,0,1-.683-.19l-2.2-1.325a1.325,1.325,0,1,1,1.365-2.272l2.205,1.325a1.325,1.325,0,0,1-.684,2.461Z" transform="translate(13.161 2.928)" fill="#fff"/>
    <path id="Trazado_885427" data-name="Trazado 885427" d="M25.835,31.192,45.49,6.913,42.816,5.3,21.859,31.192a2.651,2.651,0,0,0,2.518,4.278l2.1-.37a2.651,2.651,0,0,1-.639-3.908Z" transform="translate(6.919 1.724)" fill="#e04b4b"/>
    <path id="Trazado_885428" data-name="Trazado 885428" d="M72.632,53.14l-.812-3.976H49.256A21.188,21.188,0,0,1,29.57,35.789a5.281,5.281,0,0,1,.819-5.244L41.45,16.795a2.651,2.651,0,0,1,3.438-.606L67.009,29.575l.783-.139L67.009,25.6,44.888,12.213a2.651,2.651,0,0,0-3.438.606L27.994,29.549l-2.751,3.419.588,3.246L28.9,53.14Z" transform="translate(8.212 3.848)" fill="#bbcff2"/>
    <path id="Trazado_885429" data-name="Trazado 885429" d="M0,0H5.3V5.3H0Z" transform="matrix(0.985, -0.174, 0.174, 0.985, 40.08, 43.72)" fill="#a7d0e1"/>
    <path id="Trazado_885430" data-name="Trazado 885430" d="M30.256,33.171l.879,4.984,3.272-.578a21.174,21.174,0,0,1-4.151-4.407Z" transform="translate(9.842 10.791)" fill="#80bbce"/>
    <circle id="Elipse_11686" data-name="Elipse 11686" cx="3.976" cy="3.976" r="3.976" transform="translate(49.671 25.242)" fill="#a7d0e1"/>
    <path id="Trazado_885431" data-name="Trazado 885431" d="M83.169,43V69.506H1V43H27.506l5.3,5.3-2.651,2.651,3.976,3.976v6.627l3.976-3.976v-5.3l-1.325-1.325V43Z" transform="translate(0.325 13.988)" fill="#fcab68"/>
    <path id="Trazado_885432" data-name="Trazado 885432" d="M4.976,43H1V69.506H83.169V65.53H27.506A22.53,22.53,0,0,1,4.976,43Z" transform="translate(0.325 13.988)" fill="#ea8e49"/>
    <path id="Trazado_885433" data-name="Trazado 885433" d="M8,27h5.3V48.2H8Z" transform="translate(2.602 8.783)" fill="#fcab68"/>
    <path id="Trazado_885434" data-name="Trazado 885434" d="M8,37.1a7.263,7.263,0,0,0,5.3,0V27H8Z" transform="translate(2.602 8.783)" fill="#ea8e49"/>
    <ellipse id="Elipse_11687" data-name="Elipse 11687" cx="9" cy="12" rx="9" ry="12" transform="translate(4.41 19.41)" fill="#72aa65"/>
    <path id="Trazado_885435" data-name="Trazado 885435" d="M16.253,34.665c-5.124,0-9.277-5.34-9.277-11.928A14.227,14.227,0,0,1,8.8,15.661C5.4,17.436,3,21.708,3,26.713,3,33.3,7.153,38.64,12.277,38.64a8.809,8.809,0,0,0,7.456-4.852,7.492,7.492,0,0,1-3.48.876Z" transform="translate(0.976 5.095)" fill="#599149"/>
    <path id="Trazado_885436" data-name="Trazado 885436" d="M51.421,47.057H40.66l-2.2-12.5A2.643,2.643,0,0,1,40.607,31.5l5.222-.928A2.66,2.66,0,0,1,48.9,32.717Z" transform="translate(12.498 9.931)" fill="#ea5b5a"/>
    <path id="Trazado_885437" data-name="Trazado 885437" d="M44.619,40.157a21.136,21.136,0,0,1-5.122-.641l.812,4.617H51.071l-.7-3.976Z" transform="translate(12.848 12.855)" fill="#e04b4b"/>
    <path id="Trazado_885438" data-name="Trazado 885438" d="M50.407,36.379a1.325,1.325,0,0,0,.761.24,1.366,1.366,0,0,0,.231-.02l5.22-.928a1.325,1.325,0,0,0,1.075-1.536l-.928-5.22a1.325,1.325,0,0,0-1.535-1.075l-5.22.928A1.325,1.325,0,0,0,48.936,30.3l.92,5.22a1.325,1.325,0,0,0,.551.856Zm3.985-5.692.461,2.611-2.611.46-.46-2.61Z" transform="translate(15.912 9.05)"/>
    <path id="Trazado_885439" data-name="Trazado 885439" d="M36.531,31.538a1.325,1.325,0,0,0-.99-.22l-5.222.928a1.325,1.325,0,0,0-1.075,1.536L30.172,39a1.325,1.325,0,0,0,1.3,1.1,1.383,1.383,0,0,0,.232-.02l5.22-.928A1.325,1.325,0,0,0,38,37.614l-.928-5.22a1.315,1.315,0,0,0-.545-.856Zm-3.985,5.691-.46-2.615,2.611-.46.46,2.61Z" transform="translate(9.506 10.181)"/>
    <path id="Trazado_885440" data-name="Trazado 885440" d="M47,22.425a8.672,8.672,0,1,0,0,.007Zm-4.759,3.531a2.651,2.651,0,1,1,2.15-3.068,2.651,2.651,0,0,1-2.15,3.068Z" transform="translate(11.867 5.872)"/>
    <path id="Trazado_885441" data-name="Trazado 885441" d="M83.494,54.263H81.926L76.791,29.119l.815-.144a3.976,3.976,0,0,0,1.358-7.322L50.417,4.494a1.325,1.325,0,0,0-1.712.3L27.748,30.683A3.973,3.973,0,0,0,31.529,37.1l.857-.151,3.4,18.753V63.54a1.325,1.325,0,0,0,.388.937l.937.937v4.2l-1.325,1.325V67.516a1.325,1.325,0,0,0-.388-.937L32.356,63.54l1.714-1.714a1.325,1.325,0,0,0,0-1.874l-5.3-5.3a1.325,1.325,0,0,0-.937-.388h-10.6V42.685c3.88-1.971,6.627-6.727,6.627-12.278,0-7.308-4.757-13.253-10.6-13.253S2.651,23.1,2.651,30.407c0,5.55,2.746,10.307,6.627,12.278V54.263H1.325A1.325,1.325,0,0,0,0,55.588V82.094a1.325,1.325,0,0,0,1.325,1.325H83.494a1.325,1.325,0,0,0,1.325-1.325V55.588A1.325,1.325,0,0,0,83.494,54.263ZM31.069,34.49a1.325,1.325,0,0,1-1.26-2.139L50.039,7.359,77.606,23.925a1.325,1.325,0,0,1-.453,2.441l-1.666.293-8.824-5.337a1.325,1.325,0,0,0-1.373,2.266l8.747,5.3L79.22,54.263H73.113l-.872-4.943L74.084,46.7a1.326,1.326,0,1,0-2.172-1.52L70.077,47.8,68,48.166a1.325,1.325,0,0,0,.228,2.631,1.383,1.383,0,0,0,.232-.02l1.3-.231.663,3.719h-5.4L62.707,41.022A3.976,3.976,0,0,0,58.095,37.8l-5.219.928a3.968,3.968,0,0,0-3.223,4.6l1.927,10.939H38.215L34.866,35.775l4.143-5.149,1.276.893-1.39,1.988a1.325,1.325,0,0,0,.325,1.846l4.607,3.226a1.326,1.326,0,0,0,1.52-2.172l-3.52-2.468,1.39-1.988a1.325,1.325,0,0,0-.326-1.846l-2.217-1.553L50.694,16.094a1.325,1.325,0,0,1,1.723-.3l8.5,5.143a1.325,1.325,0,1,0,1.374-2.262l-8.5-5.145a3.989,3.989,0,0,0-5.155.909L32.735,34.2Zm21.194,8.375a1.319,1.319,0,0,1,1.073-1.527l5.216-.928A1.325,1.325,0,0,1,60.1,41.481l2.245,12.781H54.27ZM5.3,30.407c0-5.846,3.566-10.6,7.952-10.6s7.952,4.757,7.952,10.6-3.566,10.6-7.952,10.6S5.3,36.253,5.3,30.407Zm6.627,13.138a8.449,8.449,0,0,0,1.325.115,8.449,8.449,0,0,0,1.325-.115V54.263H11.928ZM82.169,80.769H54.337v-2.1L56.6,76.4a1.325,1.325,0,1,0-1.874-1.874l-1.713,1.714-1.325-1.325V71.492a1.325,1.325,0,0,0-2.651,0v2.651H47.711a1.325,1.325,0,0,0,0,2.651h2.1l1.874,1.874v2.1H2.651V56.913H14.03l3.976,3.976-6.627,6.627H6.627a1.325,1.325,0,0,0,0,2.651h4.753l2.262,2.262a1.325,1.325,0,1,0,1.874-1.874L13.8,68.841l7.015-7.015a1.325,1.325,0,0,0,0-1.874l-3.039-3.039h9.505l3.976,3.976L29.545,62.6a1.325,1.325,0,0,0,0,1.874l3.588,3.588v6.078a1.325,1.325,0,0,0,2.262.937L39.371,71.1a1.325,1.325,0,0,0,.388-.937v-5.3a1.325,1.325,0,0,0-.388-.937l-.937-.937V56.913H68.367l-2.651,2.651h-2.1a1.325,1.325,0,1,0,0,2.651h2.1l3.2,3.2v3.427a1.325,1.325,0,0,0,.388.937l3.976,3.976a1.325,1.325,0,1,0,1.874-1.874l-3.588-3.587v-2.1h2.651a1.325,1.325,0,0,0,0-2.651H70.79l-2.651-2.651,3.976-3.976H82.169Z" transform="translate(0 1.4)"/>
    <path id="Trazado_885442" data-name="Trazado 885442" d="M17.325,10.6a1.325,1.325,0,0,0,.937-.388l1.326-1.326a3.2,3.2,0,0,0,0-4.525.549.549,0,0,1,0-.777l1.325-1.325A1.325,1.325,0,1,0,19.039.388L17.714,1.714a3.2,3.2,0,0,0,0,4.525.549.549,0,0,1,0,.777L16.388,8.34a1.325,1.325,0,0,0,.937,2.262Z" transform="translate(5.205 0)"/>
    <path id="Trazado_885443" data-name="Trazado 885443" d="M20.388,8.34a1.325,1.325,0,1,0,1.874,1.874l1.325-1.325a3.2,3.2,0,0,0,0-4.525.549.549,0,0,1,0-.777l1.325-1.325A1.325,1.325,0,1,0,23.039.388L21.714,1.714a3.2,3.2,0,0,0,0,4.525.549.549,0,0,1,0,.777Z" transform="translate(6.506 0)"/>
    <path id="Trazado_885444" data-name="Trazado 885444" d="M57.325,12.6a1.325,1.325,0,0,0,.937-.388l1.326-1.326a3.2,3.2,0,0,0,0-4.525.549.549,0,0,1,0-.777l1.325-1.325a1.325,1.325,0,1,0-1.874-1.874L57.714,3.714a3.2,3.2,0,0,0,0,4.525.549.549,0,0,1,0,.777L56.388,10.34a1.325,1.325,0,0,0,.937,2.262Z" transform="translate(18.217 0.651)"/>
    <path id="Trazado_885445" data-name="Trazado 885445" d="M60.388,10.34a1.325,1.325,0,1,0,1.874,1.874l1.325-1.325a3.2,3.2,0,0,0,0-4.525.549.549,0,0,1,0-.777l1.325-1.325a1.325,1.325,0,1,0-1.874-1.874L61.714,3.714a3.2,3.2,0,0,0,0,4.525.549.549,0,0,1,0,.777Z" transform="translate(19.518 0.651)"/>
    <path id="Trazado_885446" data-name="Trazado 885446" d="M18.388,35.714a1.325,1.325,0,1,0,1.874,1.874l1.325-1.325a1.325,1.325,0,1,0-1.874-1.874Z" transform="translate(5.855 11.06)"/>
    <path id="Trazado_885447" data-name="Trazado 885447" d="M63.588,24.388a1.325,1.325,0,0,0-1.874,0l-1.325,1.325a1.325,1.325,0,1,0,1.874,1.874l1.325-1.325A1.325,1.325,0,0,0,63.588,24.388Z" transform="translate(19.518 7.807)"/>
    <path id="Trazado_885448" data-name="Trazado 885448" d="M24.651,39.651V38.325a1.325,1.325,0,0,0-2.651,0v1.325a1.325,1.325,0,0,0,2.651,0Z" transform="translate(7.157 12.036)"/>
    <path id="Trazado_885449" data-name="Trazado 885449" d="M62.262,29.388a1.325,1.325,0,1,0-1.874,1.874l1.325,1.325a1.325,1.325,0,1,0,1.874-1.874Z" transform="translate(19.518 9.434)"/>
  </g>
</svg>
