<svg xmlns="http://www.w3.org/2000/svg" width="99" height="99" viewBox="0 0 99 99">
  <g id="Grupo_1115855" data-name="Grupo 1115855" transform="translate(-622.711 -8028)">
    <rect id="Rectángulo_407975" data-name="Rectángulo 407975" width="99" height="99" rx="10" transform="translate(622.711 8028)" fill="#75b8fb"/>
    <g id="XMLID_1215_" transform="translate(639.422 8044.425)">
      <path id="XMLID_3115_" d="M18.712,89.887a4.818,4.818,0,1,0-6.742,6.742,6.275,6.275,0,1,0,6.742-6.742Z" transform="translate(-8.748 -76.574)" fill="#cbe558"/>
      <path id="XMLID_3114_" d="M184.116,14.805a7.122,7.122,0,0,0-13.378,0,6.417,6.417,0,1,0,6.689,10.085,6.417,6.417,0,1,0,6.689-10.085Z" transform="translate(-144.638 -8.72)" fill="#cbe558"/>
      <path id="XMLID_3113_" d="M59.351,210.039a25.187,25.187,0,1,1,50.374,0c0,13.91-9.331,14.879-23.242,14.879s-27.133-.968-27.133-14.879Z" transform="translate(-51.749 -161.065)" fill="#80b6ff"/>
      <g id="Grupo_1115107" data-name="Grupo 1115107" transform="translate(7.602 29.4)">
        <path id="XMLID_3112_" d="M69.218,272.745a6.275,6.275,0,0,1,2.54-5.042,4.442,4.442,0,0,0-2.644-8.012h-4.35a25.08,25.08,0,0,0-5.413,15.6c0,4.37,1.305,7.461,3.526,9.648l6.341-11.463v-.732Z" transform="translate(-59.351 -255.719)" fill="#89df8f"/>
        <path id="XMLID_3111_" d="M320.883,228.732a10.078,10.078,0,0,0-1.044-.056,7.682,7.682,0,0,0-4.161,14.139l2.664,1.717a4.94,4.94,0,0,1,.264,8.121,4.985,4.985,0,0,0-2.018,4.006,3.675,3.675,0,0,0,3.675,3.675,8.327,8.327,0,0,0,7.443-4.6,26.878,26.878,0,0,0,2.445-7.428c0-.018,0-.034,0-.052A25.136,25.136,0,0,0,320.883,228.732Z" transform="translate(-279.777 -228.676)" fill="#89df8f"/>
        <path id="XMLID_3110_" d="M215.832,301.07a4.17,4.17,0,0,0-4.28-.908,4.761,4.761,0,0,0-3.159,4.483v2.033a3.69,3.69,0,0,0,6.925,1.775l1.294-2.358A4.17,4.17,0,0,0,215.832,301.07Z" transform="translate(-189.303 -290.793)" fill="#89df8f"/>
      </g>
      <path id="XMLID_3106_" d="M41.508,283.1v0a15.1,15.1,0,0,0-4.423-10.677,10.571,10.571,0,0,0-7.475-3.1L23.787,263.5a3.467,3.467,0,0,0-4.9,4.9l6.751,6.751.516.516-7.463-7.463A8.506,8.506,0,0,1,16.2,262.2v-8.132a3.1,3.1,0,0,0-6.2,0v7.283a19.938,19.938,0,0,0,5.84,14.1l7.653,7.653Z" transform="translate(-8.719 -218.71)" fill="#f2d2bd"/>
      <path id="XMLID_3103_" d="M256,283.1v0a15.1,15.1,0,0,1,4.423-10.677,10.571,10.571,0,0,1,7.475-3.1l5.824-5.824a3.467,3.467,0,0,1,4.9,4.9l-6.751,6.751-.516.516,7.463-7.463a8.506,8.506,0,0,0,2.491-6.014v-8.132a3.1,3.1,0,0,1,6.2,0v7.283a19.938,19.938,0,0,1-5.84,14.1l-7.653,7.653Z" transform="translate(-223.209 -218.71)" fill="#f2d2bd"/>
      <path id="XMLID_1630_" d="M394.787,89.887a4.818,4.818,0,1,1,6.742,6.742,6.275,6.275,0,1,1-6.742-6.742Z" transform="translate(-339.174 -76.574)" fill="#cbe558"/>
      <g id="XMLID_638_" transform="translate(0 0.127)">
        <path id="XMLID_665_" d="M208,291.4a5.423,5.423,0,0,0-5.594-1.187,6.054,6.054,0,0,0-4.01,5.689v2.033a4.971,4.971,0,0,0,9.329,2.391l1.293-2.358A5.457,5.457,0,0,0,208,291.4Zm-1.227,5.336-1.293,2.358a2.409,2.409,0,0,1-4.521-1.159V295.9a3.488,3.488,0,0,1,2.309-3.277,2.89,2.89,0,0,1,3.505,4.111Z" transform="translate(-172.983 -252.776)"/>
        <path id="XMLID_673_" d="M390.607,464.287l-3.577,3.577a1.281,1.281,0,1,0,1.811,1.811l3.577-3.577a1.281,1.281,0,0,0-1.811-1.811Z" transform="translate(-337.131 -404.509)"/>
        <path id="XMLID_682_" d="M64.018,32a4.379,4.379,0,0,0-7.2,3.351v2.518a26.526,26.526,0,0,0-6.5-8.73l2.273-2.885a7.509,7.509,0,0,0,3.51.868,7.592,7.592,0,0,0,7.468-6.412A6.1,6.1,0,1,0,54.956,12.1a7.55,7.55,0,0,0-4.4,12.6l-2.24,2.842a26.442,26.442,0,0,0-14.248-5V18.984A7.7,7.7,0,1,0,40.429,5.033a8.4,8.4,0,0,0-15.281,0,7.7,7.7,0,1,0,6.359,13.951v3.554a26.443,26.443,0,0,0-14.248,5L15.021,24.7a7.55,7.55,0,0,0-4.4-12.6A6.1,6.1,0,1,0,2.01,20.713a7.592,7.592,0,0,0,7.468,6.412,7.509,7.509,0,0,0,3.51-.868l2.273,2.885a26.526,26.526,0,0,0-6.5,8.73V35.354a4.379,4.379,0,1,0-8.759,0v7.283a21.08,21.08,0,0,0,6.215,15l7.653,7.653a1.281,1.281,0,0,0,1.811-1.811L8.026,55.83A18.536,18.536,0,0,1,2.562,42.637V35.355a1.818,1.818,0,0,1,3.635,0v8.132a9.723,9.723,0,0,0,2.866,6.92l6.947,6.947.516.516a1.281,1.281,0,0,0,1.811-1.811l-7.267-7.267A2.186,2.186,0,1,1,14.162,45.7l5.824,5.824a1.281,1.281,0,0,0,.906.375,9.23,9.23,0,0,1,6.569,2.721,13.729,13.729,0,0,1,4.048,9.772,1.281,1.281,0,0,0,2.562,0,13.729,13.729,0,0,1,4.048-9.772A9.229,9.229,0,0,1,44.687,51.9a1.281,1.281,0,0,0,.906-.375L51.416,45.7a2.186,2.186,0,0,1,3.091,3.091L47.24,56.058a1.281,1.281,0,1,0,1.811,1.811l.516-.516,6.947-6.947a9.723,9.723,0,0,0,2.866-6.92V35.355a1.818,1.818,0,0,1,3.635,0v7.283A18.717,18.717,0,0,1,60.774,51.5a1.281,1.281,0,1,0,2.254,1.218,21.288,21.288,0,0,0,2.55-10.085V35.355A4.369,4.369,0,0,0,64.018,32ZM55.712,14.59a1.281,1.281,0,0,0,.928-.511,3.537,3.537,0,1,1,4.949,4.95,1.281,1.281,0,0,0-.511.928,4.994,4.994,0,1,1-5.367-5.367ZM22.528,12.309a5.127,5.127,0,0,1,3.883-4.982,1.281,1.281,0,0,0,.892-.8,5.841,5.841,0,0,1,10.972,0,1.281,1.281,0,0,0,.892.8,5.136,5.136,0,1,1-4.851,8.645l2.319-2.319a1.281,1.281,0,0,0-1.811-1.811l-.754.754V8.288a1.281,1.281,0,0,0-2.562,0v5.6l-2.04-2.04a1.281,1.281,0,0,0-1.811,1.811l2.9,2.9a5.138,5.138,0,0,1-8.026-4.248ZM4.5,19.957a1.281,1.281,0,0,0-.511-.928,3.537,3.537,0,1,1,4.949-4.95,1.28,1.28,0,0,0,.928.511A4.994,4.994,0,1,1,4.5,19.957ZM9.47,43.691a23.69,23.69,0,0,1,4.2-9.038h3.7a3.161,3.161,0,0,1,1.881,5.7,7.583,7.583,0,0,0-2.773,4.034l-.5-.5a4.753,4.753,0,0,0-6.5-.2Zm34.674,5.658a11.766,11.766,0,0,0-7.838,3.459,16.36,16.36,0,0,0-3.517,5.213,16.36,16.36,0,0,0-3.517-5.213,11.767,11.767,0,0,0-7.838-3.459L18.75,46.665v-.238a5.014,5.014,0,0,1,2.022-4.013,5.723,5.723,0,0,0-3.406-10.322H15.9A23.8,23.8,0,0,1,45.087,28.5a8.962,8.962,0,0,0-2.278,16.117l2.664,1.716a3.657,3.657,0,0,1,.884.8ZM49.6,43.889l-1.429,1.429a6.216,6.216,0,0,0-1.315-1.139L44.2,42.463a6.4,6.4,0,0,1,3.467-11.782h.477a23.865,23.865,0,0,1,7.967,13.01A4.753,4.753,0,0,0,49.6,43.889Z" transform="translate(0 -0.127)"/>
        <path id="XMLID_1075_" d="M447.688,432.1a1.279,1.279,0,1,0,.906.374A1.291,1.291,0,0,0,447.688,432.1Z" transform="translate(-389.23 -376.769)"/>
      </g>
    </g>
  </g>
</svg>
