<svg xmlns="http://www.w3.org/2000/svg" width="190" height="110" viewBox="0 0 190 110">
  <g id="Grupo_1115213" data-name="Grupo 1115213" transform="translate(-179.711 -9672)">
    <rect id="Rectángulo_408046" data-name="Rectángulo 408046" width="190" height="110" transform="translate(179.711 9672)" fill="#81c784"/>
    <g id="Grupo_1115212" data-name="Grupo 1115212" transform="translate(132.505 9687.622)">
      <g id="Grupo_1115211" data-name="Grupo 1115211" transform="translate(67.517 1.531)">
        <path id="Trazado_885004" data-name="Trazado 885004" d="M112.241,47.785h45.786a2.25,2.25,0,0,1,.293-1.767c3.046-4.542.915-6.641-2.125-6.958-2.418-.253-5.174-.09-5.743-.977-2.032-3.167-3.732-3.793-5.646-3.991-12.869-1.332-5.935-6.144-9.9-8.185-4.819-2.482,2.447-10.992,7.684-11.214,3.432-.145-.663-9.423-9.117-1.65-1.432,1.317-6.009,2.588-8.512,3.323-2.885.847-1.374,1.963-3.767,5.549-2.307,3.457-2,.356-3.088,2.494-1.362,2.686-2.617,3.008-3.624,3.086-2.824.219-5.436,5.2-3.507,7.937,2.115,3,.683,10.632.971,11.335A5.072,5.072,0,0,1,112.241,47.785Z" transform="translate(-105.032 -9.943)" fill="#ffc144" fill-rule="evenodd"/>
        <path id="Trazado_885005" data-name="Trazado 885005" d="M128.967,255.943H83.181c.557,3.068-1.168,7.36-3.73,7.512-4.881.29-1.468,2.44-3.076,3.415-1.516.919,1.7,3.783,2.249,3.761,3.443-.136,6.815,6.683,8.775,3.316.245-.421,2.179.093,4.272.918h27.012c.761-1.751,2.583-.981,3.264-2.3,1.184-2.284-1.48-4.251.194-5.254,3.318-1.988,5.255,3.412,8.377,1.561,2.685-1.592-2.118-6.455-.618-8.128,1.079-1.2-.588-3.051-.933-4.8Z" transform="translate(-75.972 -218.101)" fill="#60a4ff" fill-rule="evenodd"/>
        <path id="Trazado_885006" data-name="Trazado 885006" d="M205.037,378.943H178.025c2.633,1.038,5.518,2.568,5.614,3.352.367,3.005,2.277,1.233,2.237,2.563-.094,3.158,2.267,2.01,2.392,2.917.59,4.279,6.056,2.13,7.4,1.974,6.321-.739,3.395,8.728,7.188,8.084s1.766-5.246,2.333-9.09c.393-2.66,1.588-2.912.77-5.9-.523-1.91-1.517-2.445-.942-3.846Z" transform="translate(-162.326 -322.18)" fill="#ff5a58" fill-rule="evenodd"/>
      </g>
      <path id="Trazado_885007" data-name="Trazado 885007" d="M113.838,204.021a1.538,1.538,0,0,0,1.538-1.538h0a1.538,1.538,0,1,0-1.538,1.539Z" transform="translate(-39.195 -170.032)"/>
      <path id="Trazado_885008" data-name="Trazado 885008" d="M124.389,50.166a12.207,12.207,0,0,0-.99-3.006,9.128,9.128,0,0,1-.715-2.065c1.242-1.514.43-3.332-.112-4.545-.442-.99-.736-1.719-.489-2.087,1.724-2.571,2.174-4.781,1.336-6.57-.729-1.558-2.356-2.543-4.579-2.776-.69-.072-1.386-.111-2.059-.149a14.136,14.136,0,0,1-2.656-.293c-2.233-3.409-4.288-4.279-6.676-4.527-4.143-.429-5.787-1.206-6.436-1.783-.541-.481-.579-.979-.609-1.971A4.29,4.29,0,0,0,98.1,16.127c-.565-.291-.9-.688-.68-1.677.579-2.629,4.671-6.5,7.725-6.632a2.684,2.684,0,0,0,2.59-2.058A4.828,4.828,0,0,0,105.255.807C103.9,0,100.191-1.349,94.92,3.5c-1.072.985-5.329,2.227-7.375,2.824l-.529.155A4.051,4.051,0,0,0,83.762,9.72a9.837,9.837,0,0,1-1.36,2.928,7.656,7.656,0,0,1-.767,1.007c-1.468-.219-2.146,1.119-2.413,1.646-1.09,2.149-1.861,2.209-2.371,2.248a5.548,5.548,0,0,0-3.837,2.319,7.87,7.87,0,0,0-1.668,5.919,1.538,1.538,0,1,0,3.033-.518,4.859,4.859,0,0,1,1.061-3.51,2.673,2.673,0,0,1,1.648-1.143c1.385-.107,3.18-.64,4.825-3.822,1.18-.036,2.093-1.008,3.048-2.439a12.864,12.864,0,0,0,1.744-3.741c.28-.922.28-.922,1.177-1.186l.524-.153C92.092,8.2,95.523,7.123,97,5.763c2.615-2.4,5.036-3.255,6.641-2.335a2.272,2.272,0,0,1,1.083,1.335,11.735,11.735,0,0,0-6.352,3.07,11.93,11.93,0,0,0-3.962,5.956,4.3,4.3,0,0,0,2.276,5.074c.541.278.606.445.641,1.624a5.253,5.253,0,0,0,1.641,4.18c1.476,1.311,4.07,2.119,8.162,2.543,1.405.145,2.714.493,4.509,3.291.84,1.309,2.661,1.411,4.968,1.54.636.036,1.294.072,1.911.137a2.564,2.564,0,0,1,2.112,1.02c.333.712-.07,2.007-1.106,3.551a3.56,3.56,0,0,0-.494,1.085H74.726a1.538,1.538,0,0,0-1.514,1.813,6.828,6.828,0,0,1-1.175,4.927,1.844,1.844,0,0,1-1.132.775c-1.956.116-3.066.522-3.711,1.359a2.864,2.864,0,0,0-.391,2.453l.009.044a2.374,2.374,0,0,0-.707,2.6c.432,1.435,2.632,3.856,4.125,3.791h.042c.907,0,2.218,1.12,3.274,2.022C74.976,58.841,76.332,60,77.9,59.833h.052a1.528,1.528,0,0,0,.8-.226,3.075,3.075,0,0,0,1.049-.794,21.287,21.287,0,0,1,3.807,1.307,16.584,16.584,0,0,1,3.743,2.042c.325,1.919,1.294,2.588,2.206,2.84a3.238,3.238,0,0,0,2.534,3.089,4.184,4.184,0,0,0,1.66,2.4c2.009,1.374,4.84.7,6.531.3.294-.07.626-.149.752-.164,1.89-.222,2.374.62,3.05,3.629a10.365,10.365,0,0,0,.933,2.876,2.985,2.985,0,0,0,2.666,1.621,3.688,3.688,0,0,0,.617-.054,4,4,0,0,0,3.413-2.971,12.46,12.46,0,0,0,.171-4.034,16.986,16.986,0,0,1,.014-3.377,8.022,8.022,0,0,1,.521-1.855,6.4,6.4,0,0,0,.211-4.675,10.262,10.262,0,0,0-.767-1.928c-.337-.681-.331-.7-.235-.928.11-.268.17-.32.845-.518a3.486,3.486,0,0,0,2.385-1.708,5.125,5.125,0,0,0,.009-4.3c-.05-.146-.11-.322-.154-.469.625-.268,1.157-.015,2.438.85,1.324.894,3.324,2.245,5.7.837a3.246,3.246,0,0,0,1.541-3.463Zm-14.845,15.2a11.013,11.013,0,0,0-.689,2.5,19.537,19.537,0,0,0-.042,4.011c.194,3.225-.036,3.619-1.027,3.787l-.058.008a8.223,8.223,0,0,1-.643-2.093,11.12,11.12,0,0,0-1.479-4.022,4.752,4.752,0,0,0-4.09-2.038,7.216,7.216,0,0,0-.84.05,10.291,10.291,0,0,0-1.107.227c-1.038.247-3.2.761-4.082.156a1.336,1.336,0,0,1-.5-1.039,2.191,2.191,0,0,0-1.925-1.757,2.677,2.677,0,0,1-.364-.1,1.95,1.95,0,0,1-.09-.807,2.029,2.029,0,0,0-2.033-2.186l-.085-.01a2.637,2.637,0,0,1-.13-.6,2.486,2.486,0,0,0-1.006-1.627h19.216a5.911,5.911,0,0,0,.537,1.39,7.278,7.278,0,0,1,.558,1.378A3.451,3.451,0,0,1,109.544,65.37Zm11.8-14.437a.282.282,0,0,1-.068.05c-.586.348-.968.23-2.406-.741-1.374-.928-3.451-2.331-5.977-.817-1.911,1.144-1.255,3.061-.94,3.982.28.819.439,1.35.176,1.874a3.354,3.354,0,0,1-.525.182,4.226,4.226,0,0,0-2.225,1.294H83.5a20.589,20.589,0,0,0-3.01-.939c-.592-.122-2.166-.445-2.882.785a1.5,1.5,0,0,1-.093.143,10.53,10.53,0,0,1-1.977-1.466c-1.466-1.252-3.115-2.661-5.064-2.754a6.1,6.1,0,0,1-1.265-1.29,2.759,2.759,0,0,0,.61-2.649,7,7,0,0,1,1.262-.165,4.651,4.651,0,0,0,3.369-1.945,9.894,9.894,0,0,0,1.906-5.564h43.021c.125.322.259.622.38.894a6,6,0,0,1,.5,1.384c-1.278,1.474-.438,3.441.3,5.179C120.849,49.024,121.5,50.561,121.346,50.933Z"/>
    </g>
    <g id="Grupo_1115216" data-name="Grupo 1115216" transform="translate(274.711 9673.635)">
      <g id="Grupo_1115214" data-name="Grupo 1115214" transform="translate(1.194 16.198)">
        <path id="Trazado_885009" data-name="Trazado 885009" d="M230.823,322.145l-17.817,4.975v5.7h28.4Z" transform="translate(-180.296 -274.45)" fill="#cce8b0"/>
        <path id="Trazado_885010" data-name="Trazado 885010" d="M99.812,228.482,98.119,217.5l-32.391-7H60.953l-32.391,7L26.87,228.482l22.146,4.963.4-4.82a15.514,15.514,0,0,1,13.922-7.815,15.514,15.514,0,0,1,13.922,7.815l.4,4.82Z" transform="translate(-23.787 -180.572)" fill="#f3f1f4"/>
        <path id="Trazado_885011" data-name="Trazado 885011" d="M67.505,211.012v7.8l-30,6.487v2.388l32.391-7V210.5Z" transform="translate(-32.727 -180.572)" fill="#c8c3ca"/>
        <path id="Trazado_885012" data-name="Trazado 885012" d="M273.39,211.012v7.8l30,6.487v2.388l-32.391-7V210.5Z" transform="translate(-229.061 -180.572)" fill="#c8c3ca"/>
        <path id="Trazado_885013" data-name="Trazado 885013" d="M17.5,388.321l44.462-1.592L72.8,383.153l-3.013-9.2c0-1.974-2.641-2.886-10.441-2.886l-40.254,13.28Z" transform="translate(-15.91 -315.581)" fill="#dcf2f6"/>
        <path id="Trazado_885014" data-name="Trazado 885014" d="M53.556,450.6H13.073a2.388,2.388,0,0,1-2.388-2.388L7.5,451.4a2.388,2.388,0,0,0,2.388,2.388H50.373L64.94,448.69l-.546-1.667Z" transform="translate(-7.502 -379.451)" fill="#b2e5fb"/>
        <path id="Trazado_885015" data-name="Trazado 885015" d="M154.012,355.544l15.67-5.416a4.432,4.432,0,0,0-2.872-2.167l-16.687-4.373h-3.948l-.869,5.77,6.741,5.864A2.542,2.542,0,0,0,154.012,355.544Z" transform="translate(-123.372 -292.479)" fill="#b3e59f"/>
        <path id="Trazado_885016" data-name="Trazado 885016" d="M146.881,384.433a2.543,2.543,0,0,1-1.964-.322l-6.741-4.272-1.35,8.964,23.477-5.826c1.434-.356,2.386-.859,2.386-1.7a1.765,1.765,0,0,0-.139-.671Z" transform="translate(-116.242 -322.96)" fill="#7fcb8f"/>
        <path id="Trazado_885017" data-name="Trazado 885017" d="M241,198.476v-12.3a.478.478,0,0,1,.276-.433l1.91-.891a.478.478,0,0,1,.4,0l1.91.891a.478.478,0,0,1,.276.433v12.3Z" transform="translate(-203.836 -158.972)" fill="#f3f1f4"/>
        <path id="Trazado_885018" data-name="Trazado 885018" d="M16.206,229.743l-1.91-.891a.476.476,0,0,0-.2-.045L12.5,239.422l3.979.716v-9.962A.478.478,0,0,0,16.206,229.743Z" transform="translate(-11.706 -195.969)" fill="#f5deb2"/>
        <path id="Trazado_885019" data-name="Trazado 885019" d="M9.89,228.806a.479.479,0,0,0-.2.045l-1.91.891a.478.478,0,0,0-.276.433v10.837l4.775,5.441v-6.316l-2.388-.716Z" transform="translate(-7.502 -195.968)" fill="#f4c497"/>
        <path id="Trazado_885020" data-name="Trazado 885020" d="M483.206,225.743l-1.91-.891a.476.476,0,0,0-.2-.045L479.5,237.65l3.979-2.308v-9.166A.478.478,0,0,0,483.206,225.743Z" transform="translate(-404.374 -192.605)" fill="#f5deb2"/>
        <path id="Trazado_885021" data-name="Trazado 885021" d="M476.89,224.806a.479.479,0,0,0-.2.045l-1.91.891a.478.478,0,0,0-.275.433v15.477l4.775-4.64v-1.671l-2.388.716Z" transform="translate(-400.17 -192.605)" fill="#f4c497"/>
        <path id="Trazado_885022" data-name="Trazado 885022" d="M171.767,280.616H174.2a19.022,19.022,0,0,0-4.469-12.277l-3.1-1.239-1.978-3.028a18.973,18.973,0,0,0-6.234-2.269l-3.317.565-3.317-.565a18.972,18.972,0,0,0-6.234,2.269l-1.973,3.075-3.107,1.191A19.023,19.023,0,0,0,136,280.616h2.435c0-7.365,10.219-16.665,16.68-16.665s16.651,9.3,16.651,16.665Z" transform="translate(-115.548 -223.713)" fill="#f5deb2"/>
        <path id="Trazado_885023" data-name="Trazado 885023" d="M180.762,282.576l-4.432-3.723a16.553,16.553,0,0,0-5.439-1.98h-5.818a16.556,16.556,0,0,0-5.439,1.98l-4.432,3.723a16.6,16.6,0,0,0-3.9,10.712h2.34a14.266,14.266,0,0,1,3.352-9.208l1.422-1.952,2.388-1.248a14.23,14.23,0,0,1,4.676-1.7l2.5-.807,2.5.807a14.232,14.232,0,0,1,4.676,1.7l2.388,1.248,1.422,1.952a14.267,14.267,0,0,1,3.352,9.208h2.34A16.6,16.6,0,0,0,180.762,282.576Z" transform="translate(-128.413 -236.385)" fill="#f4c497"/>
        <path id="Trazado_885024" data-name="Trazado 885024" d="M175.818,262.681l-.423-2.4a19.261,19.261,0,0,1,6.634,0l-.423,2.4Zm15.66,5.7,1.865-1.565a19.189,19.189,0,0,0-5.08-4.267l-1.218,2.109Zm-21.1-3.723-1.218-2.109a19.19,19.19,0,0,0-5.08,4.267l1.865,1.565Z" transform="translate(-139.158 -222.193)" fill="#f4c497"/>
        <path id="Trazado_885025" data-name="Trazado 885025" d="M191.461,275.547l-.406,2.3a14.449,14.449,0,0,0-4.976,0l-.406-2.3a16.809,16.809,0,0,1,5.788,0Zm5.439,1.98-1.17,2.026a14.4,14.4,0,0,1,3.81,3.2l1.792-1.5A16.739,16.739,0,0,0,196.9,277.527Zm-21.1,3.723,1.792,1.5a14.4,14.4,0,0,1,3.81-3.2l-1.17-2.026A16.739,16.739,0,0,0,175.8,281.249Z" transform="translate(-149.013 -235.058)" fill="#e3a76f"/>
        <path id="Trazado_885026" data-name="Trazado 885026" d="M132.84,348.155v-6.093a2.388,2.388,0,0,0-2.388-2.388H127.53l-.968,7.413Z" transform="translate(-107.611 -289.19)" fill="#f4c497"/>
        <path id="Trazado_885027" data-name="Trazado 885027" d="M117.642,350.359l7.7,2.623v-4.826a46.875,46.875,0,0,0-5.31-2.572v-5.908h-2.388Z" transform="translate(-100.111 -289.19)" fill="#e3a76f"/>
        <path id="Trazado_885028" data-name="Trazado 885028" d="M358.95,339.676h-2.406l-.822,10.824,3.228-3.323Z" transform="translate(-300.296 -289.191)" fill="#f4c497"/>
        <path id="Trazado_885029" data-name="Trazado 885029" d="M348.371,347.9v-8.214A2.387,2.387,0,0,0,346,342.069v10.6h4.775v-5.488l-1.8,1.059A.4.4,0,0,1,348.371,347.9Z" transform="translate(-292.123 -289.196)" fill="#e3a76f"/>
        <path id="Trazado_885030" data-name="Trazado 885030" d="M278.093,23.535a22.714,22.714,0,0,0-11.432-.568l-.822,10.756c2.5-.546,7.574-1.275,12.253.4,6.523,2.337,13.819-1.592,13.819-1.592v-9S284.616,25.872,278.093,23.535Z" transform="translate(-224.721 -22.497)" fill="#f8e883"/>
        <path id="Trazado_885031" data-name="Trazado 885031" d="M258.39,25.454a21.692,21.692,0,0,0-2.388.568v9a2.552,2.552,0,0,0,2.388,1.024Z" transform="translate(-216.448 -24.983)" fill="#eec06b"/>
        <path id="Trazado_885032" data-name="Trazado 885032" d="M275.784,80.063c-4.68-1.677-9.757-.948-12.253-.4l-.437,6.466c2.3-.545,7.718-1.48,12.69.3,6.523,2.337,13.819-1.592,13.819-1.592V80.063S282.307,82.4,275.784,80.063Z" transform="translate(-222.412 -70.027)" fill="#5a86cc"/>
        <path id="Trazado_885033" data-name="Trazado 885033" d="M258.39,81.983a21.738,21.738,0,0,0-2.388.568v4.775a2.552,2.552,0,0,0,2.388,1.024Z" transform="translate(-216.448 -72.515)" fill="#3b68b0"/>
        <path id="Trazado_885034" data-name="Trazado 885034" d="M274.025,110.063c-4.972-1.782-10.394-.847-12.69-.3L261,113.474c2.684-.5,8.811-.941,13.023.568,6.522,2.337,13.818-1.591,13.819-1.592v-2.388S280.548,112.4,274.025,110.063Z" transform="translate(-220.653 -95.252)" fill="#d97b7b"/>
        <path id="Trazado_885035" data-name="Trazado 885035" d="M256,112.55v4.775s7.3-2.337,13.819,0,13.819,0,13.819,0v-2.388s-7.3,2.337-13.819,0a22.714,22.714,0,0,0-11.432-.568v-2.388A21.734,21.734,0,0,0,256,112.55Z" transform="translate(-216.448 -97.739)" fill="#d16161"/>
        <path id="Trazado_885036" data-name="Trazado 885036" d="M288.432,307.571v7.5c0,2.438-.7,3.351-3.564,4.871s-13.013,6.814-13.013,6.814a2.355,2.355,0,0,0,2.386,2.275s34.4-.708,34.645-.8V301.494Z" transform="translate(-229.778 -257.086)" fill="#b3e59f"/>
        <path id="Trazado_885037" data-name="Trazado 885037" d="M265.485,461.681c-1.442,0-2-.317-2.067-1.479l-.266.136a2.388,2.388,0,0,0,1.06,4.527H298.06a2.388,2.388,0,0,0,2.388-2.388v-.8H265.485Z" transform="translate(-221.341 -390.533)" fill="#7fcb8f"/>
        <path id="Trazado_885038" data-name="Trazado 885038" d="M33.441,323.654v-7.5L19.094,311.7,17.5,337.346s23.005-8.02,23.618-8.238C40.907,327.016,38.728,325.609,33.441,323.654Z" transform="translate(-15.91 -265.669)" fill="#b3e59f"/>
        <path id="Trazado_885039" data-name="Trazado 885039" d="M7.5,332.394l19.9-4.638c3.806-.887,5.329-1.834,5.329-3.514a3.45,3.45,0,0,0-.019-.352,19.142,19.142,0,0,1-2.127.683l-18.342,4.3a1.3,1.3,0,0,1-1.558-1.262V306.482L7.5,305.494v26.9" transform="translate(-7.502 -260.449)" fill="#7fcb8f"/>
      </g>
      <g id="Grupo_1115215" data-name="Grupo 1115215" transform="translate(0 15.006)">
        <path id="Trazado_885040" data-name="Trazado 885040" d="M77.914,91.724H44.065a3.581,3.581,0,0,1-1.59-6.79l11.4-5.683V74.565c0-.185,0-.617-1.419-1.032a19.2,19.2,0,0,0-4.068-.567,3.05,3.05,0,0,1,.444,1.551c0,2.039-2.478,2.654-3.292,2.856l-18.549,4.6c-1.083,1.5-3.411,2.174-5.63,2.691L2.756,89a1.19,1.19,0,0,0,.825.332H37.387a1.194,1.194,0,1,1,0,2.388H3.581A3.585,3.585,0,0,1,0,88.143V61.271c0-.018,0-.037,0-.055V50.1a1.194,1.194,0,0,1,.689-1.082l2.388-1.114a1.194,1.194,0,0,1,1.01,0l2.388,1.114A1.193,1.193,0,0,1,7.163,50.1v1.545l30-6.487V43.1a1.194,1.194,0,0,1,.689-1.082l1.7-.793V18.147a2.381,2.381,0,0,1,1.81-2.317c2.279-.564,8.166-1.666,13.605.282,4.413,1.581,9.228.889,11.705.335a2.386,2.386,0,0,1,2.9,2.331v16.1a2.381,2.381,0,0,1-1.81,2.317c-2.279.564-8.166,1.666-13.605-.283-4.835-1.732-10.2-.711-12.223-.212v4.527l1.7.793a1.193,1.193,0,0,1,.689,1.082v2.061l15.254,3.3a1.194,1.194,0,0,1-.5,2.334L44.329,47.6v5.356l30,6.487V54.088L63.271,51.7a1.194,1.194,0,1,1,.5-2.334l10.557,2.283V49.464a1.194,1.194,0,0,1,.689-1.082l2.388-1.114a1.194,1.194,0,0,1,1.01,0l2.388,1.114a1.193,1.193,0,0,1,.689,1.082V60.606a1.194,1.194,0,0,1-.854,1.144l-19.6,5.824v6.609c0,3.6-1.6,4.975-5.439,6.876L43.537,87.072a1.194,1.194,0,0,0,.528,2.265H77.914a1.2,1.2,0,0,0,1.194-1.194V65.54a1.194,1.194,0,0,1,2.388,0v22.6a3.585,3.585,0,0,1-3.581,3.581ZM2.388,62.863V86.639l18.435-4.3c4.406-1.027,4.406-1.922,4.406-2.352,0-1.348-1.132-2.547-6.918-4.687a1.194,1.194,0,0,1-.78-1.12v-6.62ZM27.616,73.1v6.26l17.352-4.306a3.446,3.446,0,0,0,1.477-.594c-.064-.567-1.081-1.357-2.116-1.628L28.39,68.657a13.072,13.072,0,0,0-.774,4.444Zm28.65,0V78c2.173-1.29,2.388-2.141,2.388-3.815V67.877H57.46a1.2,1.2,0,0,0-1.194,1.194Zm-36.348.255a24.5,24.5,0,0,1,5.31,2.583V69.071a1.2,1.2,0,0,0-1.194-1.194H19.919Zm24.867-2.871c3.915.006,7.007.219,8.991.978a13.13,13.13,0,0,0-24.354-5l4.471,1.172L46.556,64.1a1.194,1.194,0,0,1,.642,2.3l-8.724,2.436Zm8.578-6.412a15.525,15.525,0,0,1,1.485,2.549,3.576,3.576,0,0,1,2.127-1.1A17.765,17.765,0,0,0,55.2,62.533ZM24.519,65.522a3.577,3.577,0,0,1,2.127,1.1,15.525,15.525,0,0,1,1.485-2.549L26.3,62.533A17.754,17.754,0,0,0,24.519,65.522Zm35.047-.033h.109L72.865,61.57,53.619,57.409A20.225,20.225,0,0,1,59.566,65.49Zm-40.66,0h3.024A20.322,20.322,0,0,1,37.166,53.121V47.6l-30,6.487v5.356l15.824-3.421a1.194,1.194,0,1,1,.5,2.334L7.243,61.87ZM49.515,60.3a15.634,15.634,0,0,1,2.312,1.943l1.831-1.536a18.1,18.1,0,0,0-2.952-2.47Zm-21.679.407,1.831,1.536A15.643,15.643,0,0,1,31.98,60.3l-1.191-2.063a18.1,18.1,0,0,0-2.952,2.47ZM2.388,60.363l2.388.741v-.157c0-.016,0-.032,0-.049V50.861L3.581,50.3l-1.194.557Zm74.332.061,2.388-.709V50.225l-1.194-.557-1.194.557ZM44.61,58.069a15.389,15.389,0,0,1,2.839,1.037l1.19-2.061a17.965,17.965,0,0,0-3.615-1.325ZM32.855,57.044l1.19,2.061a15.389,15.389,0,0,1,2.839-1.037l-.414-2.35a17.955,17.955,0,0,0-3.615,1.325Zm7.892.538q.764,0,1.511.073l.415-2.355a17.841,17.841,0,0,0-3.853,0l.415,2.355Q39.982,57.583,40.747,57.582ZM39.554,46.147v6.694a20.746,20.746,0,0,1,2.388,0V46.147c0-.016,0-.032,0-.049V43.858L40.747,43.3l-1.194.557V46.1C39.554,46.115,39.554,46.131,39.554,46.147Zm8.515-12.6a20.531,20.531,0,0,1,6.9,1.113c4.826,1.729,10.158.725,12.226.212V32.692c-2.589.582-7.98,1.389-13.031-.421-4.835-1.732-10.2-.711-12.224-.212v2.18a28.489,28.489,0,0,1,6.128-.692Zm0-4.637a20.531,20.531,0,0,1,6.9,1.113c4.836,1.733,10.205.711,12.225.212v-2.18c-2.589.582-7.979,1.389-13.03-.421-4.819-1.727-10.2-.708-12.225-.211V29.6a28.467,28.467,0,0,1,6.129-.692Zm0-4.637a20.531,20.531,0,0,1,6.9,1.113c4.835,1.732,10.2.711,12.224.212V18.779c-2.726.609-8.048,1.366-13.028-.418-4.826-1.729-10.158-.725-12.226-.212v6.818a28.5,28.5,0,0,1,6.13-.692Z" transform="translate(0 -15.006)"/>
      </g>
    </g>
  </g>
</svg>
