<svg xmlns="http://www.w3.org/2000/svg" xmlns:xlink="http://www.w3.org/1999/xlink" width="190" height="67" viewBox="0 0 190 67">
  <defs>
    <clipPath id="clip-path">
      <rect id="Rectángulo_409415" data-name="Rectángulo 409415" width="161.684" height="38.386" fill="none"/>
    </clipPath>
    <clipPath id="clip-path-3">
      <rect id="Rectángulo_409408" data-name="Rectángulo 409408" width="14.637" height="8.149" fill="none"/>
    </clipPath>
    <clipPath id="clip-path-4">
      <rect id="Rectángulo_409410" data-name="Rectángulo 409410" width="20.635" height="14.593" fill="none"/>
    </clipPath>
    <clipPath id="clip-path-5">
      <rect id="Rectángulo_409411" data-name="Rectángulo 409411" width="3.053" height="10.478" fill="none"/>
    </clipPath>
    <clipPath id="clip-path-6">
      <rect id="Rectángulo_409412" data-name="Rectángulo 409412" width="10.366" height="4.312" fill="none"/>
    </clipPath>
    <clipPath id="clip-path-7">
      <rect id="Rectángulo_409413" data-name="Rectángulo 409413" width="8.354" height="8.354" fill="none"/>
    </clipPath>
  </defs>
  <g id="Grupo_1115853" data-name="Grupo 1115853" transform="translate(-179.711 -8825)">
    <rect id="Rectángulo_408042" data-name="Rectángulo 408042" width="190" height="67" transform="translate(179.711 8825)" fill="#d7f5ea"/>
    <g id="Grupo_1115127" data-name="Grupo 1115127" transform="translate(194.158 8839.307)">
      <g id="Grupo_1115126" data-name="Grupo 1115126" clip-path="url(#clip-path)">
        <g id="Grupo_1115125" data-name="Grupo 1115125" transform="translate(0 0)">
          <g id="Grupo_1115124" data-name="Grupo 1115124" clip-path="url(#clip-path)">
            <g id="Grupo_1115111" data-name="Grupo 1115111" transform="translate(10.396 19.155)" opacity="0.43">
              <g id="Grupo_1115110" data-name="Grupo 1115110">
                <g id="Grupo_1115109" data-name="Grupo 1115109" clip-path="url(#clip-path-3)">
                  <path id="Trazado_884966" data-name="Trazado 884966" d="M410.519,763.608l2.8-7.237,9.259.2,2.583,6.838-.912,1.114H411.633Z" transform="translate(-410.519 -756.371)" fill="#2ba03f"/>
                </g>
              </g>
            </g>
            <path id="Trazado_884967" data-name="Trazado 884967" d="M31.611,31.591a13.389,13.389,0,0,0-5.433,9.737,5.9,5.9,0,0,0,.146,1.8.644.644,0,0,0,1.14.237,40.214,40.214,0,0,1,10.212-8.438c-1.3,2.715-6.552,8.014-8.642,9.752A19.963,19.963,0,0,1,22.2,47.748,16.381,16.381,0,0,1,7.813,19.526l-.035-.046a16.378,16.378,0,0,1,26.229,6.294,1.166,1.166,0,0,0,2.177-.84A18.719,18.719,0,0,0,.015,32.424a1.056,1.056,0,0,0,.019.156A18.718,18.718,0,0,0,29.658,46.934c.16.076.324.147.492.212a8.884,8.884,0,0,0,7.161-.834c7.979-4.173,9.981-18.225,9.981-18.225.04-.338-11.008-.017-15.681,3.5" transform="translate(0 -12.623)" fill="#2ba03f"/>
            <path id="Trazado_884968" data-name="Trazado 884968" d="M403.16,298.16H390.812a1.775,1.775,0,0,1-1.786-1.734,3.585,3.585,0,0,1,.013-.733,17.574,17.574,0,0,1,1.042-2.686l3-7.645a2.2,2.2,0,0,0,.153-.806v-6.294a1.139,1.139,0,0,1,1.14-1.14H399.6a1.139,1.139,0,0,1,1.139,1.139v6.182a2.2,2.2,0,0,0,.153.806l3.048,7.757a16.816,16.816,0,0,1,1,2.574h0a4.183,4.183,0,0,1,.012.845,1.775,1.775,0,0,1-1.786,1.734m-12.7-2.212c-.005.071,0,.27.008.409v.045a.33.33,0,0,0,.343.315H403.16a.33.33,0,0,0,.343-.315v-.045a4.987,4.987,0,0,0,.009-.516,16.766,16.766,0,0,0-.9-2.244l-.009-.02-.008-.021-3.112-7.92a2.836,2.836,0,0,1-.2-1.037V279.01a.633.633,0,0,0-.633-.633h-3.344a.633.633,0,0,0-.633.633v5.319l0,.166a2.406,2.406,0,0,1-.158.927l-3.12,8.155-.009.02a17.594,17.594,0,0,0-.939,2.352m0-.008h0Zm13.055-.091h0" transform="translate(-379.162 -270.105)" fill="#2ba03f"/>
            <rect id="Rectángulo_409409" data-name="Rectángulo 409409" width="8.965" height="1.443" transform="translate(13.232 18.617)" fill="#2ba03f"/>
            <path id="Trazado_884969" data-name="Trazado 884969" d="M2436.613,24.012a10.205,10.205,0,0,0-4.141,7.421,4.489,4.489,0,0,0,.111,1.372.491.491,0,0,0,.869.18,30.654,30.654,0,0,1,7.783-6.431c-.99,2.069-4.994,6.108-6.587,7.433a15.216,15.216,0,0,1-5.208,2.339,12.485,12.485,0,0,1-10.965-21.51l-.027-.035a12.392,12.392,0,0,1,4.075-2.447,12.548,12.548,0,0,1,1.625-.468l.014,0V2.143a.715.715,0,0,1,.05-.264h5.132a.72.72,0,0,1,.05.264v9.721a12.561,12.561,0,0,1,9.045,7.714.889.889,0,0,0,1.659-.64,14.332,14.332,0,0,0-9.065-8.477V1.879h.557a.937.937,0,1,0,0-1.874h-1.764c-.028,0-.057,0-.086,0h-5.923c-.031,0-.062,0-.092,0h-1.835a.937.937,0,1,0,0,1.874h.633v8.578a14.3,14.3,0,0,0-9.991,14.19.824.824,0,0,0,.015.119,14.266,14.266,0,0,0,22.578,10.94c.122.058.247.112.375.162a6.771,6.771,0,0,0,5.458-.636c6.081-3.18,7.607-13.89,7.607-13.89.031-.257-8.39-.013-11.952,2.671" transform="translate(-2351.424 -0.001)" fill="#2ba03f"/>
            <g id="Grupo_1115114" data-name="Grupo 1115114" transform="translate(64.692 20.13)" opacity="0.43">
              <g id="Grupo_1115113" data-name="Grupo 1115113">
                <g id="Grupo_1115112" data-name="Grupo 1115112" clip-path="url(#clip-path-4)">
                  <path id="Trazado_884970" data-name="Trazado 884970" d="M2554.738,796.84A10.5,10.5,0,0,0,2568.16,809a1.393,1.393,0,0,0,.971-1.334s0-.006,0-.01a12.637,12.637,0,0,1,5.531-10.306,1.154,1.154,0,0,0,.447-1.259l0-.015a1.159,1.159,0,0,0-.83-.8,13.579,13.579,0,0,0-7.078.176,20.106,20.106,0,0,1-10.791.319,1.39,1.39,0,0,0-1.667,1.068" transform="translate(-2554.519 -794.889)" fill="#2ba03f"/>
                </g>
              </g>
            </g>
            <path id="Trazado_884971" data-name="Trazado 884971" d="M4548.649,31.591a13.39,13.39,0,0,0-5.433,9.737,5.907,5.907,0,0,0,.146,1.8.645.645,0,0,0,1.141.237,40.2,40.2,0,0,1,10.212-8.438c-1.3,2.715-6.553,8.014-8.643,9.752a19.963,19.963,0,0,1-6.834,3.068,16.382,16.382,0,0,1-14.386-28.222l-.035-.046a16.378,16.378,0,0,1,26.229,6.294,1.166,1.166,0,0,0,2.176-.84,18.719,18.719,0,0,0-36.168,7.49,1.16,1.16,0,0,0,.02.156A18.717,18.717,0,0,0,4546.7,46.934c.161.076.324.147.493.212a8.883,8.883,0,0,0,7.161-.834c7.979-4.173,9.981-18.225,9.981-18.225.041-.338-11.008-.017-15.682,3.5" transform="translate(-4402.647 -12.623)" fill="#2ba03f"/>
            <path id="Trazado_884972" data-name="Trazado 884972" d="M5101.585,566.675a3.533,3.533,0,1,1-3.533-3.533,3.533,3.533,0,0,1,3.533,3.533" transform="translate(-4965.503 -548.881)" fill="#2ba03f"/>
            <path id="Trazado_884973" data-name="Trazado 884973" d="M5399.533,312.649a2.507,2.507,0,1,1-2.507-2.507,2.508,2.508,0,0,1,2.507,2.507" transform="translate(-5257.906 -302.288)" fill="#2ba03f"/>
            <path id="Trazado_884974" data-name="Trazado 884974" d="M4797.533,489.649a2.507,2.507,0,1,1-2.507-2.507,2.507,2.507,0,0,1,2.507,2.507" transform="translate(-4671.151 -474.805)" fill="#2ba03f"/>
            <path id="Trazado_884975" data-name="Trazado 884975" d="M5075.533,983.649a2.507,2.507,0,1,1-2.507-2.507,2.507,2.507,0,0,1,2.507,2.507" transform="translate(-4942.111 -956.295)" fill="#2ba03f"/>
            <g id="Grupo_1115117" data-name="Grupo 1115117" transform="translate(130.048 18.497)" opacity="0.43">
              <g id="Grupo_1115116" data-name="Grupo 1115116">
                <g id="Grupo_1115115" data-name="Grupo 1115115" clip-path="url(#clip-path-5)">
                  <path id="Trazado_884976" data-name="Trazado 884976" d="M5136.684,740.879l-1.174-.161a.267.267,0,0,1-.229-.3l1.345-9.782a.267.267,0,0,1,.3-.228l1.174.161a.268.268,0,0,1,.229.3l-1.345,9.782a.267.267,0,0,1-.3.228" transform="translate(-5135.279 -730.404)" fill="#2ba03f"/>
                </g>
              </g>
            </g>
            <g id="Grupo_1115120" data-name="Grupo 1115120" transform="translate(123.539 14.19)" opacity="0.43">
              <g id="Grupo_1115119" data-name="Grupo 1115119">
                <g id="Grupo_1115118" data-name="Grupo 1115118" clip-path="url(#clip-path-6)">
                  <path id="Trazado_884977" data-name="Trazado 884977" d="M4878.272,561.677l.316-1.142a.268.268,0,0,1,.329-.186l9.516,2.636a.268.268,0,0,1,.186.329l-.317,1.142a.268.268,0,0,1-.329.186l-9.516-2.636a.269.269,0,0,1-.186-.329" transform="translate(-4878.262 -560.339)" fill="#2ba03f"/>
                </g>
              </g>
            </g>
            <g id="Grupo_1115123" data-name="Grupo 1115123" transform="translate(131.788 9.435)" opacity="0.43">
              <g id="Grupo_1115122" data-name="Grupo 1115122">
                <g id="Grupo_1115121" data-name="Grupo 1115121" clip-path="url(#clip-path-7)">
                  <path id="Trazado_884978" data-name="Trazado 884978" d="M5211.437,372.623l.838.838a.268.268,0,0,1,0,.378l-6.981,6.982a.269.269,0,0,1-.378,0l-.838-.838a.268.268,0,0,1,0-.378l6.982-6.982a.268.268,0,0,1,.378,0" transform="translate(-5203.999 -372.545)" fill="#2ba03f"/>
                </g>
              </g>
            </g>
          </g>
        </g>
      </g>
    </g>
  </g>
</svg>
