<svg xmlns="http://www.w3.org/2000/svg" width="110" height="110" viewBox="0 0 110 110">
  <g id="Grupo_1112850" data-name="Grupo 1112850" transform="translate(-273.332 -3741.5)">
    <rect id="Rectángulo_402033" data-name="Rectángulo 402033" width="110" height="110" rx="5" transform="translate(273.332 3741.5)" fill="#d8b3fe"/>
    <g id="Grupo_1115430" data-name="Grupo 1115430" transform="translate(293.904 3762.072)">
      <path id="Trazado_885536" data-name="Trazado 885536" d="M71.178,154.328H9.562A2.062,2.062,0,0,1,7.5,152.266v-38.2A2.062,2.062,0,0,1,9.562,112H71.178a2.062,2.062,0,0,1,2.063,2.062v38.2A2.062,2.062,0,0,1,71.178,154.328Zm0,0" transform="translate(-6.508 -97.186)" fill="#5793c9"/>
      <path id="Trazado_885537" data-name="Trazado 885537" d="M462.878,112H458.91a2.062,2.062,0,0,1,2.062,2.062v38.2a2.062,2.062,0,0,1-2.062,2.063h3.968a2.062,2.062,0,0,0,2.062-2.063v-38.2A2.062,2.062,0,0,0,462.878,112Zm0,0" transform="translate(-398.208 -97.185)" fill="#4c87bd"/>
      <path id="Trazado_885538" data-name="Trazado 885538" d="M95.3,142v34.391H37.5V142Zm0,0" transform="translate(-32.54 -123.217)" fill="#b5fcff"/>
      <path id="Trazado_885539" data-name="Trazado 885539" d="M444.5,142h3.968v34.391H444.5Zm0,0" transform="translate(-385.704 -123.217)" fill="#8cf2ff"/>
      <path id="Trazado_885540" data-name="Trazado 885540" d="M148.111,478.468H113.984a1.984,1.984,0,0,1,0-3.968h34.127a1.984,1.984,0,0,1,0,3.968Zm0,0" transform="translate(-97.185 -411.736)" fill="#5793c9"/>
      <path id="Trazado_885541" data-name="Trazado 885541" d="M358.86,474.5h-3.985a1.984,1.984,0,0,1,0,3.968h3.985a1.984,1.984,0,0,0,0-3.968Zm0,0" transform="translate(-307.934 -411.736)" fill="#4c87bd"/>
      <path id="Trazado_885542" data-name="Trazado 885542" d="M211,432h11.9v5.622H211Zm0,0" transform="translate(-183.09 -374.857)" fill="#b5fcff"/>
      <path id="Trazado_885543" data-name="Trazado 885543" d="M211,432h11.9v5.622H211Zm0,0" transform="translate(-183.09 -374.857)" fill="#dcdfe8"/>
      <path id="Trazado_885544" data-name="Trazado 885544" d="M271,432h3.968v5.622H271Zm0,0" transform="translate(-235.154 -374.857)" fill="#cbcdd9"/>
      <path id="Trazado_885545" data-name="Trazado 885545" d="M179.773,193.445a.025.025,0,0,0,.015-.022c0-.128.144-.836.291-1.524a1.77,1.77,0,0,1,3.461,0c.147.688.291,1.4.291,1.524a.023.023,0,0,0,.014.021l2.439,1.01a.024.024,0,0,0,.026,0c.09-.09.693-.489,1.283-.871a1.77,1.77,0,0,1,2.448,2.447c-.382.591-.781,1.193-.872,1.283a.023.023,0,0,0,0,.025l1.01,2.439a.023.023,0,0,0,.022.014c.128,0,.835.144,1.523.291a1.77,1.77,0,0,1,0,3.461c-.688.147-1.4.291-1.523.291a.024.024,0,0,0-.022.016l-1.01,2.437a.023.023,0,0,0,0,.026c.09.09.489.693.871,1.283a1.77,1.77,0,0,1-2.447,2.448c-.591-.382-1.194-.781-1.283-.872a.024.024,0,0,0-.026,0l-2.438,1.01a.025.025,0,0,0-.015.022c0,.128-.144.836-.291,1.524a1.77,1.77,0,0,1-3.461,0c-.147-.688-.291-1.4-.291-1.524a.025.025,0,0,0-.015-.022l-2.438-1.01a.024.024,0,0,0-.026,0c-.09.09-.693.489-1.283.872a1.77,1.77,0,0,1-2.447-2.448c.382-.59.781-1.193.871-1.283a.025.025,0,0,0,0-.026l-1.01-2.438a.025.025,0,0,0-.022-.015c-.128,0-.836-.144-1.524-.291a1.77,1.77,0,0,1,0-3.461c.688-.147,1.4-.291,1.524-.291a.025.025,0,0,0,.022-.015l1.01-2.438a.024.024,0,0,0,0-.026c-.09-.09-.489-.693-.872-1.283a1.77,1.77,0,0,1,2.448-2.447c.59.382,1.193.781,1.283.871a.025.025,0,0,0,.026,0Zm0,0" transform="translate(-147.948 -165.302)" fill="#ff4b26"/>
      <path id="Trazado_885546" data-name="Trazado 885546" d="M235.5,251.809a3.688,3.688,0,1,1-3.688-3.688A3.687,3.687,0,0,1,235.5,251.809Zm0,0" transform="translate(-197.947 -215.301)" fill="#5793c9"/>
      <path id="Trazado_885547" data-name="Trazado 885547" d="M82.693,41.415H63.381A2.381,2.381,0,0,1,61,39.034V24.881A2.381,2.381,0,0,1,63.381,22.5H82.693a2.381,2.381,0,0,1,2.381,2.381V39.034A2.381,2.381,0,0,1,82.693,41.415Zm0,0" transform="translate(-52.931 -19.524)" fill="#47d5e6"/>
      <path id="Trazado_885548" data-name="Trazado 885548" d="M198.968,22.5H195a2.381,2.381,0,0,1,2.381,2.381V39.034A2.381,2.381,0,0,1,195,41.415h3.968a2.381,2.381,0,0,0,2.381-2.381V24.881A2.381,2.381,0,0,0,198.968,22.5Zm0,0" transform="translate(-169.207 -19.524)" fill="#22c0d4"/>
      <path id="Trazado_885549" data-name="Trazado 885549" d="M321.667,26.548H307.381A2.381,2.381,0,0,1,305,24.167V9.881A2.381,2.381,0,0,1,307.381,7.5h14.286a2.381,2.381,0,0,1,2.381,2.381V24.167A2.381,2.381,0,0,1,321.667,26.548Zm0,0" transform="translate(-264.656 -6.508)" fill="#47d5e6"/>
      <path id="Trazado_885550" data-name="Trazado 885550" d="M404.968,7.5H401a2.381,2.381,0,0,1,2.381,2.381V24.167A2.381,2.381,0,0,1,401,26.548h3.968a2.381,2.381,0,0,0,2.381-2.381V9.881A2.381,2.381,0,0,0,404.968,7.5Zm0,0" transform="translate(-347.958 -6.508)" fill="#22c0d4"/>
      <path id="Trazado_885551" data-name="Trazado 885551" d="M341.227,36.713a6.614,6.614,0,1,0-13.227,0,6.735,6.735,0,0,0,2.807,5.49,2.885,2.885,0,0,1,1.186,2.35h5.243a2.884,2.884,0,0,1,1.185-2.35,6.735,6.735,0,0,0,2.807-5.49Zm0,0" transform="translate(-284.614 -26.032)" fill="#ffd659"/>
      <path id="Trazado_885552" data-name="Trazado 885552" d="M364.984,30a6.512,6.512,0,0,0-1.984.308,6.757,6.757,0,0,1,1.823,11.9,2.885,2.885,0,0,0-1.186,2.35h3.968a2.884,2.884,0,0,1,1.186-2.35,6.735,6.735,0,0,0,2.807-5.49A6.664,6.664,0,0,0,364.984,30Zm0,0" transform="translate(-314.984 -26.032)" fill="#ffbd54"/>
      <path id="Trazado_885553" data-name="Trazado 885553" d="M359.952,140.023h-5.4a.461.461,0,0,0-.461.461v.778a2.726,2.726,0,0,0,2.726,2.726h.874a2.726,2.726,0,0,0,2.726-2.726v-.778A.461.461,0,0,0,359.952,140.023Zm0,0" transform="translate(-307.25 -121.502)" fill="#5793c9"/>
      <path id="Trazado_885554" data-name="Trazado 885554" d="M64.67,13.823H60.383V3.373A3.377,3.377,0,0,0,57.01,0H42.725a3.377,3.377,0,0,0-3.373,3.373v10.45H33.135V5.357a3.377,3.377,0,0,0-3.373-3.373H10.45A3.377,3.377,0,0,0,7.077,5.357v8.466H3.054A3.058,3.058,0,0,0,0,16.877v4.254a.992.992,0,1,0,1.984,0V16.877a1.071,1.071,0,0,1,1.07-1.07H7.077v1.984H4.96a.992.992,0,0,0-.992.992V53.174a.992.992,0,0,0,.992.992H55.026a.992.992,0,0,0,0-1.984H5.952V19.775H7.088a3.377,3.377,0,0,0,3.362,3.108h8.007V43.612a.992.992,0,0,0,.992.992h3.1a.992.992,0,0,0,0-1.984H20.44V22.883h9.321a3.377,3.377,0,0,0,3.362-3.108H40.1a3.367,3.367,0,0,0,2.624,1.257h3.344a3.729,3.729,0,0,0,2.939,2.406v7.1H45.767a.992.992,0,0,0,0,1.984H50a.992.992,0,0,0,.992-.992V23.437a3.729,3.729,0,0,0,2.939-2.406h3.08a3.368,3.368,0,0,0,2.624-1.257h2.138V52.182h-2.48a.992.992,0,1,0,0,1.984h3.472a.992.992,0,0,0,.992-.992V18.783a.992.992,0,0,0-.992-.992H60.38c0-.044,0-.088,0-.132V15.807H64.67a1.071,1.071,0,0,1,1.07,1.07v38.2a1.071,1.071,0,0,1-1.07,1.07H3.054a1.071,1.071,0,0,1-1.07-1.07V25.364a.992.992,0,0,0-1.984,0V55.08a3.058,3.058,0,0,0,3.054,3.054H26.918v3.638H16.8a2.976,2.976,0,1,0,0,5.952H50.926a2.976,2.976,0,1,0,0-5.952H40.807V58.135H64.67a3.058,3.058,0,0,0,3.054-3.054v-38.2a3.058,3.058,0,0,0-3.054-3.054Zm-33.52,5.688A1.391,1.391,0,0,1,29.762,20.9H10.45a1.391,1.391,0,0,1-1.389-1.389V5.357A1.391,1.391,0,0,1,10.45,3.968H29.762a1.391,1.391,0,0,1,1.389,1.389Zm1.984-1.72V15.807h6.217v1.852c0,.044,0,.088,0,.132Zm17.3,3.7h-.874a1.736,1.736,0,0,1-1.724-1.549l0-.017a1.667,1.667,0,0,1-.009-.169v-.247h4.342v.247a1.666,1.666,0,0,1-.009.169l0,.017a1.736,1.736,0,0,1-1.724,1.549Zm6.573-2.447H54.155v-.065a1.449,1.449,0,0,0-.45-1.048,1.841,1.841,0,0,1,.679-.956,7.777,7.777,0,0,0,2.1-10.33.992.992,0,1,0-1.7,1.03,5.792,5.792,0,0,1-1.556,7.687,3.842,3.842,0,0,0-1.474,2.165H48.244a3.841,3.841,0,0,0-1.474-2.165,5.764,5.764,0,0,1-2.392-4.683A5.679,5.679,0,0,1,50,4.96a5.509,5.509,0,0,1,2.088.407.992.992,0,0,0,.749-1.837A7.489,7.489,0,0,0,50,2.976a7.665,7.665,0,0,0-7.606,7.706,7.753,7.753,0,0,0,3.221,6.3,1.841,1.841,0,0,1,.679.956,1.447,1.447,0,0,0-.45,1.048v.065h-3.12a1.391,1.391,0,0,1-1.389-1.389V3.373a1.391,1.391,0,0,1,1.389-1.389H57.01A1.391,1.391,0,0,1,58.4,3.373V17.659a1.391,1.391,0,0,1-1.389,1.389Zm-5.093,45.7a.993.993,0,0,1-.992.992H16.8a.992.992,0,1,1,0-1.984H50.926A.993.993,0,0,1,51.918,64.748Zm-13.1-2.976H28.9V58.135h9.921Zm0,0"/>
      <path id="Trazado_885555" data-name="Trazado 885555" d="M185.419,198a2.761,2.761,0,0,0,0-5.4c-.469-.1-.8-.169-1.043-.215l-.6-1.44c.137-.2.325-.487.585-.89a2.761,2.761,0,0,0-3.819-3.819c-.4.26-.686.448-.889.585l-1.44-.6c-.047-.241-.115-.574-.215-1.043a2.762,2.762,0,0,0-5.4,0c-.1.469-.168.8-.215,1.043l-1.44.6c-.2-.137-.487-.325-.889-.585a2.762,2.762,0,0,0-3.819,3.819c.26.4.448.687.585.89l-.6,1.44c-.241.047-.575.114-1.043.215a2.761,2.761,0,0,0,0,5.4c.469.1.8.169,1.043.215l.6,1.44c-.137.2-.325.487-.585.89a2.762,2.762,0,0,0,3.819,3.819c.4-.26.686-.448.889-.585l1.44.6c.047.24.115.574.215,1.043a2.762,2.762,0,0,0,5.4,0c.1-.469.168-.8.215-1.043l1.44-.6c.2.137.487.325.889.585a2.761,2.761,0,0,0,3.819-3.819c-.26-.4-.448-.687-.585-.89l.6-1.44C184.617,198.171,184.95,198.1,185.419,198Zm-18.5-1.67h0Zm16.732,0h0Zm-.013,0a1.014,1.014,0,0,0-.89.626l-1.011,2.44a1.015,1.015,0,0,0,.185,1.067c.034.043.19.255.776,1.159a.778.778,0,0,1-1.075,1.075c-.882-.571-1.105-.734-1.155-.773a1.013,1.013,0,0,0-1.073-.187l-2.434,1.008a1.008,1.008,0,0,0-.631.895c-.009.067-.053.347-.27,1.361a.778.778,0,0,1-1.521,0c-.22-1.027-.262-1.3-.27-1.364a1.008,1.008,0,0,0-.627-.89l-2.441-1.012a1.011,1.011,0,0,0-1.072.191c-.055.043-.286.21-1.152.771a.778.778,0,0,1-1.076-1.075c.572-.884.735-1.106.773-1.155a1.015,1.015,0,0,0,.187-1.073l-1.012-2.442a1.013,1.013,0,0,0-.888-.622c-.06-.008-.33-.05-1.365-.271a.778.778,0,0,1,0-1.521c1.028-.22,1.3-.263,1.364-.271a1.014,1.014,0,0,0,.89-.626l1.011-2.44a1.015,1.015,0,0,0-.185-1.067c-.034-.043-.19-.255-.776-1.159a.778.778,0,0,1,1.075-1.075c.882.571,1.105.734,1.155.773a1.013,1.013,0,0,0,1.073.187l2.438-1.01a1.009,1.009,0,0,0,.627-.893c.009-.067.053-.347.27-1.361a.778.778,0,0,1,1.521,0c.22,1.028.262,1.3.271,1.364a1.015,1.015,0,0,0,.626.89l2.443,1.012a1.01,1.01,0,0,0,1.071-.191c.055-.042.286-.21,1.152-.771a.778.778,0,0,1,1.076,1.075c-.572.884-.735,1.106-.773,1.156a1.013,1.013,0,0,0-.187,1.072l1.009,2.437a1.011,1.011,0,0,0,.89.627c.06.008.331.05,1.365.271a.777.777,0,0,1,0,1.52c-1.028.22-1.3.263-1.364.271Zm0,0" transform="translate(-141.439 -158.794)"/>
      <path id="Trazado_885556" data-name="Trazado 885556" d="M225.3,240.617a4.68,4.68,0,1,0,4.68,4.68A4.685,4.685,0,0,0,225.3,240.617Zm0,7.376a2.7,2.7,0,1,1,2.7-2.7A2.7,2.7,0,0,1,225.3,247.993Zm0,0" transform="translate(-191.439 -208.789)"/>
      <path id="Trazado_885557" data-name="Trazado 885557" d="M85.492,56.18h7.751a.992.992,0,1,0,0-1.984H85.492a.992.992,0,1,0,0,1.984Zm0,0" transform="translate(-73.323 -47.027)"/>
      <path id="Trazado_885558" data-name="Trazado 885558" d="M85.492,86.176h15.873a.992.992,0,1,0,0-1.984H85.492a.992.992,0,1,0,0,1.984Zm0,0" transform="translate(-73.323 -73.055)"/>
      <path id="Trazado_885559" data-name="Trazado 885559" d="M101.368,114.191H85.5a.992.992,0,0,0,0,1.984h15.872a.992.992,0,1,0,0-1.984Zm0,0" transform="translate(-73.326 -99.086)"/>
    </g>
  </g>
</svg>
