<svg xmlns="http://www.w3.org/2000/svg" width="110" height="110" viewBox="0 0 110 110">
  <g id="Grupo_1112851" data-name="Grupo 1112851" transform="translate(-273.332 -3741.5)">
    <rect id="Rectángulo_402033" data-name="Rectángulo 402033" width="110" height="110" rx="5" transform="translate(273.332 3741.5)" fill="#d8b3fe"/>
    <g id="Grupo_1115432" data-name="Grupo 1115432" transform="translate(294.201 3761.105)">
      <path id="Trazado_885560" data-name="Trazado 885560" d="M114.93,41.473c0,9.759,16.849,18.311,4.893,36.193s16.79,25.007,16.79,25.007-16.073-12.71,4.037-23.665c26.812-14.606,20.882-37.535,20.882-37.535Zm0,0" transform="translate(-99.04 -35.739)" fill="#f4bc8e"/>
      <path id="Trazado_885561" data-name="Trazado 885561" d="M191.882,79c-20.11,10.956-4.037,23.666-4.037,23.666A45.168,45.168,0,0,1,176.216,97.7C173.426,93,172.254,85.676,184.5,79c26.813-14.606,20.883-37.535,20.883-37.535h7.38S218.694,64.4,191.882,79Zm0,0" transform="translate(-150.272 -35.735)" fill="#efa66f"/>
      <path id="Trazado_885562" data-name="Trazado 885562" d="M161.536,12.2c0-2.594-10.433-4.7-23.3-4.7s-23.3,2.1-23.3,4.7,10.432,4.7,23.3,4.7S161.536,14.791,161.536,12.2Zm0,0" transform="translate(-99.043 -6.463)" fill="#fbdbb7"/>
      <path id="Trazado_885563" data-name="Trazado 885563" d="M177.85,43.818c-4.029,1.4-11.558,2.348-20.183,2.348s-16.154-.945-20.183-2.348c4.028-1.4,11.558-2.349,20.183-2.349S173.821,42.413,177.85,43.818Zm0,0" transform="translate(-118.476 -35.735)" fill="#efa66f"/>
      <path id="Trazado_885564" data-name="Trazado 885564" d="M9.94,418.953h2.9a3.1,3.1,0,0,1,3.047-2.37,3.2,3.2,0,0,1,.787.1,5.342,5.342,0,0,1,10.106.587,2.106,2.106,0,0,1,1.092-.3,2.04,2.04,0,0,1,2.069,1.991h8.014a3.174,3.174,0,0,1,4.884-.966,4.286,4.286,0,0,1,8.326-.649,4.525,4.525,0,0,1,3.962-2.384,6.678,6.678,0,0,1,6.257-4.207,6.6,6.6,0,0,1,6.668,6.084,3.44,3.44,0,1,1-.124,6.878L9.94,423.687a2.368,2.368,0,1,1,0-4.734Zm0,0" transform="translate(-6.463 -353.957)" fill="#c4e1e8"/>
      <path id="Trazado_885565" data-name="Trazado 885565" d="M7.5,437.464a2.4,2.4,0,0,0,2.441,2.368l2.024,0c0-.012,0-.025,0-.038a2.322,2.322,0,0,1,.715-1.673,2.47,2.47,0,0,1,1.725-.693h2.9a3.1,3.1,0,0,1,3.047-2.37,3.214,3.214,0,0,1,.788.1,5.285,5.285,0,0,1,4.93-3.343,5.364,5.364,0,0,0-9.394,1.012,3.2,3.2,0,0,0-.787-.1,3.1,3.1,0,0,0-3.046,2.37h-2.9a2.476,2.476,0,0,0-1.726.693,2.325,2.325,0,0,0-.715,1.674Zm0,0" transform="translate(-6.463 -370.101)" fill="#a4d5dd"/>
      <g id="Grupo_1115431" data-name="Grupo 1115431" transform="translate(4.883 6.984)">
        <path id="Trazado_885566" data-name="Trazado 885566" d="M236.837,139.945a3.663,3.663,0,0,1-5.848,0,3.663,3.663,0,0,1,5.848,0Zm0,0" transform="translate(-203.935 -126.324)" fill="#00df97"/>
        <path id="Trazado_885567" data-name="Trazado 885567" d="M250.593,262.688a4.9,4.9,0,0,1-5.533,5.532,4.9,4.9,0,0,1,5.533-5.532Zm0,0" transform="translate(-216.021 -233.311)" fill="#00df97"/>
        <path id="Trazado_885568" data-name="Trazado 885568" d="M411.193,197.036a4.31,4.31,0,0,1-4.867-4.867,4.31,4.31,0,0,1,4.867,4.867Zm0,0" transform="translate(-354.996 -172.547)" fill="#00df97"/>
        <path id="Trazado_885569" data-name="Trazado 885569" d="M35.362,339.744a4.31,4.31,0,0,0,4.867-4.867,4.311,4.311,0,0,0-4.867,4.867Zm0,0" transform="translate(-35.32 -295.525)" fill="#00df97"/>
        <path id="Trazado_885570" data-name="Trazado 885570" d="M178.122,55.418a4.311,4.311,0,0,0,4.867-4.867,4.31,4.31,0,0,0-4.867,4.867Zm0,0" transform="translate(-158.343 -50.51)" fill="#00df97"/>
      </g>
      <path id="Trazado_885571" data-name="Trazado 885571" d="M365.439,455.7a1.037,1.037,0,0,0,0,2.074h.013a1.031,1.031,0,0,0,1.03-1.037A1.043,1.043,0,0,0,365.439,455.7Zm0,0" transform="translate(-314.02 -392.694)"/>
      <path id="Trazado_885572" data-name="Trazado 885572" d="M380.287,444.527h.013a1.031,1.031,0,0,0,1.03-1.037,1.04,1.04,0,1,0-1.043,1.037Zm0,0" transform="translate(-326.815 -381.28)"/>
      <path id="Trazado_885573" data-name="Trazado 885573" d="M68.262,16.886c0-1.412-1.393-2.524-4.25-3.388.031-.451.051-.881.063-1.287a27.1,27.1,0,0,0-.552-6.632C63.368,3.507,60.1,2,53.554.986a1.037,1.037,0,1,0-.318,2.049c7.232,1.123,8.152,2.576,8.217,2.7-.11.334-1.471,1.433-6.359,2.375a88.2,88.2,0,0,1-15.9,1.282c-3.051,0-6-.117-8.772-.348a5.358,5.358,0,0,0,.137-2.165A1.037,1.037,0,0,0,29.673,6,5.3,5.3,0,0,0,25.15,7.513a5.373,5.373,0,0,0-.667.813c-6.63-1.109-7.491-2.474-7.553-2.6C17.04,5.4,18.4,4.3,23.289,3.357a88.153,88.153,0,0,1,15.9-1.283c3.347,0,6.574.141,9.592.42A1.037,1.037,0,0,0,48.975.429C45.893.144,42.6,0,39.192,0A88.669,88.669,0,0,0,22.51,1.4,23.339,23.339,0,0,0,17.275,2.97c-1.607.766-2.422,1.7-2.422,2.764,0,3.245,1.645,6.248,3.476,9.294a1.037,1.037,0,1,0,1.777-1.069,27.256,27.256,0,0,1-2.691-5.395,26.227,26.227,0,0,0,6.262,1.728,5.37,5.37,0,0,0-.041,1.744,1.036,1.036,0,0,0,.883.883,5.442,5.442,0,0,0,.757.053A5.3,5.3,0,0,0,29.042,11.4c.119-.118.229-.242.334-.369,3.088.286,6.386.433,9.815.433a88.669,88.669,0,0,0,16.681-1.4A23.364,23.364,0,0,0,61.107,8.5a8.076,8.076,0,0,0,.723-.389,31,31,0,0,1-.763,10.754,60.981,60.981,0,0,1-11.54.99,1.037,1.037,0,1,0,0,2.074,65.791,65.791,0,0,0,10.9-.834,31.332,31.332,0,0,1-1.98,4.685,5.338,5.338,0,0,0-2.374-.2,1.037,1.037,0,0,0-.884.883,5.3,5.3,0,0,0,.689,3.458,39.891,39.891,0,0,1-8.931,8.773c-2.1.2-4.389.327-6.753.358a5.921,5.921,0,0,0,.29-2.834,1.036,1.036,0,0,0-.883-.883,5.888,5.888,0,0,0-5.022,1.681,5.947,5.947,0,0,0-1.264,1.864,46.665,46.665,0,0,1-8.949-1.3,19.088,19.088,0,0,0,1.6-10.256c.152.032.305.064.461.1a88.669,88.669,0,0,0,16.681,1.4c3.292,0,6.479-.134,9.471-.4a1.037,1.037,0,1,0-.184-2.066c-2.932.26-6.056.392-9.288.392a88.2,88.2,0,0,1-15.9-1.283c-.609-.117-1.163-.237-1.667-.358a29.245,29.245,0,0,0-3.1-7.26,1.037,1.037,0,1,0-1.8,1.028c.253.443.5.895.747,1.355-1.068.477-2.611,1.387-2.611,2.858,0,1.068.815,2,2.422,2.764a16.863,16.863,0,0,0,2.606.946,16.048,16.048,0,0,1-.165,6.407c-1.851.519-4.2,1.41-4.2,3.166,0,1.09.907,1.851,2.054,2.4-.452.839-.969,1.7-1.563,2.588a17.41,17.41,0,0,0-2.968,7.218c-1.083.339-3.267,1.155-3.267,2.839,0,1.322,1.3,2.319,3.961,3.041,1.668,4.22,5.664,7.337,9.646,9.512H24.326a3.116,3.116,0,0,0-2.913-1.991A3.176,3.176,0,0,0,20.96,62a6.316,6.316,0,0,0-5.783-3.658A6.39,6.39,0,0,0,9.6,61.592c-.058,0-.116,0-.174,0a4.2,4.2,0,0,0-3.778,2.37H3.477a3.4,3.4,0,1,0,0,6.808l42.36.016a1.037,1.037,0,0,0,0-2.074L3.477,68.693a1.332,1.332,0,1,1,0-2.66h2.9a1.037,1.037,0,0,0,1.011-.806,2.075,2.075,0,0,1,2.036-1.564,2.163,2.163,0,0,1,.534.066,1.038,1.038,0,0,0,1.222-.634,4.27,4.27,0,0,1,3.993-2.678,4.211,4.211,0,0,1,4.139,3.143,1.037,1.037,0,0,0,1.542.638,1.078,1.078,0,0,1,.556-.155,1.007,1.007,0,0,1,1.033.964,1.037,1.037,0,0,0,1.037,1.027H31.5a1.035,1.035,0,0,0,.93-.579,2.1,2.1,0,0,1,1.888-1.146,2.134,2.134,0,0,1,1.391.51,1.037,1.037,0,0,0,1.705-.663,3.176,3.176,0,0,1,3.2-2.735,3.218,3.218,0,0,1,3.1,2.254,1.037,1.037,0,0,0,1.912.192,3.482,3.482,0,0,1,3.057-1.832,1.036,1.036,0,0,0,.955-.663,5.667,5.667,0,0,1,5.291-3.543,5.566,5.566,0,0,1,5.633,5.111,1.036,1.036,0,0,0,1,.972,2.4,2.4,0,1,1-.09,4.806l-11.116,0h0a1.037,1.037,0,0,0,0,2.074l11.117,0a4.537,4.537,0,0,0,4.584-4.478,4.48,4.48,0,0,0-3.529-4.359,7.675,7.675,0,0,0-7.6-6.2,7.782,7.782,0,0,0-6.954,4.256,5.59,5.59,0,0,0-3.088,1.456,5.365,5.365,0,0,0-4.273-2.119,5.3,5.3,0,0,0-4.871,3.135,4.251,4.251,0,0,0-1.005-.225,10.981,10.981,0,0,1-2.179-7.073,29.415,29.415,0,0,0,3.538-.617c2.97-.73,4.413-1.763,4.413-3.158,0-1.372-1.392-2.4-4.242-3.117a20.994,20.994,0,0,1,1.67-1.428c6.588-.173,13.217-1.7,13.217-4.833a2.417,2.417,0,0,0-.723-1.682c.646-.1,1.266-.209,1.853-.327,4.268-.86,6.256-2.022,6.256-3.656,0-1.516-1.782-2.282-2.367-2.535l-.053-.021-.528-.193q.9-1.039,1.7-2.12a5.28,5.28,0,0,0,3.176,1.057,5.444,5.444,0,0,0,.758-.053,1.037,1.037,0,0,0,.883-.884,5.305,5.305,0,0,0-1.514-4.523c-.108-.107-.22-.208-.335-.306a33.6,33.6,0,0,0,2.485-6.17c3.711-.9,5.519-2.125,5.519-3.732ZM25.683,10.871a3.282,3.282,0,0,1,2.826-2.825,3.282,3.282,0,0,1-2.826,2.825ZM20.841,23.082c.028-.065.242-.457,1.453-.993a22.455,22.455,0,0,1,.907,2.339c-1.7-.6-2.292-1.131-2.36-1.345Zm15.2,15.4a3.828,3.828,0,0,1,2.41-1.12,3.869,3.869,0,0,1-3.53,3.53A3.83,3.83,0,0,1,36.043,38.48ZM21.551,36.37a3.81,3.81,0,0,1,1.362-.757q-.233.634-.518,1.287A2.672,2.672,0,0,1,21.551,36.37Zm.094,6.133a33.587,33.587,0,0,0,1.807-3.022c.187.054.372.1.551.152a49.709,49.709,0,0,0,8.842,1.293,6.049,6.049,0,0,0,.051,1.11,1.038,1.038,0,0,0,.884.884,6.059,6.059,0,0,0,.841.059,5.883,5.883,0,0,0,4.181-1.74c.034-.034.065-.07.1-.1h.085c1.517,0,3.007-.037,4.446-.107q-1.126.684-2.315,1.332A34.463,34.463,0,0,0,37.228,44.8c-.187,0-.375,0-.564,0a42.223,42.223,0,0,1-6.092-.423,1.037,1.037,0,1,0-.305,2.051,42.3,42.3,0,0,0,4.517.408,13.674,13.674,0,0,0-4,6.43c-1.18.092-2.421.141-3.686.141a39.5,39.5,0,0,1-7.852-.713c-.852-3.107-.046-6.535,2.4-10.195Zm-4.793,8.309a11.407,11.407,0,0,0,.131,1.244,3.575,3.575,0,0,1-1.17-.648A3.363,3.363,0,0,1,16.852,50.811ZM32.519,62.639a4.188,4.188,0,0,0-1.3.945c-6.449-2.854-9.56-6-11.027-8.6a44.6,44.6,0,0,0,6.9.5c1.155,0,2.286-.039,3.373-.112a12.915,12.915,0,0,0,2.05,7.266Zm2.57-9.97c-.639.14-1.335.26-2.072.362a10.741,10.741,0,0,1,1.647-2.974c2.444.486,3.445,1.08,3.715,1.351a7.371,7.371,0,0,1-3.291,1.261Zm10.8-8.941a27.76,27.76,0,0,1-4.452.824q.327-.186.666-.372a56.115,56.115,0,0,0,5.354-3.307c1.328.564,1.618,1.048,1.618,1.157,0,.158-.567.955-3.185,1.7Zm9.483-7.982a3.271,3.271,0,0,1,1.038.622c-.312.333-1.625,1.09-5.159,1.738l-.262.046q1.64-1.392,3.083-2.883Zm2.792-6.228a3.246,3.246,0,0,1-.933-1.892,3.283,3.283,0,0,1,2.825,2.825A3.246,3.246,0,0,1,58.168,29.518Zm8.013-12.63c-.106.225-.811.816-2.853,1.425.205-.947.359-1.853.473-2.708,1.925.632,2.319,1.174,2.38,1.283Zm0,0"/>
      <path id="Trazado_885574" data-name="Trazado 885574" d="M54.541,239.007a6.932,6.932,0,0,1,2.885.12,17.406,17.406,0,0,0,2.886,7.477,1.037,1.037,0,0,0,1.648-1.258,15.712,15.712,0,0,1-2.494-6.591,6.918,6.918,0,0,1,2.639-1.066,1.037,1.037,0,0,0-.356-2.044,8.768,8.768,0,0,0-1.25.315l.379-.608a1.037,1.037,0,1,0-1.761-1.1l-.667,1.072a7.736,7.736,0,0,0-.924-1.438,1.037,1.037,0,0,0-1.6,1.316,6.219,6.219,0,0,1,.962,1.708,8.93,8.93,0,0,0-2.7.049,1.037,1.037,0,0,0,.356,2.044Zm0,0" transform="translate(-45.952 -201.226)"/>
      <path id="Trazado_885575" data-name="Trazado 885575" d="M289.27,352.358a1.037,1.037,0,0,0,.779,1.922,17.405,17.405,0,0,0,6.287-4.97,6.923,6.923,0,0,1,2.546,1.363,1.037,1.037,0,0,0,1.345-1.579,8.941,8.941,0,0,0-2.3-1.416,6.218,6.218,0,0,1,1.7-.982,1.037,1.037,0,1,0-.711-1.948,7.746,7.746,0,0,0-1.527.768l-.03-1.262a1.037,1.037,0,0,0-1.036-1.013h-.025a1.037,1.037,0,0,0-1.013,1.061l.017.717a8.838,8.838,0,0,0-.917-.907,1.037,1.037,0,1,0-1.345,1.578,6.929,6.929,0,0,1,1.731,2.26A15.713,15.713,0,0,1,289.27,352.358Zm0,0" transform="translate(-248.719 -295.786)"/>
      <path id="Trazado_885576" data-name="Trazado 885576" d="M408.344,287.838a1.037,1.037,0,0,0,1.037,1.037h.013a1.031,1.031,0,0,0,1.03-1.037,1.04,1.04,0,0,0-2.08,0Zm0,0" transform="translate(-351.887 -247.148)"/>
      <path id="Trazado_885577" data-name="Trazado 885577" d="M430.334,291.129h-.011a1.037,1.037,0,0,0,.01,2.074h.024a1.031,1.031,0,0,0,1.02-1.047A1.043,1.043,0,0,0,430.334,291.129Zm0,0" transform="translate(-369.942 -250.878)"/>
      <path id="Trazado_885578" data-name="Trazado 885578" d="M116.34,180.838a1.037,1.037,0,0,0,1.037,1.037h.013a1.032,1.032,0,0,0,1.03-1.037,1.04,1.04,0,0,0-2.081,0Zm0,0" transform="translate(-100.255 -154.942)"/>
      <path id="Trazado_885579" data-name="Trazado 885579" d="M117.33,116.707a1.037,1.037,0,0,0,0,2.074h.014a1.031,1.031,0,0,0,1.03-1.037A1.042,1.042,0,0,0,117.33,116.707Zm0,0" transform="translate(-100.215 -100.571)"/>
      <path id="Trazado_885580" data-name="Trazado 885580" d="M83.978,140.566h.013a1.031,1.031,0,0,0,1.03-1.037,1.04,1.04,0,1,0-1.043,1.037Zm0,0" transform="translate(-71.474 -119.344)"/>
      <path id="Trazado_885581" data-name="Trazado 885581" d="M82.3,380.441a1.037,1.037,0,0,0,.01,2.074h.024a1.031,1.031,0,0,0,1.02-1.047,1.043,1.043,0,0,0-1.043-1.027Zm0,0" transform="translate(-70.036 -327.841)"/>
      <path id="Trazado_885582" data-name="Trazado 885582" d="M342.567,121.84h.013a1.031,1.031,0,0,0,1.02-1.047,1.043,1.043,0,0,0-1.043-1.027h-.01a1.037,1.037,0,0,0,.01,2.074Zm0,0" transform="translate(-294.301 -103.207)"/>
      <path id="Trazado_885583" data-name="Trazado 885583" d="M207.846,226.41a1.037,1.037,0,0,0,.01,2.074h.024a1.032,1.032,0,0,0,1.02-1.047,1.043,1.043,0,0,0-1.043-1.027Zm0,0" transform="translate(-178.225 -195.107)"/>
      <path id="Trazado_885584" data-name="Trazado 885584" d="M223.391,245.353a1.037,1.037,0,0,0,1.037,1.037h.014a1.031,1.031,0,0,0,1.03-1.037,1.04,1.04,0,0,0-2.081,0Zm0,0" transform="translate(-192.505 -210.537)"/>
      <path id="Trazado_885585" data-name="Trazado 885585" d="M203.431,362.426h.013a1.031,1.031,0,0,0,1.03-1.037,1.04,1.04,0,1,0-1.044,1.037Zm0,0" transform="translate(-174.412 -310.53)"/>
      <path id="Trazado_885586" data-name="Trazado 885586" d="M227.45,135.976a4.665,4.665,0,0,0,3.752-1.869,1.039,1.039,0,0,0,0-1.25,4.7,4.7,0,0,0-7.5,0,1.037,1.037,0,0,0,0,1.25A4.661,4.661,0,0,0,227.45,135.976Zm0-2.914a2.61,2.61,0,0,1,1.429.42,2.639,2.639,0,0,1-2.858,0A2.61,2.61,0,0,1,227.45,133.062Zm0,0" transform="translate(-192.59 -112.878)"/>
      <path id="Trazado_885587" data-name="Trazado 885587" d="M28.749,334.3a5.424,5.424,0,0,0,.757.053,5.349,5.349,0,0,0,5.28-6.09,1.038,1.038,0,0,0-.884-.884,5.347,5.347,0,0,0-6.037,6.037,1.037,1.037,0,0,0,.884.884Zm2.1-3.94a3.25,3.25,0,0,1,1.892-.933,3.281,3.281,0,0,1-2.825,2.825A3.246,3.246,0,0,1,30.846,330.362Zm0,0" transform="translate(-23.968 -282.073)"/>
    </g>
  </g>
</svg>
