<svg xmlns="http://www.w3.org/2000/svg" width="190" height="115" viewBox="0 0 190 115">
  <g id="Grupo_1115446" data-name="Grupo 1115446" transform="translate(-180.14 -7347)">
    <rect id="Rect치ngulo_408606" data-name="Rect치ngulo 408606" width="190" height="115" transform="translate(180.14 7347)" fill="#c8e3fd"/>
    <rect id="Rect치ngulo_409522" data-name="Rect치ngulo 409522" width="190" height="37" transform="translate(180.14 7425)" fill="#75b8fb"/>
    <g id="Grupo_1115445" data-name="Grupo 1115445" transform="translate(236.64 7320.897)">
      <g id="Grupo_1115433" data-name="Grupo 1115433" transform="translate(8.858 58.305)">
        <path id="Trazado_885588" data-name="Trazado 885588" d="M73.208,80.385A32.755,32.755,0,0,0,58.9,95.846H79.786a9.747,9.747,0,0,1,3.521-4.116v-14.8A32.073,32.073,0,0,0,73.208,80.385Z" transform="translate(-58.897 -76.934)" fill="#ffcd69" fill-rule="evenodd"/>
      </g>
      <g id="Grupo_1115434" data-name="Grupo 1115434" transform="translate(43.733 85.264)">
        <path id="Trazado_885589" data-name="Trazado 885589" d="M294.559,256.2a9.755,9.755,0,0,1-3.764,4.269l6.015,10.08h21.153v-9.356a32.179,32.179,0,0,0-.388-4.993Z" transform="translate(-290.795 -256.199)" fill="#ffcd69" fill-rule="evenodd"/>
      </g>
      <g id="Grupo_1115435" data-name="Grupo 1115435" transform="translate(6.095 85.264)">
        <path id="Trazado_885590" data-name="Trazado 885590" d="M64.18,256.2H40.917a32.164,32.164,0,0,0-.388,4.993v9.356H61.686L67.7,260.314A9.772,9.772,0,0,1,64.18,256.2Z" transform="translate(-40.529 -256.199)" fill="#ffcd69" fill-rule="evenodd"/>
      </g>
      <g id="Grupo_1115436" data-name="Grupo 1115436" transform="translate(27.252 89.38)">
        <path id="Trazado_885591" data-name="Trazado 885591" d="M187.224,283.564,181.209,293.8h22.5l-6.015-10.08a9.769,9.769,0,0,1-10.466-.153Z" transform="translate(-181.209 -283.564)" fill="#ffe6b4" fill-rule="evenodd"/>
      </g>
      <g id="Grupo_1115437" data-name="Grupo 1115437" transform="translate(1.504 99.613)">
        <path id="Trazado_885592" data-name="Trazado 885592" d="M35.748,351.61H14.276A4.289,4.289,0,0,0,10,355.887c0,2.347,2.093,3.4,4.276,4.273,19.286,7.728,46.151,7.728,65.436,0,2.187-.873,4.28-1.926,4.28-4.273a4.292,4.292,0,0,0-4.28-4.277H35.748Z" transform="translate(-10 -351.61)" fill="#ffcd69" fill-rule="evenodd"/>
      </g>
      <g id="Grupo_1115438" data-name="Grupo 1115438" transform="translate(28.876 71.499)">
        <path id="Trazado_885593" data-name="Trazado 885593" d="M196.4,166.272a9.75,9.75,0,1,0,10.466-.153v0a9.759,9.759,0,0,0-10.466.157Z" transform="translate(-192.008 -164.671)" fill="#e2e9ee" fill-rule="evenodd"/>
      </g>
      <g id="Grupo_1115439" data-name="Grupo 1115439" transform="translate(6.483 77.216)">
        <path id="Trazado_885594" data-name="Trazado 885594" d="M66.371,202.685H45.483a32.07,32.07,0,0,0-2.375,8.048H66.371a9.744,9.744,0,0,1,0-8.048Z" transform="translate(-43.108 -202.685)" fill="#a7bdcd" fill-rule="evenodd"/>
      </g>
      <g id="Grupo_1115440" data-name="Grupo 1115440" transform="translate(33.267 56.511)">
        <path id="Trazado_885595" data-name="Trazado 885595" d="M221.205,66.8V81.6a9.758,9.758,0,0,1,10.466-.158V66.8a1.8,1.8,0,0,0-1.79-1.789H223a1.8,1.8,0,0,0-1.79,1.789Z" transform="translate(-221.205 -65.008)" fill="#ffe6b4" fill-rule="evenodd"/>
      </g>
      <g id="Grupo_1115441" data-name="Grupo 1115441" transform="translate(43.733 58.305)">
        <path id="Trazado_885596" data-name="Trazado 885596" d="M290.8,76.934V91.577a9.733,9.733,0,0,1,3.764,4.269H315.2A32.723,32.723,0,0,0,300.89,80.385,32.05,32.05,0,0,0,290.8,76.934Z" transform="translate(-290.795 -76.934)" fill="#ffcd69" fill-rule="evenodd"/>
      </g>
      <g id="Grupo_1115442" data-name="Grupo 1115442" transform="translate(47.497 77.216)">
        <path id="Trazado_885597" data-name="Trazado 885597" d="M336.469,202.685H315.824a9.744,9.744,0,0,1,0,8.048H338.84A32.066,32.066,0,0,0,336.469,202.685Z" transform="translate(-315.824 -202.685)" fill="#a7bdcd" fill-rule="evenodd"/>
      </g>
      <g id="Grupo_1115443" data-name="Grupo 1115443" transform="translate(0 55.007)">
        <path id="Trazado_885598" data-name="Trazado 885598" d="M72.4,98.233V90.257A34.008,34.008,0,0,0,44.969,57a3.3,3.3,0,0,0-3.026-1.994H35.058A3.3,3.3,0,0,0,32.031,57,34.011,34.011,0,0,0,4.591,90.257v7.975A5.79,5.79,0,0,0,0,103.891c0,3.58,3.4,4.939,5.22,5.669a87.4,87.4,0,0,0,26.427,5.677,1.5,1.5,0,1,0,.2-3,84.368,84.368,0,0,1-25.505-5.468c-2.49-1-3.331-1.722-3.331-2.877a2.776,2.776,0,0,1,2.772-2.774H71.216a2.778,2.778,0,0,1,2.776,2.774c0,1.155-.841,1.881-3.336,2.877a84.322,84.322,0,0,1-25.5,5.468,1.5,1.5,0,0,0,.1,3q.05,0,.1,0a87.356,87.356,0,0,0,26.425-5.676c1.826-.73,5.226-2.087,5.226-5.67A5.792,5.792,0,0,0,72.4,98.233ZM68.684,83.76h-19.1a11.153,11.153,0,0,0,0-5.04H67.1A30.594,30.594,0,0,1,68.684,83.76ZM45.237,60.13a30.347,30.347,0,0,1,7.087,2.557V71a1.5,1.5,0,0,0,3.008,0V64.436a31.578,31.578,0,0,1,10.34,11.276H48.412a11.327,11.327,0,0,0-3.175-3.56ZM34.771,58.3a.29.29,0,0,1,.286-.285h6.885a.29.29,0,0,1,.286.285V70.592a11.234,11.234,0,0,0-7.458.082V58.3ZM38.622,73a8.235,8.235,0,1,1-8.241,8.235A8.248,8.248,0,0,1,38.622,73ZM21.664,64.438V71a1.5,1.5,0,1,0,3.008,0V62.689a30.35,30.35,0,0,1,7.091-2.558V72.335a11.323,11.323,0,0,0-2.933,3.377H11.324a31.577,31.577,0,0,1,10.34-11.275ZM9.894,78.72H27.66a11.153,11.153,0,0,0,0,5.04H8.312a30.594,30.594,0,0,1,1.581-5.04ZM7.6,98.109V90.257a30.039,30.039,0,0,1,.207-3.489H28.833A11.321,11.321,0,0,0,31.3,89.762l-4.906,8.348Zm22.282,0L33.822,91.4a11.223,11.223,0,0,0,9.345.115L47.1,98.11H29.881Zm39.516,0H50.6L45.73,89.945a11.324,11.324,0,0,0,2.68-3.176H69.19a30.041,30.041,0,0,1,.207,3.489Z" transform="translate(0 -55.007)"/>
        <path id="Trazado_885599" data-name="Trazado 885599" d="M247.489,436.993a1.5,1.5,0,0,0,0,3.008h.009a1.5,1.5,0,1,0-.009-3.008Z" transform="translate(-208.991 -379.546)"/>
      </g>
    </g>
  </g>
</svg>
