<svg xmlns="http://www.w3.org/2000/svg" width="80" height="80" viewBox="0 0 80 80">
  <g id="Grupo_1115469" data-name="Grupo 1115469" transform="translate(-625.14 -9064)">
    <rect id="Rectángulo_409533" data-name="Rectángulo 409533" width="80" height="80" transform="translate(625.14 9064)" fill="none"/>
    <g id="Layer_32" data-name="Layer 32" transform="translate(625.292 9064.244)">
      <path id="Trazado_885623" data-name="Trazado 885623" d="M38.245,49.6l9.2-1.15-.305-2.443-9.85,1.231a1.231,1.231,0,0,0-.949.671L35.1,50.373l2.2,1.1Z" transform="translate(7.872 10.411)" fill="#12263f"/>
      <path id="Trazado_885624" data-name="Trazado 885624" d="M34.034,45.9,36.5,43.437a1.231,1.231,0,0,0,.231-1.421L35.5,39.553l-2.2,1.1.835,1.67-1.835,1.835Z" transform="translate(7.222 8.918)" fill="#12263f"/>
      <path id="Trazado_885625" data-name="Trazado 885625" d="M43.32,22.857V20.395h-.212a7.128,7.128,0,0,1-5.074-2.1l-1.741,1.741a9.57,9.57,0,0,0,6.815,2.823Z" transform="translate(8.147 4)" fill="#12263f"/>
      <path id="Trazado_885626" data-name="Trazado 885626" d="M31.286,18.293a7.128,7.128,0,0,1-5.074,2.1H26v2.463h.212a9.57,9.57,0,0,0,6.815-2.823Z" transform="translate(5.766 4)" fill="#12263f"/>
      <rect id="Rectángulo_409535" data-name="Rectángulo 409535" width="2.463" height="3.694" transform="translate(34.229 28.089)" fill="#12263f"/>
      <rect id="Rectángulo_409536" data-name="Rectángulo 409536" width="2.463" height="3.694" transform="translate(46.542 28.089)" fill="#12263f"/>
      <path id="Trazado_885627" data-name="Trazado 885627" d="M25.857,50.907c-.351-.246-.709-.484-1.08-.707a8.3,8.3,0,0,0-4.26-1.18,2.966,2.966,0,0,0-2.944,2.692,14.01,14.01,0,0,0-2.491-.229,4.908,4.908,0,0,0-4.269,2.488c-.278-.011-.557-.026-.836-.026A3.467,3.467,0,0,0,6.586,58.33a3.258,3.258,0,0,0-1.212,3.6,3.216,3.216,0,0,0,.608,5.606l-.751,9.711,2.463.19.723-9.4,1.544.257a6.526,6.526,0,0,1,3.556,1.83,9.026,9.026,0,0,0,5.377,2.586l6.551.729a8.944,8.944,0,0,1,3.039.9,9.169,9.169,0,0,1,1.374.85l4.186,3.14,1.478-1.97-4.186-3.139a11.5,11.5,0,0,0-5.623-2.227l-6.552-.729a6.559,6.559,0,0,1-3.907-1.878,8.964,8.964,0,0,0-4.893-2.517L7.1,65.324A.768.768,0,0,1,7.227,63.8a12.493,12.493,0,0,1,3.039.369l3.283.82.6-2.389-3.281-.821a15.021,15.021,0,0,0-3.1-.415A.912.912,0,0,1,8.609,60.1a15.861,15.861,0,0,1,5.025.815l1.059.353.778-2.339-1.058-.352a18.306,18.306,0,0,0-5.455-.928,1.024,1.024,0,0,1-.033-.191,1.053,1.053,0,0,1,1.052-1.052,20.235,20.235,0,0,1,4.906.6l2.363.59.6-2.389-2.362-.591c-.529-.132-1.066-.239-1.6-.334a2.439,2.439,0,0,1,1.2-.344,11.521,11.521,0,0,1,4.292.826l3.87,1.548.914-2.285-3.869-1.549c-.065-.026-.133-.043-.2-.069a.643.643,0,0,1-.084-.275v-.149a.511.511,0,0,1,.51-.51,5.828,5.828,0,0,1,2.993.829,14.851,14.851,0,0,1,6.043,6.929l1.635,3.817a1.231,1.231,0,0,0,.261.385l2.463,2.463a1.232,1.232,0,0,0,.218.174l19.7,12.313L55.136,76.3,35.558,64.06l-2.2-2.2L32.345,59.5l4.094.512.936,1.873,2.2-1.1-1.231-2.463a1.231,1.231,0,0,0-.949-.671l-6.262-.783a17.182,17.182,0,0,0-2.963-4l5.676-1.42a1.231,1.231,0,0,0,.933-1.194V46.1a12.067,12.067,0,0,0,12.313,0v4.151a1.231,1.231,0,0,0,.933,1.194l16.083,4.021a12.226,12.226,0,0,1,9.226,10.924l.846,11.044,2.463-.19L75.8,66.2A14.7,14.7,0,0,0,64.717,53.078L49.558,49.291V44.151c.159-.163.325-.316.477-.493a22.932,22.932,0,0,0,4.585-8.182h1.095a4.914,4.914,0,0,0,2.869-8.911l.291-2.034a53.414,53.414,0,0,0,.534-7.525,8.651,8.651,0,0,0-1.8-5.253l1.38-1.209a1.213,1.213,0,0,0,.3-1.354,1.29,1.29,0,0,0-1.2-.8,6.439,6.439,0,0,1-4.957-2.325A14.037,14.037,0,0,0,42.313,1,25.792,25.792,0,0,0,32.1,3.093a7.749,7.749,0,0,0-4.631,6.113,8.619,8.619,0,0,0-5,7.8A53.37,53.37,0,0,0,23,24.519l.292,2.046a4.914,4.914,0,0,0,2.869,8.911h1.095a22.932,22.932,0,0,0,4.585,8.186c.151.172.318.326.477.493v5.139ZM55.715,33.014h-.453a22.942,22.942,0,0,0,.453-4.47v-.456a2.463,2.463,0,0,1,0,4.925Zm1.231-16.007a51.05,51.05,0,0,1-.51,7.176l-.214,1.495a4.6,4.6,0,0,0-.507-.052,1.231,1.231,0,0,0-.361-.87,11.306,11.306,0,0,1-3.333-8.048v-.246a17.058,17.058,0,0,0,1.643-1.252l2.093-1.826A6.088,6.088,0,0,1,56.946,17.007ZM33.071,5.36a23.321,23.321,0,0,1,9.242-1.9A11.574,11.574,0,0,1,51.23,7.639a8.854,8.854,0,0,0,4.154,2.786l-3.342,2.926a14.776,14.776,0,0,1-9.73,3.656,23.342,23.342,0,0,1-9.242-1.9,5.3,5.3,0,0,1,0-9.751ZM25.437,24.184a51.08,51.08,0,0,1-.5-7.177,6.157,6.157,0,0,1,2.674-5.059,7.731,7.731,0,0,0,2.251,3.936v.824a11.306,11.306,0,0,1-3.333,8.048,1.231,1.231,0,0,0-.361.871,4.6,4.6,0,0,0-.507.052Zm.726,8.83a2.463,2.463,0,1,1,0-4.925v.456a22.942,22.942,0,0,0,.453,4.47Zm2.463-4.47V26.119a13.718,13.718,0,0,0,3.659-8.679,25.8,25.8,0,0,0,10.028,2.03,17.238,17.238,0,0,0,7.3-1.629,13.719,13.719,0,0,0,3.641,8.278v2.426a20.5,20.5,0,0,1-5.071,13.5,9.623,9.623,0,0,1-14.483,0,20.491,20.491,0,0,1-5.071-13.5Z" transform="translate(0.678 0)" fill="#12263f"/>
      <path id="Trazado_885628" data-name="Trazado 885628" d="M55.161,61.029l2.492-3.115-1.923-1.539-2.486,3.116a11.934,11.934,0,0,1-5.554,3.872l.778,2.339A14.4,14.4,0,0,0,55.161,61.029Z" transform="translate(10.783 12.809)" fill="#12263f"/>
      <path id="Trazado_885629" data-name="Trazado 885629" d="M18.473,38.463V36A14.725,14.725,0,0,0,5.309,44.059L7.5,45.179a12.274,12.274,0,0,1,10.971-6.717Z" transform="translate(0.98 8.096)" fill="#12263f"/>
      <path id="Trazado_885630" data-name="Trazado 885630" d="M18.222,33.463q.576,0,1.144.041l.175-2.463c-.435-.025-.877-.041-1.319-.041A18.39,18.39,0,0,0,1.071,42.6l2.288.916A15.936,15.936,0,0,1,18.222,33.463Z" transform="translate(0 6.939)" fill="#12263f"/>
    </g>
  </g>
</svg>
