<svg xmlns="http://www.w3.org/2000/svg" width="80" height="80" viewBox="0 0 80 80">
  <g id="Grupo_1115467" data-name="Grupo 1115467" transform="translate(-208.14 -8646)">
    <g id="Grupo_1115448" data-name="Grupo 1115448" transform="translate(209.986 8638.131)">
      <g id="Grupo_1115447" data-name="Grupo 1115447" transform="translate(0 11.678)">
        <path id="Trazado_885600" data-name="Trazado 885600" d="M73,11.678A21.033,21.033,0,0,0,60.861,15.5a1.124,1.124,0,1,0,1.291,1.841,18.92,18.92,0,1,1,.888,31.582,6.119,6.119,0,0,0,.679-2.809c0-.08,0-.158-.007-.237A16.013,16.013,0,1,0,57.932,27.4a13.981,13.981,0,0,0-2.273-2.123A18.88,18.88,0,0,1,58.5,20.7a1.124,1.124,0,0,0-1.723-1.445,21.1,21.1,0,0,0-3.04,4.827A13.779,13.779,0,0,0,47.4,22.544H42.82A13.88,13.88,0,0,0,28.956,36.408V41.2a6.153,6.153,0,0,0,0,9.837v5.8a5.619,5.619,0,0,0,2.454,4.641l-4.766,2.035a10.1,10.1,0,0,0-6.144,9.3v8.723a3.376,3.376,0,0,0,3.372,3.372H50.252a1.124,1.124,0,1,0,0-2.248H23.872a1.125,1.125,0,0,1-1.124-1.124V72.822a7.859,7.859,0,0,1,4.779-7.237l7.314-3.123h4.785a5.619,5.619,0,0,0,10.967,0H55.36l7.283,3.12a7.86,7.86,0,0,1,4.771,7.233v8.731a1.125,1.125,0,0,1-1.124,1.124H55.5a1.124,1.124,0,1,0,0,2.248H66.289a3.376,3.376,0,0,0,3.372-3.372V72.814a10.105,10.105,0,0,0-6.134-9.3L58.8,61.489a5.619,5.619,0,0,0,2.464-4.648v-5.8c.135-.1.265-.212.391-.324A21.166,21.166,0,1,0,73,11.678Zm0,7.39A13.769,13.769,0,0,1,83.5,41.754L79.544,37.8a9.707,9.707,0,0,0-10.958-15.95,4.25,4.25,0,0,0-2.053,2.939l-2.438-2.438A13.759,13.759,0,0,1,73,19.068Zm-.759,14.608a4.6,4.6,0,0,0,.641,2.1,5.32,5.32,0,0,0-.784,1.775,1.124,1.124,0,0,0-2.2.326v1.206a2.123,2.123,0,0,0,1.887,2.124,2.235,2.235,0,0,0,.276.017A2.085,2.085,0,0,0,74.1,39.64a3.535,3.535,0,0,0,.108-.868,3.065,3.065,0,0,1,.931-2.2l.839.839a1.884,1.884,0,0,0-.585,1.364c0,1.57-.5,4.2-3.857,4.2h-.028a2.827,2.827,0,0,1-2.793-2.831v-10ZM70.851,29.1a1.116,1.116,0,0,0,1.3-1.109V26.443a4.027,4.027,0,0,1,1.279-.208h.08A4.065,4.065,0,0,1,77.173,28.8c-.1-.007-.209-.011-.314-.011a4.627,4.627,0,0,0-4,2.315Zm4.621,4.621-.91-.91a2.369,2.369,0,0,1,2.8-1.72A4.025,4.025,0,0,1,75.472,33.726Zm4.227-3.6a6.328,6.328,0,0,0-6.149-6.141,6.258,6.258,0,0,0-2.164.339,2.214,2.214,0,0,0-1.487,2.1v1.57a1.114,1.114,0,0,0,.015.173l-1.2-1.2V25.521a2,2,0,0,1,.994-1.727A7.432,7.432,0,0,1,73.43,22.8c.125,0,.25,0,.375.009A7.459,7.459,0,0,1,77.943,36.2l-.848-.848A6.271,6.271,0,0,0,79.7,30.129ZM62.5,23.936,66.466,27.9V40.146a5.08,5.08,0,0,0,5.027,5.08h.041c3.67,0,5.985-2.349,6.1-6.157l4.275,4.275a13.757,13.757,0,0,1-20.647-3.3V36.408a13.778,13.778,0,0,0-1.693-6.633A13.7,13.7,0,0,1,62.5,23.936ZM28.748,46.117A3.917,3.917,0,0,1,32.661,42.2h.44c0,.033,0,.065,0,.1V47.5a12,12,0,0,0,.272,2.535h-.709a3.917,3.917,0,0,1-3.913-3.912Zm10.741,14.1H34.577A3.376,3.376,0,0,1,31.2,56.841V52.1a6.148,6.148,0,0,0,1.456.175h1.434a12.086,12.086,0,0,0,5.395,5.828Zm8.993,1.018a3.372,3.372,0,1,1-6.745,0v-2.21a11.959,11.959,0,0,0,6.745,0ZM45.11,57.258A9.774,9.774,0,0,1,35.347,47.5V42.3a2.615,2.615,0,0,1,2.511-2.62,1.124,1.124,0,1,0-.093-2.246A4.855,4.855,0,0,0,33.7,39.957H32.661a6.155,6.155,0,0,0-1.456.175V36.408A11.629,11.629,0,0,1,42.82,24.792H47.4A11.629,11.629,0,0,1,59.015,36.408v3.724a6.147,6.147,0,0,0-1.456-.175h-.438v-1.2a4.877,4.877,0,0,0-4.871-4.871h-3.2a3.606,3.606,0,0,0-3.328,2.206,2.19,2.19,0,0,1-2.021,1.34h-.648a1.124,1.124,0,1,0,0,2.248H43.7A4.434,4.434,0,0,0,47.8,36.966a1.362,1.362,0,0,1,1.257-.834h3.2a2.626,2.626,0,0,1,2.623,2.623V47.5A9.774,9.774,0,0,1,45.11,57.258Zm13.905-.417a3.376,3.376,0,0,1-3.372,3.372H50.73V58.106a12.086,12.086,0,0,0,5.395-5.828h1.434a6.155,6.155,0,0,0,1.456-.175ZM57.559,50.03H56.85a12,12,0,0,0,.272-2.535V42.2h.438a3.912,3.912,0,0,1,0,7.825Z" transform="translate(-17.427 -11.678)" fill="#12263f"/>
        <path id="Trazado_885601" data-name="Trazado 885601" d="M146.136,211.648v-2.01a1.124,1.124,0,1,0-2.248,0v2.01a1.124,1.124,0,1,0,2.248,0Z" transform="translate(-122.322 -179.012)" fill="#12263f"/>
        <path id="Trazado_885602" data-name="Trazado 885602" d="M211.624,208.514a1.124,1.124,0,0,0-1.124,1.124v2.01a1.124,1.124,0,0,0,2.248,0v-2.01A1.124,1.124,0,0,0,211.624,208.514Z" transform="translate(-178.95 -179.012)" fill="#12263f"/>
        <path id="Trazado_885603" data-name="Trazado 885603" d="M166.748,229.084a1.124,1.124,0,1,0,1.644-1.534l-1.374-1.472,1.42-1.725a1.124,1.124,0,1,0-1.735-1.429L164.91,225.1a1.585,1.585,0,0,0,.065,2.083Z" transform="translate(-139.887 -190.913)" fill="#12263f"/>
        <path id="Trazado_885604" data-name="Trazado 885604" d="M160.106,272.414a4.153,4.153,0,0,1-5.867,0,1.124,1.124,0,1,0-1.59,1.59,6.4,6.4,0,0,0,9.046,0,1.124,1.124,0,1,0-1.59-1.59Z" transform="translate(-129.49 -233.055)" fill="#12263f"/>
        <path id="Trazado_885605" data-name="Trazado 885605" d="M4.525,209.055a1.124,1.124,0,0,0,0-1.59,7.8,7.8,0,0,1,0-11.015,1.124,1.124,0,0,0-1.59-1.59,10.048,10.048,0,0,0,0,14.194,1.124,1.124,0,0,0,1.59,0Z" transform="translate(0 -167.125)" fill="#12263f"/>
        <path id="Trazado_885606" data-name="Trazado 885606" d="M27.987,223.832a1.124,1.124,0,0,0,1.59-1.59,3.319,3.319,0,0,1,0-4.689,1.124,1.124,0,1,0-1.59-1.59,5.57,5.57,0,0,0,0,7.868Z" transform="translate(-22.409 -185.065)" fill="#12263f"/>
      </g>
    </g>
    <rect id="Rectángulo_409529" data-name="Rectángulo 409529" width="80" height="80" transform="translate(208.14 8646)" fill="none"/>
  </g>
</svg>
