<svg xmlns="http://www.w3.org/2000/svg" width="80.14" height="80.053" viewBox="0 0 80.14 80.053">
  <g id="Grupo_1115468" data-name="Grupo 1115468" transform="translate(-205 -9064)">
    <g id="Grupo_1115464" data-name="Grupo 1115464" transform="translate(205 9050.699)">
      <g id="Grupo_1115453" data-name="Grupo 1115453" transform="translate(0 90.687)">
        <g id="Grupo_1115452" data-name="Grupo 1115452" transform="translate(0 0)">
          <path id="Trazado_885617" data-name="Trazado 885617" d="M78.667,443.97H1.333a1.333,1.333,0,0,0,0,2.667H78.667a1.333,1.333,0,0,0,0-2.667Z" transform="translate(0 -443.97)" fill="#12263f"/>
        </g>
      </g>
      <g id="Grupo_1115455" data-name="Grupo 1115455" transform="translate(8.012 71.697)">
        <g id="Grupo_1115454" data-name="Grupo 1115454">
          <path id="Trazado_885618" data-name="Trazado 885618" d="M63.624,335.661a1.333,1.333,0,0,0-1.077-.908l-3.784-.549-1.691-3.428a1.333,1.333,0,0,0-2.391,0L52.992,334.2l-3.787.552a1.333,1.333,0,0,0-.739,2.267l2.737,2.667-.645,3.768a1.333,1.333,0,0,0,1.933,1.405l3.384-1.779,3.383,1.785a1.333,1.333,0,0,0,1.935-1.405l-.647-3.768,2.739-2.667A1.333,1.333,0,0,0,63.624,335.661Zm-5.432,2.613a1.333,1.333,0,0,0-.383,1.181l.307,1.8L56.5,340.4a1.333,1.333,0,0,0-1.239,0l-1.613.848.307-1.8a1.333,1.333,0,0,0-.383-1.181L52.27,337l1.8-.267a1.333,1.333,0,0,0,1-.729l.807-1.635.807,1.633a1.333,1.333,0,0,0,1,.731l1.8.267Z" transform="translate(-48.071 -330.033)" fill="#12263f"/>
        </g>
      </g>
      <g id="Grupo_1115457" data-name="Grupo 1115457" transform="translate(7.993 24.816)">
        <g id="Grupo_1115456" data-name="Grupo 1115456" transform="translate(0 0)">
          <path id="Trazado_885619" data-name="Trazado 885619" d="M106.478,78.711,92.915,65.151a1.333,1.333,0,0,0-1.885,0L81.3,74.872l-8.909-8.909A12.017,12.017,0,0,0,82.634,54.091v-.228a4,4,0,0,0-8,0A4.233,4.233,0,0,1,70.4,58.091a20.1,20.1,0,0,0-6.864,1.223,8,8,0,1,0-8.1,5.419l-.408.419a14.533,14.533,0,0,0,0,20.552l.505.505a4.159,4.159,0,0,0,5.876-5.888l-.505-.505a6.221,6.221,0,0,1-.841-7.733L78.612,90.618H67.967a1.333,1.333,0,1,0,0,2.667H81.274l1.36,1.36v11.973a5.325,5.325,0,0,0,.721,2.667H74.634a1.333,1.333,0,0,0,0,2.667H87.967a5.333,5.333,0,0,0,5.333-5.333V90.084a1.333,1.333,0,0,0-.391-.943l-5.724-5.724,4.781-4.773,7.292,7.285a5.1,5.1,0,1,0,7.219-7.219ZM50.634,56.758a5.333,5.333,0,1,1,5.333,5.333A5.333,5.333,0,0,1,50.634,56.758ZM104.57,84.045a2.422,2.422,0,0,1-3.426-.007l-8.229-8.22a1.333,1.333,0,0,0-1.885,0l-6.663,6.667a1.333,1.333,0,0,0,0,1.885l6.267,6.275v15.973a2.667,2.667,0,0,1-5.333,0V94.084a1.333,1.333,0,0,0-.391-.943l-24-24a1.333,1.333,0,0,0-1.885,0,8.884,8.884,0,0,0,0,12.552l.505.505a1.5,1.5,0,0,1-2.115,2.115l-.505-.505a11.867,11.867,0,0,1,0-16.781l1.172-1.171A17.313,17.313,0,0,1,70.4,60.751a6.9,6.9,0,0,0,6.9-6.888,1.333,1.333,0,1,1,2.667,0v.228a9.344,9.344,0,0,1-9.333,9.333A1.333,1.333,0,0,0,69.3,64.758v1.333a1.333,1.333,0,0,0,.391.943L80.358,77.7a1.333,1.333,0,0,0,1.885,0l9.724-9.723L104.587,80.6A2.439,2.439,0,0,1,104.57,84.045Z" transform="translate(-47.96 -48.747)" fill="#12263f"/>
        </g>
      </g>
      <g id="Grupo_1115459" data-name="Grupo 1115459" transform="translate(25.333 85.353)">
        <g id="Grupo_1115458" data-name="Grupo 1115458" transform="translate(0 0)">
          <path id="Trazado_885620" data-name="Trazado 885620" d="M156,411.97h-2.667a1.333,1.333,0,0,0,0,2.667H156a1.333,1.333,0,0,0,0-2.667Z" transform="translate(-152 -411.97)" fill="#12263f"/>
        </g>
      </g>
      <g id="Grupo_1115461" data-name="Grupo 1115461" transform="translate(18.667 66.687)">
        <g id="Grupo_1115460" data-name="Grupo 1115460">
          <path id="Trazado_885621" data-name="Trazado 885621" d="M116,299.97h-2.667a1.333,1.333,0,1,0,0,2.667H116a1.333,1.333,0,1,0,0-2.667Z" transform="translate(-112 -299.97)" fill="#12263f"/>
        </g>
      </g>
      <g id="Grupo_1115463" data-name="Grupo 1115463" transform="translate(58.667 20.03)">
        <g id="Grupo_1115462" data-name="Grupo 1115462" transform="translate(0 0)">
          <path id="Trazado_885622" data-name="Trazado 885622" d="M372,21.9a1.33,1.33,0,0,0-.267.027h.009a10.9,10.9,0,0,1-7.8-1.357l-.585-.353a1.2,1.2,0,0,0-.113-.049c-.039-.019-.077-.035-.117-.051a1.324,1.324,0,0,0-.917,0c-.04.016-.079.032-.117.051a1.217,1.217,0,0,0-.113.049l-.585.353a10.89,10.89,0,0,1-7.8,1.357,1.334,1.334,0,0,0-1.6,1.307V36.656a10.489,10.489,0,0,0,1.48,5.372,10.35,10.35,0,0,0,4.821,4.229l3.837,1.653a1.325,1.325,0,0,0,1.048,0l3.839-1.653a10.35,10.35,0,0,0,4.821-4.229,10.489,10.489,0,0,0,1.487-5.372V23.229A1.333,1.333,0,0,0,372,21.9ZM361.339,44.659l-1.977-.852a7.7,7.7,0,0,1-3.587-3.145,7.823,7.823,0,0,1-1.1-4v-11.9a13.518,13.518,0,0,0,6.667-1.169Zm8.231-4a7.7,7.7,0,0,1-3.587,3.147L364,44.66V23.592a13.52,13.52,0,0,0,6.667,1.169l.005,11.9A7.824,7.824,0,0,1,369.569,40.661Z" transform="translate(-352 -20.03)" fill="#12263f"/>
        </g>
      </g>
    </g>
    <rect id="Rectángulo_409532" data-name="Rectángulo 409532" width="80" height="80" transform="translate(205.14 9064)" fill="none"/>
  </g>
</svg>
