<svg xmlns="http://www.w3.org/2000/svg" width="34.269" height="41.775" viewBox="0 0 34.269 41.775">
  <g id="Grupo_1115539" data-name="Grupo 1115539" transform="translate(-46)">
    <g id="Grupo_1115534" data-name="Grupo 1115534" transform="translate(70.478 35.003)">
      <g id="Grupo_1115533" data-name="Grupo 1115533">
        <path id="Trazado_885691" data-name="Trazado 885691" d="M346.816,429a.816.816,0,1,0,.816.816A.816.816,0,0,0,346.816,429Z" transform="translate(-346 -429)" fill="#144735"/>
      </g>
    </g>
    <g id="Grupo_1115536" data-name="Grupo 1115536" transform="translate(54.159 35.003)">
      <g id="Grupo_1115535" data-name="Grupo 1115535">
        <path id="Trazado_885692" data-name="Trazado 885692" d="M146.816,429a.816.816,0,1,0,.816.816A.816.816,0,0,0,146.816,429Z" transform="translate(-146 -429)" fill="#144735"/>
      </g>
    </g>
    <g id="Grupo_1115538" data-name="Grupo 1115538" transform="translate(46)">
      <g id="Grupo_1115537" data-name="Grupo 1115537">
        <path id="Trazado_885693" data-name="Trazado 885693" d="M78.771,30.777A9.22,9.22,0,0,0,75.112,27.5a.812.812,0,0,0-.463-.213,8.535,8.535,0,0,0-3.355-.684H68.846V24.446a9.359,9.359,0,0,0,2.929-4.619h.335a3.262,3.262,0,0,0,2.4-5.476c.051-.044.1-.089.15-.137a2.447,2.447,0,0,0-.943-4.048A9.006,9.006,0,0,0,67.166,2.2a2.6,2.6,0,0,0-2.4-2.2H61.5a2.6,2.6,0,0,0-2.4,2.2,9.006,9.006,0,0,0-6.547,7.962,2.446,2.446,0,0,0-.793,4.185,3.261,3.261,0,0,0,2.4,5.476h.333a9.379,9.379,0,0,0,2.284,4.009c.2.214.422.417.647.61V26.6H54.975a8.536,8.536,0,0,0-3.355.684.812.812,0,0,0-.463.213A9.349,9.349,0,0,0,46,35.819v5.14a.816.816,0,0,0,.816.816H79.453a.816.816,0,0,0,.816-.816v-5.14A9.276,9.276,0,0,0,78.771,30.777ZM50.9,40.143H47.632V35.819A7.794,7.794,0,0,1,50.9,29.546ZM72.109,18.195h-.037c.024-.271.037-.544.037-.816V14.931a1.632,1.632,0,0,1,0,3.264ZM59.055,3.928v3.66a.816.816,0,0,0,1.632,0v-4.9c0-.506.427-1.061.816-1.061h3.264c.389,0,.816.555.816,1.061v4.9a.816.816,0,0,0,1.632,0V3.928a7.376,7.376,0,0,1,4.85,6.108H54.2A7.376,7.376,0,0,1,59.055,3.928Zm-4.9,14.267a1.632,1.632,0,0,1,0-3.264v2.448c0,.272.013.545.037.816Zm0-4.9h-.816a.816.816,0,0,1,0-1.632H72.925a.816.816,0,0,1,0,1.632H54.159Zm1.78,5.563c0-.009,0-.018-.005-.026a7.525,7.525,0,0,1-.143-1.457V14.931H70.478v2.448a7.528,7.528,0,0,1-.143,1.457c0,.009,0,.018-.005.027a7.729,7.729,0,0,1-2.843,4.589,7,7,0,0,1-8.7,0,7.56,7.56,0,0,1-.828-.745A7.737,7.737,0,0,1,55.939,18.863Zm6.379,21.281H55.791V38.267a.816.816,0,0,0-1.632,0v1.877H52.527V28.677a6.906,6.906,0,0,1,1.632-.4v5.092a.816.816,0,0,0,1.632,0v-5.14h2.1l4.429,4.651ZM59.055,27.088v-1.52a8.593,8.593,0,0,0,8.159,0v1.52l-4.08,4.284ZM73.741,40.143H72.109V38.267a.816.816,0,0,0-1.632,0v1.877H63.95V32.881l4.429-4.651h2.1v5.14a.816.816,0,0,0,1.632,0V28.279a6.907,6.907,0,0,1,1.632.4Zm4.9,0H75.373v-10.6a7.8,7.8,0,0,1,3.264,6.273Z" transform="translate(-46)" fill="#144735"/>
      </g>
    </g>
  </g>
</svg>
