<svg xmlns="http://www.w3.org/2000/svg" width="72" height="72" viewBox="0 0 72 72">
  <g id="Grupo_1108436" data-name="Grupo 1108436" transform="translate(-273.332 -3741.5)">
    <rect id="Rectángulo_402033" data-name="Rectángulo 402033" width="72" height="72" rx="5" transform="translate(273.332 3741.5)" fill="#d7f5ea"/>
    <g id="Layer_2" data-name="Layer 2" transform="translate(283.166 3751.338)">
      <path id="Trazado_885683" data-name="Trazado 885683" d="M9.993,1,4.27,4.27v7.495a9.815,9.815,0,0,1-1.035,4.387l-1.2,2.4A9.816,9.816,0,0,0,1,22.938V43.514H18.169V14.9Z" transform="translate(-0.182 -0.183)" fill="#fcab68"/>
      <path id="Trazado_885684" data-name="Trazado 885684" d="M30.176,1,35.9,4.27v7.495a9.815,9.815,0,0,0,1.035,4.387l1.2,2.4a9.816,9.816,0,0,1,1.036,4.388V43.514H22V14.9Z" transform="translate(-4.013 -0.183)" fill="#fcab68"/>
      <rect id="Rectángulo_409548" data-name="Rectángulo 409548" width="34.338" height="4.905" transform="translate(0.818 23.71)" fill="#ea8e49"/>
      <rect id="Rectángulo_409549" data-name="Rectángulo 409549" width="34.338" height="4.905" transform="translate(0.818 33.521)" fill="#ea8e49"/>
      <path id="Trazado_885685" data-name="Trazado 885685" d="M39.9,39h0A13.9,13.9,0,0,0,26,52.9v.818H53.8V52.9A13.9,13.9,0,0,0,39.9,39Z" transform="translate(-4.743 -7.115)" fill="#f8c460"/>
      <path id="Trazado_885686" data-name="Trazado 885686" d="M53.689,51.916H32.477a3.27,3.27,0,0,1-3.169-4.084,16.247,16.247,0,0,1,2.08-5.256A13.863,13.863,0,0,0,26,53.551v.818H53.8v-.818a13.942,13.942,0,0,0-.109-1.635Z" transform="translate(-4.743 -7.767)" fill="#faaf42"/>
      <path id="Trazado_885687" data-name="Trazado 885687" d="M43.151,50.081H40.959a1.635,1.635,0,0,1-1.607-1.334l-1.477-7.875A3.27,3.27,0,0,1,41.09,37H43.02a3.27,3.27,0,0,1,3.215,3.873l-1.477,7.875A1.635,1.635,0,0,1,43.151,50.081Z" transform="translate(-6.899 -6.75)" fill="#faaf42"/>
      <rect id="Rectángulo_409550" data-name="Rectángulo 409550" width="32.703" height="4.905" rx="2.453" transform="translate(18.804 46.602)" fill="#f8c460"/>
      <path id="Trazado_885688" data-name="Trazado 885688" d="M25.453,59.453A2.453,2.453,0,0,1,27.905,57H25.453a2.453,2.453,0,1,0,0,4.905h2.453A2.453,2.453,0,0,1,25.453,59.453Z" transform="translate(-4.196 -10.398)" fill="#faaf42"/>
      <path id="Trazado_885689" data-name="Trazado 885689" d="M12,1l8.176,13.9L28.352,1A21.257,21.257,0,0,1,12,1Z" transform="translate(-2.189 -0.183)" fill="#ea8e49"/>
      <path id="Trazado_885690" data-name="Trazado 885690" d="M49.873,45.9v-.115a14.65,14.65,0,0,0-10.027-13.94,4.058,4.058,0,0,0-3.724-2.412h-.148V22.755A10.69,10.69,0,0,0,34.852,18l-1.2-2.4a9.033,9.033,0,0,1-.949-4.022V4.088a.818.818,0,0,0-.409-.71L26.571.108a.818.818,0,0,0-.709-.05,20.556,20.556,0,0,1-15.745,0A.818.818,0,0,0,9.4.108L3.679,3.378a.818.818,0,0,0-.409.71v7.495A9.033,9.033,0,0,1,2.321,15.6L1.122,18A10.69,10.69,0,0,0,0,22.755V43.332a.818.818,0,0,0,.818.818H20.535a14.943,14.943,0,0,0-.1,1.635v.121a3.264,3.264,0,0,0,.818,6.42h27.8a3.263,3.263,0,0,0,.818-6.425Zm-1.635-.115H22.075a13.012,13.012,0,0,1,8.042-12.068,4.07,4.07,0,0,0,.061.561l1.472,7.874a2.453,2.453,0,0,0,2.411,2h2.191a2.453,2.453,0,0,0,2.41-2l1.477-7.875a4.061,4.061,0,0,0,.061-.559A13.023,13.023,0,0,1,48.237,45.784ZM1.635,29.433H17.169V32.7H1.635Zm0-4.905H17.169V27.8H1.635ZM31.046,30.91a4.069,4.069,0,0,0-.572.928A14.956,14.956,0,0,0,28.4,32.7H18.8v-3.27H34.19A4.073,4.073,0,0,0,31.046,30.91ZM34.338,27.8H18.8v-3.27H34.338Zm-32.7,6.541H17.169v3.27H1.635Zm17.169,0h7.087a14.6,14.6,0,0,0-2.985,3.27H18.8Zm19.2-2.384a2.443,2.443,0,0,1,.524,2.019l-1.477,7.875a.818.818,0,0,1-.8.666H34.06a.818.818,0,0,1-.8-.666L31.78,33.973a2.453,2.453,0,0,1,2.41-2.9h1.931a2.442,2.442,0,0,1,1.886.886ZM32.19,16.338l1.2,2.4a9.034,9.034,0,0,1,.949,4.019v.137H18.8V14.939L26.458,1.927l4.61,2.634v7.021a10.69,10.69,0,0,0,1.122,4.753ZM24.332,2.317,17.987,13.1,11.642,2.317a21.818,21.818,0,0,0,12.691,0ZM2.584,18.734l1.2-2.4a10.69,10.69,0,0,0,1.122-4.753V4.562l4.61-2.634,7.653,13.012v7.953H1.635v-.137a9.033,9.033,0,0,1,.949-4.022Zm-.949,23.78v-3.27H17.169v3.27Zm17.169,0v-3.27H21.96a14.672,14.672,0,0,0-1.155,3.27ZM49.055,50.69h-27.8a1.635,1.635,0,1,1,0-3.27h27.8a1.635,1.635,0,0,1,0,3.27Z" transform="translate(0 0)"/>
    </g>
  </g>
</svg>
