<svg xmlns="http://www.w3.org/2000/svg" width="100" height="100" viewBox="0 0 100 100">
  <g id="Grupo_1100965" data-name="Grupo 1100965" transform="translate(0.242)">
    <g id="Grupo_1098742" data-name="Grupo 1098742" transform="translate(0)">
      <rect id="Rectángulo_400898" data-name="Rectángulo 400898" width="100" height="100" rx="50" transform="translate(-0.242)" fill="#fff" opacity="0.859"/>
      <g id="Rectángulo_400907" data-name="Rectángulo 400907" transform="translate(-0.242)" fill="none" stroke="#3acc97" stroke-linecap="round" stroke-width="2" stroke-dasharray="7">
        <rect width="100" height="100" rx="50" stroke="none"/>
        <rect x="1" y="1" width="98" height="98" rx="49" fill="none"/>
      </g>
    </g>
    <g id="Grupo_1107006" data-name="Grupo 1107006" transform="translate(8.156 8.156)">
      <rect id="Rectángulo_400898-2" data-name="Rectángulo 400898" width="84" height="84" rx="42" transform="translate(-0.399 -0.157)" fill="#d7f5ea" opacity="0.859"/>
      <rect id="Rectángulo_400907-2" data-name="Rectángulo 400907" width="84" height="84" rx="42" transform="translate(-0.398 -0.157)" fill="none"/>
    </g>
    <g id="Grupo_1115643" data-name="Grupo 1115643" transform="translate(14.892 -20.598)">
      <g id="Grupo_1115616" data-name="Grupo 1115616" transform="translate(47.504 51.109)">
        <path id="Trazado_885824" data-name="Trazado 885824" d="M348.792,116.548v4.467h7.285v-4.467a3.643,3.643,0,1,0-7.285,0Z" transform="translate(-348.792 -112.903)" fill="#ffe58a" fill-rule="evenodd"/>
      </g>
      <g id="Grupo_1115617" data-name="Grupo 1115617" transform="translate(49.677 51.109)">
        <path id="Trazado_885825" data-name="Trazado 885825" d="M366.926,119.652h2.938v-3.1a3.656,3.656,0,0,0-3.644-3.645,3.6,3.6,0,0,0-1.467.313,3.653,3.653,0,0,1,2.174,3.332Z" transform="translate(-364.752 -112.903)" fill="#ffd772" fill-rule="evenodd"/>
      </g>
      <g id="Grupo_1115618" data-name="Grupo 1115618" transform="translate(39.226 57.858)">
        <path id="Trazado_885826" data-name="Trazado 885826" d="M288.017,181.7v10.679h8.644a7.2,7.2,0,0,1,10,0h4.289v-8.552a.581.581,0,0,1,.579-.579h4.3v-3.9a3.665,3.665,0,0,0-.042-.938l-11.111-3.861,5.505-6.625L307.9,163.7c-.676-1.255-.444-1.251-1.869-1.251H288.017V181.7Z" transform="translate(-288.017 -162.454)" fill="#f9f7f8" fill-rule="evenodd"/>
      </g>
      <g id="Grupo_1115619" data-name="Grupo 1115619" transform="translate(2.461 49.931)">
        <path id="Trazado_885827" data-name="Trazado 885827" d="M18.073,104.956v26.666H56.2V104.956a.7.7,0,0,0-.7-.7H18.772a.7.7,0,0,0-.7.7Z" transform="translate(-18.073 -104.257)" fill="#f9f7f8" fill-rule="evenodd"/>
      </g>
      <g id="Grupo_1115620" data-name="Grupo 1115620" transform="translate(14.001 55.707)">
        <path id="Trazado_885828" data-name="Trazado 885828" d="M102.8,155.267a1.489,1.489,0,0,0,1.486,1.486h3.471v3.471a1.489,1.489,0,0,0,1.482,1.486h2.166a1.489,1.489,0,0,0,1.482-1.486v-3.471h3.475a1.489,1.489,0,0,0,1.482-1.486V153.1a1.489,1.489,0,0,0-1.482-1.486h-3.475v-3.471a1.488,1.488,0,0,0-1.482-1.482h-2.166a1.488,1.488,0,0,0-1.482,1.482v3.471h-3.471A1.489,1.489,0,0,0,102.8,153.1Z" transform="translate(-102.801 -146.665)" fill="#f37c7c" fill-rule="evenodd"/>
      </g>
      <g id="Grupo_1115621" data-name="Grupo 1115621" transform="translate(2.461 78.655)">
        <path id="Trazado_885829" data-name="Trazado 885829" d="M18.073,315.161v9.131h9.4a7.209,7.209,0,0,1,10,0H56.2v-9.131Z" transform="translate(-18.073 -315.161)" fill="#f9f7f8" fill-rule="evenodd"/>
      </g>
      <g id="Grupo_1115622" data-name="Grupo 1115622" transform="translate(1.021 86.423)">
        <path id="Trazado_885830" data-name="Trazado 885830" d="M7.5,373.366v3.108a1.171,1.171,0,0,0,1.166,1.17h8.841c0-.089,0,.8,0-.263a9.3,9.3,0,0,1,2.2-5.185H8.666a1.171,1.171,0,0,0-1.166,1.17Z" transform="translate(-7.5 -372.196)" fill="#e0dfe1" fill-rule="evenodd"/>
      </g>
      <g id="Grupo_1115623" data-name="Grupo 1115623" transform="translate(56.503 86.423)">
        <path id="Trazado_885831" data-name="Trazado 885831" d="M414.868,372.2a9.307,9.307,0,0,1,2.2,5.185c0,1.062,0,.174,0,.263h8.837a1.171,1.171,0,0,0,1.17-1.17v-3.108a1.171,1.171,0,0,0-1.17-1.17H414.868Z" transform="translate(-414.868 -372.196)" fill="#e0dfe1" fill-rule="evenodd"/>
      </g>
      <g id="Grupo_1115624" data-name="Grupo 1115624" transform="translate(35.621 49.931)">
        <path id="Trazado_885832" data-name="Trazado 885832" d="M266.511,130.259v-25.3a.7.7,0,0,0-.7-.7h-4.266a.7.7,0,0,1,.7.7v25.3Z" transform="translate(-261.542 -104.257)" fill="#f0f0f0" fill-rule="evenodd"/>
      </g>
      <g id="Grupo_1115625" data-name="Grupo 1115625" transform="translate(36.323 80.018)">
        <path id="Trazado_885833" data-name="Trazado 885833" d="M266.7,325.167h4.266v6.4H266.7Z" transform="translate(-266.701 -325.167)" fill="#f0f0f0" fill-rule="evenodd"/>
      </g>
      <g id="Grupo_1115626" data-name="Grupo 1115626" transform="translate(60.85 78.655)">
        <path id="Trazado_885834" data-name="Trazado 885834" d="M446.786,315.74v7.189h6.185v-7.768h-5.609A.58.58,0,0,0,446.786,315.74Z" transform="translate(-446.786 -315.161)" fill="#ffe58a" fill-rule="evenodd"/>
      </g>
      <g id="Grupo_1115627" data-name="Grupo 1115627" transform="translate(51.874 63.332)">
        <path id="Trazado_885835" data-name="Trazado 885835" d="M380.881,204.157v7.471a1.514,1.514,0,0,0,1.509,1.51H396a3.883,3.883,0,0,0-.34-.71l-5.266-9.775h-8A1.513,1.513,0,0,0,380.881,204.157Z" transform="translate(-380.881 -202.651)" fill="#edf4ff" fill-rule="evenodd"/>
      </g>
      <g id="Grupo_1115628" data-name="Grupo 1115628" transform="translate(65.305 86.423)">
        <path id="Trazado_885836" data-name="Trazado 885836" d="M482.9,376.473v-3.108a1.171,1.171,0,0,0-1.17-1.17H479.5a1.171,1.171,0,0,1,1.166,1.17v3.108a1.171,1.171,0,0,1-1.166,1.17h2.235A1.171,1.171,0,0,0,482.9,376.473Z" transform="translate(-479.499 -372.195)" fill="#d3cfd2" fill-rule="evenodd"/>
      </g>
      <g id="Grupo_1115629" data-name="Grupo 1115629" transform="translate(54.669 57.857)">
        <path id="Trazado_885837" data-name="Trazado 885837" d="M405.063,167.928h3.058l-2.274-4.224c-.676-1.255-.444-1.251-1.869-1.251H401.4c.691,0,1.027.583,1.386,1.251Z" transform="translate(-401.403 -162.453)" fill="#f0f0f0" fill-rule="evenodd"/>
      </g>
      <g id="Grupo_1115630" data-name="Grupo 1115630" transform="translate(58.329 63.332)">
        <path id="Trazado_885838" data-name="Trazado 885838" d="M434.134,213.137h2.807a3.885,3.885,0,0,0-.34-.71l-5.266-9.775h-3.058Z" transform="translate(-428.277 -202.651)" fill="#dbeaff" fill-rule="evenodd"/>
      </g>
      <g id="Grupo_1115631" data-name="Grupo 1115631" transform="translate(64.185 73.818)">
        <path id="Trazado_885839" data-name="Trazado 885839" d="M471.324,284.479h2.8v-3.9a3.666,3.666,0,0,0-.042-.938h-2.807a3.441,3.441,0,0,1,.046.938Z" transform="translate(-471.278 -279.642)" fill="#f0f0f0" fill-rule="evenodd"/>
      </g>
      <g id="Grupo_1115632" data-name="Grupo 1115632" transform="translate(2.461 75.934)">
        <path id="Trazado_885840" data-name="Trazado 885840" d="M18.073,295.176v4.085H56.2v-4.085Z" transform="translate(-18.073 -295.176)" fill="#ff8086" fill-rule="evenodd"/>
      </g>
      <g id="Grupo_1115633" data-name="Grupo 1115633" transform="translate(36.323 75.934)">
        <path id="Trazado_885841" data-name="Trazado 885841" d="M270.967,299.261v-4.085H266.7v4.085Z" transform="translate(-266.701 -295.176)" fill="#ee6161" fill-rule="evenodd"/>
      </g>
      <g id="Grupo_1115634" data-name="Grupo 1115634" transform="translate(20.498 86.423)">
        <path id="Trazado_885842" data-name="Trazado 885842" d="M150.508,372.2a9.307,9.307,0,0,1,2.2,5.185c0,1.062,0,.174-.008.263h24.338c0-.089,0,.8,0-.263a9.326,9.326,0,0,1,2.2-5.185H150.508Z" transform="translate(-150.508 -372.196)" fill="#e0dfe1" fill-rule="evenodd"/>
      </g>
      <g id="Grupo_1115635" data-name="Grupo 1115635" transform="translate(45.666 84.408)">
        <path id="Trazado_885843" data-name="Trazado 885843" d="M337.5,359.414a7.187,7.187,0,0,0-2.2,5.185c0,.089,0,.174,0,.263a7.2,7.2,0,0,0,14.393,0c0-.089.008-.174.008-.263a7.2,7.2,0,0,0-12.2-5.185Z" transform="translate(-335.299 -357.399)" fill="#7e707d" fill-rule="evenodd"/>
      </g>
      <g id="Grupo_1115636" data-name="Grupo 1115636" transform="translate(50.183 88.921)">
        <path id="Trazado_885844" data-name="Trazado 885844" d="M368.477,393.486a2.686,2.686,0,0,0,5.347,0c.008-.089.012-.174.012-.263a2.685,2.685,0,1,0-5.37,0C368.465,393.312,368.469,393.4,368.477,393.486Z" transform="translate(-368.465 -390.536)" fill="#f9f7f8" fill-rule="evenodd"/>
      </g>
      <g id="Grupo_1115637" data-name="Grupo 1115637" transform="translate(9.661 84.408)">
        <path id="Trazado_885845" data-name="Trazado 885845" d="M78.139,357.4a7.194,7.194,0,0,0-7.2,7.2c0,.089,0,.174,0,.263a7.2,7.2,0,0,0,14.393,0c0-.089,0-.174,0-.263a7.194,7.194,0,0,0-7.2-7.2Zm0,4.513a2.689,2.689,0,0,1,2.687,2.687c0,.089,0,.174-.012.263a2.686,2.686,0,0,1-5.347,0c-.008-.089-.015-.174-.015-.263A2.689,2.689,0,0,1,78.139,361.911Z" transform="translate(-70.939 -357.398)" fill="#7e707d" fill-rule="evenodd"/>
      </g>
      <g id="Grupo_1115638" data-name="Grupo 1115638" transform="translate(14.175 88.921)">
        <path id="Trazado_885846" data-name="Trazado 885846" d="M106.764,390.536a2.689,2.689,0,0,0-2.687,2.687c0,.089.008.174.015.263a2.686,2.686,0,0,0,5.347,0c.008-.089.012-.174.012-.263A2.689,2.689,0,0,0,106.764,390.536Z" transform="translate(-104.077 -390.536)" fill="#f9f7f8" fill-rule="evenodd"/>
      </g>
      <g id="Grupo_1115639" data-name="Grupo 1115639" transform="translate(14.862 84.408)">
        <path id="Trazado_885847" data-name="Trazado 885847" d="M111.121,371.8a7.2,7.2,0,0,0,7.2-6.938c0-.089,0-.174,0-.263a7.2,7.2,0,0,0-9.2-6.918,7.149,7.149,0,0,1,4.173,1.733c.1.085.193.174.286.263a7.181,7.181,0,0,1,2.2,5.185c0,.089,0,.174-.008.263a7.2,7.2,0,0,1-5.193,6.656C110.762,371.792,110.94,371.8,111.121,371.8Z" transform="translate(-109.121 -357.399)" fill="#6a5d6a" fill-rule="evenodd"/>
      </g>
      <g id="Grupo_1115640" data-name="Grupo 1115640" transform="translate(50.866 84.408)">
        <path id="Trazado_885848" data-name="Trazado 885848" d="M375.482,371.8a7.2,7.2,0,0,0,7.2-6.938c0-.089.008-.174.008-.263a7.208,7.208,0,0,0-9.2-6.918,7.149,7.149,0,0,1,4.173,1.733c.1.085.193.174.286.263a7.181,7.181,0,0,1,2.2,5.185c0,.089,0,.174,0,.263a7.211,7.211,0,0,1-5.2,6.656C375.123,371.792,375.3,371.8,375.482,371.8Z" transform="translate(-373.482 -357.399)" fill="#6a5d6a" fill-rule="evenodd"/>
      </g>
      <g id="Grupo_1115641" data-name="Grupo 1115641" transform="translate(64.232 78.655)">
        <path id="Trazado_885849" data-name="Trazado 885849" d="M471.618,315.161h2.8v7.768h-2.8Z" transform="translate(-471.618 -315.161)" fill="#ffd772" fill-rule="evenodd"/>
      </g>
      <g id="Grupo_1115642" data-name="Grupo 1115642" transform="translate(0 41.366)">
        <path id="Trazado_885850" data-name="Trazado 885850" d="M100.285,383.036a3.709,3.709,0,1,0,3.708,3.709A3.713,3.713,0,0,0,100.285,383.036Zm0,5.374a1.666,1.666,0,1,1,1.666-1.666A1.667,1.667,0,0,1,100.285,388.41Z" transform="translate(-83.424 -336.502)"/>
        <path id="Trazado_885851" data-name="Trazado 885851" d="M364.67,383.036a3.709,3.709,0,1,0,3.708,3.709A3.711,3.711,0,0,0,364.67,383.036Zm0,5.374a1.666,1.666,0,1,1,1.666-1.666A1.665,1.665,0,0,1,364.67,388.41Z" transform="translate(-311.803 -336.502)"/>
        <path id="Trazado_885852" data-name="Trazado 885852" d="M97.809,151.3h2.449v2.449a2.509,2.509,0,0,0,2.5,2.508h2.166a2.509,2.509,0,0,0,2.5-2.508V151.3h2.453a2.509,2.509,0,0,0,2.5-2.508v-2.162a2.509,2.509,0,0,0-2.5-2.508h-2.453v-2.449a2.507,2.507,0,0,0-2.5-2.5h-2.166a2.507,2.507,0,0,0-2.5,2.5v2.449H97.809a2.511,2.511,0,0,0-2.508,2.508v2.162a2.511,2.511,0,0,0,2.508,2.508Zm-.465-4.67a.465.465,0,0,1,.465-.465h3.471a1.021,1.021,0,0,0,1.021-1.021v-3.471a.467.467,0,0,1,.461-.461h2.166a.467.467,0,0,1,.461.461v3.471a1.021,1.021,0,0,0,1.021,1.021h3.475a.469.469,0,0,1,.461.465v2.162a.469.469,0,0,1-.461.465H106.41a1.021,1.021,0,0,0-1.021,1.021v3.471a.469.469,0,0,1-.461.465h-2.166a.469.469,0,0,1-.461-.465v-3.471a1.021,1.021,0,0,0-1.021-1.021H97.809a.465.465,0,0,1-.465-.465Z" transform="translate(-82.321 -125.845)"/>
        <path id="Trazado_885853" data-name="Trazado 885853" d="M51.591,134.157a1.021,1.021,0,0,0,1.021-1.021V131.4a1.021,1.021,0,0,0-2.043,0v1.737A1.021,1.021,0,0,0,51.591,134.157Z" transform="translate(-43.683 -118.254)"/>
        <path id="Trazado_885854" data-name="Trazado 885854" d="M251.547,134.157a1.021,1.021,0,0,0,1.021-1.021V131.4a1.021,1.021,0,0,0-2.043,0v1.737A1.021,1.021,0,0,0,251.547,134.157Z" transform="translate(-216.406 -118.254)"/>
        <path id="Trazado_885855" data-name="Trazado 885855" d="M68.056,133.314s0-10.914,0-11a2.822,2.822,0,0,0-.506-1.844s-7.7-14.308-7.765-14.431c-.626-1.231-1.039-1.356-2.543-1.356H55.81V102.6a4.664,4.664,0,1,0-9.328,0v2.083H41.611V98.478a1.724,1.724,0,0,0-1.724-1.72H3.16a1.722,1.722,0,0,0-1.72,1.72v34.906A2.192,2.192,0,0,0,0,135.441v3.108a2.192,2.192,0,0,0,2.187,2.191H8.741a8.221,8.221,0,0,0,16.241,0H32.81a1.021,1.021,0,0,0,0-2.043H25.047a8.17,8.17,0,0,0-1.1-3.4H45.781a8.163,8.163,0,0,0-1.1,3.4H37.508a1.021,1.021,0,0,0,0,2.043h7.237a8.224,8.224,0,0,0,16.245,0h6.55a2.194,2.194,0,0,0,2.191-2.191v-3.108a2.193,2.193,0,0,0-1.675-2.127ZM8.7,138.484c-.006.054-.014.107-.019.161,0,.018,0,.035-.006.052H2.187a.15.15,0,0,1-.145-.148v-3.108a.15.15,0,0,1,.145-.148H9.768A8.117,8.117,0,0,0,8.7,138.484Zm8.162,7.151a6.179,6.179,0,1,1,6.179-6.179A6.186,6.186,0,0,1,16.862,145.635ZM39.568,133.25H22.245a8.2,8.2,0,0,0-10.766,0h-8v-4.362H39.568Zm0-27.544V122.76H23.433a1.021,1.021,0,0,0,0,2.043H39.568v2.042H3.483V124.8H18.715a1.021,1.021,0,0,0,0-2.043H3.483V98.8H39.568Zm21.21,6.5,4.547,8.443H53.383a.5.5,0,0,1-.488-.488v-7.471a.493.493,0,0,1,.488-.484Zm-12.252-9.6a2.621,2.621,0,1,1,5.242,0v2.083H48.525Zm10.52,37c0,.025,0,.048,0,.075s0,.025,0,.038a6.15,6.15,0,1,1,.007-.256c0,.048,0,.1,0,.143Zm.783-6.349H58.252a8.2,8.2,0,0,0-10.769,0H41.611V106.727H57.584a.432.432,0,0,1,.381.236v0c.069.135,1.711,3.192,1.711,3.192H53.383a2.532,2.532,0,0,0-2.531,2.527v7.471a2.531,2.531,0,0,0,2.531,2.531h12.63v2.795H61.425a1.6,1.6,0,0,0-1.6,1.6Zm6.185-5.725v5.725H61.871v-5.725Zm1.676,11.024a.15.15,0,0,1-.148.148H61.057c0-.018,0-.035-.006-.053-.005-.053-.012-.105-.019-.158a8.121,8.121,0,0,0-1.069-3.194h7.577a.15.15,0,0,1,.148.148v3.108Z" transform="translate(0 -89.214)"/>
        <path id="Trazado_885856" data-name="Trazado 885856" d="M369.044,45.9a1.021,1.021,0,0,0,1.021-1.021V42.387a1.021,1.021,0,0,0-2.043,0v2.486A1.021,1.021,0,0,0,369.044,45.9Z" transform="translate(-317.9 -41.366)"/>
        <path id="Trazado_885857" data-name="Trazado 885857" d="M322.746,65.435a1.021,1.021,0,1,0,1.691-1.146L322.75,61.8a1.021,1.021,0,0,0-1.691,1.146Z" transform="translate(-277.18 -58.628)"/>
        <path id="Trazado_885858" data-name="Trazado 885858" d="M403.253,65.709a1.021,1.021,0,0,0,1.418-.273l1.687-2.49a1.021,1.021,0,1,0-1.691-1.146l-1.687,2.49A1.021,1.021,0,0,0,403.253,65.709Z" transform="translate(-347.944 -58.629)"/>
      </g>
    </g>
  </g>
</svg>
