<svg xmlns="http://www.w3.org/2000/svg" width="100" height="100" viewBox="0 0 100 100">
  <g id="Grupo_1100965" data-name="Grupo 1100965" transform="translate(0.242)">
    <g id="Grupo_1098742" data-name="Grupo 1098742" transform="translate(0)">
      <rect id="Rectángulo_400898" data-name="Rectángulo 400898" width="100" height="100" rx="50" transform="translate(-0.242)" fill="#fff" opacity="0.859"/>
      <g id="Rectángulo_400907" data-name="Rectángulo 400907" transform="translate(-0.242)" fill="none" stroke="#3acc97" stroke-linecap="round" stroke-width="2" stroke-dasharray="7">
        <rect width="100" height="100" rx="50" stroke="none"/>
        <rect x="1" y="1" width="98" height="98" rx="49" fill="none"/>
      </g>
    </g>
    <g id="Grupo_1107006" data-name="Grupo 1107006" transform="translate(8.156 8.156)">
      <rect id="Rectángulo_400898-2" data-name="Rectángulo 400898" width="84" height="84" rx="42" transform="translate(-0.399 -0.157)" fill="#d7f5ea" opacity="0.859"/>
      <rect id="Rectángulo_400907-2" data-name="Rectángulo 400907" width="84" height="84" rx="42" transform="translate(-0.398 -0.157)" fill="none"/>
    </g>
    <g id="Grupo_1115612" data-name="Grupo 1115612" transform="translate(16.155 16.398)">
      <g id="Grupo_1115610" data-name="Grupo 1115610" transform="translate(1.313 21.848)">
        <path id="Trazado_885756" data-name="Trazado 885756" d="M22.589,195.648l-4.285-4.56a7.9,7.9,0,0,1-2.141-5.406V169.536a3.082,3.082,0,0,0-2.414-3.008h0A3.081,3.081,0,0,0,10,169.536v20.352a11.469,11.469,0,0,0,2.117,6.639l2.341,3.3,5.6,7.888,1.976,2.784H36.962l-2.151-10.25a18.119,18.119,0,0,0-7.623-11.316L22.6,185.843a3.29,3.29,0,0,0-4.3.549h0a3.541,3.541,0,0,0,.075,4.778c2.514,2.664,6.255,6.648,6.255,6.648" transform="translate(-10 -166.453)" fill="#ffcdac"/>
        <path id="Trazado_885757" data-name="Trazado 885757" d="M310.955,195.648l4.285-4.56a7.9,7.9,0,0,0,2.141-5.406V169.536a3.082,3.082,0,0,1,2.414-3.008h0a3.081,3.081,0,0,1,3.749,3.008v20.352a11.469,11.469,0,0,1-2.117,6.639l-2.341,3.3-5.6,7.888L311.51,210.5H296.581l2.151-10.25a18.119,18.119,0,0,1,7.623-11.316l4.591-3.087a3.29,3.29,0,0,1,4.3.549h0a3.541,3.541,0,0,1-.075,4.778c-2.514,2.664-6.255,6.648-6.255,6.648" transform="translate(-258.966 -166.453)" fill="#ffcdac"/>
      </g>
      <g id="Grupo_1115611" data-name="Grupo 1115611" transform="translate(13.571 23.575)">
        <path id="Trazado_885758" data-name="Trazado 885758" d="M280.137,183.865a4.844,4.844,0,0,1,2.364-1.353l3.352-.8v-2.046h4.093v2.053h0l3.343.8a4.856,4.856,0,0,1,3.728,4.723v2.451h-7.41Z" transform="translate(-256.938 -179.655)" fill="#7d9bff"/>
        <path id="Trazado_885759" data-name="Trazado 885759" d="M120.27,183.814a4.844,4.844,0,0,0-2.364-1.353l-3.351-.8v-2.046h-4.093v2.053h0l-3.343.8a4.856,4.856,0,0,0-3.728,4.723v2.451h7.41Z" transform="translate(-103.39 -179.611)" fill="#7d9bff"/>
      </g>
      <path id="Trazado_885760" data-name="Trazado 885760" d="M169.079,211.07l-4.668,1.119a6.764,6.764,0,0,0-5.188,6.578v4.72h25.405v-4.716a6.764,6.764,0,0,0-5.192-6.579l-4.656-1.112" transform="translate(-138.323 -183.366)" fill="#78d2fa"/>
      <path id="Trazado_885761" data-name="Trazado 885761" d="M240.013,189.357v2.859l-2.849,6.479-2.852-6.488v-2.85" transform="translate(-203.557 -164.503)" fill="#ffb487"/>
      <path id="Trazado_885762" data-name="Trazado 885762" d="M220.424,114.551V118.5a6.354,6.354,0,0,1-6.354,6.354h0a6.354,6.354,0,0,1-6.354-6.354v-3.948" transform="translate(-180.451 -99.516)" fill="#ffcdac"/>
      <path id="Trazado_885763" data-name="Trazado 885763" d="M214.07,64h0a6.354,6.354,0,0,0-6.354,6.354v1.53h3.107a6.981,6.981,0,0,0,5.351-2.5h0l4.251,2.5v-1.53A6.354,6.354,0,0,0,214.07,64Z" transform="translate(-180.451 -55.6)" fill="#bebebe"/>
      <path id="Trazado_885764" data-name="Trazado 885764" d="M147.239,95.271v-1.1a4.562,4.562,0,0,0-4.562-4.562h0a4.562,4.562,0,0,0-4.562,4.562v1.1h3.145a10.876,10.876,0,0,0,5.591-1.547h0" transform="translate(-119.986 -77.849)" fill="#f5b955"/>
      <path id="Trazado_885765" data-name="Trazado 885765" d="M147.239,125.9v2.834a4.562,4.562,0,0,1-4.562,4.562h0a4.562,4.562,0,0,1-4.562-4.562V125.9" transform="translate(-119.986 -109.378)" fill="#ffcdac"/>
      <path id="Trazado_885766" data-name="Trazado 885766" d="M304.5,95.322v-1.1a4.562,4.562,0,0,1,4.562-4.562h0a4.562,4.562,0,0,1,4.562,4.562v1.1h-3.145a10.876,10.876,0,0,1-5.591-1.547h0" transform="translate(-264.532 -77.893)" fill="#f5b955"/>
      <path id="Trazado_885767" data-name="Trazado 885767" d="M304.5,125.955v2.834a4.562,4.562,0,0,0,4.562,4.562h0a4.562,4.562,0,0,0,4.562-4.562v-2.834" transform="translate(-264.532 -109.423)" fill="#ffcdac"/>
      <path id="Trazado_885768" data-name="Trazado 885768" d="M79.007,471.344a1.313,1.313,0,1,0-2.141,1.52l1.976,2.784a1.313,1.313,0,1,0,2.141-1.52Z" transform="translate(-66.566 -408.997)"/>
      <path id="Trazado_885769" data-name="Trazado 885769" d="M27.41,191.287a19.33,19.33,0,0,0-8.175-12.135l-4.591-3.087a4.619,4.619,0,0,0-5.855.6V160.846a4.394,4.394,0,0,0-7.144-3.427A4.373,4.373,0,0,0,0,160.846V181.2a12.714,12.714,0,0,0,2.359,7.4l2.341,3.3a1.313,1.313,0,1,0,2.141-1.52l-2.341-3.3A10.1,10.1,0,0,1,2.626,181.2V160.846a1.769,1.769,0,1,1,3.538,0v16.147a9.171,9.171,0,0,0,2.365,6.158c.065.078.133.156.2.231.872.924,1.9,2.012,2.862,3.038l1.351,1.438.014.013,2.026,2.156a1.312,1.312,0,1,0,1.913-1.8c-.024-.025-1.56-1.662-3.315-3.527l-3.01-3.2-.022-.025a2.215,2.215,0,0,1,.043-2.9,1.984,1.984,0,0,1,2.584-.33l4.591,3.087a16.718,16.718,0,0,1,7.071,10.5l2.151,10.25a1.313,1.313,0,1,0,2.569-.539Z" transform="translate(0 -135.916)"/>
      <path id="Trazado_885770" data-name="Trazado 885770" d="M58.265,442.126a1.313,1.313,0,0,0-2.137,1.525l.008.012a1.313,1.313,0,0,0,2.137-1.525Z" transform="translate(-48.548 -383.616)"/>
      <path id="Trazado_885771" data-name="Trazado 885771" d="M314.524,157.422a4.394,4.394,0,0,0-7.144,3.427v15.816a4.619,4.619,0,0,0-5.855-.6l-4.591,3.087a19.329,19.329,0,0,0-8.175,12.135l-2.15,10.25a1.312,1.312,0,1,0,2.569.539l2.151-10.25a16.718,16.718,0,0,1,7.071-10.5l4.591-3.087a1.984,1.984,0,0,1,2.584.33,2.215,2.215,0,0,1,.046,2.9l-.025.028-6.325,6.73a1.312,1.312,0,1,0,1.913,1.8c.018-.019,5.381-5.722,6.253-6.645.071-.075.138-.153.2-.231A9.172,9.172,0,0,0,310.005,177V160.849a1.769,1.769,0,1,1,3.538,0V181.2a10.1,10.1,0,0,1-1.875,5.879l-9.917,13.969a1.313,1.313,0,1,0,2.141,1.52l9.917-13.969a12.714,12.714,0,0,0,2.359-7.4V160.849A4.374,4.374,0,0,0,314.524,157.422Z" transform="translate(-248.964 -135.918)"/>
      <path id="Trazado_885772" data-name="Trazado 885772" d="M127.436,88.345a1.313,1.313,0,0,0,1.313-1.313V82.317c0-.163-.007-.324-.016-.484h6.049a1.313,1.313,0,0,0,1.313-1.313V78.069a6.149,6.149,0,0,0-4.736-6l-2.335-.558v-.419a5.871,5.871,0,0,0,2.513-4.813V63.243a5.87,5.87,0,0,0-9.686-4.465,7.664,7.664,0,0,0-14.2.011,5.87,5.87,0,0,0-9.7,4.454v3.036a5.871,5.871,0,0,0,2.513,4.813v.419l-2.335.558a6.149,6.149,0,0,0-4.735,6V80.52A1.313,1.313,0,0,0,94.7,81.832h6.031c-.009.159-.016.319-.016.481v4.72a1.313,1.313,0,0,0,1.313,1.313h7.89a1.313,1.313,0,1,0,0-2.625h-1.356V83.008a1.313,1.313,0,0,0-2.625,0V85.72h-2.6V82.313a5.435,5.435,0,0,1,4.181-5.3l3.6-.863,2.411,5.484a1.313,1.313,0,0,0,1.2.784h0a1.312,1.312,0,0,0,1.2-.784l2.408-5.476,3.591.858a5.434,5.434,0,0,1,4.185,5.3v3.4h-2.6V83.008a1.313,1.313,0,1,0-2.625,0V85.72h-1.488a1.313,1.313,0,1,0,0,2.625ZM110.574,72.421a6.159,6.159,0,0,0-1.051-.354l-2.345-.562V71.1a5.923,5.923,0,0,0,1.138-1.039,7.727,7.727,0,0,0,2.258,2.263Zm-10-6.143v-.625H102.4a12.193,12.193,0,0,0,4.667-.929v1.554a3.249,3.249,0,0,1-6.5,0Zm9.136-.384V64.509H111.5a8.27,8.27,0,0,0,5.577-2.155l2.707,1.59v2.143a5.041,5.041,0,0,1-10.078-.192Zm9.191,6.53v-.089a7.725,7.725,0,0,0,2.277-2.269A5.921,5.921,0,0,0,122.3,71.1V71.5l-2.345.562A6.177,6.177,0,0,0,118.9,72.425Zm3.512-6.147v-.192c0-.064,0-.128,0-.192V64.726a12.193,12.193,0,0,0,4.662.927h1.832v.625a3.249,3.249,0,1,1-6.5,0Zm3.249-6.285a3.254,3.254,0,0,1,3.242,3.035h-1.825a9.567,9.567,0,0,1-4.4-1.073A3.254,3.254,0,0,1,125.661,59.993Zm-15.953,1.673a5.042,5.042,0,0,1,10.02-.8l-2.21-1.3a1.312,1.312,0,0,0-1.671.289,5.655,5.655,0,0,1-4.345,2.028h-1.794v-.217Zm-5.886-1.673a3.254,3.254,0,0,1,2.983,1.962,9.567,9.567,0,0,1-4.4,1.073H100.58A3.254,3.254,0,0,1,103.822,59.993Zm3.091,14.465a8.05,8.05,0,0,0-5.578,4.749h-5.32V78.069a3.532,3.532,0,0,1,2.72-3.447l3.343-.8a1.313,1.313,0,0,0,1.008-1.277v-.441a5.7,5.7,0,0,0,1.468,0v.374c0,.02,0,.039,0,.059a1.315,1.315,0,0,0,1.067,1.291l1.958.469Zm7.826,3.384-1.54-3.5V73.4a7.692,7.692,0,0,0,3.075,0v.941Zm7.81-3.382-.659-.157,1.968-.472a1.314,1.314,0,0,0,1.072-1.293c0-.01,0-.021,0-.031v-.4a5.7,5.7,0,0,0,1.468,0v.441a1.313,1.313,0,0,0,1.008,1.277l3.343.8a3.532,3.532,0,0,1,2.72,3.447v1.139H128.13A8.048,8.048,0,0,0,122.549,74.461Z" transform="translate(-81.131 -46.912)"/>
      <path id="Trazado_885773" data-name="Trazado 885773" d="M247.313,295.67a1.311,1.311,0,1,0,.928.383A1.319,1.319,0,0,0,247.313,295.67Z" transform="translate(-213.71 -256.862)"/>
      <path id="Trazado_885774" data-name="Trazado 885774" d="M247.307,4.589a1.313,1.313,0,0,0,1.313-1.313V1.313a1.313,1.313,0,0,0-2.625,0V3.277A1.313,1.313,0,0,0,247.307,4.589Z" transform="translate(-213.705)"/>
      <path id="Trazado_885775" data-name="Trazado 885775" d="M193.361,22.83a1.312,1.312,0,1,0,1.855-1.857L193.84,19.6a1.313,1.313,0,1,0-1.855,1.857Z" transform="translate(-166.45 -16.691)"/>
      <path id="Trazado_885776" data-name="Trazado 885776" d="M291.058,23.462a1.308,1.308,0,0,0,.928-.385l1.366-1.368a1.313,1.313,0,1,0-1.857-1.855l-1.366,1.368a1.313,1.313,0,0,0,.929,2.24Z" transform="translate(-251.714 -16.914)"/>
    </g>
  </g>
</svg>
