<svg xmlns="http://www.w3.org/2000/svg" width="100" height="100" viewBox="0 0 100 100">
  <g id="Grupo_1100965" data-name="Grupo 1100965" transform="translate(0.242)">
    <g id="Grupo_1098742" data-name="Grupo 1098742" transform="translate(0)">
      <rect id="Rectángulo_400898" data-name="Rectángulo 400898" width="100" height="100" rx="50" transform="translate(-0.242)" fill="#fff" opacity="0.859"/>
      <g id="Rectángulo_400907" data-name="Rectángulo 400907" transform="translate(-0.242)" fill="none" stroke="#3acc97" stroke-linecap="round" stroke-width="2" stroke-dasharray="7">
        <rect width="100" height="100" rx="50" stroke="none"/>
        <rect x="1" y="1" width="98" height="98" rx="49" fill="none"/>
      </g>
    </g>
    <g id="Grupo_1107006" data-name="Grupo 1107006" transform="translate(8.156 8.156)">
      <rect id="Rectángulo_400898-2" data-name="Rectángulo 400898" width="84" height="84" rx="42" transform="translate(-0.399 -0.157)" fill="#d7f5ea" opacity="0.859"/>
      <rect id="Rectángulo_400907-2" data-name="Rectángulo 400907" width="84" height="84" rx="42" transform="translate(-0.398 -0.157)" fill="none"/>
    </g>
    <g id="_15-health_insurance" data-name="15-health insurance" transform="translate(19.956 20.1)">
      <circle id="Elipse_11700" data-name="Elipse 11700" cx="4.657" cy="4.657" r="4.657" transform="translate(2.794 47.509)" fill="#a17db9"/>
      <path id="Trazado_885777" data-name="Trazado 885777" d="M9.518,59.392a4.639,4.639,0,0,1-2.933-8.247,4.648,4.648,0,1,0,4,8.112,4.664,4.664,0,0,1-1.072.135Z" transform="translate(-0.205 -3.501)" fill="#72518d"/>
      <circle id="Elipse_11701" data-name="Elipse 11701" cx="4.657" cy="4.657" r="4.657" transform="translate(47.497 5.6)" fill="#a17db9"/>
      <path id="Trazado_885778" data-name="Trazado 885778" d="M57.518,14.392a4.639,4.639,0,0,1-2.933-8.247,4.648,4.648,0,1,0,4,8.112,4.664,4.664,0,0,1-1.072.135Z" transform="translate(-3.502 -0.41)" fill="#72518d"/>
      <path id="Trazado_885779" data-name="Trazado 885779" d="M58.306,33.626a1.4,1.4,0,0,0-1.4,1.4v.466H50.242A12.959,12.959,0,0,0,47.574,29.3l2.619-2.619.329.329A1.4,1.4,0,1,0,52.5,25.032L49.2,21.74a1.4,1.4,0,1,0-1.975,1.975l.329.329-2.682,2.682a12.956,12.956,0,0,0-5.662-2.265V17.794h.466a1.4,1.4,0,1,0,0-2.794H35.023a1.4,1.4,0,0,0,0,2.794h.466v6.667a12.956,12.956,0,0,0-5.662,2.265l-2.682-2.682.329-.329A1.4,1.4,0,1,0,25.5,21.74l-3.292,3.292a1.4,1.4,0,1,0,1.975,1.975l.329-.329L27.128,29.3a12.959,12.959,0,0,0-2.667,6.191H17.794v-.466a1.4,1.4,0,1,0-2.794,0V39.68a1.4,1.4,0,0,0,2.794,0v-.466h6.667a12.956,12.956,0,0,0,2.265,5.662L24.51,47.093l-.329-.329a1.4,1.4,0,1,0-1.975,1.975L25.5,52.031a1.4,1.4,0,1,0,1.975-1.975l-.329-.329L29.3,47.574a12.959,12.959,0,0,0,6.191,2.667v6.667h-.466a1.4,1.4,0,0,0,0,2.794H39.68a1.4,1.4,0,1,0,0-2.794h-.466V50.242a12.959,12.959,0,0,0,6.191-2.667l2.153,2.153-.329.329a1.4,1.4,0,1,0,1.975,1.975L52.5,48.739a1.4,1.4,0,1,0-1.975-1.975l-.329.329-2.217-2.217a12.956,12.956,0,0,0,2.265-5.662h6.667v.466a1.4,1.4,0,0,0,2.794,0V35.023A1.4,1.4,0,0,0,58.306,33.626Z" transform="translate(-1.03 -1.018)" fill="#61c7aa"/>
      <g id="Grupo_1115613" data-name="Grupo 1115613" transform="translate(27.437 28.262)">
        <ellipse id="Elipse_11702" data-name="Elipse 11702" cx="3.26" cy="2.794" rx="3.26" ry="2.794" transform="matrix(0.866, -0.5, 0.5, 0.866, 8.388, 13.334)" fill="#2f897c"/>
        <ellipse id="Elipse_11703" data-name="Elipse 11703" cx="2.382" cy="2.746" rx="2.382" ry="2.746" transform="matrix(0.866, -0.5, 0.5, 0.866, 10.792, 2.382)" fill="#2f897c"/>
        <ellipse id="Elipse_11704" data-name="Elipse 11704" cx="1.863" cy="2.328" rx="1.863" ry="2.328" transform="translate(0 13.581) rotate(-68.05)" fill="#2f897c"/>
      </g>
      <g id="Grupo_1115614" data-name="Grupo 1115614" transform="translate(13.97 20.313)" opacity="0.2">
        <path id="Trazado_885780" data-name="Trazado 885780" d="M39.68,57.376h-.466V50.708a12.841,12.841,0,0,0,3.353-.959A15.821,15.821,0,0,1,30.893,26.526c-.364.209-.725.425-1.066.667l-2.682-2.682.329-.329A1.4,1.4,0,1,0,25.5,22.207L22.206,25.5a1.4,1.4,0,1,0,1.975,1.975l.329-.329,2.619,2.619a12.959,12.959,0,0,0-2.667,6.191H17.794V35.49a1.4,1.4,0,0,0-2.794,0v4.657a1.4,1.4,0,1,0,2.794,0v-.466h6.667a12.956,12.956,0,0,0,2.265,5.662L24.51,47.56l-.329-.329a1.4,1.4,0,1,0-1.975,1.975L25.5,52.5a1.4,1.4,0,1,0,1.975-1.975l-.329-.329L29.3,48.041a12.959,12.959,0,0,0,6.191,2.667v6.667h-.466a1.4,1.4,0,0,0,0,2.794H39.68a1.4,1.4,0,1,0,0-2.794Z" transform="translate(-15 -21.797)"/>
        <path id="Trazado_885781" data-name="Trazado 885781" d="M62.05,42.742a1.4,1.4,0,0,0,.885-1.3V40.7A15.748,15.748,0,0,1,62.05,42.742Z" transform="translate(-18.232 -23.096)"/>
      </g>
      <path id="Trazado_885782" data-name="Trazado 885782" d="M26.661,37.221l-6.1,2.907-6.1-2.907A23.6,23.6,0,0,1,1,15.913V6.6A36.985,36.985,0,0,0,20.029,1.33a1.024,1.024,0,0,1,1.056,0A36.985,36.985,0,0,0,40.115,6.6v9.313A23.6,23.6,0,0,1,26.661,37.221Z" transform="translate(-0.069 -0.069)" fill="#2f5ca9"/>
      <path id="Trazado_885783" data-name="Trazado 885783" d="M26,35.06l-5.232,2.491L15.531,35.06A20.229,20.229,0,0,1,4,16.8V8.813A31.7,31.7,0,0,0,20.31,4.3a.877.877,0,0,1,.905,0A31.706,31.706,0,0,0,37.527,8.813V16.8A20.229,20.229,0,0,1,26,35.06Z" transform="translate(-0.275 -0.274)" fill="#79a6d3"/>
      <path id="Trazado_885784" data-name="Trazado 885784" d="M32.351,17.45H24.9V10H17.45v7.45H10V24.9h7.45v7.45H24.9V24.9h7.45Z" transform="translate(-0.687 -0.674)" fill="#e8e8e8"/>
      <path id="Trazado_885785" data-name="Trazado 885785" d="M33.214,24.832v-7.45a.931.931,0,0,0-.931-.931H25.763V9.931A.931.931,0,0,0,24.832,9h-7.45a.931.931,0,0,0-.931.931V16.45H9.931A.931.931,0,0,0,9,17.382v7.45a.931.931,0,0,0,.931.931H16.45v6.519a.931.931,0,0,0,.931.931h7.45a.931.931,0,0,0,.931-.931V25.763h6.519A.931.931,0,0,0,33.214,24.832ZM31.351,23.9H24.832a.931.931,0,0,0-.931.931v6.519H18.313V24.832a.931.931,0,0,0-.931-.931H10.863V18.313h6.519a.931.931,0,0,0,.931-.931V10.863H23.9v6.519a.931.931,0,0,0,.931.931h6.519Z" transform="translate(-0.618 -0.606)"/>
      <path id="Trazado_885786" data-name="Trazado 885786" d="M43.881,41.437a4.465,4.465,0,0,0-3.043.553,3.984,3.984,0,0,0-1.769,5.321A3.507,3.507,0,0,0,41.519,49a4.238,4.238,0,0,0,.767.07,4.563,4.563,0,0,0,2.278-.623,3.984,3.984,0,0,0,1.769-5.321,3.507,3.507,0,0,0-2.452-1.684Zm-.249,5.392a2.608,2.608,0,0,1-1.769.335,1.676,1.676,0,0,1-1.18-.784A2.142,2.142,0,0,1,41.77,43.6a2.7,2.7,0,0,1,1.342-.373,2.3,2.3,0,0,1,.426.038,1.676,1.676,0,0,1,1.18.784A2.142,2.142,0,0,1,43.633,46.829Z" transform="translate(-2.655 -2.829)"/>
      <path id="Trazado_885787" data-name="Trazado 885787" d="M47.357,32.246A3.878,3.878,0,0,0,45.281,30.5a3.139,3.139,0,0,0-2.631.22,3.514,3.514,0,0,0-1.032,4.843A3.888,3.888,0,0,0,43.7,37.309a3.385,3.385,0,0,0,1.1.186,3.048,3.048,0,0,0,1.53-.409,3.135,3.135,0,0,0,1.5-2.168A3.876,3.876,0,0,0,47.357,32.246ZM46,34.565a1.237,1.237,0,0,1-1.7.981,2.019,2.019,0,0,1-1.073-.917,1.664,1.664,0,0,1,.349-2.3,1.2,1.2,0,0,1,.6-.157,1.47,1.47,0,0,1,.488.086A2.12,2.12,0,0,1,46,34.565Z" transform="translate(-2.82 -2.069)"/>
      <path id="Trazado_885788" data-name="Trazado 885788" d="M33.307,41.2a3.56,3.56,0,0,0-2.348-.138,2.541,2.541,0,0,0-1.528,3.792,3.562,3.562,0,0,0,1.786,1.527,3.725,3.725,0,0,0,1.4.279,3.3,3.3,0,0,0,.953-.142A2.541,2.541,0,0,0,35.1,42.725,3.562,3.562,0,0,0,33.307,41.2Zm.251,3.113a.8.8,0,0,1-.529.422,1.834,1.834,0,0,1-1.974-.8.689.689,0,0,1,.441-1.094,1.437,1.437,0,0,1,.416-.058,1.867,1.867,0,0,1,.7.14,1.723,1.723,0,0,1,.861.714.8.8,0,0,1,.088.672Z" transform="translate(-1.996 -2.799)"/>
      <path id="Trazado_885789" data-name="Trazado 885789" d="M57.275,31.677a2.328,2.328,0,0,0-2.282,1.863h-5a13.95,13.95,0,0,0-2.225-5.169L49.2,26.945a2.382,2.382,0,0,0,2.931-.3,2.328,2.328,0,0,0,0-3.293l-3.293-3.293a2.386,2.386,0,0,0-3.293,0,2.334,2.334,0,0,0-.3,2.931L43.727,24.51a14.006,14.006,0,0,0-3.792-1.647,24.307,24.307,0,0,0,1.043-7.019V6.532a.931.931,0,0,0-.931-.931A36.057,36.057,0,0,1,21.5.462a1.956,1.956,0,0,0-2.016,0A36.061,36.061,0,0,1,.931,5.6.931.931,0,0,0,0,6.532v9.313A24.648,24.648,0,0,0,13.984,37.993l1.8.86a.466.466,0,0,1-.888-.191H13.038a2.323,2.323,0,0,0,4.427.989L20.088,40.9a.931.931,0,0,0,.8,0l1.968-.931A14,14,0,0,0,24.5,43.743l-1.051,1.051a2.386,2.386,0,0,0-2.931.3,2.328,2.328,0,0,0,0,3.293l3.293,3.293a2.385,2.385,0,0,0,3.293,0,2.334,2.334,0,0,0,.3-2.931l.959-.96a13.954,13.954,0,0,0,5.17,2.222v5a2.328,2.328,0,0,0,.466,4.61h4.657a2.328,2.328,0,0,0,.466-4.61v-5a13.954,13.954,0,0,0,5.17-2.225l.959.96a2.334,2.334,0,0,0,.3,2.931,2.386,2.386,0,0,0,3.293,0l3.293-3.293a2.328,2.328,0,0,0,0-3.293,2.383,2.383,0,0,0-2.931-.3L48.148,43.74a14,14,0,0,0,1.846-4.613h5a2.328,2.328,0,0,0,4.61-.466V34.005a2.328,2.328,0,0,0-2.328-2.328ZM20.489,39.028l-5.7-2.717A22.776,22.776,0,0,1,1.863,15.845V7.452a37.921,37.921,0,0,0,18.576-5.39.093.093,0,0,1,.1,0,37.926,37.926,0,0,0,18.577,5.39v8.393A22.776,22.776,0,0,1,26.193,36.311Zm37.252-.366a.466.466,0,0,1-.931,0V38.2a.931.931,0,0,0-.931-.931H49.211a.931.931,0,0,0-.922.8,12.09,12.09,0,0,1-2.1,5.254.931.931,0,0,0,.1,1.2L48.5,46.732a.931.931,0,0,0,1.317,0l.33-.33a.466.466,0,1,1,.658.659l-3.293,3.293a.466.466,0,0,1-.659-.659l.33-.324a.931.931,0,0,0,0-1.317L45.033,45.9a.931.931,0,0,0-1.235-.074A12.069,12.069,0,0,1,38.051,48.3a.931.931,0,0,0-.8.922v6.667a.931.931,0,0,0,.931.931h.466a.466.466,0,1,1,0,.931H33.993a.466.466,0,1,1,0-.931h.466a.931.931,0,0,0,.931-.931V49.224a.931.931,0,0,0-.8-.922,12.069,12.069,0,0,1-5.747-2.477.931.931,0,0,0-1.235.074l-2.153,2.153a.931.931,0,0,0,0,1.317l.33.329a.466.466,0,1,1-.659.659l-3.293-3.293a.466.466,0,1,1,.658-.659l.33.33a.931.931,0,0,0,1.317,0l2.217-2.217a.931.931,0,0,0,.1-1.2,12.107,12.107,0,0,1-1.88-4.175L27,37.993A24.626,24.626,0,0,0,39.325,24.627a12.124,12.124,0,0,1,3.98,1.841.931.931,0,0,0,1.2-.1l2.682-2.682a.931.931,0,0,0,0-1.317l-.33-.329a.466.466,0,1,1,.659-.659l3.293,3.293a.466.466,0,1,1-.658.659l-.33-.33A.931.931,0,0,0,48.5,25l-2.617,2.619a.931.931,0,0,0-.074,1.235A12.072,12.072,0,0,1,48.289,34.6a.931.931,0,0,0,.922.8h6.667a.931.931,0,0,0,.931-.931v-.466a.466.466,0,1,1,.931,0Z" transform="translate(0)"/>
      <path id="Trazado_885790" data-name="Trazado 885790" d="M39,37h1.863v1.863H39Z" transform="translate(-2.679 -2.529)"/>
      <path id="Trazado_885791" data-name="Trazado 885791" d="M48,39h1.863v1.863H48Z" transform="translate(-3.297 -2.667)"/>
      <path id="Trazado_885792" data-name="Trazado 885792" d="M36,48h1.863v1.863H36Z" transform="translate(-2.473 -3.285)"/>
      <path id="Trazado_885793" data-name="Trazado 885793" d="M36,40h1.863v1.863H36Z" transform="translate(-2.473 -2.735)"/>
      <path id="Trazado_885794" data-name="Trazado 885794" d="M62.9,11.382V9.519H60.954A5.554,5.554,0,0,0,60.186,7.5L61.754,5.93,60.437,4.613,58.947,6.1a5.57,5.57,0,0,0-2.565-1.157V3H54.519V4.946A5.57,5.57,0,0,0,51.952,6.1l-1.49-1.49L49.147,5.93,50.715,7.5a5.554,5.554,0,0,0-.768,2.021H48v1.863h1.946a5.554,5.554,0,0,0,.768,2.021l-1.567,1.568,1.317,1.317,1.49-1.49a5.57,5.57,0,0,0,2.565,1.157V17.9h1.863V15.954A5.57,5.57,0,0,0,58.949,14.8l1.49,1.49,1.317-1.317L60.186,13.4a5.554,5.554,0,0,0,.768-2.021Zm-7.45,2.794a3.725,3.725,0,1,1,3.725-3.725A3.725,3.725,0,0,1,55.45,14.176Z" transform="translate(-3.297 -0.194)"/>
      <path id="Trazado_885795" data-name="Trazado 885795" d="M56,8h1.863V9.863H56Z" transform="translate(-3.847 -0.537)"/>
      <path id="Trazado_885796" data-name="Trazado 885796" d="M54,12h1.863v1.863H54Z" transform="translate(-3.71 -0.812)"/>
      <path id="Trazado_885797" data-name="Trazado 885797" d="M14.9,56.382V54.519H12.954a5.554,5.554,0,0,0-.768-2.021l1.567-1.568-1.317-1.317-1.49,1.49a5.57,5.57,0,0,0-2.565-1.157V48H6.519v1.946A5.57,5.57,0,0,0,3.952,51.1l-1.49-1.49L1.147,50.93,2.715,52.5a5.554,5.554,0,0,0-.768,2.021H0v1.863H1.946A5.554,5.554,0,0,0,2.715,58.4L1.147,59.971l1.317,1.317,1.49-1.49a5.57,5.57,0,0,0,2.565,1.157V62.9H8.382V60.954A5.57,5.57,0,0,0,10.949,59.8l1.49,1.49,1.317-1.317L12.186,58.4a5.554,5.554,0,0,0,.768-2.021ZM7.45,59.176a3.725,3.725,0,1,1,3.725-3.725A3.725,3.725,0,0,1,7.45,59.176Z" transform="translate(0 -3.285)"/>
      <path id="Trazado_885798" data-name="Trazado 885798" d="M8,53H9.863v1.863H8Z" transform="translate(-0.55 -3.628)"/>
      <path id="Trazado_885799" data-name="Trazado 885799" d="M6,57H7.863v1.863H6Z" transform="translate(-0.412 -3.903)"/>
      <path id="Trazado_885800" data-name="Trazado 885800" d="M30.626,19.45h-6.58a.871.871,0,0,1-.871-.871V12H19.45v6.58a.871.871,0,0,1-.871.871H12v3.725h6.58a.871.871,0,0,1,.871.871v6.58h3.725v-6.58a.871.871,0,0,1,.871-.871h6.58Z" transform="translate(-0.824 -0.812)" fill="#fff"/>
    </g>
  </g>
</svg>
