<svg xmlns="http://www.w3.org/2000/svg" width="46.896" height="46.896" viewBox="0 0 46.896 46.896">
  <g id="Grupo_1115737" data-name="Grupo 1115737" transform="translate(0)">
    <path id="Trazado_885969" data-name="Trazado 885969" d="M21.463,96.861a.733.733,0,0,0,.732.708h.026l3.028-.1A.733.733,0,1,0,25.2,96l-3.028.1a.733.733,0,0,0-.707.757Z" transform="translate(-13.599 -60.827)" fill="#144735"/>
    <path id="Trazado_885970" data-name="Trazado 885970" d="M31.334,112.805a.733.733,0,0,0,1.02-.182L34.178,110a.733.733,0,0,0-1.2-.838l-1.825,2.619a.733.733,0,0,0,.182,1.02Z" transform="translate(-19.655 -68.972)" fill="#144735"/>
    <path id="Trazado_885971" data-name="Trazado 885971" d="M24.195,103.886a.732.732,0,0,0-.991-.3l-4.816,2.57a.733.733,0,0,0,.69,1.293l4.816-2.57a.733.733,0,0,0,.3-.991Z" transform="translate(-11.405 -65.578)" fill="#144735"/>
    <path id="Trazado_885972" data-name="Trazado 885972" d="M61.542,32.056a5.438,5.438,0,0,1-1.682-.027c.7,1.306,1.434,2.653,2.272,3.917a13.544,13.544,0,0,1,2.287,8.106c-.02.34-.121,1.936-.148,2.252s-.115.645-.829.645c-.065,0-.13,0-.2-.008-.238-.019-.8-.065-.814-1.085,0-.211.019-.661.044-1.182.119-2.428.13-3.691-.124-4.295a21.408,21.408,0,0,0-1.695-3.057c-.125-.2-.252-.4-.377-.605a1.22,1.22,0,0,0-1.041-.675.994.994,0,0,0-.9.6c-.089.189-.165.348-.244.5-2.055,4.073-4.434,6.221-7.715,6.966-2.344.531-4.685,1.2-6.95,1.839l-.706.2a2.427,2.427,0,0,0-1.28,1.1c-.292.5-.615,1.081-.95,1.68-.684,1.224-1.392,2.49-1.973,3.369-.31.47-.7,1.009-.946,1.009a.878.878,0,0,1-.372-.12c-.6-.308-.854-.655-.444-1.6a67.341,67.341,0,0,1,3.915-7.259c.444-.743.7-1.026,1.27-1.134.861-.163,1.709-.388,2.53-.606l.307-.082a.979.979,0,0,0,.162-1.91c-1.913-.894-3.279-1.488-4.716-2.05l-.159-.054h-.138A47.461,47.461,0,0,0,34,40.593a2.293,2.293,0,0,1-.838.188.88.88,0,0,1-.885-.628c-.285-.7.309-1.139.857-1.38.588-.259,1.183-.505,1.777-.752,1.159-.48,2.357-.977,3.5-1.565a4.68,4.68,0,0,1,4.513-.019c1.259.593,2.544,1.1,3.786,1.58l.845.331a1.546,1.546,0,0,0,.567.107,1.568,1.568,0,0,0,1.4-.862l1.927-3.919a1.185,1.185,0,0,0-.014-1.168,1.142,1.142,0,0,0-1-.517c-.035,0-.07,0-.107,0l-.1.007c-.623.043-1.268.087-1.9.158A2.816,2.816,0,0,1,45.9,31.4c-.785-.736-1.6-1.462-2.381-2.165-.752-.673-1.528-1.368-2.275-2.067-.839-.785-.395-1.265-.228-1.445a.64.64,0,0,1,.492-.256,1.442,1.442,0,0,1,.849.421l.823.713c1.033.893,2.1,1.816,3.111,2.759a2.673,2.673,0,0,0,2.269.766c1.381-.144,2.764-.272,4.147-.4q1.658-.154,3.317-.318c-.014-.023-.03-.045-.043-.069a5.524,5.524,0,0,1-.557-1.345q-1.425.14-2.852.272c-1.389.129-2.777.258-4.163.4a1.212,1.212,0,0,1-1.117-.379c-1.03-.963-2.11-1.9-3.153-2.8l-.82-.71A2.777,2.777,0,0,0,41.505,24a2.111,2.111,0,0,0-1.567.726,2.348,2.348,0,0,0,.3,3.511c.758.709,1.542,1.41,2.3,2.088.778.7,1.583,1.417,2.355,2.141a4.246,4.246,0,0,0,3.591,1.149c.472-.052.941-.089,1.425-.123l-1.7,3.455c-.01.02-.049.042-.119.037l-.849-.333c-1.22-.476-2.481-.969-3.7-1.541a6.122,6.122,0,0,0-5.808.041c-1.09.561-2.26,1.046-3.392,1.515-.6.25-1.208.5-1.806.764-1.521.669-2.159,1.953-1.626,3.27.562,1.395,1.987,1.91,3.629,1.251,2.071-.834,4.648-1.8,5.322-1.974,1.046.413,2.071.85,3.335,1.427-.509.13-1.022.252-1.53.348a3.222,3.222,0,0,0-2.254,1.822,68.528,68.528,0,0,0-4,7.429A2.439,2.439,0,0,0,36.536,54.5a2.276,2.276,0,0,0,1.037.28c.985,0,1.588-.789,2.168-1.667.611-.924,1.332-2.214,2.029-3.462.331-.592.65-1.164.938-1.659a1.092,1.092,0,0,1,.413-.429l.706-.2c2.245-.638,4.568-1.3,6.873-1.82,4.722-1.072,7.092-4.586,8.623-7.583l.089.143A20.354,20.354,0,0,1,61,40.944a2.518,2.518,0,0,1,.08.642H59.836a.733.733,0,0,0-.733.733v2.862H54.622a.733.733,0,0,0-.733.733v3.1H48.437a.733.733,0,0,0-.733.733V52.61H42.859a.733.733,0,0,0-.733.733v3.222H37.038a.733.733,0,0,0-.733.733v3.341H30.732a.733.733,0,0,0,0,1.465h6.306a.733.733,0,0,0,.733-.733V58.03h5.088a.733.733,0,0,0,.733-.733V54.075h4.846a.733.733,0,0,0,.733-.733V50.481h5.452a.733.733,0,0,0,.733-.733v-3.1h4.482a.733.733,0,0,0,.733-.733V43.052h.505c-.017.59-.045,1.171-.064,1.55-.028.569-.05,1.019-.045,1.278A2.307,2.307,0,0,0,63.126,48.4c.106.009.212.013.316.013a2.085,2.085,0,0,0,2.289-1.983c.031-.35.136-2.035.152-2.292a15.036,15.036,0,0,0-2.529-9c-.651-.981-1.242-2.034-1.811-3.079Z" transform="translate(-19.008 -15.207)" fill="#144735"/>
    <path id="Trazado_885973" data-name="Trazado 885973" d="M106.4,19a4.551,4.551,0,0,0-.757.064,4.335,4.335,0,0,0-3.584,5.04,4.44,4.44,0,0,0,4.335,3.69A4.4,4.4,0,1,0,106.4,19Zm2.368,6.079a2.913,2.913,0,0,1-1.916,1.212,2.874,2.874,0,0,1-.458.037,2.961,2.961,0,0,1-2.889-2.464,2.884,2.884,0,0,1,2.382-3.355,3.079,3.079,0,0,1,.513-.043,2.9,2.9,0,0,1,2.368,4.613Z" transform="translate(-64.629 -12.039)" fill="#144735"/>
    <path id="Trazado_885974" data-name="Trazado 885974" d="M46.164,1.465a.733.733,0,0,0,0-1.465H3.656A3.664,3.664,0,0,0,0,3.664v42.5a.733.733,0,0,0,1.465,0V3.664a2.2,2.2,0,0,1,2.19-2.2Z" fill="#144735"/>
    <path id="Trazado_885975" data-name="Trazado 885975" d="M21.189,18.595V14.2a2.2,2.2,0,0,0-2.2-2.2H10.2A2.2,2.2,0,0,0,8,14.2v4.4a2.2,2.2,0,0,0,2.2,2.2h8.793A2.2,2.2,0,0,0,21.189,18.595Zm-2.2.733h-3.3L19.724,14.6v4A.733.733,0,0,1,18.991,19.327ZM10.2,13.465h8.563l-3.7,4.339-1.555-2.34a.733.733,0,0,0-.539-.324.725.725,0,0,0-.591.213L9.465,18.287V14.2a.733.733,0,0,1,.733-.733Zm4.116,5.862H10.5l2.286-2.3Z" transform="translate(-5.069 -7.604)" fill="#144735"/>
  </g>
</svg>
