<svg xmlns="http://www.w3.org/2000/svg" width="41.355" height="45.896" viewBox="0 0 41.355 45.896">
  <g id="Grupo_1115747" data-name="Grupo 1115747" transform="translate(-11.559 -5.801)">
    <path id="Trazado_885984" data-name="Trazado 885984" d="M32.775,51.97H56.681a.591.591,0,0,0,.591-.591V48.607a4.919,4.919,0,0,0-2.8-4.432,3.583,3.583,0,1,0-4.24,0A4.939,4.939,0,0,0,47.8,46.758a3.722,3.722,0,0,0-1.141-.946,2.871,2.871,0,1,0-3.86,0,3.723,3.723,0,0,0-1.13.932,4.938,4.938,0,0,0-2.445-2.611,3.583,3.583,0,1,0-4.24,0,4.919,4.919,0,0,0-2.8,4.432v2.813a.591.591,0,0,0,.593.591ZM49.954,41.294a2.4,2.4,0,1,1,2.456,2.4c-.019,0-.037,0-.057,0s-.039,0-.057,0a2.4,2.4,0,0,1-2.343-2.4Zm-1.336,7.313A3.738,3.738,0,0,1,52.3,44.874l.057,0,.057,0a3.738,3.738,0,0,1,3.679,3.733v2.18H48.618ZM44.728,42a1.686,1.686,0,1,1,.042,3.373h-.084A1.686,1.686,0,1,1,44.728,42Zm-.192,4.555h.109c.028,0,.055,0,.084,0s.056,0,.084,0h.108a2.517,2.517,0,0,1,2.515,2.513v1.713H42.021V49.073a2.517,2.517,0,0,1,2.514-2.513ZM34.7,41.252a2.4,2.4,0,1,1,2.457,2.4l-.057,0-.057,0A2.4,2.4,0,0,1,34.7,41.252Zm-1.336,7.313a3.739,3.739,0,0,1,3.679-3.733c.019,0,.037,0,.057,0s.039,0,.057,0a3.739,3.739,0,0,1,3.679,3.733v2.222H33.366Z" transform="translate(-12.491 -19.299)" fill="#144735"/>
    <path id="Trazado_885985" data-name="Trazado 885985" d="M48.587,17.871l.012.01c1.7,1.321,2.657,1.982,3.607,1.982s1.9-.667,3.6-2l.008-.007c4.469-3.516,4.2-6.964,3.87-8.284a4.827,4.827,0,0,0-3.667-3.7A4.151,4.151,0,0,0,52.1,7.362a4.469,4.469,0,0,0-4.24-1.456,4.653,4.653,0,0,0-3.375,3.613C44.189,10.845,44,14.309,48.587,17.871Zm-2.95-8.1a3.47,3.47,0,0,1,2.484-2.716,3.556,3.556,0,0,1,3.535,1.593.584.584,0,0,0,.483.226.591.591,0,0,0,.468-.253A3.175,3.175,0,0,1,55.8,7.03a3.7,3.7,0,0,1,2.735,2.824c.572,2.32-.689,4.9-3.458,7.075l-.008.006c-1.505,1.183-2.256,1.751-2.865,1.752h0c-.606,0-1.361-.563-2.87-1.735l-.012-.01C45.26,13.795,45.392,10.881,45.637,9.775Z" transform="translate(-19.864)" fill="#144735"/>
    <path id="Trazado_885986" data-name="Trazado 885986" d="M58.4,21.988a.591.591,0,0,0,.836,0l3.045-3.045a.591.591,0,1,0-.836-.836l-2.626,2.627-1.126-1.126a.592.592,0,0,0-.837.836Z" transform="translate(-27.331 -7.349)" fill="#144735"/>
    <path id="Trazado_885987" data-name="Trazado 885987" d="M26.922,67.766l-2.027-.9-5.56-5.055c-.014-.013-.029-.023-.043-.035-.054-.047-.109-.093-.166-.135l-.015-.01a2.559,2.559,0,0,0-1.74-.48l-.647-6.173a2.589,2.589,0,0,0-5.165.27V65.437a6.351,6.351,0,0,0,2.1,4.712l4.631,4.171a3.036,3.036,0,0,1,1,2.255v2.91a.591.591,0,0,0,.591.591h9.994a.591.591,0,0,0,.591-.591V73.206a5.944,5.944,0,0,0-3.549-5.441Zm2.366,11.126H20.476V76.575a4.219,4.219,0,0,0-1.4-3.135l-4.631-4.17a5.168,5.168,0,0,1-1.707-3.833V55.252a1.406,1.406,0,0,1,2.805-.147l.674,6.443a2.606,2.606,0,0,0-.459.37,2.575,2.575,0,0,0,.037,3.643l5.14,5.033a.591.591,0,1,0,.828-.845l-5.14-5.034a1.392,1.392,0,0,1,.647-2.348c.037-.009.074-.014.111-.02s.076-.011.114-.014.079,0,.121,0,.071,0,.107.007a1.436,1.436,0,0,1,.164.024,1.408,1.408,0,0,1,.153.039.992.992,0,0,1,.1.039,1.429,1.429,0,0,1,.131.063c.026.014.051.028.076.044a1.423,1.423,0,0,1,.194.144l5.631,5.121s.007,0,.01.006a.6.6,0,0,0,.147.1l2.117.936a4.761,4.761,0,0,1,2.842,4.358Z" transform="translate(0 -28.38)" fill="#144735"/>
    <path id="Trazado_885988" data-name="Trazado 885988" d="M86.634,53.436A2.591,2.591,0,0,0,82.226,55l-.647,6.171a2.563,2.563,0,0,0-1.966.661l-5.557,5.055-2.026.9a5.944,5.944,0,0,0-3.549,5.441V79.5a.591.591,0,0,0,.591.591h9.994a.591.591,0,0,0,.591-.591v-2.91a3.036,3.036,0,0,1,1.005-2.256l4.63-4.17a6.351,6.351,0,0,0,2.1-4.712V55.266A2.572,2.572,0,0,0,86.634,53.436Zm-.425,12.015A5.168,5.168,0,0,1,84.5,69.284l-4.629,4.169a4.221,4.221,0,0,0-1.4,3.136v2.318H69.664V73.22a4.761,4.761,0,0,1,2.843-4.358l2.115-.935a.6.6,0,0,0,.147-.1l.01-.006,1.5-1.363L80.41,62.7l.009-.007a1.439,1.439,0,0,1,.183-.137c.025-.016.051-.03.079-.045a1.439,1.439,0,0,1,.132-.063c.031-.013.062-.027.093-.037a1.415,1.415,0,0,1,.179-.047c.043-.008.088-.013.132-.017s.079-.007.118-.007a1,1,0,0,1,.114,0c.038,0,.082.008.123.015s.07.01.1.018a1.392,1.392,0,0,1,.648,2.349l-5.142,5.034a.591.591,0,1,0,.828.845l5.139-5.033a2.575,2.575,0,0,0,.039-3.643,2.606,2.606,0,0,0-.459-.37l.674-6.443a1.406,1.406,0,0,1,2.805.147Z" transform="translate(-34.478 -28.394)" fill="#144735"/>
  </g>
</svg>
